<?xml version="1.0" encoding="UTF-8" standalone="no"?>
<!-- Created by Syntax-Trax http://kevinpt.github.io/syntax-trax -->
<svg xmlns="http://www.w3.org/2000/svg"
xmlns:xlink="http://www.w3.org/1999/xlink"
xml:space="preserve"
width="288" height="117" version="1.1">
<style type="text/css">
<![CDATA[
.charclass_font {fill:#000000; text-anchor:middle;
    font-family:Sans; font-size:16pt; font-weight:bold; font-style:normal;}
.negative_font {fill:#000000; text-anchor:middle;
    font-family:Times; font-size:14pt; font-weight:normal; font-style:italic;}
.non-terminal_font {fill:#000000; text-anchor:middle;
    font-family:Times; font-size:14pt; font-weight:normal; font-style:italic;}
.space_font {fill:#000000; text-anchor:middle;
    font-family:Sans; font-size:10pt; font-weight:normal; font-style:normal;}
.token_font {fill:#000000; text-anchor:middle;
    font-family:Sans; font-size:16pt; font-weight:bold; font-style:normal;}
.definitive_font {fill:#000000; text-anchor:middle;
    font-family:Times; font-size:14pt; font-weight:normal; font-style:italic;}
.hash_font {fill:#000000; text-anchor:middle;
    font-family:Times; font-size:14pt; font-weight:normal; font-style:italic;}
.title_font {fill:#000000; text-anchor:middle;
    font-family:Sans; font-size:18pt; font-weight:normal; font-style:italic;}
.label {fill:#000;
  text-anchor:middle;
  font-size:16pt; font-weight:bold; font-family:Sans;}
.link {fill: #0D47A1;}
.link:hover {fill: #0D47A1; text-decoration:underline;}
.link:visited {fill: #4A148C;}
]]>
</style>
<defs>
  <marker id="arrow" markerWidth="5" markerHeight="4" refX="2.5" refY="2" orient="auto" markerUnits="strokeWidth">
    <path d="M0,0 L0.5,2 L0,4 L4.5,2 z" fill="#323232" />
  </marker>
</defs>
<rect width="100%" height="100%" fill="white"/><circle cx="14.0" cy="66.0" r="3.0" fill="#623C47" stroke-width="2" stroke="#323232"/>
<line x1="88.0" y1="66.0" x2="89.0" y2="66.0" stroke-width="2" stroke="#323232" />
<rect x="64.0" y="76.0" width="51.0" height="30.0" fill="#C8FAC8" stroke-width="2" stroke="#323232"/>
<text class="hash_font" x="89.5" y="98.0">value</text>
<line x1="29.0" y1="66.0" x2="84.0" y2="66.0" stroke-width="2" stroke="#323232" marker-end="url(#arrow)" />
<line x1="89.0" y1="66.0" x2="151.0" y2="66.0" stroke-width="2" stroke="#323232" />
<path d="M41.0,78.0 A12.0,12.0 0 0,0 29.0,66.0" fill="none" stroke-width="2" stroke="#323232"/>
<line x1="53.0" y1="90.0" x2="59.0" y2="90.0" stroke-width="2" stroke="#323232" marker-end="url(#arrow)" />
<line x1="116.0" y1="90.0" x2="122.0" y2="90.0" stroke-width="2" stroke="#323232" marker-end="url(#arrow)" />
<path d="M41.0,78.0 A12.0,12.0 0 0,0 53.0,90.0" fill="none" stroke-width="2" stroke="#323232"/>
<path d="M126.0,90.0 A12.0,12.0 0 0,0 138.0,78.0" fill="none" stroke-width="2" stroke="#323232"/>
<path d="M150.0,66.0 A12.0,12.0 0 0,0 138.0,78.0" fill="none" stroke-width="2" stroke="#323232"/>
<line x1="41.0" y1="78.0" x2="41.0" y2="78.0" stroke-width="2" stroke="#323232" />
<line x1="138.0" y1="78.0" x2="138.0" y2="78.0" stroke-width="2" stroke="#323232" />
<circle cx="178.0" cy="67.0" r="15.0" fill="#DCDCDC" stroke-width="2" stroke="#323232"/>
<text class="token_font" x="178.0" y="73.5">:</text>
<line x1="149.0" y1="66.0" x2="158.0" y2="66.0" stroke-width="2" stroke="#323232" marker-end="url(#arrow)" />
<rect x="207.0" y="52.0" width="51.0" height="30.0" fill="#FAC8C8" stroke-width="2" stroke="#323232"/>
<text class="definitive_font" x="232.5" y="74.0">value</text>
<line x1="193.0" y1="66.0" x2="202.0" y2="66.0" stroke-width="2" stroke="#323232" marker-end="url(#arrow)" />
<line x1="16.0" y1="66.0" x2="25.0" y2="66.0" stroke-width="2" stroke="#323232" marker-end="url(#arrow)" />
<circle cx="274.0" cy="66.0" r="3.0" fill="#623C47" stroke-width="2" stroke="#323232"/>
<line x1="258.0" y1="66.0" x2="267.0" y2="66.0" stroke-width="2" stroke="#323232" marker-end="url(#arrow)" />
<text class="title_font" x="143.0" y="29.0">association</text>
</svg>