<?xml version="1.0" encoding="UTF-8" standalone="no"?>
<!-- Created by Syntax-Trax http://kevinpt.github.io/syntax-trax -->
<svg xmlns="http://www.w3.org/2000/svg"
xmlns:xlink="http://www.w3.org/1999/xlink"
xml:space="preserve"
width="286" height="96" version="1.1">
<style type="text/css">
<![CDATA[
.bubble_font {fill:#000000; text-anchor:middle;
    font-family:Sans; font-size:14pt; font-weight:bold; font-style:normal;}
.title_font {fill:#000000; text-anchor:middle;
    font-family:Sans; font-size:18pt; font-weight:normal; font-style:italic;}
.token_font {fill:#000000; text-anchor:middle;
    font-family:Sans; font-size:16pt; font-weight:bold; font-style:normal;}
.charclass_font {fill:#000000; text-anchor:middle;
    font-family:Sans; font-size:16pt; font-weight:bold; font-style:normal;}
.box_font {fill:#000000; text-anchor:middle;
    font-family:Times; font-size:14pt; font-weight:normal; font-style:italic;}
.label {fill:#000;
  text-anchor:middle;
  font-size:16pt; font-weight:bold; font-family:Sans;}
.link {fill: #0D47A1;}
.link:hover {fill: #0D47A1; text-decoration:underline;}
.link:visited {fill: #4A148C;}
]]>
</style>
<defs>
  <marker id="arrow" markerWidth="5" markerHeight="4" refX="2.5" refY="2" orient="auto" markerUnits="strokeWidth">
    <path d="M0,0 L0.5,2 L0,4 L4.5,2 z" fill="#000000" />
  </marker>
</defs>
<rect width="100%" height="100%" fill="white"/><rect x="61.0" y="65.5" width="51.0" height="28.0" fill-opacity="0.4980392156862745" stroke="none" fill="#000000"/>
<circle cx="174.0" cy="60.0" r="15.0" fill-opacity="0.4980392156862745" stroke="none" fill="#000000"/>
<rect x="208.0" y="46.0" width="51.0" height="28.0" fill-opacity="0.4980392156862745" stroke="none" fill="#000000"/>
<circle cx="9.0" cy="56.0" r="3.0" stroke-width="2" stroke="#000000" fill="#FFFFFF"/>
<line x1="82.0" y1="56.0" x2="83.0" y2="56.0" stroke-width="2" stroke="#000000" />
<rect x="58.0" y="62.5" width="51.0" height="28.0" stroke-width="2" stroke="#000000" fill="#90A4AE"/>
<text class="box_font" x="83.5" y="83.0">value</text>
<line x1="29.0" y1="56.0" x2="78.0" y2="56.0" stroke-width="2" stroke="#000000" marker-end="url(#arrow)" />
<line x1="83.0" y1="56.0" x2="139.0" y2="56.0" stroke-width="2" stroke="#000000" />
<path d="M38.0,65.0 A9.0,9.0 0 0,0 29.0,56.0" stroke-width="2" stroke="#000000" fill="none"/>
<line x1="47.0" y1="75.5" x2="53.0" y2="75.5" stroke-width="2" stroke="#000000" marker-end="url(#arrow)" />
<line x1="110.0" y1="75.5" x2="116.0" y2="75.5" stroke-width="2" stroke="#000000" marker-end="url(#arrow)" />
<path d="M38.0,66.5 A9.0,9.0 0 0,0 47.0,75.5" stroke-width="2" stroke="#000000" fill="none"/>
<path d="M120.0,75.5 A9.0,9.0 0 0,0 129.0,66.5" stroke-width="2" stroke="#000000" fill="none"/>
<path d="M138.0,56.0 A9.0,9.0 0 0,0 129.0,65.0" stroke-width="2" stroke="#000000" fill="none"/>
<line x1="38.0" y1="66.5" x2="38.0" y2="65.0" stroke-width="2" stroke="#000000" />
<line x1="129.0" y1="66.5" x2="129.0" y2="65.0" stroke-width="2" stroke="#000000" />
<circle cx="171.0" cy="57.0" r="15.0" stroke-width="2" stroke="#000000" fill="#B3E5FC"/>
<text class="token_font" x="171.0" y="63.5">:</text>
<line x1="137.0" y1="56.0" x2="151.0" y2="56.0" stroke-width="2" stroke="#000000" marker-end="url(#arrow)" />
<rect x="205.0" y="43.0" width="51.0" height="28.0" stroke-width="2" stroke="#000000" fill="#90A4AE"/>
<text class="box_font" x="230.5" y="63.5">value</text>
<line x1="186.0" y1="56.0" x2="200.0" y2="56.0" stroke-width="2" stroke="#000000" marker-end="url(#arrow)" />
<line x1="11.0" y1="56.0" x2="25.0" y2="56.0" stroke-width="2" stroke="#000000" marker-end="url(#arrow)" />
<circle cx="277.0" cy="56.0" r="3.0" stroke-width="2" stroke="#000000" fill="#FFFFFF"/>
<line x1="256.0" y1="56.0" x2="270.0" y2="56.0" stroke-width="2" stroke="#000000" marker-end="url(#arrow)" />
<text class="title_font" x="142.0" y="24.0">association</text>
</svg>