<?xml version="1.0" encoding="UTF-8" standalone="no"?>
<!-- Created by Syntax-Trax http://kevinpt.github.io/syntax-trax -->
<svg xmlns="http://www.w3.org/2000/svg"
xmlns:xlink="http://www.w3.org/1999/xlink"
xml:space="preserve"
width="558" height="117" version="1.1">
<style type="text/css">
<![CDATA[
.charclass_font {fill:#000000; text-anchor:middle;
    font-family:Sans; font-size:16pt; font-weight:bold; font-style:normal;}
.definitive_font {fill:#000000; text-anchor:middle;
    font-family:Times; font-size:14pt; font-weight:normal; font-style:italic;}
.negative_font {fill:#000000; text-anchor:middle;
    font-family:Times; font-size:14pt; font-weight:normal; font-style:italic;}
.space_font {fill:#000000; text-anchor:middle;
    font-family:Sans; font-size:10pt; font-weight:normal; font-style:normal;}
.title_font {fill:#000000; text-anchor:middle;
    font-family:Sans; font-size:18pt; font-weight:normal; font-style:italic;}
.hash_font {fill:#000000; text-anchor:middle;
    font-family:Times; font-size:14pt; font-weight:normal; font-style:italic;}
.non-terminal_font {fill:#000000; text-anchor:middle;
    font-family:Times; font-size:14pt; font-weight:normal; font-style:italic;}
.token_font {fill:#000000; text-anchor:middle;
    font-family:Sans; font-size:16pt; font-weight:bold; font-style:normal;}
.label {fill:#000;
  text-anchor:middle;
  font-size:16pt; font-weight:bold; font-family:Sans;}
.link {fill: #0D47A1;}
.link:hover {fill: #0D47A1; text-decoration:underline;}
.link:visited {fill: #4A148C;}
]]>
</style>
<defs>
  <marker id="arrow" markerWidth="5" markerHeight="4" refX="2.5" refY="2" orient="auto" markerUnits="strokeWidth">
    <path d="M0,0 L0.5,2 L0,4 L4.5,2 z" fill="#323232" />
  </marker>
</defs>
<rect width="100%" height="100%" fill="white"/><circle cx="14.0" cy="66.0" r="3.0" fill="#623C47" stroke-width="2" stroke="#323232"/>
<path d="M45.0,82.0 A15.0,15.0 0 0,1 45.0,52.0 H47.0 A15.0,15.0 0 0,1 47.0,82.0 z" fill="#DCDCDC" stroke-width="2" stroke="#323232"/>
<text class="token_font" x="46.0" y="73.5">[</text>
<line x1="148.0" y1="66.0" x2="149.0" y2="66.0" stroke-width="2" stroke="#323232" />
<rect x="110.0" y="76.0" width="79.0" height="30.0" fill="#FAFAFA" stroke-width="2" stroke="#323232"/>
<text class="non-terminal_font" x="149.5" y="98.0">left_wing</text>
<line x1="75.0" y1="66.0" x2="144.0" y2="66.0" stroke-width="2" stroke="#323232" marker-end="url(#arrow)" />
<line x1="149.0" y1="66.0" x2="225.0" y2="66.0" stroke-width="2" stroke="#323232" />
<path d="M87.0,78.0 A12.0,12.0 0 0,0 75.0,66.0" fill="none" stroke-width="2" stroke="#323232"/>
<line x1="99.0" y1="90.0" x2="105.0" y2="90.0" stroke-width="2" stroke="#323232" marker-end="url(#arrow)" />
<line x1="190.0" y1="90.0" x2="196.0" y2="90.0" stroke-width="2" stroke="#323232" marker-end="url(#arrow)" />
<path d="M87.0,78.0 A12.0,12.0 0 0,0 99.0,90.0" fill="none" stroke-width="2" stroke="#323232"/>
<path d="M200.0,90.0 A12.0,12.0 0 0,0 212.0,78.0" fill="none" stroke-width="2" stroke="#323232"/>
<path d="M224.0,66.0 A12.0,12.0 0 0,0 212.0,78.0" fill="none" stroke-width="2" stroke="#323232"/>
<line x1="87.0" y1="78.0" x2="87.0" y2="78.0" stroke-width="2" stroke="#323232" />
<line x1="212.0" y1="78.0" x2="212.0" y2="78.0" stroke-width="2" stroke="#323232" />
<line x1="62.0" y1="66.0" x2="71.0" y2="66.0" stroke-width="2" stroke="#323232" marker-end="url(#arrow)" />
<rect x="249.0" y="52.0" width="51.0" height="30.0" fill="#FAFAFA" stroke-width="2" stroke="#323232"/>
<text class="non-terminal_font" x="274.5" y="74.0">value</text>
<line x1="273.0" y1="90.0" x2="274.0" y2="90.0" stroke-width="2" stroke="#323232" />
<line x1="248.0" y1="90.0" x2="273.0" y2="90.0" stroke-width="2" stroke="#323232" />
<line x1="301.0" y1="90.0" x2="278.0" y2="90.0" stroke-width="2" stroke="#323232" marker-end="url(#arrow)" />
<line x1="236.0" y1="66.0" x2="248.0" y2="66.0" stroke-width="2" stroke="#323232" />
<path d="M248.0,66.0 A12.0,12.0 0 0,0 248.0,90.0" fill="none" stroke-width="2" stroke="#323232"/>
<path d="M301.0,90.0 A12.0,12.0 0 0,0 301.0,66.0" fill="none" stroke-width="2" stroke="#323232"/>
<line x1="301.0" y1="66.0" x2="310.0" y2="66.0" stroke-width="2" stroke="#323232" />
<line x1="223.0" y1="66.0" x2="232.0" y2="66.0" stroke-width="2" stroke="#323232" marker-end="url(#arrow)" />
<line x1="401.0" y1="66.0" x2="402.0" y2="66.0" stroke-width="2" stroke="#323232" />
<rect x="357.0" y="76.0" width="91.0" height="30.0" fill="#FAFAFA" stroke-width="2" stroke="#323232"/>
<text class="non-terminal_font" x="402.5" y="98.0">right_wing</text>
<line x1="322.0" y1="66.0" x2="397.0" y2="66.0" stroke-width="2" stroke="#323232" marker-end="url(#arrow)" />
<line x1="402.0" y1="66.0" x2="484.0" y2="66.0" stroke-width="2" stroke="#323232" />
<path d="M334.0,78.0 A12.0,12.0 0 0,0 322.0,66.0" fill="none" stroke-width="2" stroke="#323232"/>
<line x1="346.0" y1="90.0" x2="352.0" y2="90.0" stroke-width="2" stroke="#323232" marker-end="url(#arrow)" />
<line x1="449.0" y1="90.0" x2="455.0" y2="90.0" stroke-width="2" stroke="#323232" marker-end="url(#arrow)" />
<path d="M334.0,78.0 A12.0,12.0 0 0,0 346.0,90.0" fill="none" stroke-width="2" stroke="#323232"/>
<path d="M459.0,90.0 A12.0,12.0 0 0,0 471.0,78.0" fill="none" stroke-width="2" stroke="#323232"/>
<path d="M483.0,66.0 A12.0,12.0 0 0,0 471.0,78.0" fill="none" stroke-width="2" stroke="#323232"/>
<line x1="334.0" y1="78.0" x2="334.0" y2="78.0" stroke-width="2" stroke="#323232" />
<line x1="471.0" y1="78.0" x2="471.0" y2="78.0" stroke-width="2" stroke="#323232" />
<line x1="309.0" y1="66.0" x2="318.0" y2="66.0" stroke-width="2" stroke="#323232" marker-end="url(#arrow)" />
<path d="M511.0,82.0 A15.0,15.0 0 0,1 511.0,52.0 H513.0 A15.0,15.0 0 0,1 513.0,82.0 z" fill="#DCDCDC" stroke-width="2" stroke="#323232"/>
<text class="token_font" x="512.0" y="73.5">]</text>
<line x1="482.0" y1="66.0" x2="491.0" y2="66.0" stroke-width="2" stroke="#323232" marker-end="url(#arrow)" />
<line x1="16.0" y1="66.0" x2="25.0" y2="66.0" stroke-width="2" stroke="#323232" marker-end="url(#arrow)" />
<circle cx="544.0" cy="66.0" r="3.0" fill="#623C47" stroke-width="2" stroke="#323232"/>
<line x1="528.0" y1="66.0" x2="537.0" y2="66.0" stroke-width="2" stroke="#323232" marker-end="url(#arrow)" />
<text class="title_font" x="278.0" y="29.0">chain</text>
</svg>