<?xml version="1.0" encoding="UTF-8" standalone="no"?>
<!-- Created by Syntax-Trax http://kevinpt.github.io/syntax-trax -->
<svg xmlns="http://www.w3.org/2000/svg"
xmlns:xlink="http://www.w3.org/1999/xlink"
xml:space="preserve"
width="1491" height="157" version="1.1">
<style type="text/css">
<![CDATA[
.box_font {fill:#000000; text-anchor:middle;
    font-family:Times; font-size:14pt; font-weight:normal; font-style:italic;}
.title_font {fill:#000000; text-anchor:middle;
    font-family:Sans; font-size:22pt; font-weight:bold; font-style:normal;}
.bubble_font {fill:#000000; text-anchor:middle;
    font-family:Sans; font-size:14pt; font-weight:bold; font-style:normal;}
.token_font {fill:#000000; text-anchor:middle;
    font-family:Sans; font-size:16pt; font-weight:bold; font-style:normal;}
.label {fill:#000;
  text-anchor:middle;
  font-size:16pt; font-weight:bold; font-family:Sans;}
.link {fill: #0D47A1;}
.link:hover {fill: #0D47A1; text-decoration:underline;}
.link:visited {fill: #4A148C;}
]]>
</style>
<defs>
  <marker id="arrow" markerWidth="5" markerHeight="4" refX="2.5" refY="2" orient="auto" markerUnits="strokeWidth">
    <path d="M0,0 L0.5,2 L0,4 L4.5,2 z" fill="#000000" />
  </marker>
</defs>
<rect width="100%" height="100%" fill="white"/><path d="M76.0,59.0 A15.0,15.0 0 0,1 76.0,29.0 H86.0 A15.0,15.0 0 0,1 86.0,59.0 z" stroke="none" fill-opacity="0.498039215686" fill="#000000"/>
<circle cx="76.5" cy="80.0" r="15.0" stroke="none" fill-opacity="0.498039215686" fill="#000000"/>
<path d="M163.0,39.0 A15.0,15.0 0 0,1 163.0,9.0 H165.0 A15.0,15.0 0 0,1 165.0,39.0 z" stroke="none" fill-opacity="0.498039215686" fill="#000000"/>
<path d="M259.0,59.0 A15.0,15.0 0 0,1 259.0,29.0 H269.0 A15.0,15.0 0 0,1 269.0,59.0 z" stroke="none" fill-opacity="0.498039215686" fill="#000000"/>
<circle cx="259.5" cy="80.0" r="15.0" stroke="none" fill-opacity="0.498039215686" fill="#000000"/>
<rect x="359.0" y="29.0" width="26.0" height="28.0" stroke="none" fill-opacity="0.498039215686" fill="#000000"/>
<path d="M475.0,59.0 A15.0,15.0 0 0,1 475.0,29.0 H485.0 A15.0,15.0 0 0,1 485.0,59.0 z" stroke="none" fill-opacity="0.498039215686" fill="#000000"/>
<rect x="547.0" y="49.0" width="26.0" height="28.0" stroke="none" fill-opacity="0.498039215686" fill="#000000"/>
<path d="M562.0,113.0 A15.0,15.0 0 0,1 562.0,83.0 H565.0 A15.0,15.0 0 0,1 565.0,113.0 z" stroke="none" fill-opacity="0.498039215686" fill="#000000"/>
<circle cx="427.0" cy="139.0" r="15.0" stroke="none" fill-opacity="0.498039215686" fill="#000000"/>
<rect x="727.5" y="10.0" width="51.0" height="28.0" stroke="none" fill-opacity="0.498039215686" fill="#000000"/>
<circle cx="698.0" cy="64.0" r="15.0" stroke="none" fill-opacity="0.498039215686" fill="#000000"/>
<circle cx="747.0" cy="64.0" r="15.0" stroke="none" fill-opacity="0.498039215686" fill="#000000"/>
<path d="M794.0,77.0 A13.0,13.0 0 0,1 794.0,51.0 H810.0 A13.0,13.0 0 0,1 810.0,77.0 z" stroke="none" fill-opacity="0.498039215686" fill="#000000"/>
<rect x="924.0" y="49.0" width="26.0" height="28.0" stroke="none" fill-opacity="0.498039215686" fill="#000000"/>
<path d="M939.0,113.0 A15.0,15.0 0 0,1 939.0,83.0 H942.0 A15.0,15.0 0 0,1 942.0,113.0 z" stroke="none" fill-opacity="0.498039215686" fill="#000000"/>
<path d="M1019.0,59.0 A15.0,15.0 0 0,1 1019.0,29.0 H1029.0 A15.0,15.0 0 0,1 1029.0,59.0 z" stroke="none" fill-opacity="0.498039215686" fill="#000000"/>
<rect x="1120.0" y="29.0" width="26.0" height="28.0" stroke="none" fill-opacity="0.498039215686" fill="#000000"/>
<path d="M1236.0,59.0 A15.0,15.0 0 0,1 1236.0,29.0 H1246.0 A15.0,15.0 0 0,1 1246.0,59.0 z" stroke="none" fill-opacity="0.498039215686" fill="#000000"/>
<circle cx="1236.5" cy="80.0" r="15.0" stroke="none" fill-opacity="0.498039215686" fill="#000000"/>
<circle cx="1078.5" cy="139.0" r="15.0" stroke="none" fill-opacity="0.498039215686" fill="#000000"/>
<path d="M1332.0,39.0 A15.0,15.0 0 0,1 1332.0,9.0 H1334.0 A15.0,15.0 0 0,1 1334.0,39.0 z" stroke="none" fill-opacity="0.498039215686" fill="#000000"/>
<path d="M1411.0,59.0 A15.0,15.0 0 0,1 1411.0,29.0 H1421.0 A15.0,15.0 0 0,1 1421.0,59.0 z" stroke="none" fill-opacity="0.498039215686" fill="#000000"/>
<circle cx="1411.5" cy="80.0" r="15.0" stroke="none" fill-opacity="0.498039215686" fill="#000000"/>
<circle cx="9" cy="20.0" r="3" stroke="#000000" stroke-width="2" fill="#FFFFFF"/>
<line x1="76.5" y1="20.0" x2="77.5" y2="20.0" stroke="#000000" stroke-width="2" />
<path d="M73.0,56.0 A15.0,15.0 0 0,1 73.0,26.0 H83.0 A15.0,15.0 0 0,1 83.0,56.0 z" stroke="#000000" stroke-width="2" fill="#B3E5FC"/>
<text class="token_font" x="78.0" y="47.5">+</text>
<circle cx="73.5" cy="77.0" r="15.0" stroke="#000000" stroke-width="2" fill="#B3E5FC"/>
<text class="token_font" x="73.5" y="83.5">-</text>
<line x1="29" y1="20.0" x2="72.5" y2="20.0" stroke="#000000" stroke-width="2" marker-end="url(#arrow)" />
<line x1="77.5" y1="20.0" x2="128.0" y2="20.0" stroke="#000000" stroke-width="2" />
<path d="M38.0,29.0 A9,9 0 0,0 29.0,20.0" stroke="#000000" stroke-width="2" fill="none"/>
<line x1="47" y1="40.0" x2="53.0" y2="40.0" stroke="#000000" stroke-width="2" marker-end="url(#arrow)" />
<line x1="99.0" y1="40.0" x2="105.0" y2="40.0" stroke="#000000" stroke-width="2" marker-end="url(#arrow)" />
<path d="M38.0,31.0 A9,9 0 0,0 47.0,40.0" stroke="#000000" stroke-width="2" fill="none"/>
<path d="M109.0,40.0 A9.0,9.0 0 0,0 118.0,31.0" stroke="#000000" stroke-width="2" fill="none"/>
<line x1="47" y1="76.0" x2="53.0" y2="76.0" stroke="#000000" stroke-width="2" marker-end="url(#arrow)" />
<line x1="90.0" y1="76.0" x2="105.0" y2="76.0" stroke="#000000" stroke-width="2" marker-end="url(#arrow)" />
<path d="M38.0,67.0 A9,9 0 0,0 47.0,76.0" stroke="#000000" stroke-width="2" fill="none"/>
<path d="M109.0,76.0 A9.0,9.0 0 0,0 118.0,67.0" stroke="#000000" stroke-width="2" fill="none"/>
<path d="M127.0,20.0 A9.0,9.0 0 0,0 118.0,29.0" stroke="#000000" stroke-width="2" fill="none"/>
<line x1="38" y1="67.0" x2="38" y2="29.0" stroke="#000000" stroke-width="2" />
<line x1="118.0" y1="67.0" x2="118.0" y2="29.0" stroke="#000000" stroke-width="2" />
<path d="M160.0,36.0 A15.0,15.0 0 0,1 160.0,6.0 H162.0 A15.0,15.0 0 0,1 162.0,36.0 z" stroke="#000000" stroke-width="2" fill="#B3E5FC"/>
<text class="token_font" x="161.0" y="27.5">[</text>
<line x1="126.0" y1="20.0" x2="140.0" y2="20.0" stroke="#000000" stroke-width="2" marker-end="url(#arrow)" />
<line x1="259.5" y1="20.0" x2="260.5" y2="20.0" stroke="#000000" stroke-width="2" />
<path d="M256.0,56.0 A15.0,15.0 0 0,1 256.0,26.0 H266.0 A15.0,15.0 0 0,1 266.0,56.0 z" stroke="#000000" stroke-width="2" fill="#B3E5FC"/>
<text class="token_font" x="261.0" y="47.5">+</text>
<circle cx="256.5" cy="77.0" r="15.0" stroke="#000000" stroke-width="2" fill="#B3E5FC"/>
<text class="token_font" x="256.5" y="83.5">-</text>
<line x1="212.0" y1="20.0" x2="255.5" y2="20.0" stroke="#000000" stroke-width="2" marker-end="url(#arrow)" />
<line x1="260.5" y1="20.0" x2="311.0" y2="20.0" stroke="#000000" stroke-width="2" />
<path d="M221.0,29.0 A9.0,9.0 0 0,0 212.0,20.0" stroke="#000000" stroke-width="2" fill="none"/>
<line x1="230.0" y1="40.0" x2="236.0" y2="40.0" stroke="#000000" stroke-width="2" marker-end="url(#arrow)" />
<line x1="282.0" y1="40.0" x2="288.0" y2="40.0" stroke="#000000" stroke-width="2" marker-end="url(#arrow)" />
<path d="M221.0,31.0 A9.0,9.0 0 0,0 230.0,40.0" stroke="#000000" stroke-width="2" fill="none"/>
<path d="M292.0,40.0 A9.0,9.0 0 0,0 301.0,31.0" stroke="#000000" stroke-width="2" fill="none"/>
<line x1="230.0" y1="76.0" x2="236.0" y2="76.0" stroke="#000000" stroke-width="2" marker-end="url(#arrow)" />
<line x1="273.0" y1="76.0" x2="288.0" y2="76.0" stroke="#000000" stroke-width="2" marker-end="url(#arrow)" />
<path d="M221.0,67.0 A9.0,9.0 0 0,0 230.0,76.0" stroke="#000000" stroke-width="2" fill="none"/>
<path d="M292.0,76.0 A9.0,9.0 0 0,0 301.0,67.0" stroke="#000000" stroke-width="2" fill="none"/>
<path d="M310.0,20.0 A9.0,9.0 0 0,0 301.0,29.0" stroke="#000000" stroke-width="2" fill="none"/>
<line x1="221.0" y1="67.0" x2="221.0" y2="29.0" stroke="#000000" stroke-width="2" />
<line x1="301.0" y1="67.0" x2="301.0" y2="29.0" stroke="#000000" stroke-width="2" />
<line x1="367.5" y1="20.0" x2="368.5" y2="20.0" stroke="#000000" stroke-width="2" />
<rect x="356.0" y="26.0" width="26.0" height="28.0" stroke="#000000" stroke-width="2" fill="#90A4AE"/>
<text class="box_font" x="369.0" y="46.5">id</text>
<line x1="327.0" y1="20.0" x2="363.5" y2="20.0" stroke="#000000" stroke-width="2" marker-end="url(#arrow)" />
<line x1="368.5" y1="20.0" x2="412.0" y2="20.0" stroke="#000000" stroke-width="2" />
<path d="M336.0,29.0 A9.0,9.0 0 0,0 327.0,20.0" stroke="#000000" stroke-width="2" fill="none"/>
<line x1="345.0" y1="39.0" x2="351.0" y2="39.0" stroke="#000000" stroke-width="2" marker-end="url(#arrow)" />
<line x1="383.0" y1="39.0" x2="389.0" y2="39.0" stroke="#000000" stroke-width="2" marker-end="url(#arrow)" />
<path d="M336.0,30.0 A9.0,9.0 0 0,0 345.0,39.0" stroke="#000000" stroke-width="2" fill="none"/>
<path d="M393.0,39.0 A9.0,9.0 0 0,0 402.0,30.0" stroke="#000000" stroke-width="2" fill="none"/>
<path d="M411.0,20.0 A9.0,9.0 0 0,0 402.0,29.0" stroke="#000000" stroke-width="2" fill="none"/>
<line x1="336.0" y1="30.0" x2="336.0" y2="29.0" stroke="#000000" stroke-width="2" />
<line x1="402.0" y1="30.0" x2="402.0" y2="29.0" stroke="#000000" stroke-width="2" />
<line x1="309.0" y1="20.0" x2="323.0" y2="20.0" stroke="#000000" stroke-width="2" marker-end="url(#arrow)" />
<line x1="530.5" y1="20.0" x2="531.5" y2="20.0" stroke="#000000" stroke-width="2" />
<path d="M472.0,56.0 A15.0,15.0 0 0,1 472.0,26.0 H482.0 A15.0,15.0 0 0,1 482.0,56.0 z" stroke="#000000" stroke-width="2" fill="#B3E5FC"/>
<text class="token_font" x="477.0" y="47.5">=</text>
<line x1="559.0" y1="40.0" x2="560.0" y2="40.0" stroke="#000000" stroke-width="2" />
<rect x="544.0" y="46.0" width="26.0" height="28.0" stroke="#000000" stroke-width="2" fill="#90A4AE"/>
<text class="box_font" x="557.0" y="66.5">id</text>
<path d="M559.0,110.0 A15.0,15.0 0 0,1 559.0,80.0 H562.0 A15.0,15.0 0 0,1 562.0,110.0 z" stroke="#000000" stroke-width="2" fill="#B3E5FC"/>
<text class="token_font" x="560.5" y="101.5">*</text>
<line x1="515.0" y1="40.0" x2="555.0" y2="40.0" stroke="#000000" stroke-width="2" marker-end="url(#arrow)" />
<line x1="560.0" y1="40.0" x2="607.0" y2="40.0" stroke="#000000" stroke-width="2" />
<path d="M524.0,49.0 A9.0,9.0 0 0,0 515.0,40.0" stroke="#000000" stroke-width="2" fill="none"/>
<line x1="533.0" y1="59.0" x2="539.0" y2="59.0" stroke="#000000" stroke-width="2" marker-end="url(#arrow)" />
<line x1="571.0" y1="59.0" x2="584.0" y2="59.0" stroke="#000000" stroke-width="2" marker-end="url(#arrow)" />
<path d="M524.0,50.0 A9.0,9.0 0 0,0 533.0,59.0" stroke="#000000" stroke-width="2" fill="none"/>
<path d="M588.0,59.0 A9.0,9.0 0 0,0 597.0,50.0" stroke="#000000" stroke-width="2" fill="none"/>
<line x1="533.0" y1="94.0" x2="539.0" y2="94.0" stroke="#000000" stroke-width="2" marker-end="url(#arrow)" />
<line x1="578.0" y1="94.0" x2="584.0" y2="94.0" stroke="#000000" stroke-width="2" marker-end="url(#arrow)" />
<path d="M524.0,85.0 A9.0,9.0 0 0,0 533.0,94.0" stroke="#000000" stroke-width="2" fill="none"/>
<path d="M588.0,94.0 A9.0,9.0 0 0,0 597.0,85.0" stroke="#000000" stroke-width="2" fill="none"/>
<path d="M606.0,40.0 A9.0,9.0 0 0,0 597.0,49.0" stroke="#000000" stroke-width="2" fill="none"/>
<line x1="524.0" y1="85.0" x2="524.0" y2="49.0" stroke="#000000" stroke-width="2" />
<line x1="597.0" y1="85.0" x2="597.0" y2="49.0" stroke="#000000" stroke-width="2" />
<line x1="497.0" y1="40.0" x2="511.0" y2="40.0" stroke="#000000" stroke-width="2" marker-end="url(#arrow)" />
<line x1="428.0" y1="20.0" x2="526.5" y2="20.0" stroke="#000000" stroke-width="2" marker-end="url(#arrow)" />
<line x1="531.5" y1="20.0" x2="637.0" y2="20.0" stroke="#000000" stroke-width="2" />
<path d="M437.0,29.0 A9.0,9.0 0 0,0 428.0,20.0" stroke="#000000" stroke-width="2" fill="none"/>
<line x1="446.0" y1="40.0" x2="452.0" y2="40.0" stroke="#000000" stroke-width="2" marker-end="url(#arrow)" />
<line x1="606.0" y1="40.0" x2="614.0" y2="40.0" stroke="#000000" stroke-width="2" marker-end="url(#arrow)" />
<path d="M437.0,31.0 A9.0,9.0 0 0,0 446.0,40.0" stroke="#000000" stroke-width="2" fill="none"/>
<path d="M618.0,40.0 A9.0,9.0 0 0,0 627.0,31.0" stroke="#000000" stroke-width="2" fill="none"/>
<path d="M636.0,20.0 A9.0,9.0 0 0,0 627.0,29.0" stroke="#000000" stroke-width="2" fill="none"/>
<line x1="437.0" y1="31.0" x2="437.0" y2="29.0" stroke="#000000" stroke-width="2" />
<line x1="627.0" y1="31.0" x2="627.0" y2="29.0" stroke="#000000" stroke-width="2" />
<line x1="410.0" y1="20.0" x2="424.0" y2="20.0" stroke="#000000" stroke-width="2" marker-end="url(#arrow)" />
<circle cx="424.0" cy="136.0" r="15.0" stroke="#000000" stroke-width="2" fill="#B3E5FC"/>
<text class="token_font" x="424.0" y="142.5"> </text>
<line x1="212.0" y1="135.0" x2="408.0" y2="135.0" stroke="#000000" stroke-width="2" />
<line x1="636.0" y1="135.0" x2="444.0" y2="135.0" stroke="#000000" stroke-width="2" marker-end="url(#arrow)" />
<line x1="195.0" y1="20.0" x2="212.0" y2="20.0" stroke="#000000" stroke-width="2" />
<path d="M212.0,20.0 A9.0,9.0 0 0,0 203.0,29.0" stroke="#000000" stroke-width="2" fill="none"/>
<line x1="203.0" y1="126.0" x2="203.0" y2="81.5" stroke="#000000" stroke-width="2" marker-end="url(#arrow)" />
<line x1="203.0" y1="77.5" x2="203.0" y2="29.0" stroke="#000000" stroke-width="2" />
<path d="M203.0,126.0 A9.0,9.0 0 0,0 212.0,135.0" stroke="#000000" stroke-width="2" fill="none"/>
<path d="M645.0,29.0 A9.0,9.0 0 0,0 636.0,20.0" stroke="#000000" stroke-width="2" fill="none"/>
<line x1="645.0" y1="29.0" x2="645.0" y2="73.5" stroke="#000000" stroke-width="2" marker-end="url(#arrow)" />
<line x1="645.0" y1="77.5" x2="645.0" y2="126.0" stroke="#000000" stroke-width="2" />
<path d="M636.0,135.0 A9.0,9.0 0 0,0 645.0,126.0" stroke="#000000" stroke-width="2" fill="none"/>
<line x1="636.0" y1="20.0" x2="645.0" y2="20.0" stroke="#000000" stroke-width="2" />
<line x1="177.0" y1="20.0" x2="191.0" y2="20.0" stroke="#000000" stroke-width="2" marker-end="url(#arrow)" />
<rect x="724.5" y="7.0" width="51.0" height="28.0" stroke="#000000" stroke-width="2" fill="#90A4AE"/>
<a xlink:href="#value" target="_parent">
  <text class="box_font link" x="750.0" y="27.5">value</text></a>
<circle cx="695.0" cy="61.0" r="15.0" stroke="#000000" stroke-width="2" fill="#B3E5FC"/>
<text class="token_font" x="695.0" y="67.5"> </text>
<circle cx="744.0" cy="61.0" r="15.0" stroke="#000000" stroke-width="2" fill="#B3E5FC"/>
<text class="token_font" x="744.0" y="67.5">|</text>
<line x1="728.0" y1="60.0" x2="715.0" y2="60.0" stroke="#000000" stroke-width="2" marker-end="url(#arrow)" />
<path d="M791.0,74.0 A13.0,13.0 0 0,1 791.0,48.0 H807.0 A13.0,13.0 0 0,1 807.0,74.0 z" stroke="#000000" stroke-width="2" fill="#B3E5FC"/>
<text class="bubble_font" x="799.0" y="67.0">or</text>
<line x1="777.0" y1="60.0" x2="764.0" y2="60.0" stroke="#000000" stroke-width="2" marker-end="url(#arrow)" />
<line x1="679.0" y1="20.0" x2="719.5" y2="20.0" stroke="#000000" stroke-width="2" marker-end="url(#arrow)" />
<line x1="776.5" y1="20.0" x2="821.0" y2="20.0" stroke="#000000" stroke-width="2" />
<line x1="662.0" y1="20.0" x2="679.0" y2="20.0" stroke="#000000" stroke-width="2" />
<path d="M679.0,20.0 A9.0,9.0 0 0,0 670.0,29.0" stroke="#000000" stroke-width="2" fill="none"/>
<line x1="670.0" y1="51.0" x2="670.0" y2="44.0" stroke="#000000" stroke-width="2" marker-end="url(#arrow)" />
<line x1="670.0" y1="40.0" x2="670.0" y2="29.0" stroke="#000000" stroke-width="2" />
<path d="M670.0,51.0 A9.0,9.0 0 0,0 679.0,60.0" stroke="#000000" stroke-width="2" fill="none"/>
<path d="M830.0,29.0 A9.0,9.0 0 0,0 821.0,20.0" stroke="#000000" stroke-width="2" fill="none"/>
<line x1="830.0" y1="29.0" x2="830.0" y2="36.0" stroke="#000000" stroke-width="2" marker-end="url(#arrow)" />
<line x1="830.0" y1="40.0" x2="830.0" y2="51.0" stroke="#000000" stroke-width="2" />
<path d="M821.0,60.0 A9.0,9.0 0 0,0 830.0,51.0" stroke="#000000" stroke-width="2" fill="none"/>
<line x1="821.0" y1="20.0" x2="830.0" y2="20.0" stroke="#000000" stroke-width="2" />
<line x1="644.0" y1="20.0" x2="658.0" y2="20.0" stroke="#000000" stroke-width="2" marker-end="url(#arrow)" />
<line x1="966.0" y1="20.0" x2="967.0" y2="20.0" stroke="#000000" stroke-width="2" />
<line x1="936.0" y1="40.0" x2="937.0" y2="40.0" stroke="#000000" stroke-width="2" />
<rect x="921.0" y="46.0" width="26.0" height="28.0" stroke="#000000" stroke-width="2" fill="#90A4AE"/>
<text class="box_font" x="934.0" y="66.5">id</text>
<path d="M936.0,110.0 A15.0,15.0 0 0,1 936.0,80.0 H939.0 A15.0,15.0 0 0,1 939.0,110.0 z" stroke="#000000" stroke-width="2" fill="#B3E5FC"/>
<text class="token_font" x="937.5" y="101.5">*</text>
<line x1="892.0" y1="40.0" x2="932.0" y2="40.0" stroke="#000000" stroke-width="2" marker-end="url(#arrow)" />
<line x1="937.0" y1="40.0" x2="984.0" y2="40.0" stroke="#000000" stroke-width="2" />
<path d="M901.0,49.0 A9.0,9.0 0 0,0 892.0,40.0" stroke="#000000" stroke-width="2" fill="none"/>
<line x1="910.0" y1="59.0" x2="916.0" y2="59.0" stroke="#000000" stroke-width="2" marker-end="url(#arrow)" />
<line x1="948.0" y1="59.0" x2="961.0" y2="59.0" stroke="#000000" stroke-width="2" marker-end="url(#arrow)" />
<path d="M901.0,50.0 A9.0,9.0 0 0,0 910.0,59.0" stroke="#000000" stroke-width="2" fill="none"/>
<path d="M965.0,59.0 A9.0,9.0 0 0,0 974.0,50.0" stroke="#000000" stroke-width="2" fill="none"/>
<line x1="910.0" y1="94.0" x2="916.0" y2="94.0" stroke="#000000" stroke-width="2" marker-end="url(#arrow)" />
<line x1="955.0" y1="94.0" x2="961.0" y2="94.0" stroke="#000000" stroke-width="2" marker-end="url(#arrow)" />
<path d="M901.0,85.0 A9.0,9.0 0 0,0 910.0,94.0" stroke="#000000" stroke-width="2" fill="none"/>
<path d="M965.0,94.0 A9.0,9.0 0 0,0 974.0,85.0" stroke="#000000" stroke-width="2" fill="none"/>
<path d="M983.0,40.0 A9.0,9.0 0 0,0 974.0,49.0" stroke="#000000" stroke-width="2" fill="none"/>
<line x1="901.0" y1="85.0" x2="901.0" y2="49.0" stroke="#000000" stroke-width="2" />
<line x1="974.0" y1="85.0" x2="974.0" y2="49.0" stroke="#000000" stroke-width="2" />
<path d="M1016.0,56.0 A15.0,15.0 0 0,1 1016.0,26.0 H1026.0 A15.0,15.0 0 0,1 1026.0,56.0 z" stroke="#000000" stroke-width="2" fill="#B3E5FC"/>
<text class="token_font" x="1021.0" y="47.5">=</text>
<line x1="982.0" y1="40.0" x2="996.0" y2="40.0" stroke="#000000" stroke-width="2" marker-end="url(#arrow)" />
<line x1="864.0" y1="20.0" x2="962.0" y2="20.0" stroke="#000000" stroke-width="2" marker-end="url(#arrow)" />
<line x1="967.0" y1="20.0" x2="1072.0" y2="20.0" stroke="#000000" stroke-width="2" />
<path d="M873.0,29.0 A9.0,9.0 0 0,0 864.0,20.0" stroke="#000000" stroke-width="2" fill="none"/>
<line x1="882.0" y1="40.0" x2="888.0" y2="40.0" stroke="#000000" stroke-width="2" marker-end="url(#arrow)" />
<line x1="1042.0" y1="40.0" x2="1049.0" y2="40.0" stroke="#000000" stroke-width="2" marker-end="url(#arrow)" />
<path d="M873.0,31.0 A9.0,9.0 0 0,0 882.0,40.0" stroke="#000000" stroke-width="2" fill="none"/>
<path d="M1053.0,40.0 A9.0,9.0 0 0,0 1062.0,31.0" stroke="#000000" stroke-width="2" fill="none"/>
<path d="M1071.0,20.0 A9.0,9.0 0 0,0 1062.0,29.0" stroke="#000000" stroke-width="2" fill="none"/>
<line x1="873.0" y1="31.0" x2="873.0" y2="29.0" stroke="#000000" stroke-width="2" />
<line x1="1062.0" y1="31.0" x2="1062.0" y2="29.0" stroke="#000000" stroke-width="2" />
<line x1="1128.5" y1="20.0" x2="1129.5" y2="20.0" stroke="#000000" stroke-width="2" />
<rect x="1117.0" y="26.0" width="26.0" height="28.0" stroke="#000000" stroke-width="2" fill="#90A4AE"/>
<text class="box_font" x="1130.0" y="46.5">id</text>
<line x1="1088.0" y1="20.0" x2="1124.5" y2="20.0" stroke="#000000" stroke-width="2" marker-end="url(#arrow)" />
<line x1="1129.5" y1="20.0" x2="1173.0" y2="20.0" stroke="#000000" stroke-width="2" />
<path d="M1097.0,29.0 A9.0,9.0 0 0,0 1088.0,20.0" stroke="#000000" stroke-width="2" fill="none"/>
<line x1="1106.0" y1="39.0" x2="1112.0" y2="39.0" stroke="#000000" stroke-width="2" marker-end="url(#arrow)" />
<line x1="1144.0" y1="39.0" x2="1150.0" y2="39.0" stroke="#000000" stroke-width="2" marker-end="url(#arrow)" />
<path d="M1097.0,30.0 A9.0,9.0 0 0,0 1106.0,39.0" stroke="#000000" stroke-width="2" fill="none"/>
<path d="M1154.0,39.0 A9.0,9.0 0 0,0 1163.0,30.0" stroke="#000000" stroke-width="2" fill="none"/>
<path d="M1172.0,20.0 A9.0,9.0 0 0,0 1163.0,29.0" stroke="#000000" stroke-width="2" fill="none"/>
<line x1="1097.0" y1="30.0" x2="1097.0" y2="29.0" stroke="#000000" stroke-width="2" />
<line x1="1163.0" y1="30.0" x2="1163.0" y2="29.0" stroke="#000000" stroke-width="2" />
<line x1="1070.0" y1="20.0" x2="1084.0" y2="20.0" stroke="#000000" stroke-width="2" marker-end="url(#arrow)" />
<line x1="1236.5" y1="20.0" x2="1237.5" y2="20.0" stroke="#000000" stroke-width="2" />
<path d="M1233.0,56.0 A15.0,15.0 0 0,1 1233.0,26.0 H1243.0 A15.0,15.0 0 0,1 1243.0,56.0 z" stroke="#000000" stroke-width="2" fill="#B3E5FC"/>
<text class="token_font" x="1238.0" y="47.5">+</text>
<circle cx="1233.5" cy="77.0" r="15.0" stroke="#000000" stroke-width="2" fill="#B3E5FC"/>
<text class="token_font" x="1233.5" y="83.5">-</text>
<line x1="1189.0" y1="20.0" x2="1232.5" y2="20.0" stroke="#000000" stroke-width="2" marker-end="url(#arrow)" />
<line x1="1237.5" y1="20.0" x2="1288.0" y2="20.0" stroke="#000000" stroke-width="2" />
<path d="M1198.0,29.0 A9.0,9.0 0 0,0 1189.0,20.0" stroke="#000000" stroke-width="2" fill="none"/>
<line x1="1207.0" y1="40.0" x2="1213.0" y2="40.0" stroke="#000000" stroke-width="2" marker-end="url(#arrow)" />
<line x1="1259.0" y1="40.0" x2="1265.0" y2="40.0" stroke="#000000" stroke-width="2" marker-end="url(#arrow)" />
<path d="M1198.0,31.0 A9.0,9.0 0 0,0 1207.0,40.0" stroke="#000000" stroke-width="2" fill="none"/>
<path d="M1269.0,40.0 A9.0,9.0 0 0,0 1278.0,31.0" stroke="#000000" stroke-width="2" fill="none"/>
<line x1="1207.0" y1="76.0" x2="1213.0" y2="76.0" stroke="#000000" stroke-width="2" marker-end="url(#arrow)" />
<line x1="1250.0" y1="76.0" x2="1265.0" y2="76.0" stroke="#000000" stroke-width="2" marker-end="url(#arrow)" />
<path d="M1198.0,67.0 A9.0,9.0 0 0,0 1207.0,76.0" stroke="#000000" stroke-width="2" fill="none"/>
<path d="M1269.0,76.0 A9.0,9.0 0 0,0 1278.0,67.0" stroke="#000000" stroke-width="2" fill="none"/>
<path d="M1287.0,20.0 A9.0,9.0 0 0,0 1278.0,29.0" stroke="#000000" stroke-width="2" fill="none"/>
<line x1="1198.0" y1="67.0" x2="1198.0" y2="29.0" stroke="#000000" stroke-width="2" />
<line x1="1278.0" y1="67.0" x2="1278.0" y2="29.0" stroke="#000000" stroke-width="2" />
<line x1="1171.0" y1="20.0" x2="1185.0" y2="20.0" stroke="#000000" stroke-width="2" marker-end="url(#arrow)" />
<circle cx="1075.5" cy="136.0" r="15.0" stroke="#000000" stroke-width="2" fill="#B3E5FC"/>
<text class="token_font" x="1075.5" y="142.5"> </text>
<line x1="864.0" y1="135.0" x2="1059.5" y2="135.0" stroke="#000000" stroke-width="2" />
<line x1="1287.0" y1="135.0" x2="1095.5" y2="135.0" stroke="#000000" stroke-width="2" marker-end="url(#arrow)" />
<line x1="847.0" y1="20.0" x2="864.0" y2="20.0" stroke="#000000" stroke-width="2" />
<path d="M864.0,20.0 A9.0,9.0 0 0,0 855.0,29.0" stroke="#000000" stroke-width="2" fill="none"/>
<line x1="855.0" y1="126.0" x2="855.0" y2="81.5" stroke="#000000" stroke-width="2" marker-end="url(#arrow)" />
<line x1="855.0" y1="77.5" x2="855.0" y2="29.0" stroke="#000000" stroke-width="2" />
<path d="M855.0,126.0 A9.0,9.0 0 0,0 864.0,135.0" stroke="#000000" stroke-width="2" fill="none"/>
<path d="M1296.0,29.0 A9.0,9.0 0 0,0 1287.0,20.0" stroke="#000000" stroke-width="2" fill="none"/>
<line x1="1296.0" y1="29.0" x2="1296.0" y2="73.5" stroke="#000000" stroke-width="2" marker-end="url(#arrow)" />
<line x1="1296.0" y1="77.5" x2="1296.0" y2="126.0" stroke="#000000" stroke-width="2" />
<path d="M1287.0,135.0 A9.0,9.0 0 0,0 1296.0,126.0" stroke="#000000" stroke-width="2" fill="none"/>
<line x1="1287.0" y1="20.0" x2="1296.0" y2="20.0" stroke="#000000" stroke-width="2" />
<line x1="829.0" y1="20.0" x2="843.0" y2="20.0" stroke="#000000" stroke-width="2" marker-end="url(#arrow)" />
<path d="M1329.0,36.0 A15.0,15.0 0 0,1 1329.0,6.0 H1331.0 A15.0,15.0 0 0,1 1331.0,36.0 z" stroke="#000000" stroke-width="2" fill="#B3E5FC"/>
<text class="token_font" x="1330.0" y="27.5">]</text>
<line x1="1295.0" y1="20.0" x2="1309.0" y2="20.0" stroke="#000000" stroke-width="2" marker-end="url(#arrow)" />
<line x1="1411.5" y1="20.0" x2="1412.5" y2="20.0" stroke="#000000" stroke-width="2" />
<path d="M1408.0,56.0 A15.0,15.0 0 0,1 1408.0,26.0 H1418.0 A15.0,15.0 0 0,1 1418.0,56.0 z" stroke="#000000" stroke-width="2" fill="#B3E5FC"/>
<text class="token_font" x="1413.0" y="47.5">+</text>
<circle cx="1408.5" cy="77.0" r="15.0" stroke="#000000" stroke-width="2" fill="#B3E5FC"/>
<text class="token_font" x="1408.5" y="83.5">-</text>
<line x1="1364.0" y1="20.0" x2="1407.5" y2="20.0" stroke="#000000" stroke-width="2" marker-end="url(#arrow)" />
<line x1="1412.5" y1="20.0" x2="1463.0" y2="20.0" stroke="#000000" stroke-width="2" />
<path d="M1373.0,29.0 A9.0,9.0 0 0,0 1364.0,20.0" stroke="#000000" stroke-width="2" fill="none"/>
<line x1="1382.0" y1="40.0" x2="1388.0" y2="40.0" stroke="#000000" stroke-width="2" marker-end="url(#arrow)" />
<line x1="1434.0" y1="40.0" x2="1440.0" y2="40.0" stroke="#000000" stroke-width="2" marker-end="url(#arrow)" />
<path d="M1373.0,31.0 A9.0,9.0 0 0,0 1382.0,40.0" stroke="#000000" stroke-width="2" fill="none"/>
<path d="M1444.0,40.0 A9.0,9.0 0 0,0 1453.0,31.0" stroke="#000000" stroke-width="2" fill="none"/>
<line x1="1382.0" y1="76.0" x2="1388.0" y2="76.0" stroke="#000000" stroke-width="2" marker-end="url(#arrow)" />
<line x1="1425.0" y1="76.0" x2="1440.0" y2="76.0" stroke="#000000" stroke-width="2" marker-end="url(#arrow)" />
<path d="M1373.0,67.0 A9.0,9.0 0 0,0 1382.0,76.0" stroke="#000000" stroke-width="2" fill="none"/>
<path d="M1444.0,76.0 A9.0,9.0 0 0,0 1453.0,67.0" stroke="#000000" stroke-width="2" fill="none"/>
<path d="M1462.0,20.0 A9.0,9.0 0 0,0 1453.0,29.0" stroke="#000000" stroke-width="2" fill="none"/>
<line x1="1373.0" y1="67.0" x2="1373.0" y2="29.0" stroke="#000000" stroke-width="2" />
<line x1="1453.0" y1="67.0" x2="1453.0" y2="29.0" stroke="#000000" stroke-width="2" />
<line x1="1346.0" y1="20.0" x2="1360.0" y2="20.0" stroke="#000000" stroke-width="2" marker-end="url(#arrow)" />
<line x1="11" y1="20.0" x2="25.0" y2="20.0" stroke="#000000" stroke-width="2" marker-end="url(#arrow)" />
<circle cx="1482.0" cy="20.0" r="3.0" stroke="#000000" stroke-width="2" fill="#FFFFFF"/>
<line x1="1461.0" y1="20.0" x2="1475.0" y2="20.0" stroke="#000000" stroke-width="2" marker-end="url(#arrow)" />
</svg>