<?xml version="1.0" encoding="UTF-8" standalone="no"?>
<!-- Created by Syntax-Trax http://kevinpt.github.io/syntax-trax -->
<svg xmlns="http://www.w3.org/2000/svg"
xmlns:xlink="http://www.w3.org/1999/xlink"
xml:space="preserve"
width="357" height="116" version="1.1">
<style type="text/css">
<![CDATA[
.hash_font {fill:#321432; text-anchor:middle;
    font-family:Times; font-size:14pt; font-weight:normal; font-style:italic;}
.definitive_font {fill:#321432; text-anchor:middle;
    font-family:Times; font-size:14pt; font-weight:normal; font-style:italic;}
.title_font {fill:#321432; text-anchor:middle;
    font-family:Sans; font-size:18pt; font-weight:normal; font-style:italic;}
.non-terminal_font {fill:#321432; text-anchor:middle;
    font-family:Times; font-size:14pt; font-weight:normal; font-style:italic;}
.negative_font {fill:#321432; text-anchor:middle;
    font-family:Times; font-size:14pt; font-weight:normal; font-style:italic;}
.charclass_font {fill:#321432; text-anchor:middle;
    font-family:Sans; font-size:16pt; font-weight:bold; font-style:normal;}
.space_font {fill:#321432; text-anchor:middle;
    font-family:Sans; font-size:3pt; font-weight:normal; font-style:normal;}
.token_font {fill:#321432; text-anchor:middle;
    font-family:Sans; font-size:16pt; font-weight:bold; font-style:normal;}
.label {fill:#000;
  text-anchor:middle;
  font-size:16pt; font-weight:bold; font-family:Sans;}
.link {fill: #0D47A1;}
.link:hover {fill: #0D47A1; text-decoration:underline;}
.link:visited {fill: #4A148C;}
]]>
</style>
<defs>
  <marker id="arrow" markerWidth="5" markerHeight="4" refX="2.5" refY="2" orient="auto" markerUnits="strokeWidth">
    <path d="M0,0 L0.5,2 L0,4 L4.5,2 z" fill="#323232" />
  </marker>
</defs>
<rect width="100%" height="100%" fill="white"/><circle cx="14" cy="66.0" r="3" stroke="#323232" stroke-width="2" fill="#623C47"/>
<rect x="30.0" y="53.0" width="51.0" height="28.0" stroke="#323232" stroke-width="2" fill="#C8C8FA"/>
<text class="negative_font" x="55.5" y="73.5">value</text>
<path d="M110.0,82.0 A15.0,15.0 0 0,1 110.0,52.0 H114.0 A15.0,15.0 0 0,1 114.0,82.0 z" stroke="#323232" stroke-width="2" fill="#DCDCDC"/>
<text class="token_font" x="112.0" y="73.5">?</text>
<line x1="81.0" y1="66.0" x2="90.0" y2="66.0" stroke="#323232" stroke-width="2" marker-end="url(#arrow)" />
<rect x="143.0" y="53.0" width="51.0" height="28.0" stroke="#323232" stroke-width="2" fill="#FAC8C8"/>
<text class="definitive_font" x="168.5" y="73.5">value</text>
<line x1="129.0" y1="66.0" x2="138.0" y2="66.0" stroke="#323232" stroke-width="2" marker-end="url(#arrow)" />
<line x1="266.0" y1="66.0" x2="267.0" y2="66.0" stroke="#323232" stroke-width="2" />
<rect x="242.0" y="77.0" width="51.0" height="28.0" stroke="#323232" stroke-width="2" fill="#FAC8C8"/>
<text class="definitive_font" x="267.5" y="97.5">value</text>
<line x1="207.0" y1="66.0" x2="262.0" y2="66.0" stroke="#323232" stroke-width="2" marker-end="url(#arrow)" />
<line x1="267.0" y1="66.0" x2="329.0" y2="66.0" stroke="#323232" stroke-width="2" />
<path d="M219.0,78.0 A12.0,12.0 0 0,0 207.0,66.0" stroke="#323232" stroke-width="2" fill="none"/>
<line x1="231.0" y1="90.0" x2="237.0" y2="90.0" stroke="#323232" stroke-width="2" marker-end="url(#arrow)" />
<line x1="294.0" y1="90.0" x2="300.0" y2="90.0" stroke="#323232" stroke-width="2" marker-end="url(#arrow)" />
<path d="M219.0,78.0 A12.0,12.0 0 0,0 231.0,90.0" stroke="#323232" stroke-width="2" fill="none"/>
<path d="M304.0,90.0 A12.0,12.0 0 0,0 316.0,78.0" stroke="#323232" stroke-width="2" fill="none"/>
<path d="M328.0,66.0 A12.0,12.0 0 0,0 316.0,78.0" stroke="#323232" stroke-width="2" fill="none"/>
<line x1="219.0" y1="78.0" x2="219.0" y2="78.0" stroke="#323232" stroke-width="2" />
<line x1="316.0" y1="78.0" x2="316.0" y2="78.0" stroke="#323232" stroke-width="2" />
<line x1="194.0" y1="66.0" x2="203.0" y2="66.0" stroke="#323232" stroke-width="2" marker-end="url(#arrow)" />
<line x1="16" y1="66.0" x2="25.0" y2="66.0" stroke="#323232" stroke-width="2" marker-end="url(#arrow)" />
<circle cx="343.0" cy="66.0" r="3.0" stroke="#323232" stroke-width="2" fill="#623C47"/>
<line x1="327.0" y1="66.0" x2="336.0" y2="66.0" stroke="#323232" stroke-width="2" marker-end="url(#arrow)" />
<text class="title_font" x="177.5" y="29.0">conditional</text>
</svg>