<?xml version="1.0" encoding="UTF-8" standalone="no"?>
<!-- Created by Syntax-Trax http://kevinpt.github.io/syntax-trax -->
<svg xmlns="http://www.w3.org/2000/svg"
xmlns:xlink="http://www.w3.org/1999/xlink"
xml:space="preserve"
width="360" height="96" version="1.1">
<style type="text/css">
<![CDATA[
.box_font {fill:#000000; text-anchor:middle;
    font-family:Times; font-size:14pt; font-weight:normal; font-style:italic;}
.charclass_font {fill:#000000; text-anchor:middle;
    font-family:Sans; font-size:16pt; font-weight:bold; font-style:normal;}
.title_font {fill:#000000; text-anchor:middle;
    font-family:Sans; font-size:18pt; font-weight:normal; font-style:italic;}
.bubble_font {fill:#000000; text-anchor:middle;
    font-family:Sans; font-size:14pt; font-weight:bold; font-style:normal;}
.token_font {fill:#000000; text-anchor:middle;
    font-family:Sans; font-size:16pt; font-weight:bold; font-style:normal;}
.label {fill:#000;
  text-anchor:middle;
  font-size:16pt; font-weight:bold; font-family:Sans;}
.link {fill: #0D47A1;}
.link:hover {fill: #0D47A1; text-decoration:underline;}
.link:visited {fill: #4A148C;}
]]>
</style>
<defs>
  <marker id="arrow" markerWidth="5" markerHeight="4" refX="2.5" refY="2" orient="auto" markerUnits="strokeWidth">
    <path d="M0,0 L0.5,2 L0,4 L4.5,2 z" fill="#000000" />
  </marker>
</defs>
<rect width="100%" height="100%" fill="white"/><rect x="33.0" y="46.0" width="51.0" height="28.0" stroke="none" fill-opacity="0.498039215686" fill="#000000"/>
<path d="M118.0,75.0 A15.0,15.0 0 0,1 118.0,45.0 H122.0 A15.0,15.0 0 0,1 122.0,75.0 z" stroke="none" fill-opacity="0.498039215686" fill="#000000"/>
<rect x="156.0" y="46.0" width="51.0" height="28.0" stroke="none" fill-opacity="0.498039215686" fill="#000000"/>
<rect x="254.0" y="65.0" width="51.0" height="28.0" stroke="none" fill-opacity="0.498039215686" fill="#000000"/>
<circle cx="9" cy="56.0" r="3" stroke="#000000" stroke-width="2" fill="#FFFFFF"/>
<rect x="30.0" y="43.0" width="51.0" height="28.0" stroke="#000000" stroke-width="2" fill="#90A4AE"/>
<text class="box_font" x="55.5" y="63.5">value</text>
<path d="M115.0,72.0 A15.0,15.0 0 0,1 115.0,42.0 H119.0 A15.0,15.0 0 0,1 119.0,72.0 z" stroke="#000000" stroke-width="2" fill="#B3E5FC"/>
<text class="token_font" x="117.0" y="63.5">?</text>
<line x1="81.0" y1="56.0" x2="95.0" y2="56.0" stroke="#000000" stroke-width="2" marker-end="url(#arrow)" />
<rect x="153.0" y="43.0" width="51.0" height="28.0" stroke="#000000" stroke-width="2" fill="#90A4AE"/>
<text class="box_font" x="178.5" y="63.5">value</text>
<line x1="134.0" y1="56.0" x2="148.0" y2="56.0" stroke="#000000" stroke-width="2" marker-end="url(#arrow)" />
<line x1="275.0" y1="56.0" x2="276.0" y2="56.0" stroke="#000000" stroke-width="2" />
<rect x="251.0" y="62.0" width="51.0" height="28.0" stroke="#000000" stroke-width="2" fill="#90A4AE"/>
<text class="box_font" x="276.5" y="82.5">value</text>
<line x1="222.0" y1="56.0" x2="271.0" y2="56.0" stroke="#000000" stroke-width="2" marker-end="url(#arrow)" />
<line x1="276.0" y1="56.0" x2="332.0" y2="56.0" stroke="#000000" stroke-width="2" />
<path d="M231.0,65.0 A9.0,9.0 0 0,0 222.0,56.0" stroke="#000000" stroke-width="2" fill="none"/>
<line x1="240.0" y1="75.0" x2="246.0" y2="75.0" stroke="#000000" stroke-width="2" marker-end="url(#arrow)" />
<line x1="303.0" y1="75.0" x2="309.0" y2="75.0" stroke="#000000" stroke-width="2" marker-end="url(#arrow)" />
<path d="M231.0,66.0 A9.0,9.0 0 0,0 240.0,75.0" stroke="#000000" stroke-width="2" fill="none"/>
<path d="M313.0,75.0 A9.0,9.0 0 0,0 322.0,66.0" stroke="#000000" stroke-width="2" fill="none"/>
<path d="M331.0,56.0 A9.0,9.0 0 0,0 322.0,65.0" stroke="#000000" stroke-width="2" fill="none"/>
<line x1="231.0" y1="66.0" x2="231.0" y2="65.0" stroke="#000000" stroke-width="2" />
<line x1="322.0" y1="66.0" x2="322.0" y2="65.0" stroke="#000000" stroke-width="2" />
<line x1="204.0" y1="56.0" x2="218.0" y2="56.0" stroke="#000000" stroke-width="2" marker-end="url(#arrow)" />
<line x1="11" y1="56.0" x2="25.0" y2="56.0" stroke="#000000" stroke-width="2" marker-end="url(#arrow)" />
<circle cx="351.0" cy="56.0" r="3.0" stroke="#000000" stroke-width="2" fill="#FFFFFF"/>
<line x1="330.0" y1="56.0" x2="344.0" y2="56.0" stroke="#000000" stroke-width="2" marker-end="url(#arrow)" />
<text class="title_font" x="179.0" y="24.0">conditional</text>
</svg>