<?xml version="1.0" encoding="UTF-8" standalone="no"?>
<!-- Created by Syntax-Trax http://kevinpt.github.io/syntax-trax -->
<svg xmlns="http://www.w3.org/2000/svg"
xmlns:xlink="http://www.w3.org/1999/xlink"
xml:space="preserve"
width="569" height="96" version="1.1">
<style type="text/css">
<![CDATA[
.box_font {fill:#000000; text-anchor:middle;
    font-family:Times; font-size:14pt; font-weight:normal; font-style:italic;}
.charclass_font {fill:#000000; text-anchor:middle;
    font-family:Sans; font-size:16pt; font-weight:bold; font-style:normal;}
.title_font {fill:#000000; text-anchor:middle;
    font-family:Sans; font-size:18pt; font-weight:normal; font-style:italic;}
.bubble_font {fill:#000000; text-anchor:middle;
    font-family:Sans; font-size:14pt; font-weight:bold; font-style:normal;}
.token_font {fill:#000000; text-anchor:middle;
    font-family:Sans; font-size:16pt; font-weight:bold; font-style:normal;}
.label {fill:#000;
  text-anchor:middle;
  font-size:16pt; font-weight:bold; font-family:Sans;}
.link {fill: #0D47A1;}
.link:hover {fill: #0D47A1; text-decoration:underline;}
.link:visited {fill: #4A148C;}
]]>
</style>
<defs>
  <marker id="arrow" markerWidth="5" markerHeight="4" refX="2.5" refY="2" orient="auto" markerUnits="strokeWidth">
    <path d="M0,0 L0.5,2 L0,4 L4.5,2 z" fill="#000000" />
  </marker>
</defs>
<rect width="100%" height="100%" fill="white"/><path d="M48.0,75.0 A15.0,15.0 0 0,1 48.0,45.0 H55.0 A15.0,15.0 0 0,1 55.0,75.0 z" stroke="none" fill-opacity="0.498039215686" fill="#000000"/>
<rect x="117.0" y="65.0" width="79.0" height="28.0" stroke="none" fill-opacity="0.498039215686" fill="#000000"/>
<rect x="260.0" y="46.0" width="51.0" height="28.0" stroke="none" fill-opacity="0.498039215686" fill="#000000"/>
<rect x="367.0" y="65.0" width="91.0" height="28.0" stroke="none" fill-opacity="0.498039215686" fill="#000000"/>
<path d="M520.0,75.0 A15.0,15.0 0 0,1 520.0,45.0 H527.0 A15.0,15.0 0 0,1 527.0,75.0 z" stroke="none" fill-opacity="0.498039215686" fill="#000000"/>
<circle cx="9" cy="56.0" r="3" stroke="#000000" stroke-width="2" fill="#FFFFFF"/>
<path d="M45.0,72.0 A15.0,15.0 0 0,1 45.0,42.0 H52.0 A15.0,15.0 0 0,1 52.0,72.0 z" stroke="#000000" stroke-width="2" fill="#B3E5FC"/>
<text class="token_font" x="48.5" y="63.5">{</text>
<line x1="152.0" y1="56.0" x2="153.0" y2="56.0" stroke="#000000" stroke-width="2" />
<rect x="114.0" y="62.0" width="79.0" height="28.0" stroke="#000000" stroke-width="2" fill="#90A4AE"/>
<text class="box_font" x="153.5" y="82.5">left_wing</text>
<line x1="85.0" y1="56.0" x2="148.0" y2="56.0" stroke="#000000" stroke-width="2" marker-end="url(#arrow)" />
<line x1="153.0" y1="56.0" x2="223.0" y2="56.0" stroke="#000000" stroke-width="2" />
<path d="M94.0,65.0 A9.0,9.0 0 0,0 85.0,56.0" stroke="#000000" stroke-width="2" fill="none"/>
<line x1="103.0" y1="75.0" x2="109.0" y2="75.0" stroke="#000000" stroke-width="2" marker-end="url(#arrow)" />
<line x1="194.0" y1="75.0" x2="200.0" y2="75.0" stroke="#000000" stroke-width="2" marker-end="url(#arrow)" />
<path d="M94.0,66.0 A9.0,9.0 0 0,0 103.0,75.0" stroke="#000000" stroke-width="2" fill="none"/>
<path d="M204.0,75.0 A9.0,9.0 0 0,0 213.0,66.0" stroke="#000000" stroke-width="2" fill="none"/>
<path d="M222.0,56.0 A9.0,9.0 0 0,0 213.0,65.0" stroke="#000000" stroke-width="2" fill="none"/>
<line x1="94.0" y1="66.0" x2="94.0" y2="65.0" stroke="#000000" stroke-width="2" />
<line x1="213.0" y1="66.0" x2="213.0" y2="65.0" stroke="#000000" stroke-width="2" />
<line x1="67.0" y1="56.0" x2="81.0" y2="56.0" stroke="#000000" stroke-width="2" marker-end="url(#arrow)" />
<rect x="257.0" y="43.0" width="51.0" height="28.0" stroke="#000000" stroke-width="2" fill="#90A4AE"/>
<text class="box_font" x="282.5" y="63.5">value</text>
<line x1="281.0" y1="77.0" x2="282.0" y2="77.0" stroke="#000000" stroke-width="2" />
<line x1="256.0" y1="77.0" x2="281.0" y2="77.0" stroke="#000000" stroke-width="2" />
<line x1="309.0" y1="77.0" x2="286.0" y2="77.0" stroke="#000000" stroke-width="2" marker-end="url(#arrow)" />
<line x1="239.0" y1="56.0" x2="256.0" y2="56.0" stroke="#000000" stroke-width="2" />
<path d="M256.0,56.0 A10.5,10.5 0 0,0 256.0,77.0" stroke="#000000" stroke-width="2" fill="none"/>
<path d="M309.0,77.0 A10.5,10.5 0 0,0 309.0,56.0" stroke="#000000" stroke-width="2" fill="none"/>
<line x1="309.0" y1="56.0" x2="318.0" y2="56.0" stroke="#000000" stroke-width="2" />
<line x1="221.0" y1="56.0" x2="235.0" y2="56.0" stroke="#000000" stroke-width="2" marker-end="url(#arrow)" />
<line x1="408.0" y1="56.0" x2="409.0" y2="56.0" stroke="#000000" stroke-width="2" />
<rect x="364.0" y="62.0" width="91.0" height="28.0" stroke="#000000" stroke-width="2" fill="#90A4AE"/>
<text class="box_font" x="409.5" y="82.5">right_wing</text>
<line x1="335.0" y1="56.0" x2="404.0" y2="56.0" stroke="#000000" stroke-width="2" marker-end="url(#arrow)" />
<line x1="409.0" y1="56.0" x2="485.0" y2="56.0" stroke="#000000" stroke-width="2" />
<path d="M344.0,65.0 A9.0,9.0 0 0,0 335.0,56.0" stroke="#000000" stroke-width="2" fill="none"/>
<line x1="353.0" y1="75.0" x2="359.0" y2="75.0" stroke="#000000" stroke-width="2" marker-end="url(#arrow)" />
<line x1="456.0" y1="75.0" x2="462.0" y2="75.0" stroke="#000000" stroke-width="2" marker-end="url(#arrow)" />
<path d="M344.0,66.0 A9.0,9.0 0 0,0 353.0,75.0" stroke="#000000" stroke-width="2" fill="none"/>
<path d="M466.0,75.0 A9.0,9.0 0 0,0 475.0,66.0" stroke="#000000" stroke-width="2" fill="none"/>
<path d="M484.0,56.0 A9.0,9.0 0 0,0 475.0,65.0" stroke="#000000" stroke-width="2" fill="none"/>
<line x1="344.0" y1="66.0" x2="344.0" y2="65.0" stroke="#000000" stroke-width="2" />
<line x1="475.0" y1="66.0" x2="475.0" y2="65.0" stroke="#000000" stroke-width="2" />
<line x1="317.0" y1="56.0" x2="331.0" y2="56.0" stroke="#000000" stroke-width="2" marker-end="url(#arrow)" />
<path d="M517.0,72.0 A15.0,15.0 0 0,1 517.0,42.0 H524.0 A15.0,15.0 0 0,1 524.0,72.0 z" stroke="#000000" stroke-width="2" fill="#B3E5FC"/>
<text class="token_font" x="520.5" y="63.5">}</text>
<line x1="483.0" y1="56.0" x2="497.0" y2="56.0" stroke="#000000" stroke-width="2" marker-end="url(#arrow)" />
<line x1="11" y1="56.0" x2="25.0" y2="56.0" stroke="#000000" stroke-width="2" marker-end="url(#arrow)" />
<circle cx="560.0" cy="56.0" r="3.0" stroke="#000000" stroke-width="2" fill="#FFFFFF"/>
<line x1="539.0" y1="56.0" x2="553.0" y2="56.0" stroke="#000000" stroke-width="2" marker-end="url(#arrow)" />
<text class="title_font" x="283.5" y="24.0">construct</text>
</svg>