<?xml version="1.0" encoding="UTF-8" standalone="no"?>
<!-- Created by Syntax-Trax http://kevinpt.github.io/syntax-trax -->
<svg xmlns="http://www.w3.org/2000/svg"
xmlns:xlink="http://www.w3.org/1999/xlink"
xml:space="preserve"
width="737" height="100" version="1.1">
<style type="text/css">
<![CDATA[
.box_font {fill:#000000; text-anchor:middle;
    font-family:Times; font-size:14pt; font-weight:normal; font-style:italic;}
.title_font {fill:#000000; text-anchor:middle;
    font-family:Sans; font-size:22pt; font-weight:bold; font-style:normal;}
.bubble_font {fill:#000000; text-anchor:middle;
    font-family:Sans; font-size:14pt; font-weight:bold; font-style:normal;}
.token_font {fill:#000000; text-anchor:middle;
    font-family:Sans; font-size:16pt; font-weight:bold; font-style:normal;}
.label {fill:#000;
  text-anchor:middle;
  font-size:16pt; font-weight:bold; font-family:Sans;}
.link {fill: #0D47A1;}
.link:hover {fill: #0D47A1; text-decoration:underline;}
.link:visited {fill: #4A148C;}
]]>
</style>
<defs>
  <marker id="arrow" markerWidth="5" markerHeight="4" refX="2.5" refY="2" orient="auto" markerUnits="strokeWidth">
    <path d="M0,0 L0.5,2 L0,4 L4.5,2 z" fill="#000000" />
  </marker>
</defs>
<rect width="100%" height="100%" fill="white"/><path d="M48.0,39.0 A15.0,15.0 0 0,1 48.0,9.0 H58.0 A15.0,15.0 0 0,1 58.0,39.0 z" stroke="none" fill-opacity="0.498039215686" fill="#000000"/>
<rect x="155.0" y="29.0" width="26.0" height="28.0" stroke="none" fill-opacity="0.498039215686" fill="#000000"/>
<path d="M288.0,59.0 A15.0,15.0 0 0,1 288.0,29.0 H298.0 A15.0,15.0 0 0,1 298.0,59.0 z" stroke="none" fill-opacity="0.498039215686" fill="#000000"/>
<rect x="332.0" y="30.0" width="26.0" height="28.0" stroke="none" fill-opacity="0.498039215686" fill="#000000"/>
<circle cx="429.0" cy="24.0" r="15.0" stroke="none" fill-opacity="0.498039215686" fill="#000000"/>
<rect x="463.0" y="10.0" width="51.0" height="28.0" stroke="none" fill-opacity="0.498039215686" fill="#000000"/>
<path d="M576.0,59.0 A15.0,15.0 0 0,1 576.0,29.0 H578.0 A15.0,15.0 0 0,1 578.0,59.0 z" stroke="none" fill-opacity="0.498039215686" fill="#000000"/>
<circle cx="375.5" cy="82.0" r="15.0" stroke="none" fill-opacity="0.498039215686" fill="#000000"/>
<path d="M685.0,39.0 A15.0,15.0 0 0,1 685.0,9.0 H695.0 A15.0,15.0 0 0,1 695.0,39.0 z" stroke="none" fill-opacity="0.498039215686" fill="#000000"/>
<circle cx="9" cy="20.0" r="3" stroke="#000000" stroke-width="2" fill="#FFFFFF"/>
<path d="M45.0,36.0 A15.0,15.0 0 0,1 45.0,6.0 H55.0 A15.0,15.0 0 0,1 55.0,36.0 z" stroke="#000000" stroke-width="2" fill="#B3E5FC"/>
<text class="token_font" x="50.0" y="27.5">&lt;</text>
<line x1="163.5" y1="20.0" x2="164.5" y2="20.0" stroke="#000000" stroke-width="2" />
<rect x="152.0" y="26.0" width="26.0" height="28.0" stroke="#000000" stroke-width="2" fill="#90A4AE"/>
<text class="box_font" x="165.0" y="46.5">id</text>
<line x1="123.0" y1="20.0" x2="159.5" y2="20.0" stroke="#000000" stroke-width="2" marker-end="url(#arrow)" />
<line x1="164.5" y1="20.0" x2="208.0" y2="20.0" stroke="#000000" stroke-width="2" />
<path d="M132.0,29.0 A9.0,9.0 0 0,0 123.0,20.0" stroke="#000000" stroke-width="2" fill="none"/>
<line x1="141.0" y1="39.0" x2="147.0" y2="39.0" stroke="#000000" stroke-width="2" marker-end="url(#arrow)" />
<line x1="179.0" y1="39.0" x2="185.0" y2="39.0" stroke="#000000" stroke-width="2" marker-end="url(#arrow)" />
<path d="M132.0,30.0 A9.0,9.0 0 0,0 141.0,39.0" stroke="#000000" stroke-width="2" fill="none"/>
<path d="M189.0,39.0 A9.0,9.0 0 0,0 198.0,30.0" stroke="#000000" stroke-width="2" fill="none"/>
<path d="M207.0,20.0 A9.0,9.0 0 0,0 198.0,29.0" stroke="#000000" stroke-width="2" fill="none"/>
<line x1="132.0" y1="30.0" x2="132.0" y2="29.0" stroke="#000000" stroke-width="2" />
<line x1="198.0" y1="30.0" x2="198.0" y2="29.0" stroke="#000000" stroke-width="2" />
<line x1="311.0" y1="20.0" x2="312.0" y2="20.0" stroke="#000000" stroke-width="2" />
<path d="M285.0,56.0 A15.0,15.0 0 0,1 285.0,26.0 H295.0 A15.0,15.0 0 0,1 295.0,56.0 z" stroke="#000000" stroke-width="2" fill="#B3E5FC"/>
<text class="token_font" x="290.0" y="47.5">#</text>
<rect x="329.0" y="27.0" width="26.0" height="28.0" stroke="#000000" stroke-width="2" fill="#90A4AE"/>
<text class="box_font" x="342.0" y="47.5">id</text>
<line x1="310.0" y1="40.0" x2="324.0" y2="40.0" stroke="#000000" stroke-width="2" marker-end="url(#arrow)" />
<line x1="241.0" y1="20.0" x2="307.0" y2="20.0" stroke="#000000" stroke-width="2" marker-end="url(#arrow)" />
<line x1="312.0" y1="20.0" x2="385.0" y2="20.0" stroke="#000000" stroke-width="2" />
<path d="M250.0,29.0 A9.0,9.0 0 0,0 241.0,20.0" stroke="#000000" stroke-width="2" fill="none"/>
<line x1="259.0" y1="40.0" x2="265.0" y2="40.0" stroke="#000000" stroke-width="2" marker-end="url(#arrow)" />
<line x1="356.0" y1="40.0" x2="362.0" y2="40.0" stroke="#000000" stroke-width="2" marker-end="url(#arrow)" />
<path d="M250.0,31.0 A9.0,9.0 0 0,0 259.0,40.0" stroke="#000000" stroke-width="2" fill="none"/>
<path d="M366.0,40.0 A9.0,9.0 0 0,0 375.0,31.0" stroke="#000000" stroke-width="2" fill="none"/>
<path d="M384.0,20.0 A9.0,9.0 0 0,0 375.0,29.0" stroke="#000000" stroke-width="2" fill="none"/>
<line x1="250.0" y1="31.0" x2="250.0" y2="29.0" stroke="#000000" stroke-width="2" />
<line x1="375.0" y1="31.0" x2="375.0" y2="29.0" stroke="#000000" stroke-width="2" />
<line x1="311.0" y1="62.0" x2="312.0" y2="62.0" stroke="#000000" stroke-width="2" />
<line x1="241.0" y1="62.0" x2="311.0" y2="62.0" stroke="#000000" stroke-width="2" />
<line x1="384.0" y1="62.0" x2="316.0" y2="62.0" stroke="#000000" stroke-width="2" marker-end="url(#arrow)" />
<line x1="224.0" y1="20.0" x2="241.0" y2="20.0" stroke="#000000" stroke-width="2" />
<path d="M241.0,20.0 A9.0,9.0 0 0,0 232.0,29.0" stroke="#000000" stroke-width="2" fill="none"/>
<line x1="232.0" y1="53.0" x2="232.0" y2="45.0" stroke="#000000" stroke-width="2" marker-end="url(#arrow)" />
<line x1="232.0" y1="41.0" x2="232.0" y2="29.0" stroke="#000000" stroke-width="2" />
<path d="M232.0,53.0 A9.0,9.0 0 0,0 241.0,62.0" stroke="#000000" stroke-width="2" fill="none"/>
<path d="M393.0,29.0 A9.0,9.0 0 0,0 384.0,20.0" stroke="#000000" stroke-width="2" fill="none"/>
<line x1="393.0" y1="29.0" x2="393.0" y2="37.0" stroke="#000000" stroke-width="2" marker-end="url(#arrow)" />
<line x1="393.0" y1="41.0" x2="393.0" y2="53.0" stroke="#000000" stroke-width="2" />
<path d="M384.0,62.0 A9.0,9.0 0 0,0 393.0,53.0" stroke="#000000" stroke-width="2" fill="none"/>
<line x1="384.0" y1="20.0" x2="393.0" y2="20.0" stroke="#000000" stroke-width="2" />
<line x1="206.0" y1="20.0" x2="220.0" y2="20.0" stroke="#000000" stroke-width="2" marker-end="url(#arrow)" />
<circle cx="426.0" cy="21.0" r="15.0" stroke="#000000" stroke-width="2" fill="#B3E5FC"/>
<text class="token_font" x="426.0" y="27.5">:</text>
<line x1="392.0" y1="20.0" x2="406.0" y2="20.0" stroke="#000000" stroke-width="2" marker-end="url(#arrow)" />
<rect x="460.0" y="7.0" width="51.0" height="28.0" stroke="#000000" stroke-width="2" fill="#90A4AE"/>
<a xlink:href="#value" target="_parent">
  <text class="box_font link" x="485.5" y="27.5">value</text></a>
<line x1="441.0" y1="20.0" x2="455.0" y2="20.0" stroke="#000000" stroke-width="2" marker-end="url(#arrow)" />
<line x1="572.5" y1="20.0" x2="573.5" y2="20.0" stroke="#000000" stroke-width="2" />
<path d="M573.0,56.0 A15.0,15.0 0 0,1 573.0,26.0 H575.0 A15.0,15.0 0 0,1 575.0,56.0 z" stroke="#000000" stroke-width="2" fill="#B3E5FC"/>
<text class="token_font" x="574.0" y="47.5">!</text>
<line x1="529.0" y1="20.0" x2="568.5" y2="20.0" stroke="#000000" stroke-width="2" marker-end="url(#arrow)" />
<line x1="573.5" y1="20.0" x2="620.0" y2="20.0" stroke="#000000" stroke-width="2" />
<path d="M538.0,29.0 A9.0,9.0 0 0,0 529.0,20.0" stroke="#000000" stroke-width="2" fill="none"/>
<line x1="547.0" y1="40.0" x2="553.0" y2="40.0" stroke="#000000" stroke-width="2" marker-end="url(#arrow)" />
<line x1="591.0" y1="40.0" x2="597.0" y2="40.0" stroke="#000000" stroke-width="2" marker-end="url(#arrow)" />
<path d="M538.0,31.0 A9.0,9.0 0 0,0 547.0,40.0" stroke="#000000" stroke-width="2" fill="none"/>
<path d="M601.0,40.0 A9.0,9.0 0 0,0 610.0,31.0" stroke="#000000" stroke-width="2" fill="none"/>
<path d="M619.0,20.0 A9.0,9.0 0 0,0 610.0,29.0" stroke="#000000" stroke-width="2" fill="none"/>
<line x1="538.0" y1="31.0" x2="538.0" y2="29.0" stroke="#000000" stroke-width="2" />
<line x1="610.0" y1="31.0" x2="610.0" y2="29.0" stroke="#000000" stroke-width="2" />
<line x1="511.0" y1="20.0" x2="525.0" y2="20.0" stroke="#000000" stroke-width="2" marker-end="url(#arrow)" />
<line x1="105.0" y1="20.0" x2="119.0" y2="20.0" stroke="#000000" stroke-width="2" marker-end="url(#arrow)" />
<line x1="619.0" y1="20.0" x2="641.0" y2="20.0" stroke="#000000" stroke-width="2" />
<path d="M114.0,29.0 A9.0,9.0 0 0,0 105.0,20.0" stroke="#000000" stroke-width="2" fill="none"/>
<circle cx="372.5" cy="79.0" r="15.0" stroke="#000000" stroke-width="2" fill="#B3E5FC"/>
<text class="token_font" x="372.5" y="85.5">,</text>
<line x1="105.0" y1="78.0" x2="356.5" y2="78.0" stroke="#000000" stroke-width="2" />
<line x1="640.0" y1="78.0" x2="392.5" y2="78.0" stroke="#000000" stroke-width="2" marker-end="url(#arrow)" />
<line x1="88.0" y1="20.0" x2="105.0" y2="20.0" stroke="#000000" stroke-width="2" />
<path d="M105.0,20.0 A9.0,9.0 0 0,0 96.0,29.0" stroke="#000000" stroke-width="2" fill="none"/>
<line x1="96.0" y1="69.0" x2="96.0" y2="53.0" stroke="#000000" stroke-width="2" marker-end="url(#arrow)" />
<line x1="96.0" y1="49.0" x2="96.0" y2="29.0" stroke="#000000" stroke-width="2" />
<path d="M96.0,69.0 A9.0,9.0 0 0,0 105.0,78.0" stroke="#000000" stroke-width="2" fill="none"/>
<path d="M649.0,29.0 A9.0,9.0 0 0,0 640.0,20.0" stroke="#000000" stroke-width="2" fill="none"/>
<line x1="649.0" y1="29.0" x2="649.0" y2="45.0" stroke="#000000" stroke-width="2" marker-end="url(#arrow)" />
<line x1="649.0" y1="49.0" x2="649.0" y2="69.0" stroke="#000000" stroke-width="2" />
<path d="M640.0,78.0 A9.0,9.0 0 0,0 649.0,69.0" stroke="#000000" stroke-width="2" fill="none"/>
<line x1="640.0" y1="20.0" x2="649.0" y2="20.0" stroke="#000000" stroke-width="2" />
<line x1="70.0" y1="20.0" x2="84.0" y2="20.0" stroke="#000000" stroke-width="2" marker-end="url(#arrow)" />
<path d="M682.0,36.0 A15.0,15.0 0 0,1 682.0,6.0 H692.0 A15.0,15.0 0 0,1 692.0,36.0 z" stroke="#000000" stroke-width="2" fill="#B3E5FC"/>
<text class="token_font" x="687.0" y="27.5">&gt;</text>
<line x1="648.0" y1="20.0" x2="662.0" y2="20.0" stroke="#000000" stroke-width="2" marker-end="url(#arrow)" />
<line x1="11" y1="20.0" x2="25.0" y2="20.0" stroke="#000000" stroke-width="2" marker-end="url(#arrow)" />
<circle cx="728.0" cy="20.0" r="3.0" stroke="#000000" stroke-width="2" fill="#FFFFFF"/>
<line x1="707.0" y1="20.0" x2="721.0" y2="20.0" stroke="#000000" stroke-width="2" marker-end="url(#arrow)" />
</svg>