<?xml version="1.0" encoding="UTF-8" standalone="no"?>
<!-- Created by Syntax-Trax http://kevinpt.github.io/syntax-trax -->
<svg xmlns="http://www.w3.org/2000/svg"
xmlns:xlink="http://www.w3.org/1999/xlink"
xml:space="preserve"
width="170" height="78" version="1.1">
<style type="text/css">
<![CDATA[
.box_font {fill:#000000; text-anchor:middle;
    font-family:Times; font-size:14pt; font-weight:normal; font-style:italic;}
.charclass_font {fill:#000000; text-anchor:middle;
    font-family:Sans; font-size:16pt; font-weight:bold; font-style:normal;}
.title_font {fill:#000000; text-anchor:middle;
    font-family:Sans; font-size:18pt; font-weight:normal; font-style:italic;}
.bubble_font {fill:#000000; text-anchor:middle;
    font-family:Sans; font-size:14pt; font-weight:bold; font-style:normal;}
.token_font {fill:#000000; text-anchor:middle;
    font-family:Sans; font-size:16pt; font-weight:bold; font-style:normal;}
.label {fill:#000;
  text-anchor:middle;
  font-size:16pt; font-weight:bold; font-family:Sans;}
.link {fill: #0D47A1;}
.link:hover {fill: #0D47A1; text-decoration:underline;}
.link:visited {fill: #4A148C;}
]]>
</style>
<defs>
  <marker id="arrow" markerWidth="5" markerHeight="4" refX="2.5" refY="2" orient="auto" markerUnits="strokeWidth">
    <path d="M0,0 L0.5,2 L0,4 L4.5,2 z" fill="#000000" />
  </marker>
</defs>
<rect width="100%" height="100%" fill="white"/><path d="M48.0,75.0 A15.0,15.0 0 0,1 48.0,45.0 H58.0 A15.0,15.0 0 0,1 58.0,75.0 z" stroke="none" fill-opacity="0.498039215686" fill="#000000"/>
<rect x="92.0" y="46.0" width="51.0" height="28.0" stroke="none" fill-opacity="0.498039215686" fill="#000000"/>
<circle cx="9" cy="56.0" r="3" stroke="#000000" stroke-width="2" fill="#FFFFFF"/>
<path d="M45.0,72.0 A15.0,15.0 0 0,1 45.0,42.0 H55.0 A15.0,15.0 0 0,1 55.0,72.0 z" stroke="#000000" stroke-width="2" fill="#B3E5FC"/>
<text class="token_font" x="50.0" y="63.5">^</text>
<rect x="89.0" y="43.0" width="51.0" height="28.0" stroke="#000000" stroke-width="2" fill="#90A4AE"/>
<text class="box_font" x="114.5" y="63.5">value</text>
<line x1="70.0" y1="56.0" x2="84.0" y2="56.0" stroke="#000000" stroke-width="2" marker-end="url(#arrow)" />
<line x1="11" y1="56.0" x2="25.0" y2="56.0" stroke="#000000" stroke-width="2" marker-end="url(#arrow)" />
<circle cx="161.0" cy="56.0" r="3.0" stroke="#000000" stroke-width="2" fill="#FFFFFF"/>
<line x1="140.0" y1="56.0" x2="154.0" y2="56.0" stroke="#000000" stroke-width="2" marker-end="url(#arrow)" />
<text class="title_font" x="84.0" y="24.0">field</text>
</svg>