<?xml version="1.0" encoding="UTF-8" standalone="no"?>
<!-- Created by Syntax-Trax http://kevinpt.github.io/syntax-trax -->
<svg xmlns="http://www.w3.org/2000/svg"
xmlns:xlink="http://www.w3.org/1999/xlink"
xml:space="preserve"
width="815" height="216" version="1.1">
<style type="text/css">
<![CDATA[
.hash_font {fill:#321432; text-anchor:middle;
    font-family:Times; font-size:14pt; font-weight:normal; font-style:italic;}
.definitive_font {fill:#321432; text-anchor:middle;
    font-family:Times; font-size:14pt; font-weight:normal; font-style:italic;}
.title_font {fill:#321432; text-anchor:middle;
    font-family:Sans; font-size:18pt; font-weight:normal; font-style:italic;}
.non-terminal_font {fill:#321432; text-anchor:middle;
    font-family:Times; font-size:14pt; font-weight:normal; font-style:italic;}
.negative_font {fill:#321432; text-anchor:middle;
    font-family:Times; font-size:14pt; font-weight:normal; font-style:italic;}
.charclass_font {fill:#321432; text-anchor:middle;
    font-family:Sans; font-size:16pt; font-weight:bold; font-style:normal;}
.space_font {fill:#321432; text-anchor:middle;
    font-family:Sans; font-size:3pt; font-weight:normal; font-style:normal;}
.token_font {fill:#321432; text-anchor:middle;
    font-family:Sans; font-size:16pt; font-weight:bold; font-style:normal;}
.label {fill:#000;
  text-anchor:middle;
  font-size:16pt; font-weight:bold; font-family:Sans;}
.link {fill: #0D47A1;}
.link:hover {fill: #0D47A1; text-decoration:underline;}
.link:visited {fill: #4A148C;}
]]>
</style>
<defs>
  <marker id="arrow" markerWidth="5" markerHeight="4" refX="2.5" refY="2" orient="auto" markerUnits="strokeWidth">
    <path d="M0,0 L0.5,2 L0,4 L4.5,2 z" fill="#323232" />
  </marker>
</defs>
<rect width="100%" height="100%" fill="white"/><circle cx="14" cy="66.0" r="3" stroke="#323232" stroke-width="2" fill="#623C47"/>
<line x1="87.5" y1="66.0" x2="88.5" y2="66.0" stroke="#323232" stroke-width="2" />
<rect x="76.0" y="77.0" width="26.0" height="28.0" stroke="#323232" stroke-width="2" fill="#FAFAFA"/>
<text class="non-terminal_font" x="89.0" y="97.5">id</text>
<line x1="41" y1="66.0" x2="83.5" y2="66.0" stroke="#323232" stroke-width="2" marker-end="url(#arrow)" />
<line x1="88.5" y1="66.0" x2="138.0" y2="66.0" stroke="#323232" stroke-width="2" />
<path d="M53.0,78.0 A12,12 0 0,0 41.0,66.0" stroke="#323232" stroke-width="2" fill="none"/>
<line x1="65" y1="90.0" x2="71.0" y2="90.0" stroke="#323232" stroke-width="2" marker-end="url(#arrow)" />
<line x1="103.0" y1="90.0" x2="109.0" y2="90.0" stroke="#323232" stroke-width="2" marker-end="url(#arrow)" />
<path d="M53.0,78.0 A12,12 0 0,0 65.0,90.0" stroke="#323232" stroke-width="2" fill="none"/>
<path d="M113.0,90.0 A12.0,12.0 0 0,0 125.0,78.0" stroke="#323232" stroke-width="2" fill="none"/>
<path d="M137.0,66.0 A12.0,12.0 0 0,0 125.0,78.0" stroke="#323232" stroke-width="2" fill="none"/>
<line x1="53" y1="78.0" x2="53" y2="78.0" stroke="#323232" stroke-width="2" />
<line x1="125.0" y1="78.0" x2="125.0" y2="78.0" stroke="#323232" stroke-width="2" />
<path d="M194.0,82.0 A15.0,15.0 0 0,1 194.0,52.0 H222.0 A15.0,15.0 0 0,1 222.0,82.0 z" stroke="#323232" stroke-width="2" fill="#DCDCDC"/>
<text class="token_font" x="208.0" y="73.5">&lt;=</text>
<path d="M199.0,120.0 A15.0,15.0 0 0,1 199.0,90.0 H217.0 A15.0,15.0 0 0,1 217.0,120.0 z" stroke="#323232" stroke-width="2" fill="#DCDCDC"/>
<text class="token_font" x="208.0" y="111.5">|=</text>
<line x1="149.0" y1="66.0" x2="174.0" y2="66.0" stroke="#323232" stroke-width="2" marker-end="url(#arrow)" />
<line x1="238.0" y1="66.0" x2="268.0" y2="66.0" stroke="#323232" stroke-width="2" />
<path d="M161.0,78.0 A12.0,12.0 0 0,0 149.0,66.0" stroke="#323232" stroke-width="2" fill="none"/>
<line x1="173.0" y1="104.0" x2="179.0" y2="104.0" stroke="#323232" stroke-width="2" marker-end="url(#arrow)" />
<line x1="233.0" y1="104.0" x2="239.0" y2="104.0" stroke="#323232" stroke-width="2" marker-end="url(#arrow)" />
<path d="M161.0,92.0 A12.0,12.0 0 0,0 173.0,104.0" stroke="#323232" stroke-width="2" fill="none"/>
<path d="M243.0,104.0 A12.0,12.0 0 0,0 255.0,92.0" stroke="#323232" stroke-width="2" fill="none"/>
<path d="M267.0,66.0 A12.0,12.0 0 0,0 255.0,78.0" stroke="#323232" stroke-width="2" fill="none"/>
<line x1="161.0" y1="92.0" x2="161.0" y2="78.0" stroke="#323232" stroke-width="2" />
<line x1="255.0" y1="92.0" x2="255.0" y2="78.0" stroke="#323232" stroke-width="2" />
<line x1="136.0" y1="66.0" x2="145.0" y2="66.0" stroke="#323232" stroke-width="2" marker-end="url(#arrow)" />
<rect x="314.0" y="53.0" width="51.0" height="28.0" stroke="#323232" stroke-width="2" fill="#FAFAFA"/>
<text class="non-terminal_font" x="339.5" y="73.5">value</text>
<path d="M353.0,119.0 A15.0,15.0 0 0,1 353.0,89.0 H367.0 A15.0,15.0 0 0,1 367.0,119.0 z" stroke="#323232" stroke-width="2" fill="#DCDCDC"/>
<text class="token_font" x="360.0" y="110.5"> / </text>
<line x1="358.5" y1="127.0" x2="359.5" y2="127.0" stroke="#323232" stroke-width="2" />
<line x1="313.0" y1="103.0" x2="333.0" y2="103.0" stroke="#323232" stroke-width="2" marker-end="url(#arrow)" />
<line x1="383.0" y1="103.0" x2="408.0" y2="103.0" stroke="#323232" stroke-width="2" />
<path d="M325.0,115.0 A12.0,12.0 0 0,0 313.0,103.0" stroke="#323232" stroke-width="2" fill="none"/>
<line x1="337.0" y1="127.0" x2="354.5" y2="127.0" stroke="#323232" stroke-width="2" marker-end="url(#arrow)" />
<line x1="359.5" y1="127.0" x2="379.0" y2="127.0" stroke="#323232" stroke-width="2" marker-end="url(#arrow)" />
<path d="M325.0,115.0 A12.0,12.0 0 0,0 337.0,127.0" stroke="#323232" stroke-width="2" fill="none"/>
<path d="M383.0,127.0 A12.0,12.0 0 0,0 395.0,115.0" stroke="#323232" stroke-width="2" fill="none"/>
<path d="M407.0,103.0 A12.0,12.0 0 0,0 395.0,115.0" stroke="#323232" stroke-width="2" fill="none"/>
<line x1="325.0" y1="115.0" x2="325.0" y2="115.0" stroke="#323232" stroke-width="2" />
<line x1="395.0" y1="115.0" x2="395.0" y2="115.0" stroke="#323232" stroke-width="2" />
<rect x="441.0" y="90.0" width="26.0" height="28.0" stroke="#323232" stroke-width="2" fill="#FAFAFA"/>
<text class="non-terminal_font" x="454.0" y="110.5">id</text>
<path d="M447.0,162.0 A15.0,15.0 0 0,1 447.0,132.0 H461.0 A15.0,15.0 0 0,1 461.0,162.0 z" stroke="#323232" stroke-width="2" fill="#DCDCDC"/>
<text class="token_font" x="454.0" y="153.5"> / </text>
<line x1="431.0" y1="103.0" x2="436.0" y2="103.0" stroke="#323232" stroke-width="2" marker-end="url(#arrow)" />
<line x1="468.0" y1="103.0" x2="477.0" y2="103.0" stroke="#323232" stroke-width="2" />
<line x1="419.0" y1="103.0" x2="431.0" y2="103.0" stroke="#323232" stroke-width="2" />
<path d="M431.0,103.0 A9.0,9.0 0 0,0 422.0,112.0" stroke="#323232" stroke-width="2" fill="none"/>
<line x1="422.0" y1="137.0" x2="422.0" y2="128.5" stroke="#323232" stroke-width="2" marker-end="url(#arrow)" />
<line x1="422.0" y1="124.5" x2="422.0" y2="112.0" stroke="#323232" stroke-width="2" />
<path d="M422.0,137.0 A9.0,9.0 0 0,0 431.0,146.0" stroke="#323232" stroke-width="2" fill="none"/>
<path d="M486.0,112.0 A9.0,9.0 0 0,0 477.0,103.0" stroke="#323232" stroke-width="2" fill="none"/>
<line x1="486.0" y1="112.0" x2="486.0" y2="120.5" stroke="#323232" stroke-width="2" marker-end="url(#arrow)" />
<line x1="486.0" y1="124.5" x2="486.0" y2="137.0" stroke="#323232" stroke-width="2" />
<path d="M477.0,146.0 A9.0,9.0 0 0,0 486.0,137.0" stroke="#323232" stroke-width="2" fill="none"/>
<line x1="477.0" y1="103.0" x2="486.0" y2="103.0" stroke="#323232" stroke-width="2" />
<line x1="406.0" y1="103.0" x2="415.0" y2="103.0" stroke="#323232" stroke-width="2" marker-end="url(#arrow)" />
<line x1="617.5" y1="103.0" x2="618.5" y2="103.0" stroke="#323232" stroke-width="2" />
<path d="M548.0,143.0 A15.0,15.0 0 0,1 548.0,113.0 H562.0 A15.0,15.0 0 0,1 562.0,143.0 z" stroke="#323232" stroke-width="2" fill="#DCDCDC"/>
<text class="token_font" x="555.0" y="134.5"> / </text>
<path d="M640.0,143.0 A15.0,15.0 0 0,1 640.0,113.0 H643.0 A15.0,15.0 0 0,1 643.0,143.0 z" stroke="#323232" stroke-width="2" fill="#DCDCDC"/>
<text class="token_font" x="641.5" y="134.5">*</text>
<path d="M640.0,181.0 A15.0,15.0 0 0,1 640.0,151.0 H654.0 A15.0,15.0 0 0,1 654.0,181.0 z" stroke="#323232" stroke-width="2" fill="#DCDCDC"/>
<text class="token_font" x="647.0" y="172.5">**</text>
<line x1="590.0" y1="127.0" x2="620.0" y2="127.0" stroke="#323232" stroke-width="2" marker-end="url(#arrow)" />
<line x1="659.0" y1="127.0" x2="705.0" y2="127.0" stroke="#323232" stroke-width="2" />
<path d="M602.0,139.0 A12.0,12.0 0 0,0 590.0,127.0" stroke="#323232" stroke-width="2" fill="none"/>
<line x1="614.0" y1="165.0" x2="620.0" y2="165.0" stroke="#323232" stroke-width="2" marker-end="url(#arrow)" />
<line x1="670.0" y1="165.0" x2="676.0" y2="165.0" stroke="#323232" stroke-width="2" marker-end="url(#arrow)" />
<path d="M602.0,153.0 A12.0,12.0 0 0,0 614.0,165.0" stroke="#323232" stroke-width="2" fill="none"/>
<path d="M680.0,165.0 A12.0,12.0 0 0,0 692.0,153.0" stroke="#323232" stroke-width="2" fill="none"/>
<path d="M704.0,127.0 A12.0,12.0 0 0,0 692.0,139.0" stroke="#323232" stroke-width="2" fill="none"/>
<line x1="602.0" y1="153.0" x2="602.0" y2="139.0" stroke="#323232" stroke-width="2" />
<line x1="692.0" y1="153.0" x2="692.0" y2="139.0" stroke="#323232" stroke-width="2" />
<line x1="577.0" y1="127.0" x2="586.0" y2="127.0" stroke="#323232" stroke-width="2" marker-end="url(#arrow)" />
<line x1="498.0" y1="103.0" x2="613.5" y2="103.0" stroke="#323232" stroke-width="2" marker-end="url(#arrow)" />
<line x1="618.5" y1="103.0" x2="741.0" y2="103.0" stroke="#323232" stroke-width="2" />
<path d="M510.0,115.0 A12.0,12.0 0 0,0 498.0,103.0" stroke="#323232" stroke-width="2" fill="none"/>
<line x1="522.0" y1="127.0" x2="528.0" y2="127.0" stroke="#323232" stroke-width="2" marker-end="url(#arrow)" />
<line x1="704.0" y1="127.0" x2="712.0" y2="127.0" stroke="#323232" stroke-width="2" marker-end="url(#arrow)" />
<path d="M510.0,115.0 A12.0,12.0 0 0,0 522.0,127.0" stroke="#323232" stroke-width="2" fill="none"/>
<path d="M716.0,127.0 A12.0,12.0 0 0,0 728.0,115.0" stroke="#323232" stroke-width="2" fill="none"/>
<path d="M740.0,103.0 A12.0,12.0 0 0,0 728.0,115.0" stroke="#323232" stroke-width="2" fill="none"/>
<line x1="510.0" y1="115.0" x2="510.0" y2="115.0" stroke="#323232" stroke-width="2" />
<line x1="728.0" y1="115.0" x2="728.0" y2="115.0" stroke="#323232" stroke-width="2" />
<line x1="485.0" y1="103.0" x2="494.0" y2="103.0" stroke="#323232" stroke-width="2" marker-end="url(#arrow)" />
<line x1="279.0" y1="66.0" x2="309.0" y2="66.0" stroke="#323232" stroke-width="2" marker-end="url(#arrow)" />
<line x1="366.0" y1="66.0" x2="778.0" y2="66.0" stroke="#323232" stroke-width="2" />
<path d="M291.0,78.0 A12.0,12.0 0 0,0 279.0,66.0" stroke="#323232" stroke-width="2" fill="none"/>
<line x1="303.0" y1="103.0" x2="309.0" y2="103.0" stroke="#323232" stroke-width="2" marker-end="url(#arrow)" />
<line x1="740.0" y1="103.0" x2="749.0" y2="103.0" stroke="#323232" stroke-width="2" marker-end="url(#arrow)" />
<path d="M291.0,91.0 A12.0,12.0 0 0,0 303.0,103.0" stroke="#323232" stroke-width="2" fill="none"/>
<path d="M753.0,103.0 A12.0,12.0 0 0,0 765.0,91.0" stroke="#323232" stroke-width="2" fill="none"/>
<path d="M777.0,66.0 A12.0,12.0 0 0,0 765.0,78.0" stroke="#323232" stroke-width="2" fill="none"/>
<line x1="291.0" y1="91.0" x2="291.0" y2="78.0" stroke="#323232" stroke-width="2" />
<line x1="765.0" y1="91.0" x2="765.0" y2="78.0" stroke="#323232" stroke-width="2" />
<line x1="266.0" y1="66.0" x2="275.0" y2="66.0" stroke="#323232" stroke-width="2" marker-end="url(#arrow)" />
<path d="M405.0,205.0 H413.0 L415.5,200.0 L413.0,195.0 H405.0 L402.5,200.0 z" stroke="#323232" stroke-width="2" fill="#FFFFFF"/>
<text class="space_font" x="409.0" y="201.5"> </text>
<line x1="41" y1="199.0" x2="401.5" y2="199.0" stroke="#323232" stroke-width="2" />
<line x1="777.0" y1="199.0" x2="420.5" y2="199.0" stroke="#323232" stroke-width="2" marker-end="url(#arrow)" />
<line x1="29" y1="66.0" x2="41" y2="66.0" stroke="#323232" stroke-width="2" />
<path d="M41.0,66.0 A9,9 0 0,0 32.0,75.0" stroke="#323232" stroke-width="2" fill="none"/>
<line x1="32" y1="190.0" x2="32.0" y2="136.5" stroke="#323232" stroke-width="2" marker-end="url(#arrow)" />
<line x1="32" y1="132.5" x2="32" y2="75.0" stroke="#323232" stroke-width="2" />
<path d="M32.0,190.0 A9,9 0 0,0 41.0,199.0" stroke="#323232" stroke-width="2" fill="none"/>
<path d="M786.0,75.0 A9.0,9.0 0 0,0 777.0,66.0" stroke="#323232" stroke-width="2" fill="none"/>
<line x1="786.0" y1="75.0" x2="786.0" y2="128.5" stroke="#323232" stroke-width="2" marker-end="url(#arrow)" />
<line x1="786.0" y1="132.5" x2="786.0" y2="190.0" stroke="#323232" stroke-width="2" />
<path d="M777.0,199.0 A9.0,9.0 0 0,0 786.0,190.0" stroke="#323232" stroke-width="2" fill="none"/>
<line x1="777.0" y1="66.0" x2="786.0" y2="66.0" stroke="#323232" stroke-width="2" />
<line x1="16" y1="66.0" x2="25.0" y2="66.0" stroke="#323232" stroke-width="2" marker-end="url(#arrow)" />
<circle cx="801.0" cy="66.0" r="3.0" stroke="#323232" stroke-width="2" fill="#623C47"/>
<line x1="785.0" y1="66.0" x2="794.0" y2="66.0" stroke="#323232" stroke-width="2" marker-end="url(#arrow)" />
<text class="title_font" x="406.5" y="29.0">file</text>
</svg>