<?xml version="1.0" encoding="UTF-8" standalone="no"?>
<!-- Created by Syntax-Trax http://kevinpt.github.io/syntax-trax -->
<svg xmlns="http://www.w3.org/2000/svg"
xmlns:xlink="http://www.w3.org/1999/xlink"
xml:space="preserve"
width="778" height="210" version="1.1">
<style type="text/css">
<![CDATA[
.box_font {fill:#000000; text-anchor:middle;
    font-family:Times; font-size:14pt; font-weight:normal; font-style:italic;}
.charclass_font {fill:#000000; text-anchor:middle;
    font-family:Sans; font-size:16pt; font-weight:bold; font-style:normal;}
.title_font {fill:#000000; text-anchor:middle;
    font-family:Sans; font-size:18pt; font-weight:normal; font-style:italic;}
.bubble_font {fill:#000000; text-anchor:middle;
    font-family:Sans; font-size:14pt; font-weight:bold; font-style:normal;}
.token_font {fill:#000000; text-anchor:middle;
    font-family:Sans; font-size:16pt; font-weight:bold; font-style:normal;}
.label {fill:#000;
  text-anchor:middle;
  font-size:16pt; font-weight:bold; font-family:Sans;}
.link {fill: #0D47A1;}
.link:hover {fill: #0D47A1; text-decoration:underline;}
.link:visited {fill: #4A148C;}
]]>
</style>
<defs>
  <marker id="arrow" markerWidth="5" markerHeight="4" refX="2.5" refY="2" orient="auto" markerUnits="strokeWidth">
    <path d="M0,0 L0.5,2 L0,4 L4.5,2 z" fill="#000000" />
  </marker>
</defs>
<rect width="100%" height="100%" fill="white"/><rect x="78.0" y="65.0" width="26.0" height="28.0" stroke="none" fill-opacity="0.498039215686" fill="#000000"/>
<path d="M189.0,75.0 A15.0,15.0 0 0,1 189.0,45.0 H217.0 A15.0,15.0 0 0,1 217.0,75.0 z" stroke="none" fill-opacity="0.498039215686" fill="#000000"/>
<path d="M194.0,111.0 A15.0,15.0 0 0,1 194.0,81.0 H212.0 A15.0,15.0 0 0,1 212.0,111.0 z" stroke="none" fill-opacity="0.498039215686" fill="#000000"/>
<rect x="302.0" y="46.0" width="51.0" height="28.0" stroke="none" fill-opacity="0.498039215686" fill="#000000"/>
<path d="M335.0,110.0 A15.0,15.0 0 0,1 335.0,80.0 H349.0 A15.0,15.0 0 0,1 349.0,110.0 z" stroke="none" fill-opacity="0.498039215686" fill="#000000"/>
<rect x="427.0" y="81.0" width="26.0" height="28.0" stroke="none" fill-opacity="0.498039215686" fill="#000000"/>
<path d="M433.0,150.0 A15.0,15.0 0 0,1 433.0,120.0 H447.0 A15.0,15.0 0 0,1 447.0,150.0 z" stroke="none" fill-opacity="0.498039215686" fill="#000000"/>
<path d="M533.0,130.0 A15.0,15.0 0 0,1 533.0,100.0 H547.0 A15.0,15.0 0 0,1 547.0,130.0 z" stroke="none" fill-opacity="0.498039215686" fill="#000000"/>
<path d="M624.0,130.0 A15.0,15.0 0 0,1 624.0,100.0 H627.0 A15.0,15.0 0 0,1 627.0,130.0 z" stroke="none" fill-opacity="0.498039215686" fill="#000000"/>
<path d="M624.0,166.0 A15.0,15.0 0 0,1 624.0,136.0 H638.0 A15.0,15.0 0 0,1 638.0,166.0 z" stroke="none" fill-opacity="0.498039215686" fill="#000000"/>
<circle cx="396.0" cy="192.0" r="15.0" stroke="none" fill-opacity="0.498039215686" fill="#000000"/>
<circle cx="9" cy="56.0" r="3" stroke="#000000" stroke-width="2" fill="#FFFFFF"/>
<line x1="86.5" y1="56.0" x2="87.5" y2="56.0" stroke="#000000" stroke-width="2" />
<rect x="75.0" y="62.0" width="26.0" height="28.0" stroke="#000000" stroke-width="2" fill="#90A4AE"/>
<text class="box_font" x="88.0" y="82.5">id</text>
<line x1="46" y1="56.0" x2="82.5" y2="56.0" stroke="#000000" stroke-width="2" marker-end="url(#arrow)" />
<line x1="87.5" y1="56.0" x2="131.0" y2="56.0" stroke="#000000" stroke-width="2" />
<path d="M55.0,65.0 A9,9 0 0,0 46.0,56.0" stroke="#000000" stroke-width="2" fill="none"/>
<line x1="64" y1="75.0" x2="70.0" y2="75.0" stroke="#000000" stroke-width="2" marker-end="url(#arrow)" />
<line x1="102.0" y1="75.0" x2="108.0" y2="75.0" stroke="#000000" stroke-width="2" marker-end="url(#arrow)" />
<path d="M55.0,66.0 A9,9 0 0,0 64.0,75.0" stroke="#000000" stroke-width="2" fill="none"/>
<path d="M112.0,75.0 A9.0,9.0 0 0,0 121.0,66.0" stroke="#000000" stroke-width="2" fill="none"/>
<path d="M130.0,56.0 A9.0,9.0 0 0,0 121.0,65.0" stroke="#000000" stroke-width="2" fill="none"/>
<line x1="55" y1="66.0" x2="55" y2="65.0" stroke="#000000" stroke-width="2" />
<line x1="121.0" y1="66.0" x2="121.0" y2="65.0" stroke="#000000" stroke-width="2" />
<path d="M186.0,72.0 A15.0,15.0 0 0,1 186.0,42.0 H214.0 A15.0,15.0 0 0,1 214.0,72.0 z" stroke="#000000" stroke-width="2" fill="#B3E5FC"/>
<text class="token_font" x="200.0" y="63.5">&lt;=</text>
<path d="M191.0,108.0 A15.0,15.0 0 0,1 191.0,78.0 H209.0 A15.0,15.0 0 0,1 209.0,108.0 z" stroke="#000000" stroke-width="2" fill="#B3E5FC"/>
<text class="token_font" x="200.0" y="99.5">|=</text>
<line x1="147.0" y1="56.0" x2="166.0" y2="56.0" stroke="#000000" stroke-width="2" marker-end="url(#arrow)" />
<line x1="230.0" y1="56.0" x2="254.0" y2="56.0" stroke="#000000" stroke-width="2" />
<path d="M156.0,65.0 A9.0,9.0 0 0,0 147.0,56.0" stroke="#000000" stroke-width="2" fill="none"/>
<line x1="165.0" y1="92.0" x2="171.0" y2="92.0" stroke="#000000" stroke-width="2" marker-end="url(#arrow)" />
<line x1="225.0" y1="92.0" x2="231.0" y2="92.0" stroke="#000000" stroke-width="2" marker-end="url(#arrow)" />
<path d="M156.0,83.0 A9.0,9.0 0 0,0 165.0,92.0" stroke="#000000" stroke-width="2" fill="none"/>
<path d="M235.0,92.0 A9.0,9.0 0 0,0 244.0,83.0" stroke="#000000" stroke-width="2" fill="none"/>
<path d="M253.0,56.0 A9.0,9.0 0 0,0 244.0,65.0" stroke="#000000" stroke-width="2" fill="none"/>
<line x1="156.0" y1="83.0" x2="156.0" y2="65.0" stroke="#000000" stroke-width="2" />
<line x1="244.0" y1="83.0" x2="244.0" y2="65.0" stroke="#000000" stroke-width="2" />
<line x1="129.0" y1="56.0" x2="143.0" y2="56.0" stroke="#000000" stroke-width="2" marker-end="url(#arrow)" />
<rect x="299.0" y="43.0" width="51.0" height="28.0" stroke="#000000" stroke-width="2" fill="#90A4AE"/>
<text class="box_font" x="324.5" y="63.5">value</text>
<path d="M332.0,107.0 A15.0,15.0 0 0,1 332.0,77.0 H346.0 A15.0,15.0 0 0,1 346.0,107.0 z" stroke="#000000" stroke-width="2" fill="#B3E5FC"/>
<text class="token_font" x="339.0" y="98.5"> / </text>
<line x1="337.5" y1="113.0" x2="338.5" y2="113.0" stroke="#000000" stroke-width="2" />
<line x1="298.0" y1="91.0" x2="312.0" y2="91.0" stroke="#000000" stroke-width="2" marker-end="url(#arrow)" />
<line x1="362.0" y1="91.0" x2="381.0" y2="91.0" stroke="#000000" stroke-width="2" />
<path d="M307.0,100.0 A9.0,9.0 0 0,0 298.0,91.0" stroke="#000000" stroke-width="2" fill="none"/>
<line x1="316.0" y1="113.0" x2="333.5" y2="113.0" stroke="#000000" stroke-width="2" marker-end="url(#arrow)" />
<line x1="338.5" y1="113.0" x2="358.0" y2="113.0" stroke="#000000" stroke-width="2" marker-end="url(#arrow)" />
<path d="M307.0,104.0 A9.0,9.0 0 0,0 316.0,113.0" stroke="#000000" stroke-width="2" fill="none"/>
<path d="M362.0,113.0 A9.0,9.0 0 0,0 371.0,104.0" stroke="#000000" stroke-width="2" fill="none"/>
<path d="M380.0,91.0 A9.0,9.0 0 0,0 371.0,100.0" stroke="#000000" stroke-width="2" fill="none"/>
<line x1="307.0" y1="104.0" x2="307.0" y2="100.0" stroke="#000000" stroke-width="2" />
<line x1="371.0" y1="104.0" x2="371.0" y2="100.0" stroke="#000000" stroke-width="2" />
<rect x="424.0" y="78.0" width="26.0" height="28.0" stroke="#000000" stroke-width="2" fill="#90A4AE"/>
<text class="box_font" x="437.0" y="98.5">id</text>
<path d="M430.0,147.0 A15.0,15.0 0 0,1 430.0,117.0 H444.0 A15.0,15.0 0 0,1 444.0,147.0 z" stroke="#000000" stroke-width="2" fill="#B3E5FC"/>
<text class="token_font" x="437.0" y="138.5"> / </text>
<line x1="414.0" y1="91.0" x2="419.0" y2="91.0" stroke="#000000" stroke-width="2" marker-end="url(#arrow)" />
<line x1="451.0" y1="91.0" x2="460.0" y2="91.0" stroke="#000000" stroke-width="2" />
<line x1="397.0" y1="91.0" x2="414.0" y2="91.0" stroke="#000000" stroke-width="2" />
<path d="M414.0,91.0 A9.0,9.0 0 0,0 405.0,100.0" stroke="#000000" stroke-width="2" fill="none"/>
<line x1="405.0" y1="122.0" x2="405.0" y2="115.0" stroke="#000000" stroke-width="2" marker-end="url(#arrow)" />
<line x1="405.0" y1="111.0" x2="405.0" y2="100.0" stroke="#000000" stroke-width="2" />
<path d="M405.0,122.0 A9.0,9.0 0 0,0 414.0,131.0" stroke="#000000" stroke-width="2" fill="none"/>
<path d="M469.0,100.0 A9.0,9.0 0 0,0 460.0,91.0" stroke="#000000" stroke-width="2" fill="none"/>
<line x1="469.0" y1="100.0" x2="469.0" y2="107.0" stroke="#000000" stroke-width="2" marker-end="url(#arrow)" />
<line x1="469.0" y1="111.0" x2="469.0" y2="122.0" stroke="#000000" stroke-width="2" />
<path d="M460.0,131.0 A9.0,9.0 0 0,0 469.0,122.0" stroke="#000000" stroke-width="2" fill="none"/>
<line x1="460.0" y1="91.0" x2="469.0" y2="91.0" stroke="#000000" stroke-width="2" />
<line x1="379.0" y1="91.0" x2="393.0" y2="91.0" stroke="#000000" stroke-width="2" marker-end="url(#arrow)" />
<line x1="596.0" y1="91.0" x2="597.0" y2="91.0" stroke="#000000" stroke-width="2" />
<path d="M530.0,127.0 A15.0,15.0 0 0,1 530.0,97.0 H544.0 A15.0,15.0 0 0,1 544.0,127.0 z" stroke="#000000" stroke-width="2" fill="#B3E5FC"/>
<text class="token_font" x="537.0" y="118.5"> / </text>
<path d="M621.0,127.0 A15.0,15.0 0 0,1 621.0,97.0 H624.0 A15.0,15.0 0 0,1 624.0,127.0 z" stroke="#000000" stroke-width="2" fill="#B3E5FC"/>
<text class="token_font" x="622.5" y="118.5">*</text>
<path d="M621.0,163.0 A15.0,15.0 0 0,1 621.0,133.0 H635.0 A15.0,15.0 0 0,1 635.0,163.0 z" stroke="#000000" stroke-width="2" fill="#B3E5FC"/>
<text class="token_font" x="628.0" y="154.5">**</text>
<line x1="577.0" y1="111.0" x2="601.0" y2="111.0" stroke="#000000" stroke-width="2" marker-end="url(#arrow)" />
<line x1="640.0" y1="111.0" x2="680.0" y2="111.0" stroke="#000000" stroke-width="2" />
<path d="M586.0,120.0 A9.0,9.0 0 0,0 577.0,111.0" stroke="#000000" stroke-width="2" fill="none"/>
<line x1="595.0" y1="147.0" x2="601.0" y2="147.0" stroke="#000000" stroke-width="2" marker-end="url(#arrow)" />
<line x1="651.0" y1="147.0" x2="657.0" y2="147.0" stroke="#000000" stroke-width="2" marker-end="url(#arrow)" />
<path d="M586.0,138.0 A9.0,9.0 0 0,0 595.0,147.0" stroke="#000000" stroke-width="2" fill="none"/>
<path d="M661.0,147.0 A9.0,9.0 0 0,0 670.0,138.0" stroke="#000000" stroke-width="2" fill="none"/>
<path d="M679.0,111.0 A9.0,9.0 0 0,0 670.0,120.0" stroke="#000000" stroke-width="2" fill="none"/>
<line x1="586.0" y1="138.0" x2="586.0" y2="120.0" stroke="#000000" stroke-width="2" />
<line x1="670.0" y1="138.0" x2="670.0" y2="120.0" stroke="#000000" stroke-width="2" />
<line x1="559.0" y1="111.0" x2="573.0" y2="111.0" stroke="#000000" stroke-width="2" marker-end="url(#arrow)" />
<line x1="486.0" y1="91.0" x2="592.0" y2="91.0" stroke="#000000" stroke-width="2" marker-end="url(#arrow)" />
<line x1="597.0" y1="91.0" x2="710.0" y2="91.0" stroke="#000000" stroke-width="2" />
<path d="M495.0,100.0 A9.0,9.0 0 0,0 486.0,91.0" stroke="#000000" stroke-width="2" fill="none"/>
<line x1="504.0" y1="111.0" x2="510.0" y2="111.0" stroke="#000000" stroke-width="2" marker-end="url(#arrow)" />
<line x1="679.0" y1="111.0" x2="687.0" y2="111.0" stroke="#000000" stroke-width="2" marker-end="url(#arrow)" />
<path d="M495.0,102.0 A9.0,9.0 0 0,0 504.0,111.0" stroke="#000000" stroke-width="2" fill="none"/>
<path d="M691.0,111.0 A9.0,9.0 0 0,0 700.0,102.0" stroke="#000000" stroke-width="2" fill="none"/>
<path d="M709.0,91.0 A9.0,9.0 0 0,0 700.0,100.0" stroke="#000000" stroke-width="2" fill="none"/>
<line x1="495.0" y1="102.0" x2="495.0" y2="100.0" stroke="#000000" stroke-width="2" />
<line x1="700.0" y1="102.0" x2="700.0" y2="100.0" stroke="#000000" stroke-width="2" />
<line x1="468.0" y1="91.0" x2="482.0" y2="91.0" stroke="#000000" stroke-width="2" marker-end="url(#arrow)" />
<line x1="270.0" y1="56.0" x2="294.0" y2="56.0" stroke="#000000" stroke-width="2" marker-end="url(#arrow)" />
<line x1="351.0" y1="56.0" x2="741.0" y2="56.0" stroke="#000000" stroke-width="2" />
<path d="M279.0,65.0 A9.0,9.0 0 0,0 270.0,56.0" stroke="#000000" stroke-width="2" fill="none"/>
<line x1="288.0" y1="91.0" x2="294.0" y2="91.0" stroke="#000000" stroke-width="2" marker-end="url(#arrow)" />
<line x1="709.0" y1="91.0" x2="718.0" y2="91.0" stroke="#000000" stroke-width="2" marker-end="url(#arrow)" />
<path d="M279.0,82.0 A9.0,9.0 0 0,0 288.0,91.0" stroke="#000000" stroke-width="2" fill="none"/>
<path d="M722.0,91.0 A9.0,9.0 0 0,0 731.0,82.0" stroke="#000000" stroke-width="2" fill="none"/>
<path d="M740.0,56.0 A9.0,9.0 0 0,0 731.0,65.0" stroke="#000000" stroke-width="2" fill="none"/>
<line x1="279.0" y1="82.0" x2="279.0" y2="65.0" stroke="#000000" stroke-width="2" />
<line x1="731.0" y1="82.0" x2="731.0" y2="65.0" stroke="#000000" stroke-width="2" />
<line x1="252.0" y1="56.0" x2="266.0" y2="56.0" stroke="#000000" stroke-width="2" marker-end="url(#arrow)" />
<circle cx="393.0" cy="189.0" r="15.0" stroke="#000000" stroke-width="2" fill="#B3E5FC"/>
<text class="token_font" x="393.0" y="195.5">;</text>
<line x1="46" y1="188.0" x2="377.0" y2="188.0" stroke="#000000" stroke-width="2" />
<line x1="740.0" y1="188.0" x2="413.0" y2="188.0" stroke="#000000" stroke-width="2" marker-end="url(#arrow)" />
<line x1="29" y1="56.0" x2="46" y2="56.0" stroke="#000000" stroke-width="2" />
<path d="M46.0,56.0 A9,9 0 0,0 37.0,65.0" stroke="#000000" stroke-width="2" fill="none"/>
<line x1="37" y1="179.0" x2="37.0" y2="126.0" stroke="#000000" stroke-width="2" marker-end="url(#arrow)" />
<line x1="37" y1="122.0" x2="37" y2="65.0" stroke="#000000" stroke-width="2" />
<path d="M37.0,179.0 A9,9 0 0,0 46.0,188.0" stroke="#000000" stroke-width="2" fill="none"/>
<path d="M749.0,65.0 A9.0,9.0 0 0,0 740.0,56.0" stroke="#000000" stroke-width="2" fill="none"/>
<line x1="749.0" y1="65.0" x2="749.0" y2="118.0" stroke="#000000" stroke-width="2" marker-end="url(#arrow)" />
<line x1="749.0" y1="122.0" x2="749.0" y2="179.0" stroke="#000000" stroke-width="2" />
<path d="M740.0,188.0 A9.0,9.0 0 0,0 749.0,179.0" stroke="#000000" stroke-width="2" fill="none"/>
<line x1="740.0" y1="56.0" x2="749.0" y2="56.0" stroke="#000000" stroke-width="2" />
<line x1="11" y1="56.0" x2="25.0" y2="56.0" stroke="#000000" stroke-width="2" marker-end="url(#arrow)" />
<circle cx="769.0" cy="56.0" r="3.0" stroke="#000000" stroke-width="2" fill="#FFFFFF"/>
<line x1="748.0" y1="56.0" x2="762.0" y2="56.0" stroke="#000000" stroke-width="2" marker-end="url(#arrow)" />
<text class="title_font" x="388.0" y="24.0">file</text>
</svg>