<?xml version="1.0" encoding="UTF-8" standalone="no"?>
<!-- Created by Syntax-Trax http://kevinpt.github.io/syntax-trax -->
<svg xmlns="http://www.w3.org/2000/svg"
xmlns:xlink="http://www.w3.org/1999/xlink"
xml:space="preserve"
width="765" height="315" version="1.1">
<style type="text/css">
<![CDATA[
.charclass_font {fill:#000000; text-anchor:middle;
    font-family:Sans; font-size:16pt; font-weight:bold; font-style:normal;}
.hash_font {fill:#000000; text-anchor:middle;
    font-family:Times; font-size:14pt; font-weight:normal; font-style:italic;}
.definitive_font {fill:#000000; text-anchor:middle;
    font-family:Times; font-size:14pt; font-weight:normal; font-style:italic;}
.non-terminal_font {fill:#000000; text-anchor:middle;
    font-family:Times; font-size:14pt; font-weight:normal; font-style:italic;}
.space_font {fill:#000000; text-anchor:middle;
    font-family:Sans; font-size:10pt; font-weight:normal; font-style:normal;}
.title_font {fill:#000000; text-anchor:middle;
    font-family:Sans; font-size:18pt; font-weight:normal; font-style:italic;}
.negative_font {fill:#000000; text-anchor:middle;
    font-family:Times; font-size:14pt; font-weight:normal; font-style:italic;}
.token_font {fill:#000000; text-anchor:middle;
    font-family:Sans; font-size:16pt; font-weight:bold; font-style:normal;}
.label {fill:#000;
  text-anchor:middle;
  font-size:16pt; font-weight:bold; font-family:Sans;}
.link {fill: #0D47A1;}
.link:hover {fill: #0D47A1; text-decoration:underline;}
.link:visited {fill: #4A148C;}
]]>
</style>
<defs>
  <marker id="arrow" markerWidth="5" markerHeight="4" refX="2.5" refY="2" orient="auto" markerUnits="strokeWidth">
    <path d="M0,0 L0.5,2 L0,4 L4.5,2 z" fill="#323232" />
  </marker>
</defs>
<rect width="100%" height="100%" fill="white"/><circle cx="14.0" cy="66.0" r="3.0" stroke-width="2" stroke="#323232" fill="#623C47"/>
<path d="M115.0,82.0 A15.0,15.0 0 0,1 115.0,52.0 H117.0 A15.0,15.0 0 0,1 117.0,82.0 z" stroke-width="2" stroke="#323232" fill="#DCDCDC"/>
<text class="token_font" x="116.0" y="73.5">(</text>
<rect x="146.0" y="52.0" width="51.0" height="30.0" stroke-width="2" stroke="#323232" fill="#C8FAC8"/>
<text class="hash_font" x="171.5" y="74.0">value</text>
<line x1="132.0" y1="66.0" x2="141.0" y2="66.0" stroke-width="2" stroke="#323232" marker-end="url(#arrow)" />
<path d="M226.0,82.0 A15.0,15.0 0 0,1 226.0,52.0 H228.0 A15.0,15.0 0 0,1 228.0,82.0 z" stroke-width="2" stroke="#323232" fill="#DCDCDC"/>
<text class="token_font" x="227.0" y="73.5">)</text>
<line x1="197.0" y1="66.0" x2="206.0" y2="66.0" stroke-width="2" stroke="#323232" marker-end="url(#arrow)" />
<path d="M125.0,120.0 A15.0,15.0 0 0,1 125.0,90.0 H138.0 A15.0,15.0 0 0,1 138.0,120.0 z" stroke-width="2" stroke="#323232" fill="#DCDCDC"/>
<text class="token_font" x="131.5" y="111.5">@</text>
<line x1="75.0" y1="66.0" x2="95.0" y2="66.0" stroke-width="2" stroke="#323232" marker-end="url(#arrow)" />
<line x1="244.0" y1="66.0" x2="269.0" y2="66.0" stroke-width="2" stroke="#323232" />
<path d="M87.0,78.0 A12.0,12.0 0 0,0 75.0,66.0" stroke-width="2" stroke="#323232" fill="none"/>
<line x1="99.0" y1="104.0" x2="105.0" y2="104.0" stroke-width="2" stroke="#323232" marker-end="url(#arrow)" />
<line x1="154.0" y1="104.0" x2="240.0" y2="104.0" stroke-width="2" stroke="#323232" marker-end="url(#arrow)" />
<path d="M87.0,92.0 A12.0,12.0 0 0,0 99.0,104.0" stroke-width="2" stroke="#323232" fill="none"/>
<path d="M244.0,104.0 A12.0,12.0 0 0,0 256.0,92.0" stroke-width="2" stroke="#323232" fill="none"/>
<path d="M268.0,66.0 A12.0,12.0 0 0,0 256.0,78.0" stroke-width="2" stroke="#323232" fill="none"/>
<line x1="87.0" y1="92.0" x2="87.0" y2="78.0" stroke-width="2" stroke="#323232" />
<line x1="256.0" y1="92.0" x2="256.0" y2="78.0" stroke-width="2" stroke="#323232" />
<rect x="315.0" y="52.0" width="26.0" height="30.0" stroke-width="2" stroke="#323232" fill="#FAFAFA"/>
<text class="non-terminal_font" x="328.0" y="74.0">id</text>
<path d="M330.0,120.0 A15.0,15.0 0 0,1 330.0,90.0 H337.0 A15.0,15.0 0 0,1 337.0,120.0 z" stroke-width="2" stroke="#323232" fill="#DCDCDC"/>
<text class="token_font" x="333.5" y="111.5">$</text>
<line x1="280.0" y1="66.0" x2="310.0" y2="66.0" stroke-width="2" stroke="#323232" marker-end="url(#arrow)" />
<line x1="342.0" y1="66.0" x2="388.0" y2="66.0" stroke-width="2" stroke="#323232" />
<path d="M292.0,78.0 A12.0,12.0 0 0,0 280.0,66.0" stroke-width="2" stroke="#323232" fill="none"/>
<line x1="304.0" y1="104.0" x2="310.0" y2="104.0" stroke-width="2" stroke="#323232" marker-end="url(#arrow)" />
<line x1="353.0" y1="104.0" x2="359.0" y2="104.0" stroke-width="2" stroke="#323232" marker-end="url(#arrow)" />
<path d="M292.0,92.0 A12.0,12.0 0 0,0 304.0,104.0" stroke-width="2" stroke="#323232" fill="none"/>
<path d="M363.0,104.0 A12.0,12.0 0 0,0 375.0,92.0" stroke-width="2" stroke="#323232" fill="none"/>
<path d="M387.0,66.0 A12.0,12.0 0 0,0 375.0,78.0" stroke-width="2" stroke="#323232" fill="none"/>
<line x1="292.0" y1="92.0" x2="292.0" y2="78.0" stroke-width="2" stroke="#323232" />
<line x1="375.0" y1="92.0" x2="375.0" y2="78.0" stroke-width="2" stroke="#323232" />
<line x1="267.0" y1="66.0" x2="276.0" y2="66.0" stroke-width="2" stroke="#323232" marker-end="url(#arrow)" />
<rect x="110.0" y="128.0" width="26.0" height="30.0" stroke-width="2" stroke="#323232" fill="#FAFAFA"/>
<text class="non-terminal_font" x="123.0" y="150.0">id</text>
<path d="M125.0,196.0 A15.0,15.0 0 0,1 125.0,166.0 H132.0 A15.0,15.0 0 0,1 132.0,196.0 z" stroke-width="2" stroke="#323232" fill="#DCDCDC"/>
<text class="token_font" x="128.5" y="187.5">$</text>
<line x1="75.0" y1="142.0" x2="105.0" y2="142.0" stroke-width="2" stroke="#323232" marker-end="url(#arrow)" />
<line x1="137.0" y1="142.0" x2="183.0" y2="142.0" stroke-width="2" stroke="#323232" />
<path d="M87.0,154.0 A12.0,12.0 0 0,0 75.0,142.0" stroke-width="2" stroke="#323232" fill="none"/>
<line x1="99.0" y1="180.0" x2="105.0" y2="180.0" stroke-width="2" stroke="#323232" marker-end="url(#arrow)" />
<line x1="148.0" y1="180.0" x2="154.0" y2="180.0" stroke-width="2" stroke="#323232" marker-end="url(#arrow)" />
<path d="M87.0,168.0 A12.0,12.0 0 0,0 99.0,180.0" stroke-width="2" stroke="#323232" fill="none"/>
<path d="M158.0,180.0 A12.0,12.0 0 0,0 170.0,168.0" stroke-width="2" stroke="#323232" fill="none"/>
<path d="M182.0,142.0 A12.0,12.0 0 0,0 170.0,154.0" stroke-width="2" stroke="#323232" fill="none"/>
<line x1="87.0" y1="168.0" x2="87.0" y2="154.0" stroke-width="2" stroke="#323232" />
<line x1="170.0" y1="168.0" x2="170.0" y2="154.0" stroke-width="2" stroke="#323232" />
<rect x="110.0" y="204.0" width="26.0" height="30.0" stroke-width="2" stroke="#323232" fill="#FAFAFA"/>
<text class="non-terminal_font" x="123.0" y="226.0">id</text>
<path d="M125.0,272.0 A15.0,15.0 0 0,1 125.0,242.0 H132.0 A15.0,15.0 0 0,1 132.0,272.0 z" stroke-width="2" stroke="#323232" fill="#DCDCDC"/>
<text class="token_font" x="128.5" y="263.5">$</text>
<line x1="75.0" y1="218.0" x2="105.0" y2="218.0" stroke-width="2" stroke="#323232" marker-end="url(#arrow)" />
<line x1="137.0" y1="218.0" x2="183.0" y2="218.0" stroke-width="2" stroke="#323232" />
<path d="M87.0,230.0 A12.0,12.0 0 0,0 75.0,218.0" stroke-width="2" stroke="#323232" fill="none"/>
<line x1="99.0" y1="256.0" x2="105.0" y2="256.0" stroke-width="2" stroke="#323232" marker-end="url(#arrow)" />
<line x1="148.0" y1="256.0" x2="154.0" y2="256.0" stroke-width="2" stroke="#323232" marker-end="url(#arrow)" />
<path d="M87.0,244.0 A12.0,12.0 0 0,0 99.0,256.0" stroke-width="2" stroke="#323232" fill="none"/>
<path d="M158.0,256.0 A12.0,12.0 0 0,0 170.0,244.0" stroke-width="2" stroke="#323232" fill="none"/>
<path d="M182.0,218.0 A12.0,12.0 0 0,0 170.0,230.0" stroke-width="2" stroke="#323232" fill="none"/>
<line x1="87.0" y1="244.0" x2="87.0" y2="230.0" stroke-width="2" stroke="#323232" />
<line x1="170.0" y1="244.0" x2="170.0" y2="230.0" stroke-width="2" stroke="#323232" />
<path d="M234.0,234.0 A15.0,15.0 0 0,1 234.0,204.0 H236.0 A15.0,15.0 0 0,1 236.0,234.0 z" stroke-width="2" stroke="#323232" fill="#DCDCDC"/>
<text class="token_font" x="235.0" y="225.5">(</text>
<rect x="265.0" y="204.0" width="51.0" height="30.0" stroke-width="2" stroke="#323232" fill="#C8FAC8"/>
<text class="hash_font" x="290.5" y="226.0">value</text>
<line x1="251.0" y1="218.0" x2="260.0" y2="218.0" stroke-width="2" stroke="#323232" marker-end="url(#arrow)" />
<path d="M345.0,234.0 A15.0,15.0 0 0,1 345.0,204.0 H347.0 A15.0,15.0 0 0,1 347.0,234.0 z" stroke-width="2" stroke="#323232" fill="#DCDCDC"/>
<text class="token_font" x="346.0" y="225.5">)</text>
<line x1="316.0" y1="218.0" x2="325.0" y2="218.0" stroke-width="2" stroke="#323232" marker-end="url(#arrow)" />
<path d="M244.0,272.0 A15.0,15.0 0 0,1 244.0,242.0 H257.0 A15.0,15.0 0 0,1 257.0,272.0 z" stroke-width="2" stroke="#323232" fill="#DCDCDC"/>
<text class="token_font" x="250.5" y="263.5">@</text>
<line x1="194.0" y1="218.0" x2="214.0" y2="218.0" stroke-width="2" stroke="#323232" marker-end="url(#arrow)" />
<line x1="363.0" y1="218.0" x2="388.0" y2="218.0" stroke-width="2" stroke="#323232" />
<path d="M206.0,230.0 A12.0,12.0 0 0,0 194.0,218.0" stroke-width="2" stroke="#323232" fill="none"/>
<line x1="218.0" y1="256.0" x2="224.0" y2="256.0" stroke-width="2" stroke="#323232" marker-end="url(#arrow)" />
<line x1="273.0" y1="256.0" x2="359.0" y2="256.0" stroke-width="2" stroke="#323232" marker-end="url(#arrow)" />
<path d="M206.0,244.0 A12.0,12.0 0 0,0 218.0,256.0" stroke-width="2" stroke="#323232" fill="none"/>
<path d="M363.0,256.0 A12.0,12.0 0 0,0 375.0,244.0" stroke-width="2" stroke="#323232" fill="none"/>
<path d="M387.0,218.0 A12.0,12.0 0 0,0 375.0,230.0" stroke-width="2" stroke="#323232" fill="none"/>
<line x1="206.0" y1="244.0" x2="206.0" y2="230.0" stroke-width="2" stroke="#323232" />
<line x1="375.0" y1="244.0" x2="375.0" y2="230.0" stroke-width="2" stroke="#323232" />
<line x1="181.0" y1="218.0" x2="190.0" y2="218.0" stroke-width="2" stroke="#323232" marker-end="url(#arrow)" />
<line x1="41.0" y1="66.0" x2="71.0" y2="66.0" stroke-width="2" stroke="#323232" marker-end="url(#arrow)" />
<line x1="387.0" y1="66.0" x2="425.0" y2="66.0" stroke-width="2" stroke="#323232" />
<path d="M53.0,78.0 A12.0,12.0 0 0,0 41.0,66.0" stroke-width="2" stroke="#323232" fill="none"/>
<line x1="65.0" y1="142.0" x2="71.0" y2="142.0" stroke-width="2" stroke="#323232" marker-end="url(#arrow)" />
<line x1="182.0" y1="142.0" x2="396.0" y2="142.0" stroke-width="2" stroke="#323232" marker-end="url(#arrow)" />
<path d="M53.0,130.0 A12.0,12.0 0 0,0 65.0,142.0" stroke-width="2" stroke="#323232" fill="none"/>
<path d="M400.0,142.0 A12.0,12.0 0 0,0 412.0,130.0" stroke-width="2" stroke="#323232" fill="none"/>
<line x1="65.0" y1="218.0" x2="71.0" y2="218.0" stroke-width="2" stroke="#323232" marker-end="url(#arrow)" />
<line x1="387.0" y1="218.0" x2="396.0" y2="218.0" stroke-width="2" stroke="#323232" marker-end="url(#arrow)" />
<path d="M53.0,206.0 A12.0,12.0 0 0,0 65.0,218.0" stroke-width="2" stroke="#323232" fill="none"/>
<path d="M400.0,218.0 A12.0,12.0 0 0,0 412.0,206.0" stroke-width="2" stroke="#323232" fill="none"/>
<path d="M424.0,66.0 A12.0,12.0 0 0,0 412.0,78.0" stroke-width="2" stroke="#323232" fill="none"/>
<line x1="53.0" y1="206.0" x2="53.0" y2="78.0" stroke-width="2" stroke="#323232" />
<line x1="412.0" y1="206.0" x2="412.0" y2="78.0" stroke-width="2" stroke="#323232" />
<path d="M486.0,82.0 A15.0,15.0 0 0,1 486.0,52.0 H496.0 A15.0,15.0 0 0,1 496.0,82.0 z" stroke-width="2" stroke="#323232" fill="#DCDCDC"/>
<text class="token_font" x="491.0" y="73.5">=</text>
<path d="M486.0,120.0 A15.0,15.0 0 0,1 486.0,90.0 H514.0 A15.0,15.0 0 0,1 514.0,120.0 z" stroke-width="2" stroke="#323232" fill="#DCDCDC"/>
<text class="token_font" x="500.0" y="111.5">&lt;=</text>
<path d="M486.0,158.0 A15.0,15.0 0 0,1 486.0,128.0 H514.0 A15.0,15.0 0 0,1 514.0,158.0 z" stroke-width="2" stroke="#323232" fill="#DCDCDC"/>
<text class="token_font" x="500.0" y="149.5">=&gt;</text>
<path d="M486.0,196.0 A15.0,15.0 0 0,1 486.0,166.0 H514.0 A15.0,15.0 0 0,1 514.0,196.0 z" stroke-width="2" stroke="#323232" fill="#DCDCDC"/>
<text class="token_font" x="500.0" y="187.5">&lt;&gt;</text>
<path d="M486.0,234.0 A15.0,15.0 0 0,1 486.0,204.0 H514.0 A15.0,15.0 0 0,1 514.0,234.0 z" stroke-width="2" stroke="#323232" fill="#DCDCDC"/>
<text class="token_font" x="500.0" y="225.5">&gt;&lt;</text>
<line x1="436.0" y1="66.0" x2="466.0" y2="66.0" stroke-width="2" stroke="#323232" marker-end="url(#arrow)" />
<line x1="512.0" y1="66.0" x2="565.0" y2="66.0" stroke-width="2" stroke="#323232" />
<path d="M448.0,78.0 A12.0,12.0 0 0,0 436.0,66.0" stroke-width="2" stroke="#323232" fill="none"/>
<line x1="460.0" y1="104.0" x2="466.0" y2="104.0" stroke-width="2" stroke="#323232" marker-end="url(#arrow)" />
<line x1="530.0" y1="104.0" x2="536.0" y2="104.0" stroke-width="2" stroke="#323232" marker-end="url(#arrow)" />
<path d="M448.0,92.0 A12.0,12.0 0 0,0 460.0,104.0" stroke-width="2" stroke="#323232" fill="none"/>
<path d="M540.0,104.0 A12.0,12.0 0 0,0 552.0,92.0" stroke-width="2" stroke="#323232" fill="none"/>
<line x1="460.0" y1="142.0" x2="466.0" y2="142.0" stroke-width="2" stroke="#323232" marker-end="url(#arrow)" />
<line x1="530.0" y1="142.0" x2="536.0" y2="142.0" stroke-width="2" stroke="#323232" marker-end="url(#arrow)" />
<path d="M448.0,130.0 A12.0,12.0 0 0,0 460.0,142.0" stroke-width="2" stroke="#323232" fill="none"/>
<path d="M540.0,142.0 A12.0,12.0 0 0,0 552.0,130.0" stroke-width="2" stroke="#323232" fill="none"/>
<line x1="460.0" y1="180.0" x2="466.0" y2="180.0" stroke-width="2" stroke="#323232" marker-end="url(#arrow)" />
<line x1="530.0" y1="180.0" x2="536.0" y2="180.0" stroke-width="2" stroke="#323232" marker-end="url(#arrow)" />
<path d="M448.0,168.0 A12.0,12.0 0 0,0 460.0,180.0" stroke-width="2" stroke="#323232" fill="none"/>
<path d="M540.0,180.0 A12.0,12.0 0 0,0 552.0,168.0" stroke-width="2" stroke="#323232" fill="none"/>
<line x1="460.0" y1="218.0" x2="466.0" y2="218.0" stroke-width="2" stroke="#323232" marker-end="url(#arrow)" />
<line x1="530.0" y1="218.0" x2="536.0" y2="218.0" stroke-width="2" stroke="#323232" marker-end="url(#arrow)" />
<path d="M448.0,206.0 A12.0,12.0 0 0,0 460.0,218.0" stroke-width="2" stroke="#323232" fill="none"/>
<path d="M540.0,218.0 A12.0,12.0 0 0,0 552.0,206.0" stroke-width="2" stroke="#323232" fill="none"/>
<path d="M564.0,66.0 A12.0,12.0 0 0,0 552.0,78.0" stroke-width="2" stroke="#323232" fill="none"/>
<line x1="448.0" y1="206.0" x2="448.0" y2="78.0" stroke-width="2" stroke="#323232" />
<line x1="552.0" y1="206.0" x2="552.0" y2="78.0" stroke-width="2" stroke="#323232" />
<line x1="423.0" y1="66.0" x2="432.0" y2="66.0" stroke-width="2" stroke="#323232" marker-end="url(#arrow)" />
<line x1="628.0" y1="66.0" x2="629.0" y2="66.0" stroke-width="2" stroke="#323232" />
<rect x="611.0" y="76.0" width="26.0" height="30.0" stroke-width="2" stroke="#323232" fill="#FAFAFA"/>
<text class="non-terminal_font" x="624.0" y="98.0">id</text>
<path d="M626.0,144.0 A15.0,15.0 0 0,1 626.0,114.0 H633.0 A15.0,15.0 0 0,1 633.0,144.0 z" stroke-width="2" stroke="#323232" fill="#DCDCDC"/>
<text class="token_font" x="629.5" y="135.5">$</text>
<line x1="576.0" y1="66.0" x2="624.0" y2="66.0" stroke-width="2" stroke="#323232" marker-end="url(#arrow)" />
<line x1="629.0" y1="66.0" x2="684.0" y2="66.0" stroke-width="2" stroke="#323232" />
<path d="M588.0,78.0 A12.0,12.0 0 0,0 576.0,66.0" stroke-width="2" stroke="#323232" fill="none"/>
<line x1="600.0" y1="90.0" x2="606.0" y2="90.0" stroke-width="2" stroke="#323232" marker-end="url(#arrow)" />
<line x1="638.0" y1="90.0" x2="655.0" y2="90.0" stroke-width="2" stroke="#323232" marker-end="url(#arrow)" />
<path d="M588.0,78.0 A12.0,12.0 0 0,0 600.0,90.0" stroke-width="2" stroke="#323232" fill="none"/>
<path d="M659.0,90.0 A12.0,12.0 0 0,0 671.0,78.0" stroke-width="2" stroke="#323232" fill="none"/>
<line x1="600.0" y1="128.0" x2="606.0" y2="128.0" stroke-width="2" stroke="#323232" marker-end="url(#arrow)" />
<line x1="649.0" y1="128.0" x2="655.0" y2="128.0" stroke-width="2" stroke="#323232" marker-end="url(#arrow)" />
<path d="M588.0,116.0 A12.0,12.0 0 0,0 600.0,128.0" stroke-width="2" stroke="#323232" fill="none"/>
<path d="M659.0,128.0 A12.0,12.0 0 0,0 671.0,116.0" stroke-width="2" stroke="#323232" fill="none"/>
<path d="M683.0,66.0 A12.0,12.0 0 0,0 671.0,78.0" stroke-width="2" stroke="#323232" fill="none"/>
<line x1="588.0" y1="116.0" x2="588.0" y2="78.0" stroke-width="2" stroke="#323232" />
<line x1="671.0" y1="116.0" x2="671.0" y2="78.0" stroke-width="2" stroke="#323232" />
<line x1="563.0" y1="66.0" x2="572.0" y2="66.0" stroke-width="2" stroke="#323232" marker-end="url(#arrow)" />
<circle cx="362.0" cy="289.0" r="15.0" stroke-width="2" stroke="#323232" fill="#DCDCDC"/>
<text class="token_font" x="362.0" y="295.5">,</text>
<line x1="41.0" y1="288.0" x2="346.0" y2="288.0" stroke-width="2" stroke="#323232" />
<line x1="683.0" y1="288.0" x2="382.0" y2="288.00000000000006" stroke-width="2" stroke="#323232" marker-end="url(#arrow)" />
<line x1="29.0" y1="66.0" x2="41.0" y2="66.0" stroke-width="2" stroke="#323232" />
<path d="M41.0,66.0 A9.0,9.0 0 0,0 32.0,75.0" stroke-width="2" stroke="#323232" fill="none"/>
<line x1="32.0" y1="279.0" x2="32.00000000000001" y2="181.0" stroke-width="2" stroke="#323232" marker-end="url(#arrow)" />
<line x1="32.0" y1="177.0" x2="32.0" y2="75.0" stroke-width="2" stroke="#323232" />
<path d="M32.0,279.0 A9.0,9.0 0 0,0 41.0,288.0" stroke-width="2" stroke="#323232" fill="none"/>
<path d="M692.0,75.0 A9.0,9.0 0 0,0 683.0,66.0" stroke-width="2" stroke="#323232" fill="none"/>
<line x1="692.0" y1="75.0" x2="692.0" y2="173.0" stroke-width="2" stroke="#323232" marker-end="url(#arrow)" />
<line x1="692.0" y1="177.0" x2="692.0" y2="279.0" stroke-width="2" stroke="#323232" />
<path d="M683.0,288.0 A9.0,9.0 0 0,0 692.0,279.0" stroke-width="2" stroke="#323232" fill="none"/>
<line x1="683.0" y1="66.0" x2="692.0" y2="66.0" stroke-width="2" stroke="#323232" />
<circle cx="720.0" cy="67.0" r="15.0" stroke-width="2" stroke="#323232" fill="#DCDCDC"/>
<text class="token_font" x="720.0" y="73.5">|</text>
<line x1="691.0" y1="66.0" x2="700.0" y2="66.0" stroke-width="2" stroke="#323232" marker-end="url(#arrow)" />
<line x1="16.0" y1="66.0" x2="25.0" y2="66.0" stroke-width="2" stroke="#323232" marker-end="url(#arrow)" />
<circle cx="751.0" cy="66.0" r="3.0" stroke-width="2" stroke="#323232" fill="#623C47"/>
<line x1="735.0" y1="66.0" x2="744.0" y2="66.0" stroke-width="2" stroke="#323232" marker-end="url(#arrow)" />
<text class="title_font" x="381.5" y="29.0">left_wing</text>
</svg>