<?xml version="1.0" encoding="UTF-8" standalone="no"?>
<!-- Created by Syntax-Trax http://kevinpt.github.io/syntax-trax -->
<svg xmlns="http://www.w3.org/2000/svg"
xmlns:xlink="http://www.w3.org/1999/xlink"
xml:space="preserve"
width="573" height="199" version="1.1">
<style type="text/css">
<![CDATA[
.space_font {fill:#000000; text-anchor:middle;
    font-family:Sans; font-size:10pt; font-weight:normal; font-style:normal;}
.negative_font {fill:#000000; text-anchor:middle;
    font-family:Times; font-size:14pt; font-weight:normal; font-style:italic;}
.non-terminal_font {fill:#000000; text-anchor:middle;
    font-family:Times; font-size:14pt; font-weight:normal; font-style:italic;}
.hash_font {fill:#000000; text-anchor:middle;
    font-family:Times; font-size:14pt; font-weight:normal; font-style:italic;}
.title_font {fill:#000000; text-anchor:middle;
    font-family:Sans; font-size:18pt; font-weight:normal; font-style:italic;}
.token_font {fill:#000000; text-anchor:middle;
    font-family:Sans; font-size:16pt; font-weight:bold; font-style:normal;}
.definitive_font {fill:#000000; text-anchor:middle;
    font-family:Times; font-size:14pt; font-weight:normal; font-style:italic;}
.charclass_font {fill:#000000; text-anchor:middle;
    font-family:Sans; font-size:16pt; font-weight:bold; font-style:normal;}
.label {fill:#000;
  text-anchor:middle;
  font-size:16pt; font-weight:bold; font-family:Sans;}
.link {fill: #0D47A1;}
.link:hover {fill: #0D47A1; text-decoration:underline;}
.link:visited {fill: #4A148C;}
]]>
</style>
<defs>
  <marker id="arrow" markerWidth="5" markerHeight="4" refX="2.5" refY="2" orient="auto" markerUnits="strokeWidth">
    <path d="M0,0 L0.5,2 L0,4 L4.5,2 z" fill="#323232" />
  </marker>
</defs>
<rect width="100%" height="100%" fill="white"/><circle cx="14.0" cy="66.0" r="3.0" fill="#623C47" stroke="#323232" stroke-width="2"/>
<line x1="94.5" y1="66.0" x2="95.5" y2="66.0" stroke="#323232" stroke-width="2" />
<path d="M91.0,106.0 A15.0,15.0 0 0,1 91.0,76.0 H101.0 A15.0,15.0 0 0,1 101.0,106.0 z" fill="#DCDCDC" stroke="#323232" stroke-width="2"/>
<text class="token_font" x="96.0" y="97.5">+</text>
<circle cx="91.5" cy="129.0" r="15.0" fill="#DCDCDC" stroke="#323232" stroke-width="2"/>
<text class="token_font" x="91.5" y="135.5">-</text>
<line x1="41.0" y1="66.0" x2="90.5" y2="66.0" stroke="#323232" stroke-width="2" marker-end="url(#arrow)" />
<line x1="95.5" y1="66.0" x2="152.0" y2="66.0" stroke="#323232" stroke-width="2" />
<path d="M53.0,78.0 A12.0,12.0 0 0,0 41.0,66.0" fill="none" stroke="#323232" stroke-width="2"/>
<line x1="65.0" y1="90.0" x2="71.0" y2="90.0" stroke="#323232" stroke-width="2" marker-end="url(#arrow)" />
<line x1="117.0" y1="90.0" x2="123.0" y2="90.0" stroke="#323232" stroke-width="2" marker-end="url(#arrow)" />
<path d="M53.0,78.0 A12.0,12.0 0 0,0 65.0,90.0" fill="none" stroke="#323232" stroke-width="2"/>
<path d="M127.0,90.0 A12.0,12.0 0 0,0 139.0,78.0" fill="none" stroke="#323232" stroke-width="2"/>
<line x1="65.0" y1="128.0" x2="71.0" y2="128.0" stroke="#323232" stroke-width="2" marker-end="url(#arrow)" />
<line x1="108.0" y1="128.0" x2="123.0" y2="128.0" stroke="#323232" stroke-width="2" marker-end="url(#arrow)" />
<path d="M53.0,116.0 A12.0,12.0 0 0,0 65.0,128.0" fill="none" stroke="#323232" stroke-width="2"/>
<path d="M127.0,128.0 A12.0,12.0 0 0,0 139.0,116.0" fill="none" stroke="#323232" stroke-width="2"/>
<path d="M151.0,66.0 A12.0,12.0 0 0,0 139.0,78.0" fill="none" stroke="#323232" stroke-width="2"/>
<line x1="53.0" y1="116.0" x2="53.0" y2="78.0" stroke="#323232" stroke-width="2" />
<line x1="139.0" y1="116.0" x2="139.0" y2="78.0" stroke="#323232" stroke-width="2" />
<line x1="209.5" y1="66.0" x2="210.5" y2="66.0" stroke="#323232" stroke-width="2" />
<rect x="198.0" y="77.0" width="26.0" height="28.0" fill="#FAFAFA" stroke="#323232" stroke-width="2"/>
<text class="non-terminal_font" x="211.0" y="97.5">id</text>
<line x1="163.0" y1="66.0" x2="205.5" y2="66.0" stroke="#323232" stroke-width="2" marker-end="url(#arrow)" />
<line x1="210.5" y1="66.0" x2="260.0" y2="66.0" stroke="#323232" stroke-width="2" />
<path d="M175.0,78.0 A12.0,12.0 0 0,0 163.0,66.0" fill="none" stroke="#323232" stroke-width="2"/>
<line x1="187.0" y1="90.0" x2="193.0" y2="90.0" stroke="#323232" stroke-width="2" marker-end="url(#arrow)" />
<line x1="225.0" y1="90.0" x2="231.0" y2="90.0" stroke="#323232" stroke-width="2" marker-end="url(#arrow)" />
<path d="M175.0,78.0 A12.0,12.0 0 0,0 187.0,90.0" fill="none" stroke="#323232" stroke-width="2"/>
<path d="M235.0,90.0 A12.0,12.0 0 0,0 247.0,78.0" fill="none" stroke="#323232" stroke-width="2"/>
<path d="M259.0,66.0 A12.0,12.0 0 0,0 247.0,78.0" fill="none" stroke="#323232" stroke-width="2"/>
<line x1="175.0" y1="78.0" x2="175.0" y2="78.0" stroke="#323232" stroke-width="2" />
<line x1="247.0" y1="78.0" x2="247.0" y2="78.0" stroke="#323232" stroke-width="2" />
<line x1="150.0" y1="66.0" x2="159.0" y2="66.0" stroke="#323232" stroke-width="2" marker-end="url(#arrow)" />
<line x1="379.5" y1="66.0" x2="380.5" y2="66.0" stroke="#323232" stroke-width="2" />
<path d="M321.0,106.0 A15.0,15.0 0 0,1 321.0,76.0 H331.0 A15.0,15.0 0 0,1 331.0,106.0 z" fill="#DCDCDC" stroke="#323232" stroke-width="2"/>
<text class="token_font" x="326.0" y="97.5">=</text>
<line x1="405.5" y1="90.0" x2="406.5" y2="90.0" stroke="#323232" stroke-width="2" />
<rect x="394.0" y="101.0" width="26.0" height="28.0" fill="#FAFAFA" stroke="#323232" stroke-width="2"/>
<text class="non-terminal_font" x="407.0" y="121.5">id</text>
<line x1="359.0" y1="90.0" x2="401.5" y2="90.0" stroke="#323232" stroke-width="2" marker-end="url(#arrow)" />
<line x1="406.5" y1="90.0" x2="456.0" y2="90.0" stroke="#323232" stroke-width="2" />
<path d="M371.0,102.0 A12.0,12.0 0 0,0 359.0,90.0" fill="none" stroke="#323232" stroke-width="2"/>
<line x1="383.0" y1="114.0" x2="389.0" y2="114.0" stroke="#323232" stroke-width="2" marker-end="url(#arrow)" />
<line x1="421.0" y1="114.0" x2="427.0" y2="114.0" stroke="#323232" stroke-width="2" marker-end="url(#arrow)" />
<path d="M371.0,102.0 A12.0,12.0 0 0,0 383.0,114.0" fill="none" stroke="#323232" stroke-width="2"/>
<path d="M431.0,114.0 A12.0,12.0 0 0,0 443.0,102.0" fill="none" stroke="#323232" stroke-width="2"/>
<path d="M455.0,90.0 A12.0,12.0 0 0,0 443.0,102.0" fill="none" stroke="#323232" stroke-width="2"/>
<line x1="371.0" y1="102.0" x2="371.0" y2="102.0" stroke="#323232" stroke-width="2" />
<line x1="443.0" y1="102.0" x2="443.0" y2="102.0" stroke="#323232" stroke-width="2" />
<line x1="346.0" y1="90.0" x2="355.0" y2="90.0" stroke="#323232" stroke-width="2" marker-end="url(#arrow)" />
<line x1="271.0" y1="66.0" x2="375.5" y2="66.0" stroke="#323232" stroke-width="2" marker-end="url(#arrow)" />
<line x1="380.5" y1="66.0" x2="492.0" y2="66.0" stroke="#323232" stroke-width="2" />
<path d="M283.0,78.0 A12.0,12.0 0 0,0 271.0,66.0" fill="none" stroke="#323232" stroke-width="2"/>
<line x1="295.0" y1="90.0" x2="301.0" y2="90.0" stroke="#323232" stroke-width="2" marker-end="url(#arrow)" />
<line x1="455.0" y1="90.0" x2="463.0" y2="90.0" stroke="#323232" stroke-width="2" marker-end="url(#arrow)" />
<path d="M283.0,78.0 A12.0,12.0 0 0,0 295.0,90.0" fill="none" stroke="#323232" stroke-width="2"/>
<path d="M467.0,90.0 A12.0,12.0 0 0,0 479.0,78.0" fill="none" stroke="#323232" stroke-width="2"/>
<path d="M491.0,66.0 A12.0,12.0 0 0,0 479.0,78.0" fill="none" stroke="#323232" stroke-width="2"/>
<line x1="283.0" y1="78.0" x2="283.0" y2="78.0" stroke="#323232" stroke-width="2" />
<line x1="479.0" y1="78.0" x2="479.0" y2="78.0" stroke="#323232" stroke-width="2" />
<line x1="258.0" y1="66.0" x2="267.0" y2="66.0" stroke="#323232" stroke-width="2" marker-end="url(#arrow)" />
<circle cx="266.0" cy="173.0" r="15.0" fill="#DCDCDC" stroke="#323232" stroke-width="2"/>
<text class="token_font" x="266.0" y="179.5"> </text>
<line x1="41.0" y1="172.0" x2="250.0" y2="172.0" stroke="#323232" stroke-width="2" />
<line x1="491.0" y1="172.0" x2="286.0" y2="172.00000000000003" stroke="#323232" stroke-width="2" marker-end="url(#arrow)" />
<line x1="29.0" y1="66.0" x2="41.0" y2="66.0" stroke="#323232" stroke-width="2" />
<path d="M41.0,66.0 A9.0,9.0 0 0,0 32.0,75.0" fill="none" stroke="#323232" stroke-width="2"/>
<line x1="32.0" y1="163.0" x2="32.0" y2="123.0" stroke="#323232" stroke-width="2" marker-end="url(#arrow)" />
<line x1="32.0" y1="119.0" x2="32.0" y2="75.0" stroke="#323232" stroke-width="2" />
<path d="M32.0,163.0 A9.0,9.0 0 0,0 41.0,172.0" fill="none" stroke="#323232" stroke-width="2"/>
<path d="M500.0,75.0 A9.0,9.0 0 0,0 491.0,66.0" fill="none" stroke="#323232" stroke-width="2"/>
<line x1="500.0" y1="75.0" x2="500.0" y2="115.0" stroke="#323232" stroke-width="2" marker-end="url(#arrow)" />
<line x1="500.0" y1="119.0" x2="500.0" y2="163.0" stroke="#323232" stroke-width="2" />
<path d="M491.0,172.0 A9.0,9.0 0 0,0 500.0,163.0" fill="none" stroke="#323232" stroke-width="2"/>
<line x1="491.0" y1="66.0" x2="500.0" y2="66.0" stroke="#323232" stroke-width="2" />
<circle cx="528.0" cy="67.0" r="15.0" fill="#DCDCDC" stroke="#323232" stroke-width="2"/>
<text class="token_font" x="528.0" y="73.5">|</text>
<line x1="499.0" y1="66.0" x2="508.0" y2="66.0" stroke="#323232" stroke-width="2" marker-end="url(#arrow)" />
<line x1="16.0" y1="66.0" x2="25.0" y2="66.0" stroke="#323232" stroke-width="2" marker-end="url(#arrow)" />
<circle cx="559.0" cy="66.0" r="3.0" fill="#623C47" stroke="#323232" stroke-width="2"/>
<line x1="543.0" y1="66.0" x2="552.0" y2="66.0" stroke="#323232" stroke-width="2" marker-end="url(#arrow)" />
<text class="title_font" x="285.5" y="29.0">left_wing</text>
</svg>