<?xml version="1.0" encoding="UTF-8" standalone="no"?>
<!-- Created by Syntax-Trax http://kevinpt.github.io/syntax-trax -->
<svg xmlns="http://www.w3.org/2000/svg"
xmlns:xlink="http://www.w3.org/1999/xlink"
xml:space="preserve"
width="550" height="175" version="1.1">
<style type="text/css">
<![CDATA[
.box_font {fill:#000000; text-anchor:middle;
    font-family:Times; font-size:14pt; font-weight:normal; font-style:italic;}
.charclass_font {fill:#000000; text-anchor:middle;
    font-family:Sans; font-size:16pt; font-weight:bold; font-style:normal;}
.title_font {fill:#000000; text-anchor:middle;
    font-family:Sans; font-size:18pt; font-weight:normal; font-style:italic;}
.bubble_font {fill:#000000; text-anchor:middle;
    font-family:Sans; font-size:14pt; font-weight:bold; font-style:normal;}
.token_font {fill:#000000; text-anchor:middle;
    font-family:Sans; font-size:16pt; font-weight:bold; font-style:normal;}
.label {fill:#000;
  text-anchor:middle;
  font-size:16pt; font-weight:bold; font-family:Sans;}
.link {fill: #0D47A1;}
.link:hover {fill: #0D47A1; text-decoration:underline;}
.link:visited {fill: #4A148C;}
]]>
</style>
<defs>
  <marker id="arrow" markerWidth="5" markerHeight="4" refX="2.5" refY="2" orient="auto" markerUnits="strokeWidth">
    <path d="M0,0 L0.5,2 L0,4 L4.5,2 z" fill="#000000" />
  </marker>
</defs>
<rect width="100%" height="100%" fill="white"/><path d="M93.0,95.0 A15.0,15.0 0 0,1 93.0,65.0 H103.0 A15.0,15.0 0 0,1 103.0,95.0 z" stroke="none" fill-opacity="0.498039215686" fill="#000000"/>
<circle cx="93.5" cy="116.0" r="15.0" stroke="none" fill-opacity="0.498039215686" fill="#000000"/>
<rect x="193.0" y="65.0" width="26.0" height="28.0" stroke="none" fill-opacity="0.498039215686" fill="#000000"/>
<path d="M309.0,95.0 A15.0,15.0 0 0,1 309.0,65.0 H319.0 A15.0,15.0 0 0,1 319.0,95.0 z" stroke="none" fill-opacity="0.498039215686" fill="#000000"/>
<rect x="381.0" y="85.0" width="26.0" height="28.0" stroke="none" fill-opacity="0.498039215686" fill="#000000"/>
<circle cx="257.5" cy="157.0" r="15.0" stroke="none" fill-opacity="0.498039215686" fill="#000000"/>
<circle cx="508.0" cy="60.0" r="15.0" stroke="none" fill-opacity="0.498039215686" fill="#000000"/>
<circle cx="9" cy="56.0" r="3" stroke="#000000" stroke-width="2" fill="#FFFFFF"/>
<line x1="93.5" y1="56.0" x2="94.5" y2="56.0" stroke="#000000" stroke-width="2" />
<path d="M90.0,92.0 A15.0,15.0 0 0,1 90.0,62.0 H100.0 A15.0,15.0 0 0,1 100.0,92.0 z" stroke="#000000" stroke-width="2" fill="#B3E5FC"/>
<text class="token_font" x="95.0" y="83.5">+</text>
<circle cx="90.5" cy="113.0" r="15.0" stroke="#000000" stroke-width="2" fill="#B3E5FC"/>
<text class="token_font" x="90.5" y="119.5">-</text>
<line x1="46" y1="56.0" x2="89.5" y2="56.0" stroke="#000000" stroke-width="2" marker-end="url(#arrow)" />
<line x1="94.5" y1="56.0" x2="145.0" y2="56.0" stroke="#000000" stroke-width="2" />
<path d="M55.0,65.0 A9,9 0 0,0 46.0,56.0" stroke="#000000" stroke-width="2" fill="none"/>
<line x1="64" y1="76.0" x2="70.0" y2="76.0" stroke="#000000" stroke-width="2" marker-end="url(#arrow)" />
<line x1="116.0" y1="76.0" x2="122.0" y2="76.0" stroke="#000000" stroke-width="2" marker-end="url(#arrow)" />
<path d="M55.0,67.0 A9,9 0 0,0 64.0,76.0" stroke="#000000" stroke-width="2" fill="none"/>
<path d="M126.0,76.0 A9.0,9.0 0 0,0 135.0,67.0" stroke="#000000" stroke-width="2" fill="none"/>
<line x1="64" y1="112.0" x2="70.0" y2="112.0" stroke="#000000" stroke-width="2" marker-end="url(#arrow)" />
<line x1="107.0" y1="112.0" x2="122.0" y2="112.0" stroke="#000000" stroke-width="2" marker-end="url(#arrow)" />
<path d="M55.0,103.0 A9,9 0 0,0 64.0,112.0" stroke="#000000" stroke-width="2" fill="none"/>
<path d="M126.0,112.0 A9.0,9.0 0 0,0 135.0,103.0" stroke="#000000" stroke-width="2" fill="none"/>
<path d="M144.0,56.0 A9.0,9.0 0 0,0 135.0,65.0" stroke="#000000" stroke-width="2" fill="none"/>
<line x1="55" y1="103.0" x2="55" y2="65.0" stroke="#000000" stroke-width="2" />
<line x1="135.0" y1="103.0" x2="135.0" y2="65.0" stroke="#000000" stroke-width="2" />
<line x1="201.5" y1="56.0" x2="202.5" y2="56.0" stroke="#000000" stroke-width="2" />
<rect x="190.0" y="62.0" width="26.0" height="28.0" stroke="#000000" stroke-width="2" fill="#90A4AE"/>
<text class="box_font" x="203.0" y="82.5">id</text>
<line x1="161.0" y1="56.0" x2="197.5" y2="56.0" stroke="#000000" stroke-width="2" marker-end="url(#arrow)" />
<line x1="202.5" y1="56.0" x2="246.0" y2="56.0" stroke="#000000" stroke-width="2" />
<path d="M170.0,65.0 A9.0,9.0 0 0,0 161.0,56.0" stroke="#000000" stroke-width="2" fill="none"/>
<line x1="179.0" y1="75.0" x2="185.0" y2="75.0" stroke="#000000" stroke-width="2" marker-end="url(#arrow)" />
<line x1="217.0" y1="75.0" x2="223.0" y2="75.0" stroke="#000000" stroke-width="2" marker-end="url(#arrow)" />
<path d="M170.0,66.0 A9.0,9.0 0 0,0 179.0,75.0" stroke="#000000" stroke-width="2" fill="none"/>
<path d="M227.0,75.0 A9.0,9.0 0 0,0 236.0,66.0" stroke="#000000" stroke-width="2" fill="none"/>
<path d="M245.0,56.0 A9.0,9.0 0 0,0 236.0,65.0" stroke="#000000" stroke-width="2" fill="none"/>
<line x1="170.0" y1="66.0" x2="170.0" y2="65.0" stroke="#000000" stroke-width="2" />
<line x1="236.0" y1="66.0" x2="236.0" y2="65.0" stroke="#000000" stroke-width="2" />
<line x1="143.0" y1="56.0" x2="157.0" y2="56.0" stroke="#000000" stroke-width="2" marker-end="url(#arrow)" />
<line x1="361.0" y1="56.0" x2="362.0" y2="56.0" stroke="#000000" stroke-width="2" />
<path d="M306.0,92.0 A15.0,15.0 0 0,1 306.0,62.0 H316.0 A15.0,15.0 0 0,1 316.0,92.0 z" stroke="#000000" stroke-width="2" fill="#B3E5FC"/>
<text class="token_font" x="311.0" y="83.5">=</text>
<line x1="389.5" y1="76.0" x2="390.5" y2="76.0" stroke="#000000" stroke-width="2" />
<rect x="378.0" y="82.0" width="26.0" height="28.0" stroke="#000000" stroke-width="2" fill="#90A4AE"/>
<text class="box_font" x="391.0" y="102.5">id</text>
<line x1="349.0" y1="76.0" x2="385.5" y2="76.0" stroke="#000000" stroke-width="2" marker-end="url(#arrow)" />
<line x1="390.5" y1="76.0" x2="434.0" y2="76.0" stroke="#000000" stroke-width="2" />
<path d="M358.0,85.0 A9.0,9.0 0 0,0 349.0,76.0" stroke="#000000" stroke-width="2" fill="none"/>
<line x1="367.0" y1="95.0" x2="373.0" y2="95.0" stroke="#000000" stroke-width="2" marker-end="url(#arrow)" />
<line x1="405.0" y1="95.0" x2="411.0" y2="95.0" stroke="#000000" stroke-width="2" marker-end="url(#arrow)" />
<path d="M358.0,86.0 A9.0,9.0 0 0,0 367.0,95.0" stroke="#000000" stroke-width="2" fill="none"/>
<path d="M415.0,95.0 A9.0,9.0 0 0,0 424.0,86.0" stroke="#000000" stroke-width="2" fill="none"/>
<path d="M433.0,76.0 A9.0,9.0 0 0,0 424.0,85.0" stroke="#000000" stroke-width="2" fill="none"/>
<line x1="358.0" y1="86.0" x2="358.0" y2="85.0" stroke="#000000" stroke-width="2" />
<line x1="424.0" y1="86.0" x2="424.0" y2="85.0" stroke="#000000" stroke-width="2" />
<line x1="331.0" y1="76.0" x2="345.0" y2="76.0" stroke="#000000" stroke-width="2" marker-end="url(#arrow)" />
<line x1="262.0" y1="56.0" x2="357.0" y2="56.0" stroke="#000000" stroke-width="2" marker-end="url(#arrow)" />
<line x1="362.0" y1="56.0" x2="464.0" y2="56.0" stroke="#000000" stroke-width="2" />
<path d="M271.0,65.0 A9.0,9.0 0 0,0 262.0,56.0" stroke="#000000" stroke-width="2" fill="none"/>
<line x1="280.0" y1="76.0" x2="286.0" y2="76.0" stroke="#000000" stroke-width="2" marker-end="url(#arrow)" />
<line x1="433.0" y1="76.0" x2="441.0" y2="76.0" stroke="#000000" stroke-width="2" marker-end="url(#arrow)" />
<path d="M271.0,67.0 A9.0,9.0 0 0,0 280.0,76.0" stroke="#000000" stroke-width="2" fill="none"/>
<path d="M445.0,76.0 A9.0,9.0 0 0,0 454.0,67.0" stroke="#000000" stroke-width="2" fill="none"/>
<path d="M463.0,56.0 A9.0,9.0 0 0,0 454.0,65.0" stroke="#000000" stroke-width="2" fill="none"/>
<line x1="271.0" y1="67.0" x2="271.0" y2="65.0" stroke="#000000" stroke-width="2" />
<line x1="454.0" y1="67.0" x2="454.0" y2="65.0" stroke="#000000" stroke-width="2" />
<line x1="244.0" y1="56.0" x2="258.0" y2="56.0" stroke="#000000" stroke-width="2" marker-end="url(#arrow)" />
<circle cx="254.5" cy="154.0" r="15.0" stroke="#000000" stroke-width="2" fill="#B3E5FC"/>
<text class="token_font" x="254.5" y="160.5"> </text>
<line x1="46" y1="153.0" x2="238.5" y2="153.0" stroke="#000000" stroke-width="2" />
<line x1="463.0" y1="153.0" x2="274.5" y2="153.0" stroke="#000000" stroke-width="2" marker-end="url(#arrow)" />
<line x1="29" y1="56.0" x2="46" y2="56.0" stroke="#000000" stroke-width="2" />
<path d="M46.0,56.0 A9,9 0 0,0 37.0,65.0" stroke="#000000" stroke-width="2" fill="none"/>
<line x1="37" y1="144.0" x2="37.0" y2="108.5" stroke="#000000" stroke-width="2" marker-end="url(#arrow)" />
<line x1="37" y1="104.5" x2="37" y2="65.0" stroke="#000000" stroke-width="2" />
<path d="M37.0,144.0 A9,9 0 0,0 46.0,153.0" stroke="#000000" stroke-width="2" fill="none"/>
<path d="M472.0,65.0 A9.0,9.0 0 0,0 463.0,56.0" stroke="#000000" stroke-width="2" fill="none"/>
<line x1="472.0" y1="65.0" x2="472.0" y2="100.5" stroke="#000000" stroke-width="2" marker-end="url(#arrow)" />
<line x1="472.0" y1="104.5" x2="472.0" y2="144.0" stroke="#000000" stroke-width="2" />
<path d="M463.0,153.0 A9.0,9.0 0 0,0 472.0,144.0" stroke="#000000" stroke-width="2" fill="none"/>
<line x1="463.0" y1="56.0" x2="472.0" y2="56.0" stroke="#000000" stroke-width="2" />
<circle cx="505.0" cy="57.0" r="15.0" stroke="#000000" stroke-width="2" fill="#B3E5FC"/>
<text class="token_font" x="505.0" y="63.5">|</text>
<line x1="471.0" y1="56.0" x2="485.0" y2="56.0" stroke="#000000" stroke-width="2" marker-end="url(#arrow)" />
<line x1="11" y1="56.0" x2="25.0" y2="56.0" stroke="#000000" stroke-width="2" marker-end="url(#arrow)" />
<circle cx="541.0" cy="56.0" r="3.0" stroke="#000000" stroke-width="2" fill="#FFFFFF"/>
<line x1="520.0" y1="56.0" x2="534.0" y2="56.0" stroke="#000000" stroke-width="2" marker-end="url(#arrow)" />
<text class="title_font" x="274.0" y="24.0">left_wing</text>
</svg>