<?xml version="1.0" encoding="UTF-8" standalone="no"?>
<!-- Created by Syntax-Trax http://kevinpt.github.io/syntax-trax -->
<svg xmlns="http://www.w3.org/2000/svg"
xmlns:xlink="http://www.w3.org/1999/xlink"
xml:space="preserve"
width="447" height="105" version="1.1">
<style type="text/css">
<![CDATA[
.token_font {fill:#000000; text-anchor:middle;
    font-family:Sans; font-size:16pt; font-weight:bold; font-style:normal;}
.charclass_font {fill:#000000; text-anchor:middle;
    font-family:Sans; font-size:16pt; font-weight:bold; font-style:normal;}
.box_font {fill:#000000; text-anchor:middle;
    font-family:Times; font-size:14pt; font-weight:normal; font-style:italic;}
.bubble_font {fill:#000000; text-anchor:middle;
    font-family:Sans; font-size:14pt; font-weight:bold; font-style:normal;}
.title_font {fill:#000000; text-anchor:middle;
    font-family:Sans; font-size:18pt; font-weight:normal; font-style:italic;}
.label {fill:#000;
  text-anchor:middle;
  font-size:16pt; font-weight:bold; font-family:Sans;}
.link {fill: #0D47A1;}
.link:hover {fill: #0D47A1; text-decoration:underline;}
.link:visited {fill: #4A148C;}
]]>
</style>
<defs>
  <marker id="arrow" markerWidth="5" markerHeight="4" refX="2.5" refY="2" orient="auto" markerUnits="strokeWidth">
    <path d="M0,0 L0.5,2 L0,4 L4.5,2 z" fill="#000000" />
  </marker>
</defs>
<rect width="100%" height="100%" fill="white"/><circle cx="76.5" cy="80.5" r="15.0" fill="#000000" stroke="none" fill-opacity="0.4980392156862745"/>
<rect x="156.0" y="45.0" width="51.0" height="30.0" fill="#000000" stroke="none" fill-opacity="0.4980392156862745"/>
<circle cx="278.0" cy="80.5" r="15.0" fill="#000000" stroke="none" fill-opacity="0.4980392156862745"/>
<rect x="329.0" y="65.5" width="51.0" height="30.0" fill="#000000" stroke="none" fill-opacity="0.4980392156862745"/>
<circle cx="9.0" cy="56.0" r="3.0" fill="#FFFFFF" stroke="#000000" stroke-width="2"/>
<line x1="72.0" y1="56.0" x2="73.0" y2="56.0" stroke="#000000" stroke-width="2" />
<circle cx="73.5" cy="77.5" r="15.0" fill="#B3E5FC" stroke="#000000" stroke-width="2"/>
<text class="token_font" x="73.5" y="84.0">-</text>
<line x1="29.0" y1="56.0" x2="68.0" y2="56.0" stroke="#000000" stroke-width="2" marker-end="url(#arrow)" />
<line x1="73.0" y1="56.0" x2="119.0" y2="56.0" stroke="#000000" stroke-width="2" />
<path d="M38.0,65.0 A9.0,9.0 0 0,0 29.0,56.0" fill="none" stroke="#000000" stroke-width="2"/>
<line x1="47.0" y1="76.5" x2="53.0" y2="76.5" stroke="#000000" stroke-width="2" marker-end="url(#arrow)" />
<line x1="90.0" y1="76.5" x2="96.0" y2="76.5" stroke="#000000" stroke-width="2" marker-end="url(#arrow)" />
<path d="M38.0,67.5 A9.0,9.0 0 0,0 47.0,76.5" fill="none" stroke="#000000" stroke-width="2"/>
<path d="M100.0,76.5 A9.0,9.0 0 0,0 109.0,67.5" fill="none" stroke="#000000" stroke-width="2"/>
<path d="M118.0,56.0 A9.0,9.0 0 0,0 109.0,65.0" fill="none" stroke="#000000" stroke-width="2"/>
<line x1="38.0" y1="67.5" x2="38.0" y2="65.0" stroke="#000000" stroke-width="2" />
<line x1="109.0" y1="67.5" x2="109.0" y2="65.0" stroke="#000000" stroke-width="2" />
<rect x="153.0" y="42.0" width="51.0" height="30.0" fill="#FDE5B3" stroke="#000000" stroke-width="2"/>
<text class="charclass_font" x="178.5" y="63.5">0-9</text>
<line x1="177.0" y1="78.5" x2="178.0" y2="78.5" stroke="#000000" stroke-width="2" />
<line x1="152.0" y1="78.5" x2="177.0" y2="78.5" stroke="#000000" stroke-width="2" />
<line x1="205.0" y1="78.5" x2="182.0" y2="78.5" stroke="#000000" stroke-width="2" marker-end="url(#arrow)" />
<line x1="135.0" y1="56.0" x2="152.0" y2="56.0" stroke="#000000" stroke-width="2" />
<path d="M152.0,56.0 A11.25,11.25 0 0,0 152.0,78.5" fill="none" stroke="#000000" stroke-width="2"/>
<path d="M205.0,78.5 A11.25,11.25 0 0,0 205.0,56.0" fill="none" stroke="#000000" stroke-width="2"/>
<line x1="205.0" y1="56.0" x2="214.0" y2="56.0" stroke="#000000" stroke-width="2" />
<line x1="117.0" y1="56.0" x2="131.0" y2="56.0" stroke="#000000" stroke-width="2" marker-end="url(#arrow)" />
<line x1="323.125" y1="56.0" x2="324.125" y2="56.0" stroke="#000000" stroke-width="2" />
<circle cx="275.0" cy="77.5" r="15.0" fill="#B3E5FC" stroke="#000000" stroke-width="2"/>
<text class="token_font" x="275.0" y="84.0">.</text>
<rect x="326.0" y="62.5" width="51.0" height="30.0" fill="#FDE5B3" stroke="#000000" stroke-width="2"/>
<text class="charclass_font" x="351.5" y="84.0">0-9</text>
<line x1="350.0" y1="99.0" x2="351.0" y2="99.0" stroke="#000000" stroke-width="2" />
<line x1="325.0" y1="99.0" x2="350.0" y2="99.0" stroke="#000000" stroke-width="2" />
<line x1="378.0" y1="99.0" x2="355.0" y2="99.0" stroke="#000000" stroke-width="2" marker-end="url(#arrow)" />
<line x1="308.0" y1="76.5" x2="325.0" y2="76.5" stroke="#000000" stroke-width="2" />
<path d="M325.0,76.5 A11.25,11.25 0 0,0 325.0,99.0" fill="none" stroke="#000000" stroke-width="2"/>
<path d="M378.0,99.0 A11.25,11.25 0 0,0 378.0,76.5" fill="none" stroke="#000000" stroke-width="2"/>
<line x1="378.0" y1="76.5" x2="387.0" y2="76.5" stroke="#000000" stroke-width="2" />
<line x1="290.0" y1="76.5" x2="304.0" y2="76.5" stroke="#000000" stroke-width="2" marker-end="url(#arrow)" />
<line x1="231.0" y1="56.0" x2="319.125" y2="56.0" stroke="#000000" stroke-width="2" marker-end="url(#arrow)" />
<line x1="324.125" y1="56.0" x2="419.25" y2="56.0" stroke="#000000" stroke-width="2" />
<path d="M240.0,65.0 A9.0,9.0 0 0,0 231.0,56.0" fill="none" stroke="#000000" stroke-width="2"/>
<line x1="249.0" y1="76.5" x2="255.0" y2="76.5" stroke="#000000" stroke-width="2" marker-end="url(#arrow)" />
<line x1="387.0" y1="76.5" x2="396.25" y2="76.5" stroke="#000000" stroke-width="2" marker-end="url(#arrow)" />
<path d="M240.0,67.5 A9.0,9.0 0 0,0 249.0,76.5" fill="none" stroke="#000000" stroke-width="2"/>
<path d="M400.25,76.5 A9.0,9.0 0 0,0 409.25,67.5" fill="none" stroke="#000000" stroke-width="2"/>
<path d="M418.25,56.0 A9.0,9.0 0 0,0 409.25,65.0" fill="none" stroke="#000000" stroke-width="2"/>
<line x1="240.0" y1="67.5" x2="240.0" y2="65.0" stroke="#000000" stroke-width="2" />
<line x1="409.25" y1="67.5" x2="409.25" y2="65.0" stroke="#000000" stroke-width="2" />
<line x1="213.0" y1="56.0" x2="227.0" y2="56.0" stroke="#000000" stroke-width="2" marker-end="url(#arrow)" />
<line x1="11.0" y1="56.0" x2="25.0" y2="56.0" stroke="#000000" stroke-width="2" marker-end="url(#arrow)" />
<circle cx="438.25" cy="56.0" r="3.0" fill="#FFFFFF" stroke="#000000" stroke-width="2"/>
<line x1="417.25" y1="56.0" x2="431.25" y2="56.0" stroke="#000000" stroke-width="2" marker-end="url(#arrow)" />
<text class="title_font" x="222.625" y="24.0">number</text>
</svg>