<?xml version="1.0" encoding="UTF-8" standalone="no"?>
<!-- Created by Syntax-Trax http://kevinpt.github.io/syntax-trax -->
<svg xmlns="http://www.w3.org/2000/svg"
xmlns:xlink="http://www.w3.org/1999/xlink"
xml:space="preserve"
width="467" height="125" version="1.1">
<style type="text/css">
<![CDATA[
.definitive_font {fill:#000000; text-anchor:middle;
    font-family:Times; font-size:14pt; font-weight:normal; font-style:italic;}
.token_font {fill:#000000; text-anchor:middle;
    font-family:Sans; font-size:16pt; font-weight:bold; font-style:normal;}
.non-terminal_font {fill:#000000; text-anchor:middle;
    font-family:Times; font-size:14pt; font-weight:normal; font-style:italic;}
.negative_font {fill:#000000; text-anchor:middle;
    font-family:Times; font-size:14pt; font-weight:normal; font-style:italic;}
.hash_font {fill:#000000; text-anchor:middle;
    font-family:Times; font-size:14pt; font-weight:normal; font-style:italic;}
.space_font {fill:#000000; text-anchor:middle;
    font-family:Sans; font-size:10pt; font-weight:normal; font-style:normal;}
.title_font {fill:#000000; text-anchor:middle;
    font-family:Sans; font-size:18pt; font-weight:normal; font-style:italic;}
.charclass_font {fill:#000000; text-anchor:middle;
    font-family:Sans; font-size:16pt; font-weight:bold; font-style:normal;}
.label {fill:#000;
  text-anchor:middle;
  font-size:16pt; font-weight:bold; font-family:Sans;}
.link {fill: #0D47A1;}
.link:hover {fill: #0D47A1; text-decoration:underline;}
.link:visited {fill: #4A148C;}
]]>
</style>
<defs>
  <marker id="arrow" markerWidth="5" markerHeight="4" refX="2.5" refY="2" orient="auto" markerUnits="strokeWidth">
    <path d="M0,0 L0.5,2 L0,4 L4.5,2 z" fill="#323232" />
  </marker>
</defs>
<rect width="100%" height="100%" fill="white"/><circle cx="14.0" cy="66.0" r="3.0" fill="#623C47" stroke-width="2" stroke="#323232"/>
<line x1="78.0" y1="66.0" x2="79.0" y2="66.0" stroke-width="2" stroke="#323232" />
<circle cx="79.5" cy="91.0" r="15.0" fill="#DCDCDC" stroke-width="2" stroke="#323232"/>
<text class="token_font" x="79.5" y="97.5">-</text>
<line x1="29.0" y1="66.0" x2="74.0" y2="66.0" stroke-width="2" stroke="#323232" marker-end="url(#arrow)" />
<line x1="79.0" y1="66.0" x2="131.0" y2="66.0" stroke-width="2" stroke="#323232" />
<path d="M41.0,78.0 A12.0,12.0 0 0,0 29.0,66.0" fill="none" stroke-width="2" stroke="#323232"/>
<line x1="53.0" y1="90.0" x2="59.0" y2="90.0" stroke-width="2" stroke="#323232" marker-end="url(#arrow)" />
<line x1="96.0" y1="90.0" x2="102.0" y2="90.0" stroke-width="2" stroke="#323232" marker-end="url(#arrow)" />
<path d="M41.0,78.0 A12.0,12.0 0 0,0 53.0,90.0" fill="none" stroke-width="2" stroke="#323232"/>
<path d="M106.0,90.0 A12.0,12.0 0 0,0 118.0,78.0" fill="none" stroke-width="2" stroke="#323232"/>
<path d="M130.0,66.0 A12.0,12.0 0 0,0 118.0,78.0" fill="none" stroke-width="2" stroke="#323232"/>
<line x1="41.0" y1="78.0" x2="41.0" y2="78.0" stroke-width="2" stroke="#323232" />
<line x1="118.0" y1="78.0" x2="118.0" y2="78.0" stroke-width="2" stroke="#323232" />
<path d="M162.5,82.0 H208.5 L216.0,67.0 L208.5,52.0 H162.5 L155.0,67.0 z" fill="#FAFAB4" stroke-width="2" stroke="#323232"/>
<text class="charclass_font" x="185.5" y="73.5">0-9</text>
<line x1="184.0" y1="90.0" x2="185.0" y2="90.0" stroke-width="2" stroke="#323232" />
<line x1="154.0" y1="90.0" x2="184.0" y2="90.0" stroke-width="2" stroke="#323232" />
<line x1="217.0" y1="90.0" x2="189.0" y2="90.0" stroke-width="2" stroke="#323232" marker-end="url(#arrow)" />
<line x1="142.0" y1="66.0" x2="154.0" y2="66.0" stroke-width="2" stroke="#323232" />
<path d="M154.0,66.0 A12.0,12.0 0 0,0 154.0,90.0" fill="none" stroke-width="2" stroke="#323232"/>
<path d="M217.0,90.0 A12.0,12.0 0 0,0 217.0,66.0" fill="none" stroke-width="2" stroke="#323232"/>
<line x1="217.0" y1="66.0" x2="226.0" y2="66.0" stroke-width="2" stroke="#323232" />
<line x1="129.0" y1="66.0" x2="138.0" y2="66.0" stroke-width="2" stroke="#323232" marker-end="url(#arrow)" />
<line x1="336.5" y1="66.0" x2="337.5" y2="66.0" stroke-width="2" stroke="#323232" />
<circle cx="288.0" cy="91.0" r="15.0" fill="#DCDCDC" stroke-width="2" stroke="#323232"/>
<text class="token_font" x="288.0" y="97.5">.</text>
<path d="M336.5,106.0 H382.5 L390.0,91.0 L382.5,76.0 H336.5 L329.0,91.0 z" fill="#FAFAB4" stroke-width="2" stroke="#323232"/>
<text class="charclass_font" x="359.5" y="97.5">0-9</text>
<line x1="358.0" y1="114.0" x2="359.0" y2="114.0" stroke-width="2" stroke="#323232" />
<line x1="328.0" y1="114.0" x2="358.0" y2="114.0" stroke-width="2" stroke="#323232" />
<line x1="391.0" y1="114.0" x2="363.0" y2="114.0" stroke-width="2" stroke="#323232" marker-end="url(#arrow)" />
<line x1="316.0" y1="90.0" x2="328.0" y2="90.0" stroke-width="2" stroke="#323232" />
<path d="M328.0,90.0 A12.0,12.0 0 0,0 328.0,114.0" fill="none" stroke-width="2" stroke="#323232"/>
<path d="M391.0,114.0 A12.0,12.0 0 0,0 391.0,90.0" fill="none" stroke-width="2" stroke="#323232"/>
<line x1="391.0" y1="90.0" x2="400.0" y2="90.0" stroke-width="2" stroke="#323232" />
<line x1="303.0" y1="90.0" x2="312.0" y2="90.0" stroke-width="2" stroke="#323232" marker-end="url(#arrow)" />
<line x1="238.0" y1="66.0" x2="332.5" y2="66.0" stroke-width="2" stroke="#323232" marker-end="url(#arrow)" />
<line x1="337.5" y1="66.0" x2="439.0" y2="66.0" stroke-width="2" stroke="#323232" />
<path d="M250.0,78.0 A12.0,12.0 0 0,0 238.0,66.0" fill="none" stroke-width="2" stroke="#323232"/>
<line x1="262.0" y1="90.0" x2="268.0" y2="90.0" stroke-width="2" stroke="#323232" marker-end="url(#arrow)" />
<line x1="400.0" y1="90.0" x2="410.0" y2="90.0" stroke-width="2" stroke="#323232" marker-end="url(#arrow)" />
<path d="M250.0,78.0 A12.0,12.0 0 0,0 262.0,90.0" fill="none" stroke-width="2" stroke="#323232"/>
<path d="M414.0,90.0 A12.0,12.0 0 0,0 426.0,78.0" fill="none" stroke-width="2" stroke="#323232"/>
<path d="M438.0,66.0 A12.0,12.0 0 0,0 426.0,78.0" fill="none" stroke-width="2" stroke="#323232"/>
<line x1="250.0" y1="78.0" x2="250.0" y2="78.0" stroke-width="2" stroke="#323232" />
<line x1="426.0" y1="78.0" x2="426.0" y2="78.0" stroke-width="2" stroke="#323232" />
<line x1="225.0" y1="66.0" x2="234.0" y2="66.0" stroke-width="2" stroke="#323232" marker-end="url(#arrow)" />
<line x1="16.0" y1="66.0" x2="25.0" y2="66.0" stroke-width="2" stroke="#323232" marker-end="url(#arrow)" />
<circle cx="453.0" cy="66.0" r="3.0" fill="#623C47" stroke-width="2" stroke="#323232"/>
<line x1="437.0" y1="66.0" x2="446.0" y2="66.0" stroke-width="2" stroke="#323232" marker-end="url(#arrow)" />
<text class="title_font" x="232.5" y="29.0">number</text>
</svg>