<?xml version="1.0" encoding="UTF-8" standalone="no"?>
<!-- Created by Syntax-Trax http://kevinpt.github.io/syntax-trax -->
<svg xmlns="http://www.w3.org/2000/svg"
xmlns:xlink="http://www.w3.org/1999/xlink"
xml:space="preserve"
width="501" height="709" version="1.1">
<style type="text/css">
<![CDATA[
.non-terminal_font {fill:#000000; text-anchor:middle;
    font-family:Times; font-size:14pt; font-weight:normal; font-style:italic;}
.token_font {fill:#000000; text-anchor:middle;
    font-family:Sans; font-size:16pt; font-weight:bold; font-style:normal;}
.space_font {fill:#000000; text-anchor:middle;
    font-family:Sans; font-size:10pt; font-weight:normal; font-style:normal;}
.charclass_font {fill:#000000; text-anchor:middle;
    font-family:Sans; font-size:16pt; font-weight:bold; font-style:normal;}
.definitive_font {fill:#000000; text-anchor:middle;
    font-family:Times; font-size:14pt; font-weight:normal; font-style:italic;}
.hash_font {fill:#000000; text-anchor:middle;
    font-family:Times; font-size:14pt; font-weight:normal; font-style:italic;}
.negative_font {fill:#000000; text-anchor:middle;
    font-family:Times; font-size:14pt; font-weight:normal; font-style:italic;}
.title_font {fill:#000000; text-anchor:middle;
    font-family:Sans; font-size:18pt; font-weight:normal; font-style:italic;}
.label {fill:#000;
  text-anchor:middle;
  font-size:16pt; font-weight:bold; font-family:Sans;}
.link {fill: #0D47A1;}
.link:hover {fill: #0D47A1; text-decoration:underline;}
.link:visited {fill: #4A148C;}
]]>
</style>
<defs>
  <marker id="arrow" markerWidth="5" markerHeight="4" refX="2.5" refY="2" orient="auto" markerUnits="strokeWidth">
    <path d="M0,0 L0.5,2 L0,4 L4.5,2 z" fill="#323232" />
  </marker>
</defs>
<rect width="100%" height="100%" fill="white"/><circle cx="14.0" cy="66.0" r="3.0" stroke-width="2" fill="#623C47" stroke="#323232"/>
<path d="M45.0,82.0 A15.0,15.0 0 0,1 45.0,52.0 H47.0 A15.0,15.0 0 0,1 47.0,82.0 z" stroke-width="2" fill="#DCDCDC" stroke="#323232"/>
<text class="token_font" x="46.0" y="73.5">(</text>
<rect x="110.0" y="52.0" width="51.0" height="30.0" stroke-width="2" fill="#FAC8C8" stroke="#323232"/>
<text class="definitive_font" x="135.5" y="74.0">value</text>
<rect x="110.0" y="98.0" width="51.0" height="30.0" stroke-width="2" fill="#FAC8C8" stroke="#323232"/>
<text class="definitive_font" x="135.5" y="120.0">value</text>
<path d="M236.0,128.0 A15.0,15.0 0 0,1 236.0,98.0 H264.0 A15.0,15.0 0 0,1 264.0,128.0 z" stroke-width="2" fill="#DCDCDC" stroke="#323232"/>
<text class="token_font" x="250.0" y="119.5">&lt;=</text>
<path d="M236.0,166.0 A15.0,15.0 0 0,1 236.0,136.0 H246.0 A15.0,15.0 0 0,1 246.0,166.0 z" stroke-width="2" fill="#DCDCDC" stroke="#323232"/>
<text class="token_font" x="241.0" y="157.5">&lt;</text>
<path d="M236.0,204.0 A15.0,15.0 0 0,1 236.0,174.0 H246.0 A15.0,15.0 0 0,1 246.0,204.0 z" stroke-width="2" fill="#DCDCDC" stroke="#323232"/>
<text class="token_font" x="241.0" y="195.5">&gt;</text>
<path d="M236.0,242.0 A15.0,15.0 0 0,1 236.0,212.0 H264.0 A15.0,15.0 0 0,1 264.0,242.0 z" stroke-width="2" fill="#DCDCDC" stroke="#323232"/>
<text class="token_font" x="250.0" y="233.5">&gt;=</text>
<path d="M236.0,280.0 A15.0,15.0 0 0,1 236.0,250.0 H246.0 A15.0,15.0 0 0,1 246.0,280.0 z" stroke-width="2" fill="#DCDCDC" stroke="#323232"/>
<text class="token_font" x="241.0" y="271.5">=</text>
<path d="M236.0,318.0 A15.0,15.0 0 0,1 236.0,288.0 H246.0 A15.0,15.0 0 0,1 246.0,318.0 z" stroke-width="2" fill="#DCDCDC" stroke="#323232"/>
<text class="token_font" x="241.0" y="309.5">&amp;</text>
<circle cx="236.0" cy="341.0" r="15.0" stroke-width="2" fill="#DCDCDC" stroke="#323232"/>
<text class="token_font" x="236.0" y="347.5">|</text>
<path d="M236.0,394.0 A15.0,15.0 0 0,1 236.0,364.0 H249.0 A15.0,15.0 0 0,1 249.0,394.0 z" stroke-width="2" fill="#DCDCDC" stroke="#323232"/>
<text class="token_font" x="242.5" y="385.5">%</text>
<path d="M236.0,432.0 A15.0,15.0 0 0,1 236.0,402.0 H250.0 A15.0,15.0 0 0,1 250.0,432.0 z" stroke-width="2" fill="#DCDCDC" stroke="#323232"/>
<text class="token_font" x="243.0" y="423.5">**</text>
<path d="M236.0,470.0 A15.0,15.0 0 0,1 236.0,440.0 H239.0 A15.0,15.0 0 0,1 239.0,470.0 z" stroke-width="2" fill="#DCDCDC" stroke="#323232"/>
<text class="token_font" x="237.5" y="461.5">*</text>
<path d="M236.0,508.0 A15.0,15.0 0 0,1 236.0,478.0 H246.0 A15.0,15.0 0 0,1 246.0,508.0 z" stroke-width="2" fill="#DCDCDC" stroke="#323232"/>
<text class="token_font" x="241.0" y="499.5">+</text>
<circle cx="236.5" cy="531.0" r="15.0" stroke-width="2" fill="#DCDCDC" stroke="#323232"/>
<text class="token_font" x="236.5" y="537.5">-</text>
<path d="M236.0,584.0 A15.0,15.0 0 0,1 236.0,554.0 H264.0 A15.0,15.0 0 0,1 264.0,584.0 z" stroke-width="2" fill="#DCDCDC" stroke="#323232"/>
<text class="token_font" x="250.0" y="575.5">&lt;&lt;</text>
<path d="M236.0,622.0 A15.0,15.0 0 0,1 236.0,592.0 H264.0 A15.0,15.0 0 0,1 264.0,622.0 z" stroke-width="2" fill="#DCDCDC" stroke="#323232"/>
<text class="token_font" x="250.0" y="613.5">&gt;&gt;</text>
<path d="M236.0,660.0 A15.0,15.0 0 0,1 236.0,630.0 H257.0 A15.0,15.0 0 0,1 257.0,660.0 z" stroke-width="2" fill="#DCDCDC" stroke="#323232"/>
<text class="token_font" x="246.5" y="651.5">*&gt;</text>
<path d="M236.0,698.0 A15.0,15.0 0 0,1 236.0,668.0 H257.0 A15.0,15.0 0 0,1 257.0,698.0 z" stroke-width="2" fill="#DCDCDC" stroke="#323232"/>
<text class="token_font" x="246.5" y="689.5">&lt;*</text>
<line x1="186.0" y1="112.0" x2="216.0" y2="112.0" stroke-width="2" stroke="#323232" marker-end="url(#arrow)" />
<line x1="280.0" y1="112.0" x2="315.0" y2="112.0" stroke-width="2" stroke="#323232" />
<path d="M198.0,124.0 A12.0,12.0 0 0,0 186.0,112.0" stroke-width="2" fill="none" stroke="#323232"/>
<line x1="210.0" y1="150.0" x2="216.0" y2="150.0" stroke-width="2" stroke="#323232" marker-end="url(#arrow)" />
<line x1="262.0" y1="150.0" x2="286.0" y2="150.0" stroke-width="2" stroke="#323232" marker-end="url(#arrow)" />
<path d="M198.0,138.0 A12.0,12.0 0 0,0 210.0,150.0" stroke-width="2" fill="none" stroke="#323232"/>
<path d="M290.0,150.0 A12.0,12.0 0 0,0 302.0,138.0" stroke-width="2" fill="none" stroke="#323232"/>
<line x1="210.0" y1="188.0" x2="216.0" y2="188.0" stroke-width="2" stroke="#323232" marker-end="url(#arrow)" />
<line x1="262.0" y1="188.0" x2="286.0" y2="188.0" stroke-width="2" stroke="#323232" marker-end="url(#arrow)" />
<path d="M198.0,176.0 A12.0,12.0 0 0,0 210.0,188.0" stroke-width="2" fill="none" stroke="#323232"/>
<path d="M290.0,188.0 A12.0,12.0 0 0,0 302.0,176.0" stroke-width="2" fill="none" stroke="#323232"/>
<line x1="210.0" y1="226.0" x2="216.0" y2="226.0" stroke-width="2" stroke="#323232" marker-end="url(#arrow)" />
<line x1="280.0" y1="226.0" x2="286.0" y2="226.0" stroke-width="2" stroke="#323232" marker-end="url(#arrow)" />
<path d="M198.0,214.0 A12.0,12.0 0 0,0 210.0,226.0" stroke-width="2" fill="none" stroke="#323232"/>
<path d="M290.0,226.0 A12.0,12.0 0 0,0 302.0,214.0" stroke-width="2" fill="none" stroke="#323232"/>
<line x1="210.0" y1="264.0" x2="216.0" y2="264.0" stroke-width="2" stroke="#323232" marker-end="url(#arrow)" />
<line x1="262.0" y1="264.0" x2="286.0" y2="264.0" stroke-width="2" stroke="#323232" marker-end="url(#arrow)" />
<path d="M198.0,252.0 A12.0,12.0 0 0,0 210.0,264.0" stroke-width="2" fill="none" stroke="#323232"/>
<path d="M290.0,264.0 A12.0,12.0 0 0,0 302.0,252.0" stroke-width="2" fill="none" stroke="#323232"/>
<line x1="210.0" y1="302.0" x2="216.0" y2="302.0" stroke-width="2" stroke="#323232" marker-end="url(#arrow)" />
<line x1="262.0" y1="302.0" x2="286.0" y2="302.0" stroke-width="2" stroke="#323232" marker-end="url(#arrow)" />
<path d="M198.0,290.0 A12.0,12.0 0 0,0 210.0,302.0" stroke-width="2" fill="none" stroke="#323232"/>
<path d="M290.0,302.0 A12.0,12.0 0 0,0 302.0,290.0" stroke-width="2" fill="none" stroke="#323232"/>
<line x1="210.0" y1="340.0" x2="216.0" y2="340.0" stroke-width="2" stroke="#323232" marker-end="url(#arrow)" />
<line x1="252.0" y1="340.0" x2="286.0" y2="340.0" stroke-width="2" stroke="#323232" marker-end="url(#arrow)" />
<path d="M198.0,328.0 A12.0,12.0 0 0,0 210.0,340.0" stroke-width="2" fill="none" stroke="#323232"/>
<path d="M290.0,340.0 A12.0,12.0 0 0,0 302.0,328.0" stroke-width="2" fill="none" stroke="#323232"/>
<line x1="210.0" y1="378.0" x2="216.0" y2="378.0" stroke-width="2" stroke="#323232" marker-end="url(#arrow)" />
<line x1="265.0" y1="378.0" x2="286.0" y2="378.0" stroke-width="2" stroke="#323232" marker-end="url(#arrow)" />
<path d="M198.0,366.0 A12.0,12.0 0 0,0 210.0,378.0" stroke-width="2" fill="none" stroke="#323232"/>
<path d="M290.0,378.0 A12.0,12.0 0 0,0 302.0,366.0" stroke-width="2" fill="none" stroke="#323232"/>
<line x1="210.0" y1="416.0" x2="216.0" y2="416.0" stroke-width="2" stroke="#323232" marker-end="url(#arrow)" />
<line x1="266.0" y1="416.0" x2="286.0" y2="416.0" stroke-width="2" stroke="#323232" marker-end="url(#arrow)" />
<path d="M198.0,404.0 A12.0,12.0 0 0,0 210.0,416.0" stroke-width="2" fill="none" stroke="#323232"/>
<path d="M290.0,416.0 A12.0,12.0 0 0,0 302.0,404.0" stroke-width="2" fill="none" stroke="#323232"/>
<line x1="210.0" y1="454.0" x2="216.0" y2="454.0" stroke-width="2" stroke="#323232" marker-end="url(#arrow)" />
<line x1="255.0" y1="454.0" x2="286.0" y2="454.0" stroke-width="2" stroke="#323232" marker-end="url(#arrow)" />
<path d="M198.0,442.0 A12.0,12.0 0 0,0 210.0,454.0" stroke-width="2" fill="none" stroke="#323232"/>
<path d="M290.0,454.0 A12.0,12.0 0 0,0 302.0,442.0" stroke-width="2" fill="none" stroke="#323232"/>
<line x1="210.0" y1="492.0" x2="216.0" y2="492.0" stroke-width="2" stroke="#323232" marker-end="url(#arrow)" />
<line x1="262.0" y1="492.0" x2="286.0" y2="492.0" stroke-width="2" stroke="#323232" marker-end="url(#arrow)" />
<path d="M198.0,480.0 A12.0,12.0 0 0,0 210.0,492.0" stroke-width="2" fill="none" stroke="#323232"/>
<path d="M290.0,492.0 A12.0,12.0 0 0,0 302.0,480.0" stroke-width="2" fill="none" stroke="#323232"/>
<line x1="210.0" y1="530.0" x2="216.0" y2="530.0" stroke-width="2" stroke="#323232" marker-end="url(#arrow)" />
<line x1="253.0" y1="530.0" x2="286.0" y2="530.0" stroke-width="2" stroke="#323232" marker-end="url(#arrow)" />
<path d="M198.0,518.0 A12.0,12.0 0 0,0 210.0,530.0" stroke-width="2" fill="none" stroke="#323232"/>
<path d="M290.0,530.0 A12.0,12.0 0 0,0 302.0,518.0" stroke-width="2" fill="none" stroke="#323232"/>
<line x1="210.0" y1="568.0" x2="216.0" y2="568.0" stroke-width="2" stroke="#323232" marker-end="url(#arrow)" />
<line x1="280.0" y1="568.0" x2="286.0" y2="568.0" stroke-width="2" stroke="#323232" marker-end="url(#arrow)" />
<path d="M198.0,556.0 A12.0,12.0 0 0,0 210.0,568.0" stroke-width="2" fill="none" stroke="#323232"/>
<path d="M290.0,568.0 A12.0,12.0 0 0,0 302.0,556.0" stroke-width="2" fill="none" stroke="#323232"/>
<line x1="210.0" y1="606.0" x2="216.0" y2="606.0" stroke-width="2" stroke="#323232" marker-end="url(#arrow)" />
<line x1="280.0" y1="606.0" x2="286.0" y2="606.0" stroke-width="2" stroke="#323232" marker-end="url(#arrow)" />
<path d="M198.0,594.0 A12.0,12.0 0 0,0 210.0,606.0" stroke-width="2" fill="none" stroke="#323232"/>
<path d="M290.0,606.0 A12.0,12.0 0 0,0 302.0,594.0" stroke-width="2" fill="none" stroke="#323232"/>
<line x1="210.0" y1="644.0" x2="216.0" y2="644.0" stroke-width="2" stroke="#323232" marker-end="url(#arrow)" />
<line x1="273.0" y1="644.0" x2="286.0" y2="644.0" stroke-width="2" stroke="#323232" marker-end="url(#arrow)" />
<path d="M198.0,632.0 A12.0,12.0 0 0,0 210.0,644.0" stroke-width="2" fill="none" stroke="#323232"/>
<path d="M290.0,644.0 A12.0,12.0 0 0,0 302.0,632.0" stroke-width="2" fill="none" stroke="#323232"/>
<line x1="210.0" y1="682.0" x2="216.0" y2="682.0" stroke-width="2" stroke="#323232" marker-end="url(#arrow)" />
<line x1="273.0" y1="682.0" x2="286.0" y2="682.0" stroke-width="2" stroke="#323232" marker-end="url(#arrow)" />
<path d="M198.0,670.0 A12.0,12.0 0 0,0 210.0,682.0" stroke-width="2" fill="none" stroke="#323232"/>
<path d="M290.0,682.0 A12.0,12.0 0 0,0 302.0,670.0" stroke-width="2" fill="none" stroke="#323232"/>
<path d="M314.0,112.0 A12.0,12.0 0 0,0 302.0,124.0" stroke-width="2" fill="none" stroke="#323232"/>
<line x1="198.0" y1="670.0" x2="198.0" y2="124.0" stroke-width="2" stroke="#323232" />
<line x1="302.0" y1="670.0" x2="302.0" y2="124.0" stroke-width="2" stroke="#323232" />
<rect x="327.0" y="98.0" width="51.0" height="30.0" stroke-width="2" fill="#FAC8C8" stroke="#323232"/>
<text class="definitive_font" x="352.5" y="120.0">value</text>
<line x1="313.0" y1="112.0" x2="322.0" y2="112.0" stroke-width="2" stroke="#323232" marker-end="url(#arrow)" />
<line x1="281.5" y1="90.0" x2="282.5" y2="90.0" stroke-width="2" stroke="#323232" />
<line x1="186.0" y1="90.0" x2="281.5" y2="90.0" stroke-width="2" stroke="#323232" />
<line x1="379.0" y1="90.0" x2="286.5" y2="90.00000000000001" stroke-width="2" stroke="#323232" marker-end="url(#arrow)" />
<line x1="174.0" y1="112.0" x2="186.0" y2="112.0" stroke-width="2" stroke="#323232" />
<path d="M186.0,90.0 A11.0,11.0 0 0,0 186.0,112.0" stroke-width="2" fill="none" stroke="#323232"/>
<path d="M379.0,112.0 A11.0,11.0 0 0,0 379.0,90.0" stroke-width="2" fill="none" stroke="#323232"/>
<line x1="379.0" y1="112.0" x2="391.0" y2="112.0" stroke-width="2" stroke="#323232" />
<line x1="161.0" y1="112.0" x2="170.0" y2="112.0" stroke-width="2" stroke="#323232" marker-end="url(#arrow)" />
<line x1="75.0" y1="66.0" x2="105.0" y2="66.0" stroke-width="2" stroke="#323232" marker-end="url(#arrow)" />
<line x1="162.0" y1="66.0" x2="427.0" y2="66.0" stroke-width="2" stroke="#323232" />
<path d="M87.0,78.0 A12.0,12.0 0 0,0 75.0,66.0" stroke-width="2" fill="none" stroke="#323232"/>
<line x1="99.0" y1="112.0" x2="105.0" y2="112.0" stroke-width="2" stroke="#323232" marker-end="url(#arrow)" />
<line x1="391.0" y1="112.0" x2="398.0" y2="112.0" stroke-width="2" stroke="#323232" marker-end="url(#arrow)" />
<path d="M87.0,100.0 A12.0,12.0 0 0,0 99.0,112.0" stroke-width="2" fill="none" stroke="#323232"/>
<path d="M402.0,112.0 A12.0,12.0 0 0,0 414.0,100.0" stroke-width="2" fill="none" stroke="#323232"/>
<path d="M426.0,66.0 A12.0,12.0 0 0,0 414.0,78.0" stroke-width="2" fill="none" stroke="#323232"/>
<line x1="87.0" y1="100.0" x2="87.0" y2="78.0" stroke-width="2" stroke="#323232" />
<line x1="414.0" y1="100.0" x2="414.0" y2="78.0" stroke-width="2" stroke="#323232" />
<line x1="62.0" y1="66.0" x2="71.0" y2="66.0" stroke-width="2" stroke="#323232" marker-end="url(#arrow)" />
<path d="M454.0,82.0 A15.0,15.0 0 0,1 454.0,52.0 H456.0 A15.0,15.0 0 0,1 456.0,82.0 z" stroke-width="2" fill="#DCDCDC" stroke="#323232"/>
<text class="token_font" x="455.0" y="73.5">)</text>
<line x1="425.0" y1="66.0" x2="434.0" y2="66.0" stroke-width="2" stroke="#323232" marker-end="url(#arrow)" />
<line x1="16.0" y1="66.0" x2="25.0" y2="66.0" stroke-width="2" stroke="#323232" marker-end="url(#arrow)" />
<circle cx="487.0" cy="66.0" r="3.0" stroke-width="2" fill="#623C47" stroke="#323232"/>
<line x1="471.0" y1="66.0" x2="480.0" y2="66.0" stroke-width="2" stroke="#323232" marker-end="url(#arrow)" />
<text class="title_font" x="249.5" y="29.0">operation</text>
</svg>