<?xml version="1.0" encoding="UTF-8" standalone="no"?>
<!-- Created by Syntax-Trax http://kevinpt.github.io/syntax-trax -->
<svg xmlns="http://www.w3.org/2000/svg"
xmlns:xlink="http://www.w3.org/1999/xlink"
xml:space="preserve"
width="501" height="556" version="1.1">
<style type="text/css">
<![CDATA[
.definitive_font {fill:#000000; text-anchor:middle;
    font-family:Times; font-size:14pt; font-weight:normal; font-style:italic;}
.space_font {fill:#000000; text-anchor:middle;
    font-family:Sans; font-size:10pt; font-weight:normal; font-style:normal;}
.title_font {fill:#000000; text-anchor:middle;
    font-family:Sans; font-size:18pt; font-weight:normal; font-style:italic;}
.hash_font {fill:#000000; text-anchor:middle;
    font-family:Times; font-size:14pt; font-weight:normal; font-style:italic;}
.negative_font {fill:#000000; text-anchor:middle;
    font-family:Times; font-size:14pt; font-weight:normal; font-style:italic;}
.token_font {fill:#000000; text-anchor:middle;
    font-family:Sans; font-size:16pt; font-weight:bold; font-style:normal;}
.charclass_font {fill:#000000; text-anchor:middle;
    font-family:Sans; font-size:16pt; font-weight:bold; font-style:normal;}
.non-terminal_font {fill:#000000; text-anchor:middle;
    font-family:Times; font-size:14pt; font-weight:normal; font-style:italic;}
.label {fill:#000;
  text-anchor:middle;
  font-size:16pt; font-weight:bold; font-family:Sans;}
.link {fill: #0D47A1;}
.link:hover {fill: #0D47A1; text-decoration:underline;}
.link:visited {fill: #4A148C;}
]]>
</style>
<defs>
  <marker id="arrow" markerWidth="5" markerHeight="4" refX="2.5" refY="2" orient="auto" markerUnits="strokeWidth">
    <path d="M0,0 L0.5,2 L0,4 L4.5,2 z" fill="#323232" />
  </marker>
</defs>
<rect width="100%" height="100%" fill="white"/><circle cx="14.0" cy="66.0" r="3.0" fill="#623C47" stroke-width="2" stroke="#323232"/>
<path d="M45.0,82.0 A15.0,15.0 0 0,1 45.0,52.0 H47.0 A15.0,15.0 0 0,1 47.0,82.0 z" fill="#DCDCDC" stroke-width="2" stroke="#323232"/>
<text class="token_font" x="46.0" y="73.5">(</text>
<rect x="110.0" y="53.0" width="51.0" height="28.0" fill="#FAC8C8" stroke-width="2" stroke="#323232"/>
<text class="definitive_font" x="135.5" y="73.5">value</text>
<rect x="110.0" y="98.0" width="51.0" height="28.0" fill="#FAC8C8" stroke-width="2" stroke="#323232"/>
<text class="definitive_font" x="135.5" y="118.5">value</text>
<path d="M236.0,127.0 A15.0,15.0 0 0,1 236.0,97.0 H264.0 A15.0,15.0 0 0,1 264.0,127.0 z" fill="#DCDCDC" stroke-width="2" stroke="#323232"/>
<text class="token_font" x="250.0" y="118.5">&lt;=</text>
<path d="M236.0,165.0 A15.0,15.0 0 0,1 236.0,135.0 H246.0 A15.0,15.0 0 0,1 246.0,165.0 z" fill="#DCDCDC" stroke-width="2" stroke="#323232"/>
<text class="token_font" x="241.0" y="156.5">&lt;</text>
<path d="M236.0,203.0 A15.0,15.0 0 0,1 236.0,173.0 H246.0 A15.0,15.0 0 0,1 246.0,203.0 z" fill="#DCDCDC" stroke-width="2" stroke="#323232"/>
<text class="token_font" x="241.0" y="194.5">&gt;</text>
<path d="M236.0,241.0 A15.0,15.0 0 0,1 236.0,211.0 H264.0 A15.0,15.0 0 0,1 264.0,241.0 z" fill="#DCDCDC" stroke-width="2" stroke="#323232"/>
<text class="token_font" x="250.0" y="232.5">&gt;=</text>
<path d="M236.0,279.0 A15.0,15.0 0 0,1 236.0,249.0 H246.0 A15.0,15.0 0 0,1 246.0,279.0 z" fill="#DCDCDC" stroke-width="2" stroke="#323232"/>
<text class="token_font" x="241.0" y="270.5">=</text>
<path d="M236.0,317.0 A15.0,15.0 0 0,1 236.0,287.0 H246.0 A15.0,15.0 0 0,1 246.0,317.0 z" fill="#DCDCDC" stroke-width="2" stroke="#323232"/>
<text class="token_font" x="241.0" y="308.5">&amp;</text>
<circle cx="236.0" cy="340.0" r="15.0" fill="#DCDCDC" stroke-width="2" stroke="#323232"/>
<text class="token_font" x="236.0" y="346.5">|</text>
<path d="M236.0,393.0 A15.0,15.0 0 0,1 236.0,363.0 H249.0 A15.0,15.0 0 0,1 249.0,393.0 z" fill="#DCDCDC" stroke-width="2" stroke="#323232"/>
<text class="token_font" x="242.5" y="384.5">%</text>
<path d="M236.0,431.0 A15.0,15.0 0 0,1 236.0,401.0 H250.0 A15.0,15.0 0 0,1 250.0,431.0 z" fill="#DCDCDC" stroke-width="2" stroke="#323232"/>
<text class="token_font" x="243.0" y="422.5">**</text>
<path d="M236.0,469.0 A15.0,15.0 0 0,1 236.0,439.0 H239.0 A15.0,15.0 0 0,1 239.0,469.0 z" fill="#DCDCDC" stroke-width="2" stroke="#323232"/>
<text class="token_font" x="237.5" y="460.5">*</text>
<path d="M236.0,507.0 A15.0,15.0 0 0,1 236.0,477.0 H246.0 A15.0,15.0 0 0,1 246.0,507.0 z" fill="#DCDCDC" stroke-width="2" stroke="#323232"/>
<text class="token_font" x="241.0" y="498.5">+</text>
<circle cx="236.5" cy="530.0" r="15.0" fill="#DCDCDC" stroke-width="2" stroke="#323232"/>
<text class="token_font" x="236.5" y="536.5">-</text>
<line x1="186.0" y1="111.0" x2="216.0" y2="111.0" stroke-width="2" stroke="#323232" marker-end="url(#arrow)" />
<line x1="280.0" y1="111.0" x2="315.0" y2="111.0" stroke-width="2" stroke="#323232" />
<path d="M198.0,123.0 A12.0,12.0 0 0,0 186.0,111.0" fill="none" stroke-width="2" stroke="#323232"/>
<line x1="210.0" y1="149.0" x2="216.0" y2="149.0" stroke-width="2" stroke="#323232" marker-end="url(#arrow)" />
<line x1="262.0" y1="149.0" x2="286.0" y2="149.0" stroke-width="2" stroke="#323232" marker-end="url(#arrow)" />
<path d="M198.0,137.0 A12.0,12.0 0 0,0 210.0,149.0" fill="none" stroke-width="2" stroke="#323232"/>
<path d="M290.0,149.0 A12.0,12.0 0 0,0 302.0,137.0" fill="none" stroke-width="2" stroke="#323232"/>
<line x1="210.0" y1="187.0" x2="216.0" y2="187.0" stroke-width="2" stroke="#323232" marker-end="url(#arrow)" />
<line x1="262.0" y1="187.0" x2="286.0" y2="187.0" stroke-width="2" stroke="#323232" marker-end="url(#arrow)" />
<path d="M198.0,175.0 A12.0,12.0 0 0,0 210.0,187.0" fill="none" stroke-width="2" stroke="#323232"/>
<path d="M290.0,187.0 A12.0,12.0 0 0,0 302.0,175.0" fill="none" stroke-width="2" stroke="#323232"/>
<line x1="210.0" y1="225.0" x2="216.0" y2="225.0" stroke-width="2" stroke="#323232" marker-end="url(#arrow)" />
<line x1="280.0" y1="225.0" x2="286.0" y2="225.0" stroke-width="2" stroke="#323232" marker-end="url(#arrow)" />
<path d="M198.0,213.0 A12.0,12.0 0 0,0 210.0,225.0" fill="none" stroke-width="2" stroke="#323232"/>
<path d="M290.0,225.0 A12.0,12.0 0 0,0 302.0,213.0" fill="none" stroke-width="2" stroke="#323232"/>
<line x1="210.0" y1="263.0" x2="216.0" y2="263.0" stroke-width="2" stroke="#323232" marker-end="url(#arrow)" />
<line x1="262.0" y1="263.0" x2="286.0" y2="263.0" stroke-width="2" stroke="#323232" marker-end="url(#arrow)" />
<path d="M198.0,251.0 A12.0,12.0 0 0,0 210.0,263.0" fill="none" stroke-width="2" stroke="#323232"/>
<path d="M290.0,263.0 A12.0,12.0 0 0,0 302.0,251.0" fill="none" stroke-width="2" stroke="#323232"/>
<line x1="210.0" y1="301.0" x2="216.0" y2="301.0" stroke-width="2" stroke="#323232" marker-end="url(#arrow)" />
<line x1="262.0" y1="301.0" x2="286.0" y2="301.0" stroke-width="2" stroke="#323232" marker-end="url(#arrow)" />
<path d="M198.0,289.0 A12.0,12.0 0 0,0 210.0,301.0" fill="none" stroke-width="2" stroke="#323232"/>
<path d="M290.0,301.0 A12.0,12.0 0 0,0 302.0,289.0" fill="none" stroke-width="2" stroke="#323232"/>
<line x1="210.0" y1="339.0" x2="216.0" y2="339.0" stroke-width="2" stroke="#323232" marker-end="url(#arrow)" />
<line x1="252.0" y1="339.0" x2="286.0" y2="339.0" stroke-width="2" stroke="#323232" marker-end="url(#arrow)" />
<path d="M198.0,327.0 A12.0,12.0 0 0,0 210.0,339.0" fill="none" stroke-width="2" stroke="#323232"/>
<path d="M290.0,339.0 A12.0,12.0 0 0,0 302.0,327.0" fill="none" stroke-width="2" stroke="#323232"/>
<line x1="210.0" y1="377.0" x2="216.0" y2="377.0" stroke-width="2" stroke="#323232" marker-end="url(#arrow)" />
<line x1="265.0" y1="377.0" x2="286.0" y2="377.0" stroke-width="2" stroke="#323232" marker-end="url(#arrow)" />
<path d="M198.0,365.0 A12.0,12.0 0 0,0 210.0,377.0" fill="none" stroke-width="2" stroke="#323232"/>
<path d="M290.0,377.0 A12.0,12.0 0 0,0 302.0,365.0" fill="none" stroke-width="2" stroke="#323232"/>
<line x1="210.0" y1="415.0" x2="216.0" y2="415.0" stroke-width="2" stroke="#323232" marker-end="url(#arrow)" />
<line x1="266.0" y1="415.0" x2="286.0" y2="415.0" stroke-width="2" stroke="#323232" marker-end="url(#arrow)" />
<path d="M198.0,403.0 A12.0,12.0 0 0,0 210.0,415.0" fill="none" stroke-width="2" stroke="#323232"/>
<path d="M290.0,415.0 A12.0,12.0 0 0,0 302.0,403.0" fill="none" stroke-width="2" stroke="#323232"/>
<line x1="210.0" y1="453.0" x2="216.0" y2="453.0" stroke-width="2" stroke="#323232" marker-end="url(#arrow)" />
<line x1="255.0" y1="453.0" x2="286.0" y2="453.0" stroke-width="2" stroke="#323232" marker-end="url(#arrow)" />
<path d="M198.0,441.0 A12.0,12.0 0 0,0 210.0,453.0" fill="none" stroke-width="2" stroke="#323232"/>
<path d="M290.0,453.0 A12.0,12.0 0 0,0 302.0,441.0" fill="none" stroke-width="2" stroke="#323232"/>
<line x1="210.0" y1="491.0" x2="216.0" y2="491.0" stroke-width="2" stroke="#323232" marker-end="url(#arrow)" />
<line x1="262.0" y1="491.0" x2="286.0" y2="491.0" stroke-width="2" stroke="#323232" marker-end="url(#arrow)" />
<path d="M198.0,479.0 A12.0,12.0 0 0,0 210.0,491.0" fill="none" stroke-width="2" stroke="#323232"/>
<path d="M290.0,491.0 A12.0,12.0 0 0,0 302.0,479.0" fill="none" stroke-width="2" stroke="#323232"/>
<line x1="210.0" y1="529.0" x2="216.0" y2="529.0" stroke-width="2" stroke="#323232" marker-end="url(#arrow)" />
<line x1="253.0" y1="529.0" x2="286.0" y2="529.0" stroke-width="2" stroke="#323232" marker-end="url(#arrow)" />
<path d="M198.0,517.0 A12.0,12.0 0 0,0 210.0,529.0" fill="none" stroke-width="2" stroke="#323232"/>
<path d="M290.0,529.0 A12.0,12.0 0 0,0 302.0,517.0" fill="none" stroke-width="2" stroke="#323232"/>
<path d="M314.0,111.0 A12.0,12.0 0 0,0 302.0,123.0" fill="none" stroke-width="2" stroke="#323232"/>
<line x1="198.0" y1="517.0" x2="198.0" y2="123.0" stroke-width="2" stroke="#323232" />
<line x1="302.0" y1="517.0" x2="302.0" y2="123.0" stroke-width="2" stroke="#323232" />
<rect x="327.0" y="98.0" width="51.0" height="28.0" fill="#FAC8C8" stroke-width="2" stroke="#323232"/>
<text class="definitive_font" x="352.5" y="118.5">value</text>
<line x1="313.0" y1="111.0" x2="322.0" y2="111.0" stroke-width="2" stroke="#323232" marker-end="url(#arrow)" />
<line x1="281.5" y1="89.0" x2="282.5" y2="89.0" stroke-width="2" stroke="#323232" />
<line x1="186.0" y1="89.0" x2="281.5" y2="89.0" stroke-width="2" stroke="#323232" />
<line x1="379.0" y1="89.0" x2="286.5" y2="89.00000000000001" stroke-width="2" stroke="#323232" marker-end="url(#arrow)" />
<line x1="174.0" y1="111.0" x2="186.0" y2="111.0" stroke-width="2" stroke="#323232" />
<path d="M186.0,89.0 A11.0,11.0 0 0,0 186.0,111.0" fill="none" stroke-width="2" stroke="#323232"/>
<path d="M379.0,111.0 A11.0,11.0 0 0,0 379.0,89.0" fill="none" stroke-width="2" stroke="#323232"/>
<line x1="379.0" y1="111.0" x2="391.0" y2="111.0" stroke-width="2" stroke="#323232" />
<line x1="161.0" y1="111.0" x2="170.0" y2="111.0" stroke-width="2" stroke="#323232" marker-end="url(#arrow)" />
<line x1="75.0" y1="66.0" x2="105.0" y2="66.0" stroke-width="2" stroke="#323232" marker-end="url(#arrow)" />
<line x1="162.0" y1="66.0" x2="427.0" y2="66.0" stroke-width="2" stroke="#323232" />
<path d="M87.0,78.0 A12.0,12.0 0 0,0 75.0,66.0" fill="none" stroke-width="2" stroke="#323232"/>
<line x1="99.0" y1="111.0" x2="105.0" y2="111.0" stroke-width="2" stroke="#323232" marker-end="url(#arrow)" />
<line x1="391.0" y1="111.0" x2="398.0" y2="111.0" stroke-width="2" stroke="#323232" marker-end="url(#arrow)" />
<path d="M87.0,99.0 A12.0,12.0 0 0,0 99.0,111.0" fill="none" stroke-width="2" stroke="#323232"/>
<path d="M402.0,111.0 A12.0,12.0 0 0,0 414.0,99.0" fill="none" stroke-width="2" stroke="#323232"/>
<path d="M426.0,66.0 A12.0,12.0 0 0,0 414.0,78.0" fill="none" stroke-width="2" stroke="#323232"/>
<line x1="87.0" y1="99.0" x2="87.0" y2="78.0" stroke-width="2" stroke="#323232" />
<line x1="414.0" y1="99.0" x2="414.0" y2="78.0" stroke-width="2" stroke="#323232" />
<line x1="62.0" y1="66.0" x2="71.0" y2="66.0" stroke-width="2" stroke="#323232" marker-end="url(#arrow)" />
<path d="M454.0,82.0 A15.0,15.0 0 0,1 454.0,52.0 H456.0 A15.0,15.0 0 0,1 456.0,82.0 z" fill="#DCDCDC" stroke-width="2" stroke="#323232"/>
<text class="token_font" x="455.0" y="73.5">)</text>
<line x1="425.0" y1="66.0" x2="434.0" y2="66.0" stroke-width="2" stroke="#323232" marker-end="url(#arrow)" />
<line x1="16.0" y1="66.0" x2="25.0" y2="66.0" stroke-width="2" stroke="#323232" marker-end="url(#arrow)" />
<circle cx="487.0" cy="66.0" r="3.0" fill="#623C47" stroke-width="2" stroke="#323232"/>
<line x1="471.0" y1="66.0" x2="480.0" y2="66.0" stroke-width="2" stroke="#323232" marker-end="url(#arrow)" />
<text class="title_font" x="249.5" y="29.0">operation</text>
</svg>