<?xml version="1.0" encoding="UTF-8" standalone="no"?>
<!-- Created by Syntax-Trax http://kevinpt.github.io/syntax-trax -->
<svg xmlns="http://www.w3.org/2000/svg"
xmlns:xlink="http://www.w3.org/1999/xlink"
xml:space="preserve"
width="493" height="515" version="1.1">
<style type="text/css">
<![CDATA[
.box_font {fill:#000000; text-anchor:middle;
    font-family:Times; font-size:14pt; font-weight:normal; font-style:italic;}
.charclass_font {fill:#000000; text-anchor:middle;
    font-family:Sans; font-size:16pt; font-weight:bold; font-style:normal;}
.title_font {fill:#000000; text-anchor:middle;
    font-family:Sans; font-size:18pt; font-weight:normal; font-style:italic;}
.bubble_font {fill:#000000; text-anchor:middle;
    font-family:Sans; font-size:14pt; font-weight:bold; font-style:normal;}
.token_font {fill:#000000; text-anchor:middle;
    font-family:Sans; font-size:16pt; font-weight:bold; font-style:normal;}
.label {fill:#000;
  text-anchor:middle;
  font-size:16pt; font-weight:bold; font-family:Sans;}
.link {fill: #0D47A1;}
.link:hover {fill: #0D47A1; text-decoration:underline;}
.link:visited {fill: #4A148C;}
]]>
</style>
<defs>
  <marker id="arrow" markerWidth="5" markerHeight="4" refX="2.5" refY="2" orient="auto" markerUnits="strokeWidth">
    <path d="M0,0 L0.5,2 L0,4 L4.5,2 z" fill="#000000" />
  </marker>
</defs>
<rect width="100%" height="100%" fill="white"/><path d="M48.0,75.0 A15.0,15.0 0 0,1 48.0,45.0 H50.0 A15.0,15.0 0 0,1 50.0,75.0 z" stroke="none" fill-opacity="0.498039215686" fill="#000000"/>
<rect x="112.0" y="46.0" width="51.0" height="28.0" stroke="none" fill-opacity="0.498039215686" fill="#000000"/>
<rect x="112.0" y="87.0" width="51.0" height="28.0" stroke="none" fill-opacity="0.498039215686" fill="#000000"/>
<path d="M234.0,116.0 A15.0,15.0 0 0,1 234.0,86.0 H262.0 A15.0,15.0 0 0,1 262.0,116.0 z" stroke="none" fill-opacity="0.498039215686" fill="#000000"/>
<path d="M234.0,152.0 A15.0,15.0 0 0,1 234.0,122.0 H244.0 A15.0,15.0 0 0,1 244.0,152.0 z" stroke="none" fill-opacity="0.498039215686" fill="#000000"/>
<path d="M234.0,188.0 A15.0,15.0 0 0,1 234.0,158.0 H244.0 A15.0,15.0 0 0,1 244.0,188.0 z" stroke="none" fill-opacity="0.498039215686" fill="#000000"/>
<path d="M234.0,224.0 A15.0,15.0 0 0,1 234.0,194.0 H262.0 A15.0,15.0 0 0,1 262.0,224.0 z" stroke="none" fill-opacity="0.498039215686" fill="#000000"/>
<path d="M234.0,260.0 A15.0,15.0 0 0,1 234.0,230.0 H244.0 A15.0,15.0 0 0,1 244.0,260.0 z" stroke="none" fill-opacity="0.498039215686" fill="#000000"/>
<path d="M234.0,296.0 A15.0,15.0 0 0,1 234.0,266.0 H244.0 A15.0,15.0 0 0,1 244.0,296.0 z" stroke="none" fill-opacity="0.498039215686" fill="#000000"/>
<circle cx="234.0" cy="317.0" r="15.0" stroke="none" fill-opacity="0.498039215686" fill="#000000"/>
<path d="M234.0,368.0 A15.0,15.0 0 0,1 234.0,338.0 H247.0 A15.0,15.0 0 0,1 247.0,368.0 z" stroke="none" fill-opacity="0.498039215686" fill="#000000"/>
<path d="M234.0,404.0 A15.0,15.0 0 0,1 234.0,374.0 H248.0 A15.0,15.0 0 0,1 248.0,404.0 z" stroke="none" fill-opacity="0.498039215686" fill="#000000"/>
<path d="M234.0,440.0 A15.0,15.0 0 0,1 234.0,410.0 H237.0 A15.0,15.0 0 0,1 237.0,440.0 z" stroke="none" fill-opacity="0.498039215686" fill="#000000"/>
<path d="M234.0,476.0 A15.0,15.0 0 0,1 234.0,446.0 H244.0 A15.0,15.0 0 0,1 244.0,476.0 z" stroke="none" fill-opacity="0.498039215686" fill="#000000"/>
<circle cx="234.5" cy="497.0" r="15.0" stroke="none" fill-opacity="0.498039215686" fill="#000000"/>
<rect x="324.0" y="87.0" width="51.0" height="28.0" stroke="none" fill-opacity="0.498039215686" fill="#000000"/>
<path d="M449.0,75.0 A15.0,15.0 0 0,1 449.0,45.0 H451.0 A15.0,15.0 0 0,1 451.0,75.0 z" stroke="none" fill-opacity="0.498039215686" fill="#000000"/>
<circle cx="9" cy="56.0" r="3" stroke="#000000" stroke-width="2" fill="#FFFFFF"/>
<path d="M45.0,72.0 A15.0,15.0 0 0,1 45.0,42.0 H47.0 A15.0,15.0 0 0,1 47.0,72.0 z" stroke="#000000" stroke-width="2" fill="#B3E5FC"/>
<text class="token_font" x="46.0" y="63.5">(</text>
<rect x="109.0" y="43.0" width="51.0" height="28.0" stroke="#000000" stroke-width="2" fill="#90A4AE"/>
<text class="box_font" x="134.5" y="63.5">value</text>
<rect x="109.0" y="84.0" width="51.0" height="28.0" stroke="#000000" stroke-width="2" fill="#90A4AE"/>
<text class="box_font" x="134.5" y="104.5">value</text>
<path d="M231.0,113.0 A15.0,15.0 0 0,1 231.0,83.0 H259.0 A15.0,15.0 0 0,1 259.0,113.0 z" stroke="#000000" stroke-width="2" fill="#B3E5FC"/>
<text class="token_font" x="245.0" y="104.5">&lt;=</text>
<path d="M231.0,149.0 A15.0,15.0 0 0,1 231.0,119.0 H241.0 A15.0,15.0 0 0,1 241.0,149.0 z" stroke="#000000" stroke-width="2" fill="#B3E5FC"/>
<text class="token_font" x="236.0" y="140.5">&lt;</text>
<path d="M231.0,185.0 A15.0,15.0 0 0,1 231.0,155.0 H241.0 A15.0,15.0 0 0,1 241.0,185.0 z" stroke="#000000" stroke-width="2" fill="#B3E5FC"/>
<text class="token_font" x="236.0" y="176.5">&gt;</text>
<path d="M231.0,221.0 A15.0,15.0 0 0,1 231.0,191.0 H259.0 A15.0,15.0 0 0,1 259.0,221.0 z" stroke="#000000" stroke-width="2" fill="#B3E5FC"/>
<text class="token_font" x="245.0" y="212.5">&gt;=</text>
<path d="M231.0,257.0 A15.0,15.0 0 0,1 231.0,227.0 H241.0 A15.0,15.0 0 0,1 241.0,257.0 z" stroke="#000000" stroke-width="2" fill="#B3E5FC"/>
<text class="token_font" x="236.0" y="248.5">=</text>
<path d="M231.0,293.0 A15.0,15.0 0 0,1 231.0,263.0 H241.0 A15.0,15.0 0 0,1 241.0,293.0 z" stroke="#000000" stroke-width="2" fill="#B3E5FC"/>
<text class="token_font" x="236.0" y="284.5">&amp;</text>
<circle cx="231.0" cy="314.0" r="15.0" stroke="#000000" stroke-width="2" fill="#B3E5FC"/>
<text class="token_font" x="231.0" y="320.5">|</text>
<path d="M231.0,365.0 A15.0,15.0 0 0,1 231.0,335.0 H244.0 A15.0,15.0 0 0,1 244.0,365.0 z" stroke="#000000" stroke-width="2" fill="#B3E5FC"/>
<text class="token_font" x="237.5" y="356.5">%</text>
<path d="M231.0,401.0 A15.0,15.0 0 0,1 231.0,371.0 H245.0 A15.0,15.0 0 0,1 245.0,401.0 z" stroke="#000000" stroke-width="2" fill="#B3E5FC"/>
<text class="token_font" x="238.0" y="392.5">**</text>
<path d="M231.0,437.0 A15.0,15.0 0 0,1 231.0,407.0 H234.0 A15.0,15.0 0 0,1 234.0,437.0 z" stroke="#000000" stroke-width="2" fill="#B3E5FC"/>
<text class="token_font" x="232.5" y="428.5">*</text>
<path d="M231.0,473.0 A15.0,15.0 0 0,1 231.0,443.0 H241.0 A15.0,15.0 0 0,1 241.0,473.0 z" stroke="#000000" stroke-width="2" fill="#B3E5FC"/>
<text class="token_font" x="236.0" y="464.5">+</text>
<circle cx="231.5" cy="494.0" r="15.0" stroke="#000000" stroke-width="2" fill="#B3E5FC"/>
<text class="token_font" x="231.5" y="500.5">-</text>
<line x1="187.0" y1="97.0" x2="211.0" y2="97.0" stroke="#000000" stroke-width="2" marker-end="url(#arrow)" />
<line x1="275.0" y1="97.0" x2="304.0" y2="97.0" stroke="#000000" stroke-width="2" />
<path d="M196.0,106.0 A9.0,9.0 0 0,0 187.0,97.0" stroke="#000000" stroke-width="2" fill="none"/>
<line x1="205.0" y1="133.0" x2="211.0" y2="133.0" stroke="#000000" stroke-width="2" marker-end="url(#arrow)" />
<line x1="257.0" y1="133.0" x2="281.0" y2="133.0" stroke="#000000" stroke-width="2" marker-end="url(#arrow)" />
<path d="M196.0,124.0 A9.0,9.0 0 0,0 205.0,133.0" stroke="#000000" stroke-width="2" fill="none"/>
<path d="M285.0,133.0 A9.0,9.0 0 0,0 294.0,124.0" stroke="#000000" stroke-width="2" fill="none"/>
<line x1="205.0" y1="169.0" x2="211.0" y2="169.0" stroke="#000000" stroke-width="2" marker-end="url(#arrow)" />
<line x1="257.0" y1="169.0" x2="281.0" y2="169.0" stroke="#000000" stroke-width="2" marker-end="url(#arrow)" />
<path d="M196.0,160.0 A9.0,9.0 0 0,0 205.0,169.0" stroke="#000000" stroke-width="2" fill="none"/>
<path d="M285.0,169.0 A9.0,9.0 0 0,0 294.0,160.0" stroke="#000000" stroke-width="2" fill="none"/>
<line x1="205.0" y1="205.0" x2="211.0" y2="205.0" stroke="#000000" stroke-width="2" marker-end="url(#arrow)" />
<line x1="275.0" y1="205.0" x2="281.0" y2="205.0" stroke="#000000" stroke-width="2" marker-end="url(#arrow)" />
<path d="M196.0,196.0 A9.0,9.0 0 0,0 205.0,205.0" stroke="#000000" stroke-width="2" fill="none"/>
<path d="M285.0,205.0 A9.0,9.0 0 0,0 294.0,196.0" stroke="#000000" stroke-width="2" fill="none"/>
<line x1="205.0" y1="241.0" x2="211.0" y2="241.0" stroke="#000000" stroke-width="2" marker-end="url(#arrow)" />
<line x1="257.0" y1="241.0" x2="281.0" y2="241.0" stroke="#000000" stroke-width="2" marker-end="url(#arrow)" />
<path d="M196.0,232.0 A9.0,9.0 0 0,0 205.0,241.0" stroke="#000000" stroke-width="2" fill="none"/>
<path d="M285.0,241.0 A9.0,9.0 0 0,0 294.0,232.0" stroke="#000000" stroke-width="2" fill="none"/>
<line x1="205.0" y1="277.0" x2="211.0" y2="277.0" stroke="#000000" stroke-width="2" marker-end="url(#arrow)" />
<line x1="257.0" y1="277.0" x2="281.0" y2="277.0" stroke="#000000" stroke-width="2" marker-end="url(#arrow)" />
<path d="M196.0,268.0 A9.0,9.0 0 0,0 205.0,277.0" stroke="#000000" stroke-width="2" fill="none"/>
<path d="M285.0,277.0 A9.0,9.0 0 0,0 294.0,268.0" stroke="#000000" stroke-width="2" fill="none"/>
<line x1="205.0" y1="313.0" x2="211.0" y2="313.0" stroke="#000000" stroke-width="2" marker-end="url(#arrow)" />
<line x1="247.0" y1="313.0" x2="281.0" y2="313.0" stroke="#000000" stroke-width="2" marker-end="url(#arrow)" />
<path d="M196.0,304.0 A9.0,9.0 0 0,0 205.0,313.0" stroke="#000000" stroke-width="2" fill="none"/>
<path d="M285.0,313.0 A9.0,9.0 0 0,0 294.0,304.0" stroke="#000000" stroke-width="2" fill="none"/>
<line x1="205.0" y1="349.0" x2="211.0" y2="349.0" stroke="#000000" stroke-width="2" marker-end="url(#arrow)" />
<line x1="260.0" y1="349.0" x2="281.0" y2="349.0" stroke="#000000" stroke-width="2" marker-end="url(#arrow)" />
<path d="M196.0,340.0 A9.0,9.0 0 0,0 205.0,349.0" stroke="#000000" stroke-width="2" fill="none"/>
<path d="M285.0,349.0 A9.0,9.0 0 0,0 294.0,340.0" stroke="#000000" stroke-width="2" fill="none"/>
<line x1="205.0" y1="385.0" x2="211.0" y2="385.0" stroke="#000000" stroke-width="2" marker-end="url(#arrow)" />
<line x1="261.0" y1="385.0" x2="281.0" y2="385.0" stroke="#000000" stroke-width="2" marker-end="url(#arrow)" />
<path d="M196.0,376.0 A9.0,9.0 0 0,0 205.0,385.0" stroke="#000000" stroke-width="2" fill="none"/>
<path d="M285.0,385.0 A9.0,9.0 0 0,0 294.0,376.0" stroke="#000000" stroke-width="2" fill="none"/>
<line x1="205.0" y1="421.0" x2="211.0" y2="421.0" stroke="#000000" stroke-width="2" marker-end="url(#arrow)" />
<line x1="250.0" y1="421.0" x2="281.0" y2="421.0" stroke="#000000" stroke-width="2" marker-end="url(#arrow)" />
<path d="M196.0,412.0 A9.0,9.0 0 0,0 205.0,421.0" stroke="#000000" stroke-width="2" fill="none"/>
<path d="M285.0,421.0 A9.0,9.0 0 0,0 294.0,412.0" stroke="#000000" stroke-width="2" fill="none"/>
<line x1="205.0" y1="457.0" x2="211.0" y2="457.0" stroke="#000000" stroke-width="2" marker-end="url(#arrow)" />
<line x1="257.0" y1="457.0" x2="281.0" y2="457.0" stroke="#000000" stroke-width="2" marker-end="url(#arrow)" />
<path d="M196.0,448.0 A9.0,9.0 0 0,0 205.0,457.0" stroke="#000000" stroke-width="2" fill="none"/>
<path d="M285.0,457.0 A9.0,9.0 0 0,0 294.0,448.0" stroke="#000000" stroke-width="2" fill="none"/>
<line x1="205.0" y1="493.0" x2="211.0" y2="493.0" stroke="#000000" stroke-width="2" marker-end="url(#arrow)" />
<line x1="248.0" y1="493.0" x2="281.0" y2="493.0" stroke="#000000" stroke-width="2" marker-end="url(#arrow)" />
<path d="M196.0,484.0 A9.0,9.0 0 0,0 205.0,493.0" stroke="#000000" stroke-width="2" fill="none"/>
<path d="M285.0,493.0 A9.0,9.0 0 0,0 294.0,484.0" stroke="#000000" stroke-width="2" fill="none"/>
<path d="M303.0,97.0 A9.0,9.0 0 0,0 294.0,106.0" stroke="#000000" stroke-width="2" fill="none"/>
<line x1="196.0" y1="484.0" x2="196.0" y2="106.0" stroke="#000000" stroke-width="2" />
<line x1="294.0" y1="484.0" x2="294.0" y2="106.0" stroke="#000000" stroke-width="2" />
<rect x="321.0" y="84.0" width="51.0" height="28.0" stroke="#000000" stroke-width="2" fill="#90A4AE"/>
<text class="box_font" x="346.5" y="104.5">value</text>
<line x1="302.0" y1="97.0" x2="316.0" y2="97.0" stroke="#000000" stroke-width="2" marker-end="url(#arrow)" />
<line x1="279.0" y1="77.0" x2="280.0" y2="77.0" stroke="#000000" stroke-width="2" />
<line x1="187.0" y1="77.0" x2="279.0" y2="77.0" stroke="#000000" stroke-width="2" />
<line x1="373.0" y1="77.0" x2="284.0" y2="77.0" stroke="#000000" stroke-width="2" marker-end="url(#arrow)" />
<line x1="178.0" y1="97.0" x2="187.0" y2="97.0" stroke="#000000" stroke-width="2" />
<path d="M187.0,77.0 A10.0,10.0 0 0,0 187.0,97.0" stroke="#000000" stroke-width="2" fill="none"/>
<path d="M373.0,97.0 A10.0,10.0 0 0,0 373.0,77.0" stroke="#000000" stroke-width="2" fill="none"/>
<line x1="373.0" y1="97.0" x2="384.0" y2="97.0" stroke="#000000" stroke-width="2" />
<line x1="160.0" y1="97.0" x2="174.0" y2="97.0" stroke="#000000" stroke-width="2" marker-end="url(#arrow)" />
<line x1="80.0" y1="56.0" x2="104.0" y2="56.0" stroke="#000000" stroke-width="2" marker-end="url(#arrow)" />
<line x1="161.0" y1="56.0" x2="414.0" y2="56.0" stroke="#000000" stroke-width="2" />
<path d="M89.0,65.0 A9.0,9.0 0 0,0 80.0,56.0" stroke="#000000" stroke-width="2" fill="none"/>
<line x1="98.0" y1="97.0" x2="104.0" y2="97.0" stroke="#000000" stroke-width="2" marker-end="url(#arrow)" />
<line x1="384.0" y1="97.0" x2="391.0" y2="97.0" stroke="#000000" stroke-width="2" marker-end="url(#arrow)" />
<path d="M89.0,88.0 A9.0,9.0 0 0,0 98.0,97.0" stroke="#000000" stroke-width="2" fill="none"/>
<path d="M395.0,97.0 A9.0,9.0 0 0,0 404.0,88.0" stroke="#000000" stroke-width="2" fill="none"/>
<path d="M413.0,56.0 A9.0,9.0 0 0,0 404.0,65.0" stroke="#000000" stroke-width="2" fill="none"/>
<line x1="89.0" y1="88.0" x2="89.0" y2="65.0" stroke="#000000" stroke-width="2" />
<line x1="404.0" y1="88.0" x2="404.0" y2="65.0" stroke="#000000" stroke-width="2" />
<line x1="62.0" y1="56.0" x2="76.0" y2="56.0" stroke="#000000" stroke-width="2" marker-end="url(#arrow)" />
<path d="M446.0,72.0 A15.0,15.0 0 0,1 446.0,42.0 H448.0 A15.0,15.0 0 0,1 448.0,72.0 z" stroke="#000000" stroke-width="2" fill="#B3E5FC"/>
<text class="token_font" x="447.0" y="63.5">)</text>
<line x1="412.0" y1="56.0" x2="426.0" y2="56.0" stroke="#000000" stroke-width="2" marker-end="url(#arrow)" />
<line x1="11" y1="56.0" x2="25.0" y2="56.0" stroke="#000000" stroke-width="2" marker-end="url(#arrow)" />
<circle cx="484.0" cy="56.0" r="3.0" stroke="#000000" stroke-width="2" fill="#FFFFFF"/>
<line x1="463.0" y1="56.0" x2="477.0" y2="56.0" stroke="#000000" stroke-width="2" marker-end="url(#arrow)" />
<text class="title_font" x="245.5" y="24.0">operation</text>
</svg>