<?xml version="1.0" encoding="UTF-8" standalone="no"?>
<!-- Created by Syntax-Trax http://kevinpt.github.io/syntax-trax -->
<svg xmlns="http://www.w3.org/2000/svg"
xmlns:xlink="http://www.w3.org/1999/xlink"
xml:space="preserve"
width="524" height="113" version="1.1">
<style type="text/css">
<![CDATA[
.bubble_font {fill:#000000; text-anchor:middle;
    font-family:Sans; font-size:14pt; font-weight:bold; font-style:normal;}
.charclass_font {fill:#000000; text-anchor:middle;
    font-family:Sans; font-size:16pt; font-weight:bold; font-style:normal;}
.box_font {fill:#000000; text-anchor:middle;
    font-family:Times; font-size:14pt; font-weight:normal; font-style:italic;}
.title_font {fill:#000000; text-anchor:middle;
    font-family:Sans; font-size:18pt; font-weight:normal; font-style:italic;}
.token_font {fill:#000000; text-anchor:middle;
    font-family:Sans; font-size:16pt; font-weight:bold; font-style:normal;}
.label {fill:#000;
  text-anchor:middle;
  font-size:16pt; font-weight:bold; font-family:Sans;}
.link {fill: #0D47A1;}
.link:hover {fill: #0D47A1; text-decoration:underline;}
.link:visited {fill: #4A148C;}
]]>
</style>
<defs>
  <marker id="arrow" markerWidth="5" markerHeight="4" refX="2.5" refY="2" orient="auto" markerUnits="strokeWidth">
    <path d="M0,0 L0.5,2 L0,4 L4.5,2 z" fill="#000000" />
  </marker>
</defs>
<rect width="100%" height="100%" fill="white"/><rect x="57.0" y="46.0" width="51.0" height="28.0" fill-opacity="0.4980392156862745" stroke="none" fill="#000000"/>
<path d="M76.0,110.5 A15.0,15.0 0 0,1 76.0,80.5 H89.0 A15.0,15.0 0 0,1 89.0,110.5 z" fill-opacity="0.4980392156862745" stroke="none" fill="#000000"/>
<path d="M166.0,75.0 A15.0,15.0 0 0,1 166.0,45.0 H176.0 A15.0,15.0 0 0,1 176.0,75.0 z" fill-opacity="0.4980392156862745" stroke="none" fill="#000000"/>
<rect x="238.0" y="65.5" width="26.0" height="28.0" fill-opacity="0.4980392156862745" stroke="none" fill="#000000"/>
<circle cx="371.0" cy="80.5" r="15.0" fill-opacity="0.4980392156862745" stroke="none" fill="#000000"/>
<rect x="405.0" y="66.5" width="51.0" height="28.0" fill-opacity="0.4980392156862745" stroke="none" fill="#000000"/>
<circle cx="9.0" cy="56.0" r="3.0" stroke="#000000" fill="#FFFFFF" stroke-width="2"/>
<rect x="54.0" y="43.0" width="51.0" height="28.0" stroke="#000000" fill="#90A4AE" stroke-width="2"/>
<text class="box_font" x="79.5" y="63.5">value</text>
<path d="M73.0,107.5 A15.0,15.0 0 0,1 73.0,77.5 H86.0 A15.0,15.0 0 0,1 86.0,107.5 z" stroke="#000000" fill="#B3E5FC" stroke-width="2"/>
<text class="token_font" x="79.5" y="99.0">@</text>
<line x1="29.0" y1="56.0" x2="49.0" y2="56.0" stroke="#000000" stroke-width="2" marker-end="url(#arrow)" />
<line x1="106.0" y1="56.0" x2="131.0" y2="56.0" stroke="#000000" stroke-width="2" />
<path d="M38.0,65.0 A9.0,9.0 0 0,0 29.0,56.0" stroke="#000000" fill="none" stroke-width="2"/>
<line x1="47.0" y1="91.5" x2="53.0" y2="91.5" stroke="#000000" stroke-width="2" marker-end="url(#arrow)" />
<line x1="102.0" y1="91.5" x2="108.0" y2="91.5" stroke="#000000" stroke-width="2" marker-end="url(#arrow)" />
<path d="M38.0,82.5 A9.0,9.0 0 0,0 47.0,91.5" stroke="#000000" fill="none" stroke-width="2"/>
<path d="M112.0,91.5 A9.0,9.0 0 0,0 121.0,82.5" stroke="#000000" fill="none" stroke-width="2"/>
<path d="M130.0,56.0 A9.0,9.0 0 0,0 121.0,65.0" stroke="#000000" fill="none" stroke-width="2"/>
<line x1="38.0" y1="82.5" x2="38.0" y2="65.0" stroke="#000000" stroke-width="2" />
<line x1="121.0" y1="82.5" x2="121.0" y2="65.0" stroke="#000000" stroke-width="2" />
<path d="M163.0,72.0 A15.0,15.0 0 0,1 163.0,42.0 H173.0 A15.0,15.0 0 0,1 173.0,72.0 z" stroke="#000000" fill="#B3E5FC" stroke-width="2"/>
<text class="token_font" x="168.0" y="63.5">~</text>
<line x1="129.0" y1="56.0" x2="143.0" y2="56.0" stroke="#000000" stroke-width="2" marker-end="url(#arrow)" />
<line x1="246.5" y1="56.0" x2="247.5" y2="56.0" stroke="#000000" stroke-width="2" />
<rect x="235.0" y="62.5" width="26.0" height="28.0" stroke="#000000" fill="#90A4AE" stroke-width="2"/>
<text class="box_font" x="248.0" y="83.0">id</text>
<line x1="206.0" y1="56.0" x2="242.5" y2="56.0" stroke="#000000" stroke-width="2" marker-end="url(#arrow)" />
<line x1="247.5" y1="56.0" x2="291.0" y2="56.0" stroke="#000000" stroke-width="2" />
<path d="M215.0,65.0 A9.0,9.0 0 0,0 206.0,56.0" stroke="#000000" fill="none" stroke-width="2"/>
<line x1="224.0" y1="75.5" x2="230.0" y2="75.5" stroke="#000000" stroke-width="2" marker-end="url(#arrow)" />
<line x1="262.0" y1="75.5" x2="268.0" y2="75.5" stroke="#000000" stroke-width="2" marker-end="url(#arrow)" />
<path d="M215.0,66.5 A9.0,9.0 0 0,0 224.0,75.5" stroke="#000000" fill="none" stroke-width="2"/>
<path d="M272.0,75.5 A9.0,9.0 0 0,0 281.0,66.5" stroke="#000000" fill="none" stroke-width="2"/>
<path d="M290.0,56.0 A9.0,9.0 0 0,0 281.0,65.0" stroke="#000000" fill="none" stroke-width="2"/>
<line x1="215.0" y1="66.5" x2="215.0" y2="65.0" stroke="#000000" stroke-width="2" />
<line x1="281.0" y1="66.5" x2="281.0" y2="65.0" stroke="#000000" stroke-width="2" />
<line x1="188.0" y1="56.0" x2="202.0" y2="56.0" stroke="#000000" stroke-width="2" marker-end="url(#arrow)" />
<line x1="399.625" y1="56.0" x2="400.625" y2="56.0" stroke="#000000" stroke-width="2" />
<circle cx="368.0" cy="77.5" r="15.0" stroke="#000000" fill="#B3E5FC" stroke-width="2"/>
<text class="token_font" x="368.0" y="84.0">.</text>
<rect x="402.0" y="63.5" width="51.0" height="28.0" stroke="#000000" fill="#90A4AE" stroke-width="2"/>
<text class="box_font" x="427.5" y="84.0">value</text>
<line x1="383.0" y1="76.5" x2="397.0" y2="76.5" stroke="#000000" stroke-width="2" marker-end="url(#arrow)" />
<line x1="401.5" y1="99.0" x2="402.5" y2="99.0" stroke="#000000" stroke-width="2" />
<line x1="352.0" y1="99.0" x2="401.5" y2="99.0" stroke="#000000" stroke-width="2" />
<line x1="454.0" y1="99.0" x2="406.5" y2="99.0" stroke="#000000" stroke-width="2" marker-end="url(#arrow)" />
<line x1="335.0" y1="76.5" x2="352.0" y2="76.5" stroke="#000000" stroke-width="2" />
<path d="M352.0,76.5 A11.25,11.25 0 0,0 352.0,99.0" stroke="#000000" fill="none" stroke-width="2"/>
<path d="M454.0,99.0 A11.25,11.25 0 0,0 454.0,76.5" stroke="#000000" fill="none" stroke-width="2"/>
<line x1="454.0" y1="76.5" x2="463.0" y2="76.5" stroke="#000000" stroke-width="2" />
<line x1="307.0" y1="56.0" x2="395.625" y2="56.0" stroke="#000000" stroke-width="2" marker-end="url(#arrow)" />
<line x1="400.625" y1="56.0" x2="496.25" y2="56.0" stroke="#000000" stroke-width="2" />
<path d="M316.0,65.0 A9.0,9.0 0 0,0 307.0,56.0" stroke="#000000" fill="none" stroke-width="2"/>
<line x1="325.0" y1="76.5" x2="331.0" y2="76.5" stroke="#000000" stroke-width="2" marker-end="url(#arrow)" />
<line x1="463.0" y1="76.5" x2="473.25" y2="76.5" stroke="#000000" stroke-width="2" marker-end="url(#arrow)" />
<path d="M316.0,67.5 A9.0,9.0 0 0,0 325.0,76.5" stroke="#000000" fill="none" stroke-width="2"/>
<path d="M477.25,76.5 A9.0,9.0 0 0,0 486.25,67.5" stroke="#000000" fill="none" stroke-width="2"/>
<path d="M495.25,56.0 A9.0,9.0 0 0,0 486.25,65.0" stroke="#000000" fill="none" stroke-width="2"/>
<line x1="316.0" y1="67.5" x2="316.0" y2="65.0" stroke="#000000" stroke-width="2" />
<line x1="486.25" y1="67.5" x2="486.25" y2="65.0" stroke="#000000" stroke-width="2" />
<line x1="289.0" y1="56.0" x2="303.0" y2="56.0" stroke="#000000" stroke-width="2" marker-end="url(#arrow)" />
<line x1="11.0" y1="56.0" x2="25.0" y2="56.0" stroke="#000000" stroke-width="2" marker-end="url(#arrow)" />
<circle cx="515.25" cy="56.0" r="3.0" stroke="#000000" fill="#FFFFFF" stroke-width="2"/>
<line x1="494.25" y1="56.0" x2="508.25" y2="56.0" stroke="#000000" stroke-width="2" marker-end="url(#arrow)" />
<text class="title_font" x="261.125" y="24.0">portal</text>
</svg>