<?xml version="1.0" encoding="UTF-8" standalone="no"?>
<!-- Created by Syntax-Trax http://kevinpt.github.io/syntax-trax -->
<svg xmlns="http://www.w3.org/2000/svg"
xmlns:xlink="http://www.w3.org/1999/xlink"
xml:space="preserve"
width="505" height="77" version="1.1">
<style type="text/css">
<![CDATA[
.box_font {fill:#000000; text-anchor:middle;
    font-family:Times; font-size:14pt; font-weight:normal; font-style:italic;}
.title_font {fill:#000000; text-anchor:middle;
    font-family:Sans; font-size:22pt; font-weight:bold; font-style:normal;}
.bubble_font {fill:#000000; text-anchor:middle;
    font-family:Sans; font-size:14pt; font-weight:bold; font-style:normal;}
.token_font {fill:#000000; text-anchor:middle;
    font-family:Sans; font-size:16pt; font-weight:bold; font-style:normal;}
.label {fill:#000;
  text-anchor:middle;
  font-size:16pt; font-weight:bold; font-family:Sans;}
.link {fill: #0D47A1;}
.link:hover {fill: #0D47A1; text-decoration:underline;}
.link:visited {fill: #4A148C;}
]]>
</style>
<defs>
  <marker id="arrow" markerWidth="5" markerHeight="4" refX="2.5" refY="2" orient="auto" markerUnits="strokeWidth">
    <path d="M0,0 L0.5,2 L0,4 L4.5,2 z" fill="#000000" />
  </marker>
</defs>
<rect width="100%" height="100%" fill="white"/><rect x="51.0" y="10.0" width="69.0" height="28.0" stroke="none" fill-opacity="0.498039215686" fill="#000000"/>
<path d="M76.0,74.0 A15.0,15.0 0 0,1 76.0,44.0 H89.0 A15.0,15.0 0 0,1 89.0,74.0 z" stroke="none" fill-opacity="0.498039215686" fill="#000000"/>
<path d="M172.0,39.0 A15.0,15.0 0 0,1 172.0,9.0 H182.0 A15.0,15.0 0 0,1 182.0,39.0 z" stroke="none" fill-opacity="0.498039215686" fill="#000000"/>
<rect x="244.0" y="29.0" width="26.0" height="28.0" stroke="none" fill-opacity="0.498039215686" fill="#000000"/>
<circle cx="377.0" cy="44.0" r="15.0" stroke="none" fill-opacity="0.498039215686" fill="#000000"/>
<rect x="411.0" y="30.0" width="26.0" height="28.0" stroke="none" fill-opacity="0.498039215686" fill="#000000"/>
<circle cx="9" cy="20.0" r="3" stroke="#000000" stroke-width="2" fill="#FFFFFF"/>
<rect x="48.0" y="7.0" width="69.0" height="28.0" stroke="#000000" stroke-width="2" fill="#90A4AE"/>
<text class="box_font" x="82.5" y="27.5">selector</text>
<path d="M73.0,71.0 A15.0,15.0 0 0,1 73.0,41.0 H86.0 A15.0,15.0 0 0,1 86.0,71.0 z" stroke="#000000" stroke-width="2" fill="#B3E5FC"/>
<text class="token_font" x="79.5" y="62.5">@</text>
<line x1="29" y1="20.0" x2="43.0" y2="20.0" stroke="#000000" stroke-width="2" marker-end="url(#arrow)" />
<line x1="118.0" y1="20.0" x2="137.0" y2="20.0" stroke="#000000" stroke-width="2" />
<path d="M38.0,29.0 A9,9 0 0,0 29.0,20.0" stroke="#000000" stroke-width="2" fill="none"/>
<line x1="47" y1="55.0" x2="53.0" y2="55.0" stroke="#000000" stroke-width="2" marker-end="url(#arrow)" />
<line x1="102.0" y1="55.0" x2="114.0" y2="55.0" stroke="#000000" stroke-width="2" marker-end="url(#arrow)" />
<path d="M38.0,46.0 A9,9 0 0,0 47.0,55.0" stroke="#000000" stroke-width="2" fill="none"/>
<path d="M118.0,55.0 A9.0,9.0 0 0,0 127.0,46.0" stroke="#000000" stroke-width="2" fill="none"/>
<path d="M136.0,20.0 A9.0,9.0 0 0,0 127.0,29.0" stroke="#000000" stroke-width="2" fill="none"/>
<line x1="38" y1="46.0" x2="38" y2="29.0" stroke="#000000" stroke-width="2" />
<line x1="127.0" y1="46.0" x2="127.0" y2="29.0" stroke="#000000" stroke-width="2" />
<path d="M169.0,36.0 A15.0,15.0 0 0,1 169.0,6.0 H179.0 A15.0,15.0 0 0,1 179.0,36.0 z" stroke="#000000" stroke-width="2" fill="#B3E5FC"/>
<text class="token_font" x="174.0" y="27.5">~</text>
<line x1="135.0" y1="20.0" x2="149.0" y2="20.0" stroke="#000000" stroke-width="2" marker-end="url(#arrow)" />
<line x1="252.5" y1="20.0" x2="253.5" y2="20.0" stroke="#000000" stroke-width="2" />
<rect x="241.0" y="26.0" width="26.0" height="28.0" stroke="#000000" stroke-width="2" fill="#90A4AE"/>
<text class="box_font" x="254.0" y="46.5">id</text>
<line x1="212.0" y1="20.0" x2="248.5" y2="20.0" stroke="#000000" stroke-width="2" marker-end="url(#arrow)" />
<line x1="253.5" y1="20.0" x2="297.0" y2="20.0" stroke="#000000" stroke-width="2" />
<path d="M221.0,29.0 A9.0,9.0 0 0,0 212.0,20.0" stroke="#000000" stroke-width="2" fill="none"/>
<line x1="230.0" y1="39.0" x2="236.0" y2="39.0" stroke="#000000" stroke-width="2" marker-end="url(#arrow)" />
<line x1="268.0" y1="39.0" x2="274.0" y2="39.0" stroke="#000000" stroke-width="2" marker-end="url(#arrow)" />
<path d="M221.0,30.0 A9.0,9.0 0 0,0 230.0,39.0" stroke="#000000" stroke-width="2" fill="none"/>
<path d="M278.0,39.0 A9.0,9.0 0 0,0 287.0,30.0" stroke="#000000" stroke-width="2" fill="none"/>
<path d="M296.0,20.0 A9.0,9.0 0 0,0 287.0,29.0" stroke="#000000" stroke-width="2" fill="none"/>
<line x1="221.0" y1="30.0" x2="221.0" y2="29.0" stroke="#000000" stroke-width="2" />
<line x1="287.0" y1="30.0" x2="287.0" y2="29.0" stroke="#000000" stroke-width="2" />
<line x1="194.0" y1="20.0" x2="208.0" y2="20.0" stroke="#000000" stroke-width="2" marker-end="url(#arrow)" />
<line x1="393.0" y1="20.0" x2="394.0" y2="20.0" stroke="#000000" stroke-width="2" />
<circle cx="374.0" cy="41.0" r="15.0" stroke="#000000" stroke-width="2" fill="#B3E5FC"/>
<text class="token_font" x="374.0" y="47.5">.</text>
<rect x="408.0" y="27.0" width="26.0" height="28.0" stroke="#000000" stroke-width="2" fill="#90A4AE"/>
<text class="box_font" x="421.0" y="47.5">id</text>
<line x1="389.0" y1="40.0" x2="403.0" y2="40.0" stroke="#000000" stroke-width="2" marker-end="url(#arrow)" />
<line x1="395.0" y1="62.0" x2="396.0" y2="62.0" stroke="#000000" stroke-width="2" />
<line x1="358.0" y1="62.0" x2="395.0" y2="62.0" stroke="#000000" stroke-width="2" />
<line x1="435.0" y1="62.0" x2="400.0" y2="62.0" stroke="#000000" stroke-width="2" marker-end="url(#arrow)" />
<line x1="341.0" y1="40.0" x2="358.0" y2="40.0" stroke="#000000" stroke-width="2" />
<path d="M358.0,40.0 A11.0,11.0 0 0,0 358.0,62.0" stroke="#000000" stroke-width="2" fill="none"/>
<path d="M435.0,62.0 A11.0,11.0 0 0,0 435.0,40.0" stroke="#000000" stroke-width="2" fill="none"/>
<line x1="435.0" y1="40.0" x2="444.0" y2="40.0" stroke="#000000" stroke-width="2" />
<line x1="313.0" y1="20.0" x2="389.0" y2="20.0" stroke="#000000" stroke-width="2" marker-end="url(#arrow)" />
<line x1="394.0" y1="20.0" x2="477.0" y2="20.0" stroke="#000000" stroke-width="2" />
<path d="M322.0,29.0 A9.0,9.0 0 0,0 313.0,20.0" stroke="#000000" stroke-width="2" fill="none"/>
<line x1="331.0" y1="40.0" x2="337.0" y2="40.0" stroke="#000000" stroke-width="2" marker-end="url(#arrow)" />
<line x1="444.0" y1="40.0" x2="454.0" y2="40.0" stroke="#000000" stroke-width="2" marker-end="url(#arrow)" />
<path d="M322.0,31.0 A9.0,9.0 0 0,0 331.0,40.0" stroke="#000000" stroke-width="2" fill="none"/>
<path d="M458.0,40.0 A9.0,9.0 0 0,0 467.0,31.0" stroke="#000000" stroke-width="2" fill="none"/>
<path d="M476.0,20.0 A9.0,9.0 0 0,0 467.0,29.0" stroke="#000000" stroke-width="2" fill="none"/>
<line x1="322.0" y1="31.0" x2="322.0" y2="29.0" stroke="#000000" stroke-width="2" />
<line x1="467.0" y1="31.0" x2="467.0" y2="29.0" stroke="#000000" stroke-width="2" />
<line x1="295.0" y1="20.0" x2="309.0" y2="20.0" stroke="#000000" stroke-width="2" marker-end="url(#arrow)" />
<line x1="11" y1="20.0" x2="25.0" y2="20.0" stroke="#000000" stroke-width="2" marker-end="url(#arrow)" />
<circle cx="496.0" cy="20.0" r="3.0" stroke="#000000" stroke-width="2" fill="#FFFFFF"/>
<line x1="475.0" y1="20.0" x2="489.0" y2="20.0" stroke="#000000" stroke-width="2" marker-end="url(#arrow)" />
</svg>