<?xml version="1.0" encoding="UTF-8" standalone="no"?>
<!-- Created by Syntax-Trax http://kevinpt.github.io/syntax-trax -->
<svg xmlns="http://www.w3.org/2000/svg"
xmlns:xlink="http://www.w3.org/1999/xlink"
xml:space="preserve"
width="536" height="130" version="1.1">
<style type="text/css">
<![CDATA[
.token_font {fill:#000000; text-anchor:middle;
    font-family:Sans; font-size:16pt; font-weight:bold; font-style:normal;}
.charclass_font {fill:#000000; text-anchor:middle;
    font-family:Sans; font-size:16pt; font-weight:bold; font-style:normal;}
.space_font {fill:#000000; text-anchor:middle;
    font-family:Sans; font-size:10pt; font-weight:normal; font-style:normal;}
.non-terminal_font {fill:#000000; text-anchor:middle;
    font-family:Times; font-size:14pt; font-weight:normal; font-style:italic;}
.negative_font {fill:#000000; text-anchor:middle;
    font-family:Times; font-size:14pt; font-weight:normal; font-style:italic;}
.title_font {fill:#000000; text-anchor:middle;
    font-family:Sans; font-size:18pt; font-weight:normal; font-style:italic;}
.hash_font {fill:#000000; text-anchor:middle;
    font-family:Times; font-size:14pt; font-weight:normal; font-style:italic;}
.definitive_font {fill:#000000; text-anchor:middle;
    font-family:Times; font-size:14pt; font-weight:normal; font-style:italic;}
.label {fill:#000;
  text-anchor:middle;
  font-size:16pt; font-weight:bold; font-family:Sans;}
.link {fill: #0D47A1;}
.link:hover {fill: #0D47A1; text-decoration:underline;}
.link:visited {fill: #4A148C;}
]]>
</style>
<defs>
  <marker id="arrow" markerWidth="5" markerHeight="4" refX="2.5" refY="2" orient="auto" markerUnits="strokeWidth">
    <path d="M0,0 L0.5,2 L0,4 L4.5,2 z" fill="#323232" />
  </marker>
</defs>
<rect width="100%" height="100%" fill="white"/><circle cx="14.0" cy="66.0" r="3.0" fill="#623C47" stroke="#323232" stroke-width="2"/>
<rect x="60.0" y="53.0" width="51.0" height="28.0" fill="#C8FAC8" stroke="#323232" stroke-width="2"/>
<text class="hash_font" x="85.5" y="73.5">value</text>
<path d="M79.0,119.0 A15.0,15.0 0 0,1 79.0,89.0 H92.0 A15.0,15.0 0 0,1 92.0,119.0 z" fill="#DCDCDC" stroke="#323232" stroke-width="2"/>
<text class="token_font" x="85.5" y="110.5">@</text>
<line x1="29.0" y1="66.0" x2="55.0" y2="66.0" stroke="#323232" stroke-width="2" marker-end="url(#arrow)" />
<line x1="112.0" y1="66.0" x2="143.0" y2="66.0" stroke="#323232" stroke-width="2" />
<path d="M41.0,78.0 A12.0,12.0 0 0,0 29.0,66.0" fill="none" stroke="#323232" stroke-width="2"/>
<line x1="53.0" y1="103.0" x2="59.0" y2="103.0" stroke="#323232" stroke-width="2" marker-end="url(#arrow)" />
<line x1="108.0" y1="103.0" x2="114.0" y2="103.0" stroke="#323232" stroke-width="2" marker-end="url(#arrow)" />
<path d="M41.0,91.0 A12.0,12.0 0 0,0 53.0,103.0" fill="none" stroke="#323232" stroke-width="2"/>
<path d="M118.0,103.0 A12.0,12.0 0 0,0 130.0,91.0" fill="none" stroke="#323232" stroke-width="2"/>
<path d="M142.0,66.0 A12.0,12.0 0 0,0 130.0,78.0" fill="none" stroke="#323232" stroke-width="2"/>
<line x1="41.0" y1="91.0" x2="41.0" y2="78.0" stroke="#323232" stroke-width="2" />
<line x1="130.0" y1="91.0" x2="130.0" y2="78.0" stroke="#323232" stroke-width="2" />
<path d="M170.0,82.0 A15.0,15.0 0 0,1 170.0,52.0 H180.0 A15.0,15.0 0 0,1 180.0,82.0 z" fill="#DCDCDC" stroke="#323232" stroke-width="2"/>
<text class="token_font" x="175.0" y="73.5">~</text>
<line x1="141.0" y1="66.0" x2="150.0" y2="66.0" stroke="#323232" stroke-width="2" marker-end="url(#arrow)" />
<line x1="254.5" y1="66.0" x2="255.5" y2="66.0" stroke="#323232" stroke-width="2" />
<rect x="243.0" y="77.0" width="26.0" height="28.0" fill="#FAFAFA" stroke="#323232" stroke-width="2"/>
<text class="non-terminal_font" x="256.0" y="97.5">id</text>
<line x1="208.0" y1="66.0" x2="250.5" y2="66.0" stroke="#323232" stroke-width="2" marker-end="url(#arrow)" />
<line x1="255.5" y1="66.0" x2="305.0" y2="66.0" stroke="#323232" stroke-width="2" />
<path d="M220.0,78.0 A12.0,12.0 0 0,0 208.0,66.0" fill="none" stroke="#323232" stroke-width="2"/>
<line x1="232.0" y1="90.0" x2="238.0" y2="90.0" stroke="#323232" stroke-width="2" marker-end="url(#arrow)" />
<line x1="270.0" y1="90.0" x2="276.0" y2="90.0" stroke="#323232" stroke-width="2" marker-end="url(#arrow)" />
<path d="M220.0,78.0 A12.0,12.0 0 0,0 232.0,90.0" fill="none" stroke="#323232" stroke-width="2"/>
<path d="M280.0,90.0 A12.0,12.0 0 0,0 292.0,78.0" fill="none" stroke="#323232" stroke-width="2"/>
<path d="M304.0,66.0 A12.0,12.0 0 0,0 292.0,78.0" fill="none" stroke="#323232" stroke-width="2"/>
<line x1="220.0" y1="78.0" x2="220.0" y2="78.0" stroke="#323232" stroke-width="2" />
<line x1="292.0" y1="78.0" x2="292.0" y2="78.0" stroke="#323232" stroke-width="2" />
<line x1="195.0" y1="66.0" x2="204.0" y2="66.0" stroke="#323232" stroke-width="2" marker-end="url(#arrow)" />
<line x1="410.0" y1="66.0" x2="411.0" y2="66.0" stroke="#323232" stroke-width="2" />
<circle cx="378.0" cy="91.0" r="15.0" fill="#DCDCDC" stroke="#323232" stroke-width="2"/>
<text class="token_font" x="378.0" y="97.5">.</text>
<rect x="407.0" y="77.0" width="51.0" height="28.0" fill="#C8FAC8" stroke="#323232" stroke-width="2"/>
<text class="hash_font" x="432.5" y="97.5">value</text>
<line x1="393.0" y1="90.0" x2="402.0" y2="90.0" stroke="#323232" stroke-width="2" marker-end="url(#arrow)" />
<line x1="409.0" y1="114.0" x2="410.0" y2="114.0" stroke="#323232" stroke-width="2" />
<line x1="362.0" y1="114.0" x2="409.0" y2="114.0" stroke="#323232" stroke-width="2" />
<line x1="459.0" y1="114.0" x2="414.0" y2="114.0" stroke="#323232" stroke-width="2" marker-end="url(#arrow)" />
<line x1="350.0" y1="90.0" x2="362.0" y2="90.0" stroke="#323232" stroke-width="2" />
<path d="M362.0,90.0 A12.0,12.0 0 0,0 362.0,114.0" fill="none" stroke="#323232" stroke-width="2"/>
<path d="M459.0,114.0 A12.0,12.0 0 0,0 459.0,90.0" fill="none" stroke="#323232" stroke-width="2"/>
<line x1="459.0" y1="90.0" x2="468.0" y2="90.0" stroke="#323232" stroke-width="2" />
<line x1="316.0" y1="66.0" x2="406.0" y2="66.0" stroke="#323232" stroke-width="2" marker-end="url(#arrow)" />
<line x1="411.0" y1="66.0" x2="508.0" y2="66.0" stroke="#323232" stroke-width="2" />
<path d="M328.0,78.0 A12.0,12.0 0 0,0 316.0,66.0" fill="none" stroke="#323232" stroke-width="2"/>
<line x1="340.0" y1="90.0" x2="346.0" y2="90.0" stroke="#323232" stroke-width="2" marker-end="url(#arrow)" />
<line x1="468.0" y1="90.0" x2="479.0" y2="90.0" stroke="#323232" stroke-width="2" marker-end="url(#arrow)" />
<path d="M328.0,78.0 A12.0,12.0 0 0,0 340.0,90.0" fill="none" stroke="#323232" stroke-width="2"/>
<path d="M483.0,90.0 A12.0,12.0 0 0,0 495.0,78.0" fill="none" stroke="#323232" stroke-width="2"/>
<path d="M507.0,66.0 A12.0,12.0 0 0,0 495.0,78.0" fill="none" stroke="#323232" stroke-width="2"/>
<line x1="328.0" y1="78.0" x2="328.0" y2="78.0" stroke="#323232" stroke-width="2" />
<line x1="495.0" y1="78.0" x2="495.0" y2="78.0" stroke="#323232" stroke-width="2" />
<line x1="303.0" y1="66.0" x2="312.0" y2="66.0" stroke="#323232" stroke-width="2" marker-end="url(#arrow)" />
<line x1="16.0" y1="66.0" x2="25.0" y2="66.0" stroke="#323232" stroke-width="2" marker-end="url(#arrow)" />
<circle cx="522.0" cy="66.0" r="3.0" fill="#623C47" stroke="#323232" stroke-width="2"/>
<line x1="506.0" y1="66.0" x2="515.0" y2="66.0" stroke="#323232" stroke-width="2" marker-end="url(#arrow)" />
<text class="title_font" x="267.0" y="29.0">portal</text>
</svg>