<?xml version="1.0" encoding="UTF-8" standalone="no"?>
<!-- Created by Syntax-Trax http://kevinpt.github.io/syntax-trax -->
<svg xmlns="http://www.w3.org/2000/svg"
xmlns:xlink="http://www.w3.org/1999/xlink"
xml:space="preserve"
width="767" height="118" version="1.1">
<style type="text/css">
<![CDATA[
.bubble_font {fill:#000000; text-anchor:middle;
    font-family:Sans; font-size:14pt; font-weight:bold; font-style:normal;}
.charclass_font {fill:#000000; text-anchor:middle;
    font-family:Sans; font-size:16pt; font-weight:bold; font-style:normal;}
.box_font {fill:#000000; text-anchor:middle;
    font-family:Times; font-size:14pt; font-weight:normal; font-style:italic;}
.title_font {fill:#000000; text-anchor:middle;
    font-family:Sans; font-size:18pt; font-weight:normal; font-style:italic;}
.token_font {fill:#000000; text-anchor:middle;
    font-family:Sans; font-size:16pt; font-weight:bold; font-style:normal;}
.label {fill:#000;
  text-anchor:middle;
  font-size:16pt; font-weight:bold; font-family:Sans;}
.link {fill: #0D47A1;}
.link:hover {fill: #0D47A1; text-decoration:underline;}
.link:visited {fill: #4A148C;}
]]>
</style>
<defs>
  <marker id="arrow" markerWidth="5" markerHeight="4" refX="2.5" refY="2" orient="auto" markerUnits="strokeWidth">
    <path d="M0,0 L0.5,2 L0,4 L4.5,2 z" fill="#000000" />
  </marker>
</defs>
<rect width="100%" height="100%" fill="white"/><path d="M48.0,75.0 A15.0,15.0 0 0,1 48.0,45.0 H62.0 A15.0,15.0 0 0,1 62.0,75.0 z" fill="#000000" stroke="none" fill-opacity="0.4980392156862745"/>
<rect x="122.0" y="46.0" width="26.0" height="28.0" fill="#000000" stroke="none" fill-opacity="0.4980392156862745"/>
<path d="M128.0,115.0 A15.0,15.0 0 0,1 128.0,85.0 H142.0 A15.0,15.0 0 0,1 142.0,115.0 z" fill="#000000" stroke="none" fill-opacity="0.4980392156862745"/>
<path d="M228.0,95.5 A15.0,15.0 0 0,1 228.0,65.5 H230.0 A15.0,15.0 0 0,1 230.0,95.5 z" fill="#000000" stroke="none" fill-opacity="0.4980392156862745"/>
<rect x="292.0" y="86.0" width="79.0" height="28.0" fill="#000000" stroke="none" fill-opacity="0.4980392156862745"/>
<rect x="435.0" y="66.5" width="51.0" height="28.0" fill="#000000" stroke="none" fill-opacity="0.4980392156862745"/>
<rect x="542.0" y="86.0" width="91.0" height="28.0" fill="#000000" stroke="none" fill-opacity="0.4980392156862745"/>
<path d="M695.0,95.5 A15.0,15.0 0 0,1 695.0,65.5 H697.0 A15.0,15.0 0 0,1 697.0,95.5 z" fill="#000000" stroke="none" fill-opacity="0.4980392156862745"/>
<circle cx="9.0" cy="56.0" r="3.0" fill="#FFFFFF" stroke="#000000" stroke-width="2"/>
<path d="M45.0,72.0 A15.0,15.0 0 0,1 45.0,42.0 H59.0 A15.0,15.0 0 0,1 59.0,72.0 z" fill="#B3E5FC" stroke="#000000" stroke-width="2"/>
<text class="token_font" x="52.0" y="63.5"> / </text>
<rect x="119.0" y="43.0" width="26.0" height="28.0" fill="#90A4AE" stroke="#000000" stroke-width="2"/>
<text class="box_font" x="132.0" y="63.5">id</text>
<path d="M125.0,112.0 A15.0,15.0 0 0,1 125.0,82.0 H139.0 A15.0,15.0 0 0,1 139.0,112.0 z" fill="#B3E5FC" stroke="#000000" stroke-width="2"/>
<text class="token_font" x="132.0" y="103.5"> / </text>
<line x1="109.0" y1="56.0" x2="114.0" y2="56.0" stroke="#000000" stroke-width="2" marker-end="url(#arrow)" />
<line x1="146.0" y1="56.0" x2="155.0" y2="56.0" stroke="#000000" stroke-width="2" />
<line x1="92.0" y1="56.0" x2="109.0" y2="56.0" stroke="#000000" stroke-width="2" />
<path d="M109.0,56.0 A9.0,9.0 0 0,0 100.0,65.0" fill="none" stroke="#000000" stroke-width="2"/>
<line x1="100.0" y1="87.0" x2="100.0" y2="80.0" stroke="#000000" stroke-width="2" marker-end="url(#arrow)" />
<line x1="100.0" y1="76.0" x2="100.0" y2="65.0" stroke="#000000" stroke-width="2" />
<path d="M100.0,87.0 A9.0,9.0 0 0,0 109.0,96.0" fill="none" stroke="#000000" stroke-width="2"/>
<path d="M164.0,65.0 A9.0,9.0 0 0,0 155.0,56.0" fill="none" stroke="#000000" stroke-width="2"/>
<line x1="164.0" y1="65.0" x2="164.0" y2="72.0" stroke="#000000" stroke-width="2" marker-end="url(#arrow)" />
<line x1="164.0" y1="76.0" x2="164.0" y2="87.0" stroke="#000000" stroke-width="2" />
<path d="M155.0,96.0 A9.0,9.0 0 0,0 164.0,87.0" fill="none" stroke="#000000" stroke-width="2"/>
<line x1="155.0" y1="56.0" x2="164.0" y2="56.0" stroke="#000000" stroke-width="2" />
<line x1="74.0" y1="56.0" x2="88.0" y2="56.0" stroke="#000000" stroke-width="2" marker-end="url(#arrow)" />
<line x1="458.0" y1="56.0" x2="459.0" y2="56.0" stroke="#000000" stroke-width="2" />
<path d="M225.0,92.5 A15.0,15.0 0 0,1 225.0,62.5 H227.0 A15.0,15.0 0 0,1 227.0,92.5 z" fill="#B3E5FC" stroke="#000000" stroke-width="2"/>
<text class="token_font" x="226.0" y="84.0">(</text>
<line x1="327.0" y1="76.5" x2="328.0" y2="76.5" stroke="#000000" stroke-width="2" />
<rect x="289.0" y="83.0" width="79.0" height="28.0" fill="#90A4AE" stroke="#000000" stroke-width="2"/>
<text class="box_font" x="328.5" y="103.5">left_wing</text>
<line x1="260.0" y1="76.5" x2="323.0" y2="76.5" stroke="#000000" stroke-width="2" marker-end="url(#arrow)" />
<line x1="328.0" y1="76.5" x2="398.0" y2="76.5" stroke="#000000" stroke-width="2" />
<path d="M269.0,85.5 A9.0,9.0 0 0,0 260.0,76.5" fill="none" stroke="#000000" stroke-width="2"/>
<line x1="278.0" y1="96.0" x2="284.0" y2="96.0" stroke="#000000" stroke-width="2" marker-end="url(#arrow)" />
<line x1="369.0" y1="96.0" x2="375.0" y2="96.0" stroke="#000000" stroke-width="2" marker-end="url(#arrow)" />
<path d="M269.0,87.0 A9.0,9.0 0 0,0 278.0,96.0" fill="none" stroke="#000000" stroke-width="2"/>
<path d="M379.0,96.0 A9.0,9.0 0 0,0 388.0,87.0" fill="none" stroke="#000000" stroke-width="2"/>
<path d="M397.0,76.5 A9.0,9.0 0 0,0 388.0,85.5" fill="none" stroke="#000000" stroke-width="2"/>
<line x1="269.0" y1="87.0" x2="269.0" y2="85.5" stroke="#000000" stroke-width="2" />
<line x1="388.0" y1="87.0" x2="388.0" y2="85.5" stroke="#000000" stroke-width="2" />
<line x1="242.0" y1="76.5" x2="256.0" y2="76.5" stroke="#000000" stroke-width="2" marker-end="url(#arrow)" />
<rect x="432.0" y="63.5" width="51.0" height="28.0" fill="#90A4AE" stroke="#000000" stroke-width="2"/>
<text class="box_font" x="457.5" y="84.0">value</text>
<line x1="456.0" y1="98.0" x2="457.0" y2="98.0" stroke="#000000" stroke-width="2" />
<line x1="431.0" y1="98.0" x2="456.0" y2="98.0" stroke="#000000" stroke-width="2" />
<line x1="484.0" y1="98.0" x2="461.0" y2="98.0" stroke="#000000" stroke-width="2" marker-end="url(#arrow)" />
<line x1="414.0" y1="76.5" x2="431.0" y2="76.5" stroke="#000000" stroke-width="2" />
<path d="M431.0,76.5 A10.75,10.75 0 0,0 431.0,98.0" fill="none" stroke="#000000" stroke-width="2"/>
<path d="M484.0,98.0 A10.75,10.75 0 0,0 484.0,76.5" fill="none" stroke="#000000" stroke-width="2"/>
<line x1="484.0" y1="76.5" x2="493.0" y2="76.5" stroke="#000000" stroke-width="2" />
<line x1="396.0" y1="76.5" x2="410.0" y2="76.5" stroke="#000000" stroke-width="2" marker-end="url(#arrow)" />
<line x1="583.0" y1="76.5" x2="584.0" y2="76.5" stroke="#000000" stroke-width="2" />
<rect x="539.0" y="83.0" width="91.0" height="28.0" fill="#90A4AE" stroke="#000000" stroke-width="2"/>
<text class="box_font" x="584.5" y="103.5">right_wing</text>
<line x1="510.0" y1="76.5" x2="579.0" y2="76.5" stroke="#000000" stroke-width="2" marker-end="url(#arrow)" />
<line x1="584.0" y1="76.5" x2="660.0" y2="76.5" stroke="#000000" stroke-width="2" />
<path d="M519.0,85.5 A9.0,9.0 0 0,0 510.0,76.5" fill="none" stroke="#000000" stroke-width="2"/>
<line x1="528.0" y1="96.0" x2="534.0" y2="96.0" stroke="#000000" stroke-width="2" marker-end="url(#arrow)" />
<line x1="631.0" y1="96.0" x2="637.0" y2="96.0" stroke="#000000" stroke-width="2" marker-end="url(#arrow)" />
<path d="M519.0,87.0 A9.0,9.0 0 0,0 528.0,96.0" fill="none" stroke="#000000" stroke-width="2"/>
<path d="M641.0,96.0 A9.0,9.0 0 0,0 650.0,87.0" fill="none" stroke="#000000" stroke-width="2"/>
<path d="M659.0,76.5 A9.0,9.0 0 0,0 650.0,85.5" fill="none" stroke="#000000" stroke-width="2"/>
<line x1="519.0" y1="87.0" x2="519.0" y2="85.5" stroke="#000000" stroke-width="2" />
<line x1="650.0" y1="87.0" x2="650.0" y2="85.5" stroke="#000000" stroke-width="2" />
<line x1="492.0" y1="76.5" x2="506.0" y2="76.5" stroke="#000000" stroke-width="2" marker-end="url(#arrow)" />
<path d="M692.0,92.5 A15.0,15.0 0 0,1 692.0,62.5 H694.0 A15.0,15.0 0 0,1 694.0,92.5 z" fill="#B3E5FC" stroke="#000000" stroke-width="2"/>
<text class="token_font" x="693.0" y="84.0">)</text>
<line x1="658.0" y1="76.5" x2="672.0" y2="76.5" stroke="#000000" stroke-width="2" marker-end="url(#arrow)" />
<line x1="181.0" y1="56.0" x2="454.0" y2="56.0" stroke="#000000" stroke-width="2" marker-end="url(#arrow)" />
<line x1="459.0" y1="56.0" x2="739.0" y2="56.0" stroke="#000000" stroke-width="2" />
<path d="M190.0,65.0 A9.0,9.0 0 0,0 181.0,56.0" fill="none" stroke="#000000" stroke-width="2"/>
<line x1="199.0" y1="76.5" x2="205.0" y2="76.5" stroke="#000000" stroke-width="2" marker-end="url(#arrow)" />
<line x1="710.0" y1="76.5" x2="716.0" y2="76.5" stroke="#000000" stroke-width="2" marker-end="url(#arrow)" />
<path d="M190.0,67.5 A9.0,9.0 0 0,0 199.0,76.5" fill="none" stroke="#000000" stroke-width="2"/>
<path d="M720.0,76.5 A9.0,9.0 0 0,0 729.0,67.5" fill="none" stroke="#000000" stroke-width="2"/>
<path d="M738.0,56.0 A9.0,9.0 0 0,0 729.0,65.0" fill="none" stroke="#000000" stroke-width="2"/>
<line x1="190.0" y1="67.5" x2="190.0" y2="65.0" stroke="#000000" stroke-width="2" />
<line x1="729.0" y1="67.5" x2="729.0" y2="65.0" stroke="#000000" stroke-width="2" />
<line x1="163.0" y1="56.0" x2="177.0" y2="56.0" stroke="#000000" stroke-width="2" marker-end="url(#arrow)" />
<line x1="11.0" y1="56.0" x2="25.0" y2="56.0" stroke="#000000" stroke-width="2" marker-end="url(#arrow)" />
<circle cx="758.0" cy="56.0" r="3.0" fill="#FFFFFF" stroke="#000000" stroke-width="2"/>
<line x1="737.0" y1="56.0" x2="751.0" y2="56.0" stroke="#000000" stroke-width="2" marker-end="url(#arrow)" />
<text class="title_font" x="382.5" y="24.0">reference</text>
</svg>