<?xml version="1.0" encoding="UTF-8" standalone="no"?>
<!-- Created by Syntax-Trax http://kevinpt.github.io/syntax-trax -->
<svg xmlns="http://www.w3.org/2000/svg"
xmlns:xlink="http://www.w3.org/1999/xlink"
xml:space="preserve"
width="421" height="82" version="1.1">
<style type="text/css">
<![CDATA[
.box_font {fill:#000000; text-anchor:middle;
    font-family:Times; font-size:14pt; font-weight:normal; font-style:italic;}
.title_font {fill:#000000; text-anchor:middle;
    font-family:Sans; font-size:22pt; font-weight:bold; font-style:normal;}
.bubble_font {fill:#000000; text-anchor:middle;
    font-family:Sans; font-size:14pt; font-weight:bold; font-style:normal;}
.token_font {fill:#000000; text-anchor:middle;
    font-family:Sans; font-size:16pt; font-weight:bold; font-style:normal;}
.label {fill:#000;
  text-anchor:middle;
  font-size:16pt; font-weight:bold; font-family:Sans;}
.link {fill: #0D47A1;}
.link:hover {fill: #0D47A1; text-decoration:underline;}
.link:visited {fill: #4A148C;}
]]>
</style>
<defs>
  <marker id="arrow" markerWidth="5" markerHeight="4" refX="2.5" refY="2" orient="auto" markerUnits="strokeWidth">
    <path d="M0,0 L0.5,2 L0,4 L4.5,2 z" fill="#000000" />
  </marker>
</defs>
<rect width="100%" height="100%" fill="white"/><path d="M48.0,39.0 A15.0,15.0 0 0,1 48.0,9.0 H62.0 A15.0,15.0 0 0,1 62.0,39.0 z" stroke="none" fill-opacity="0.498039215686" fill="#000000"/>
<rect x="122.0" y="10.0" width="26.0" height="28.0" stroke="none" fill-opacity="0.498039215686" fill="#000000"/>
<path d="M128.0,79.0 A15.0,15.0 0 0,1 128.0,49.0 H142.0 A15.0,15.0 0 0,1 142.0,79.0 z" stroke="none" fill-opacity="0.498039215686" fill="#000000"/>
<path d="M228.0,59.0 A15.0,15.0 0 0,1 228.0,29.0 H230.0 A15.0,15.0 0 0,1 230.0,59.0 z" stroke="none" fill-opacity="0.498039215686" fill="#000000"/>
<rect x="264.0" y="30.0" width="51.0" height="28.0" stroke="none" fill-opacity="0.498039215686" fill="#000000"/>
<path d="M349.0,59.0 A15.0,15.0 0 0,1 349.0,29.0 H351.0 A15.0,15.0 0 0,1 351.0,59.0 z" stroke="none" fill-opacity="0.498039215686" fill="#000000"/>
<circle cx="9" cy="20.0" r="3" stroke="#000000" stroke-width="2" fill="#FFFFFF"/>
<path d="M45.0,36.0 A15.0,15.0 0 0,1 45.0,6.0 H59.0 A15.0,15.0 0 0,1 59.0,36.0 z" stroke="#000000" stroke-width="2" fill="#B3E5FC"/>
<text class="token_font" x="52.0" y="27.5"> / </text>
<rect x="119.0" y="7.0" width="26.0" height="28.0" stroke="#000000" stroke-width="2" fill="#90A4AE"/>
<text class="box_font" x="132.0" y="27.5">id</text>
<path d="M125.0,76.0 A15.0,15.0 0 0,1 125.0,46.0 H139.0 A15.0,15.0 0 0,1 139.0,76.0 z" stroke="#000000" stroke-width="2" fill="#B3E5FC"/>
<text class="token_font" x="132.0" y="67.5"> / </text>
<line x1="109.0" y1="20.0" x2="114.0" y2="20.0" stroke="#000000" stroke-width="2" marker-end="url(#arrow)" />
<line x1="146.0" y1="20.0" x2="155.0" y2="20.0" stroke="#000000" stroke-width="2" />
<line x1="92.0" y1="20.0" x2="109.0" y2="20.0" stroke="#000000" stroke-width="2" />
<path d="M109.0,20.0 A9.0,9.0 0 0,0 100.0,29.0" stroke="#000000" stroke-width="2" fill="none"/>
<line x1="100.0" y1="51.0" x2="100.0" y2="44.0" stroke="#000000" stroke-width="2" marker-end="url(#arrow)" />
<line x1="100.0" y1="40.0" x2="100.0" y2="29.0" stroke="#000000" stroke-width="2" />
<path d="M100.0,51.0 A9.0,9.0 0 0,0 109.0,60.0" stroke="#000000" stroke-width="2" fill="none"/>
<path d="M164.0,29.0 A9.0,9.0 0 0,0 155.0,20.0" stroke="#000000" stroke-width="2" fill="none"/>
<line x1="164.0" y1="29.0" x2="164.0" y2="36.0" stroke="#000000" stroke-width="2" marker-end="url(#arrow)" />
<line x1="164.0" y1="40.0" x2="164.0" y2="51.0" stroke="#000000" stroke-width="2" />
<path d="M155.0,60.0 A9.0,9.0 0 0,0 164.0,51.0" stroke="#000000" stroke-width="2" fill="none"/>
<line x1="155.0" y1="20.0" x2="164.0" y2="20.0" stroke="#000000" stroke-width="2" />
<line x1="74.0" y1="20.0" x2="88.0" y2="20.0" stroke="#000000" stroke-width="2" marker-end="url(#arrow)" />
<line x1="285.0" y1="20.0" x2="286.0" y2="20.0" stroke="#000000" stroke-width="2" />
<path d="M225.0,56.0 A15.0,15.0 0 0,1 225.0,26.0 H227.0 A15.0,15.0 0 0,1 227.0,56.0 z" stroke="#000000" stroke-width="2" fill="#B3E5FC"/>
<text class="token_font" x="226.0" y="47.5">(</text>
<rect x="261.0" y="27.0" width="51.0" height="28.0" stroke="#000000" stroke-width="2" fill="#90A4AE"/>
<a xlink:href="#value" target="_parent">
  <text class="box_font link" x="286.5" y="47.5">value</text></a>
<line x1="242.0" y1="40.0" x2="256.0" y2="40.0" stroke="#000000" stroke-width="2" marker-end="url(#arrow)" />
<path d="M346.0,56.0 A15.0,15.0 0 0,1 346.0,26.0 H348.0 A15.0,15.0 0 0,1 348.0,56.0 z" stroke="#000000" stroke-width="2" fill="#B3E5FC"/>
<text class="token_font" x="347.0" y="47.5">)</text>
<line x1="312.0" y1="40.0" x2="326.0" y2="40.0" stroke="#000000" stroke-width="2" marker-end="url(#arrow)" />
<line x1="181.0" y1="20.0" x2="281.0" y2="20.0" stroke="#000000" stroke-width="2" marker-end="url(#arrow)" />
<line x1="286.0" y1="20.0" x2="393.0" y2="20.0" stroke="#000000" stroke-width="2" />
<path d="M190.0,29.0 A9.0,9.0 0 0,0 181.0,20.0" stroke="#000000" stroke-width="2" fill="none"/>
<line x1="199.0" y1="40.0" x2="205.0" y2="40.0" stroke="#000000" stroke-width="2" marker-end="url(#arrow)" />
<line x1="364.0" y1="40.0" x2="370.0" y2="40.0" stroke="#000000" stroke-width="2" marker-end="url(#arrow)" />
<path d="M190.0,31.0 A9.0,9.0 0 0,0 199.0,40.0" stroke="#000000" stroke-width="2" fill="none"/>
<path d="M374.0,40.0 A9.0,9.0 0 0,0 383.0,31.0" stroke="#000000" stroke-width="2" fill="none"/>
<path d="M392.0,20.0 A9.0,9.0 0 0,0 383.0,29.0" stroke="#000000" stroke-width="2" fill="none"/>
<line x1="190.0" y1="31.0" x2="190.0" y2="29.0" stroke="#000000" stroke-width="2" />
<line x1="383.0" y1="31.0" x2="383.0" y2="29.0" stroke="#000000" stroke-width="2" />
<line x1="163.0" y1="20.0" x2="177.0" y2="20.0" stroke="#000000" stroke-width="2" marker-end="url(#arrow)" />
<line x1="11" y1="20.0" x2="25.0" y2="20.0" stroke="#000000" stroke-width="2" marker-end="url(#arrow)" />
<circle cx="412.0" cy="20.0" r="3.0" stroke="#000000" stroke-width="2" fill="#FFFFFF"/>
<line x1="391.0" y1="20.0" x2="405.0" y2="20.0" stroke="#000000" stroke-width="2" marker-end="url(#arrow)" />
</svg>