<?xml version="1.0" encoding="UTF-8" standalone="no"?>
<!-- Created by Syntax-Trax http://kevinpt.github.io/syntax-trax -->
<svg xmlns="http://www.w3.org/2000/svg"
xmlns:xlink="http://www.w3.org/1999/xlink"
xml:space="preserve"
width="763" height="140" version="1.1">
<style type="text/css">
<![CDATA[
.hash_font {fill:#321432; text-anchor:middle;
    font-family:Times; font-size:14pt; font-weight:normal; font-style:italic;}
.definitive_font {fill:#321432; text-anchor:middle;
    font-family:Times; font-size:14pt; font-weight:normal; font-style:italic;}
.title_font {fill:#321432; text-anchor:middle;
    font-family:Sans; font-size:18pt; font-weight:normal; font-style:italic;}
.non-terminal_font {fill:#321432; text-anchor:middle;
    font-family:Times; font-size:14pt; font-weight:normal; font-style:italic;}
.negative_font {fill:#321432; text-anchor:middle;
    font-family:Times; font-size:14pt; font-weight:normal; font-style:italic;}
.charclass_font {fill:#321432; text-anchor:middle;
    font-family:Sans; font-size:16pt; font-weight:bold; font-style:normal;}
.space_font {fill:#321432; text-anchor:middle;
    font-family:Sans; font-size:3pt; font-weight:normal; font-style:normal;}
.token_font {fill:#321432; text-anchor:middle;
    font-family:Sans; font-size:16pt; font-weight:bold; font-style:normal;}
.label {fill:#000;
  text-anchor:middle;
  font-size:16pt; font-weight:bold; font-family:Sans;}
.link {fill: #0D47A1;}
.link:hover {fill: #0D47A1; text-decoration:underline;}
.link:visited {fill: #4A148C;}
]]>
</style>
<defs>
  <marker id="arrow" markerWidth="5" markerHeight="4" refX="2.5" refY="2" orient="auto" markerUnits="strokeWidth">
    <path d="M0,0 L0.5,2 L0,4 L4.5,2 z" fill="#323232" />
  </marker>
</defs>
<rect width="100%" height="100%" fill="white"/><circle cx="14" cy="66.0" r="3" stroke="#323232" stroke-width="2" fill="#623C47"/>
<path d="M45.0,82.0 A15.0,15.0 0 0,1 45.0,52.0 H59.0 A15.0,15.0 0 0,1 59.0,82.0 z" stroke="#323232" stroke-width="2" fill="#DCDCDC"/>
<text class="token_font" x="52.0" y="73.5"> / </text>
<rect x="109.0" y="53.0" width="26.0" height="28.0" stroke="#323232" stroke-width="2" fill="#FAFAFA"/>
<text class="non-terminal_font" x="122.0" y="73.5">id</text>
<path d="M115.0,125.0 A15.0,15.0 0 0,1 115.0,95.0 H129.0 A15.0,15.0 0 0,1 129.0,125.0 z" stroke="#323232" stroke-width="2" fill="#DCDCDC"/>
<text class="token_font" x="122.0" y="116.5"> / </text>
<line x1="99.0" y1="66.0" x2="104.0" y2="66.0" stroke="#323232" stroke-width="2" marker-end="url(#arrow)" />
<line x1="136.0" y1="66.0" x2="145.0" y2="66.0" stroke="#323232" stroke-width="2" />
<line x1="87.0" y1="66.0" x2="99.0" y2="66.0" stroke="#323232" stroke-width="2" />
<path d="M99.0,66.0 A9.0,9.0 0 0,0 90.0,75.0" stroke="#323232" stroke-width="2" fill="none"/>
<line x1="90.0" y1="100.0" x2="90.0" y2="91.5" stroke="#323232" stroke-width="2" marker-end="url(#arrow)" />
<line x1="90.0" y1="87.5" x2="90.0" y2="75.0" stroke="#323232" stroke-width="2" />
<path d="M90.0,100.0 A9.0,9.0 0 0,0 99.0,109.0" stroke="#323232" stroke-width="2" fill="none"/>
<path d="M154.0,75.0 A9.0,9.0 0 0,0 145.0,66.0" stroke="#323232" stroke-width="2" fill="none"/>
<line x1="154.0" y1="75.0" x2="154.0" y2="83.5" stroke="#323232" stroke-width="2" marker-end="url(#arrow)" />
<line x1="154.0" y1="87.5" x2="154.0" y2="100.0" stroke="#323232" stroke-width="2" />
<path d="M145.0,109.0 A9.0,9.0 0 0,0 154.0,100.0" stroke="#323232" stroke-width="2" fill="none"/>
<line x1="145.0" y1="66.0" x2="154.0" y2="66.0" stroke="#323232" stroke-width="2" />
<line x1="74.0" y1="66.0" x2="83.0" y2="66.0" stroke="#323232" stroke-width="2" marker-end="url(#arrow)" />
<line x1="448.5" y1="66.0" x2="449.5" y2="66.0" stroke="#323232" stroke-width="2" />
<path d="M216.0,106.0 A15.0,15.0 0 0,1 216.0,76.0 H218.0 A15.0,15.0 0 0,1 218.0,106.0 z" stroke="#323232" stroke-width="2" fill="#DCDCDC"/>
<text class="token_font" x="217.0" y="97.5">(</text>
<line x1="319.0" y1="90.0" x2="320.0" y2="90.0" stroke="#323232" stroke-width="2" />
<rect x="281.0" y="101.0" width="79.0" height="28.0" stroke="#323232" stroke-width="2" fill="#FAFAFA"/>
<text class="non-terminal_font" x="320.5" y="121.5">left_wing</text>
<line x1="246.0" y1="90.0" x2="315.0" y2="90.0" stroke="#323232" stroke-width="2" marker-end="url(#arrow)" />
<line x1="320.0" y1="90.0" x2="396.0" y2="90.0" stroke="#323232" stroke-width="2" />
<path d="M258.0,102.0 A12.0,12.0 0 0,0 246.0,90.0" stroke="#323232" stroke-width="2" fill="none"/>
<line x1="270.0" y1="114.0" x2="276.0" y2="114.0" stroke="#323232" stroke-width="2" marker-end="url(#arrow)" />
<line x1="361.0" y1="114.0" x2="367.0" y2="114.0" stroke="#323232" stroke-width="2" marker-end="url(#arrow)" />
<path d="M258.0,102.0 A12.0,12.0 0 0,0 270.0,114.0" stroke="#323232" stroke-width="2" fill="none"/>
<path d="M371.0,114.0 A12.0,12.0 0 0,0 383.0,102.0" stroke="#323232" stroke-width="2" fill="none"/>
<path d="M395.0,90.0 A12.0,12.0 0 0,0 383.0,102.0" stroke="#323232" stroke-width="2" fill="none"/>
<line x1="258.0" y1="102.0" x2="258.0" y2="102.0" stroke="#323232" stroke-width="2" />
<line x1="383.0" y1="102.0" x2="383.0" y2="102.0" stroke="#323232" stroke-width="2" />
<line x1="233.0" y1="90.0" x2="242.0" y2="90.0" stroke="#323232" stroke-width="2" marker-end="url(#arrow)" />
<rect x="420.0" y="77.0" width="51.0" height="28.0" stroke="#323232" stroke-width="2" fill="#FAFAFA"/>
<text class="non-terminal_font" x="445.5" y="97.5">value</text>
<line x1="444.0" y1="113.0" x2="445.0" y2="113.0" stroke="#323232" stroke-width="2" />
<line x1="419.0" y1="113.0" x2="444.0" y2="113.0" stroke="#323232" stroke-width="2" />
<line x1="472.0" y1="113.0" x2="449.0" y2="113.0" stroke="#323232" stroke-width="2" marker-end="url(#arrow)" />
<line x1="407.0" y1="90.0" x2="419.0" y2="90.0" stroke="#323232" stroke-width="2" />
<path d="M419.0,90.0 A11.5,11.5 0 0,0 419.0,113.0" stroke="#323232" stroke-width="2" fill="none"/>
<path d="M472.0,113.0 A11.5,11.5 0 0,0 472.0,90.0" stroke="#323232" stroke-width="2" fill="none"/>
<line x1="472.0" y1="90.0" x2="481.0" y2="90.0" stroke="#323232" stroke-width="2" />
<line x1="394.0" y1="90.0" x2="403.0" y2="90.0" stroke="#323232" stroke-width="2" marker-end="url(#arrow)" />
<line x1="572.0" y1="90.0" x2="573.0" y2="90.0" stroke="#323232" stroke-width="2" />
<rect x="528.0" y="101.0" width="91.0" height="28.0" stroke="#323232" stroke-width="2" fill="#FAFAFA"/>
<text class="non-terminal_font" x="573.5" y="121.5">right_wing</text>
<line x1="493.0" y1="90.0" x2="568.0" y2="90.0" stroke="#323232" stroke-width="2" marker-end="url(#arrow)" />
<line x1="573.0" y1="90.0" x2="655.0" y2="90.0" stroke="#323232" stroke-width="2" />
<path d="M505.0,102.0 A12.0,12.0 0 0,0 493.0,90.0" stroke="#323232" stroke-width="2" fill="none"/>
<line x1="517.0" y1="114.0" x2="523.0" y2="114.0" stroke="#323232" stroke-width="2" marker-end="url(#arrow)" />
<line x1="620.0" y1="114.0" x2="626.0" y2="114.0" stroke="#323232" stroke-width="2" marker-end="url(#arrow)" />
<path d="M505.0,102.0 A12.0,12.0 0 0,0 517.0,114.0" stroke="#323232" stroke-width="2" fill="none"/>
<path d="M630.0,114.0 A12.0,12.0 0 0,0 642.0,102.0" stroke="#323232" stroke-width="2" fill="none"/>
<path d="M654.0,90.0 A12.0,12.0 0 0,0 642.0,102.0" stroke="#323232" stroke-width="2" fill="none"/>
<line x1="505.0" y1="102.0" x2="505.0" y2="102.0" stroke="#323232" stroke-width="2" />
<line x1="642.0" y1="102.0" x2="642.0" y2="102.0" stroke="#323232" stroke-width="2" />
<line x1="480.0" y1="90.0" x2="489.0" y2="90.0" stroke="#323232" stroke-width="2" marker-end="url(#arrow)" />
<path d="M682.0,106.0 A15.0,15.0 0 0,1 682.0,76.0 H684.0 A15.0,15.0 0 0,1 684.0,106.0 z" stroke="#323232" stroke-width="2" fill="#DCDCDC"/>
<text class="token_font" x="683.0" y="97.5">)</text>
<line x1="653.0" y1="90.0" x2="662.0" y2="90.0" stroke="#323232" stroke-width="2" marker-end="url(#arrow)" />
<line x1="166.0" y1="66.0" x2="444.5" y2="66.0" stroke="#323232" stroke-width="2" marker-end="url(#arrow)" />
<line x1="449.5" y1="66.0" x2="735.0" y2="66.0" stroke="#323232" stroke-width="2" />
<path d="M178.0,78.0 A12.0,12.0 0 0,0 166.0,66.0" stroke="#323232" stroke-width="2" fill="none"/>
<line x1="190.0" y1="90.0" x2="196.0" y2="90.0" stroke="#323232" stroke-width="2" marker-end="url(#arrow)" />
<line x1="700.0" y1="90.0" x2="706.0" y2="90.0" stroke="#323232" stroke-width="2" marker-end="url(#arrow)" />
<path d="M178.0,78.0 A12.0,12.0 0 0,0 190.0,90.0" stroke="#323232" stroke-width="2" fill="none"/>
<path d="M710.0,90.0 A12.0,12.0 0 0,0 722.0,78.0" stroke="#323232" stroke-width="2" fill="none"/>
<path d="M734.0,66.0 A12.0,12.0 0 0,0 722.0,78.0" stroke="#323232" stroke-width="2" fill="none"/>
<line x1="178.0" y1="78.0" x2="178.0" y2="78.0" stroke="#323232" stroke-width="2" />
<line x1="722.0" y1="78.0" x2="722.0" y2="78.0" stroke="#323232" stroke-width="2" />
<line x1="153.0" y1="66.0" x2="162.0" y2="66.0" stroke="#323232" stroke-width="2" marker-end="url(#arrow)" />
<line x1="16" y1="66.0" x2="25.0" y2="66.0" stroke="#323232" stroke-width="2" marker-end="url(#arrow)" />
<circle cx="749.0" cy="66.0" r="3.0" stroke="#323232" stroke-width="2" fill="#623C47"/>
<line x1="733.0" y1="66.0" x2="742.0" y2="66.0" stroke="#323232" stroke-width="2" marker-end="url(#arrow)" />
<text class="title_font" x="380.5" y="29.0">reference</text>
</svg>