<?xml version="1.0" encoding="UTF-8" standalone="no"?>
<!-- Created by Syntax-Trax http://kevinpt.github.io/syntax-trax -->
<svg xmlns="http://www.w3.org/2000/svg"
xmlns:xlink="http://www.w3.org/1999/xlink"
xml:space="preserve"
width="549" height="175" version="1.1">
<style type="text/css">
<![CDATA[
.box_font {fill:#000000; text-anchor:middle;
    font-family:Times; font-size:14pt; font-weight:normal; font-style:italic;}
.charclass_font {fill:#000000; text-anchor:middle;
    font-family:Sans; font-size:16pt; font-weight:bold; font-style:normal;}
.title_font {fill:#000000; text-anchor:middle;
    font-family:Sans; font-size:18pt; font-weight:normal; font-style:italic;}
.bubble_font {fill:#000000; text-anchor:middle;
    font-family:Sans; font-size:14pt; font-weight:bold; font-style:normal;}
.token_font {fill:#000000; text-anchor:middle;
    font-family:Sans; font-size:16pt; font-weight:bold; font-style:normal;}
.label {fill:#000;
  text-anchor:middle;
  font-size:16pt; font-weight:bold; font-family:Sans;}
.link {fill: #0D47A1;}
.link:hover {fill: #0D47A1; text-decoration:underline;}
.link:visited {fill: #4A148C;}
]]>
</style>
<defs>
  <marker id="arrow" markerWidth="5" markerHeight="4" refX="2.5" refY="2" orient="auto" markerUnits="strokeWidth">
    <path d="M0,0 L0.5,2 L0,4 L4.5,2 z" fill="#000000" />
  </marker>
</defs>
<rect width="100%" height="100%" fill="white"/><circle cx="48.0" cy="60.0" r="15.0" stroke="none" fill-opacity="0.498039215686" fill="#000000"/>
<rect x="155.0" y="85.0" width="26.0" height="28.0" stroke="none" fill-opacity="0.498039215686" fill="#000000"/>
<path d="M243.0,95.0 A15.0,15.0 0 0,1 243.0,65.0 H253.0 A15.0,15.0 0 0,1 253.0,95.0 z" stroke="none" fill-opacity="0.498039215686" fill="#000000"/>
<rect x="344.0" y="65.0" width="26.0" height="28.0" stroke="none" fill-opacity="0.498039215686" fill="#000000"/>
<path d="M460.0,95.0 A15.0,15.0 0 0,1 460.0,65.0 H470.0 A15.0,15.0 0 0,1 470.0,95.0 z" stroke="none" fill-opacity="0.498039215686" fill="#000000"/>
<circle cx="460.5" cy="116.0" r="15.0" stroke="none" fill-opacity="0.498039215686" fill="#000000"/>
<circle cx="306.0" cy="157.0" r="15.0" stroke="none" fill-opacity="0.498039215686" fill="#000000"/>
<circle cx="9" cy="56.0" r="3" stroke="#000000" stroke-width="2" fill="#FFFFFF"/>
<circle cx="45.0" cy="57.0" r="15.0" stroke="#000000" stroke-width="2" fill="#B3E5FC"/>
<text class="token_font" x="45.0" y="63.5">|</text>
<line x1="193.5" y1="56.0" x2="194.5" y2="56.0" stroke="#000000" stroke-width="2" />
<line x1="163.5" y1="76.0" x2="164.5" y2="76.0" stroke="#000000" stroke-width="2" />
<rect x="152.0" y="82.0" width="26.0" height="28.0" stroke="#000000" stroke-width="2" fill="#90A4AE"/>
<text class="box_font" x="165.0" y="102.5">id</text>
<line x1="123.0" y1="76.0" x2="159.5" y2="76.0" stroke="#000000" stroke-width="2" marker-end="url(#arrow)" />
<line x1="164.5" y1="76.0" x2="208.0" y2="76.0" stroke="#000000" stroke-width="2" />
<path d="M132.0,85.0 A9.0,9.0 0 0,0 123.0,76.0" stroke="#000000" stroke-width="2" fill="none"/>
<line x1="141.0" y1="95.0" x2="147.0" y2="95.0" stroke="#000000" stroke-width="2" marker-end="url(#arrow)" />
<line x1="179.0" y1="95.0" x2="185.0" y2="95.0" stroke="#000000" stroke-width="2" marker-end="url(#arrow)" />
<path d="M132.0,86.0 A9.0,9.0 0 0,0 141.0,95.0" stroke="#000000" stroke-width="2" fill="none"/>
<path d="M189.0,95.0 A9.0,9.0 0 0,0 198.0,86.0" stroke="#000000" stroke-width="2" fill="none"/>
<path d="M207.0,76.0 A9.0,9.0 0 0,0 198.0,85.0" stroke="#000000" stroke-width="2" fill="none"/>
<line x1="132.0" y1="86.0" x2="132.0" y2="85.0" stroke="#000000" stroke-width="2" />
<line x1="198.0" y1="86.0" x2="198.0" y2="85.0" stroke="#000000" stroke-width="2" />
<path d="M240.0,92.0 A15.0,15.0 0 0,1 240.0,62.0 H250.0 A15.0,15.0 0 0,1 250.0,92.0 z" stroke="#000000" stroke-width="2" fill="#B3E5FC"/>
<text class="token_font" x="245.0" y="83.5">=</text>
<line x1="206.0" y1="76.0" x2="220.0" y2="76.0" stroke="#000000" stroke-width="2" marker-end="url(#arrow)" />
<line x1="95.0" y1="56.0" x2="189.5" y2="56.0" stroke="#000000" stroke-width="2" marker-end="url(#arrow)" />
<line x1="194.5" y1="56.0" x2="296.0" y2="56.0" stroke="#000000" stroke-width="2" />
<path d="M104.0,65.0 A9.0,9.0 0 0,0 95.0,56.0" stroke="#000000" stroke-width="2" fill="none"/>
<line x1="113.0" y1="76.0" x2="119.0" y2="76.0" stroke="#000000" stroke-width="2" marker-end="url(#arrow)" />
<line x1="266.0" y1="76.0" x2="273.0" y2="76.0" stroke="#000000" stroke-width="2" marker-end="url(#arrow)" />
<path d="M104.0,67.0 A9.0,9.0 0 0,0 113.0,76.0" stroke="#000000" stroke-width="2" fill="none"/>
<path d="M277.0,76.0 A9.0,9.0 0 0,0 286.0,67.0" stroke="#000000" stroke-width="2" fill="none"/>
<path d="M295.0,56.0 A9.0,9.0 0 0,0 286.0,65.0" stroke="#000000" stroke-width="2" fill="none"/>
<line x1="104.0" y1="67.0" x2="104.0" y2="65.0" stroke="#000000" stroke-width="2" />
<line x1="286.0" y1="67.0" x2="286.0" y2="65.0" stroke="#000000" stroke-width="2" />
<line x1="352.5" y1="56.0" x2="353.5" y2="56.0" stroke="#000000" stroke-width="2" />
<rect x="341.0" y="62.0" width="26.0" height="28.0" stroke="#000000" stroke-width="2" fill="#90A4AE"/>
<text class="box_font" x="354.0" y="82.5">id</text>
<line x1="312.0" y1="56.0" x2="348.5" y2="56.0" stroke="#000000" stroke-width="2" marker-end="url(#arrow)" />
<line x1="353.5" y1="56.0" x2="397.0" y2="56.0" stroke="#000000" stroke-width="2" />
<path d="M321.0,65.0 A9.0,9.0 0 0,0 312.0,56.0" stroke="#000000" stroke-width="2" fill="none"/>
<line x1="330.0" y1="75.0" x2="336.0" y2="75.0" stroke="#000000" stroke-width="2" marker-end="url(#arrow)" />
<line x1="368.0" y1="75.0" x2="374.0" y2="75.0" stroke="#000000" stroke-width="2" marker-end="url(#arrow)" />
<path d="M321.0,66.0 A9.0,9.0 0 0,0 330.0,75.0" stroke="#000000" stroke-width="2" fill="none"/>
<path d="M378.0,75.0 A9.0,9.0 0 0,0 387.0,66.0" stroke="#000000" stroke-width="2" fill="none"/>
<path d="M396.0,56.0 A9.0,9.0 0 0,0 387.0,65.0" stroke="#000000" stroke-width="2" fill="none"/>
<line x1="321.0" y1="66.0" x2="321.0" y2="65.0" stroke="#000000" stroke-width="2" />
<line x1="387.0" y1="66.0" x2="387.0" y2="65.0" stroke="#000000" stroke-width="2" />
<line x1="294.0" y1="56.0" x2="308.0" y2="56.0" stroke="#000000" stroke-width="2" marker-end="url(#arrow)" />
<line x1="460.5" y1="56.0" x2="461.5" y2="56.0" stroke="#000000" stroke-width="2" />
<path d="M457.0,92.0 A15.0,15.0 0 0,1 457.0,62.0 H467.0 A15.0,15.0 0 0,1 467.0,92.0 z" stroke="#000000" stroke-width="2" fill="#B3E5FC"/>
<text class="token_font" x="462.0" y="83.5">+</text>
<circle cx="457.5" cy="113.0" r="15.0" stroke="#000000" stroke-width="2" fill="#B3E5FC"/>
<text class="token_font" x="457.5" y="119.5">-</text>
<line x1="413.0" y1="56.0" x2="456.5" y2="56.0" stroke="#000000" stroke-width="2" marker-end="url(#arrow)" />
<line x1="461.5" y1="56.0" x2="512.0" y2="56.0" stroke="#000000" stroke-width="2" />
<path d="M422.0,65.0 A9.0,9.0 0 0,0 413.0,56.0" stroke="#000000" stroke-width="2" fill="none"/>
<line x1="431.0" y1="76.0" x2="437.0" y2="76.0" stroke="#000000" stroke-width="2" marker-end="url(#arrow)" />
<line x1="483.0" y1="76.0" x2="489.0" y2="76.0" stroke="#000000" stroke-width="2" marker-end="url(#arrow)" />
<path d="M422.0,67.0 A9.0,9.0 0 0,0 431.0,76.0" stroke="#000000" stroke-width="2" fill="none"/>
<path d="M493.0,76.0 A9.0,9.0 0 0,0 502.0,67.0" stroke="#000000" stroke-width="2" fill="none"/>
<line x1="431.0" y1="112.0" x2="437.0" y2="112.0" stroke="#000000" stroke-width="2" marker-end="url(#arrow)" />
<line x1="474.0" y1="112.0" x2="489.0" y2="112.0" stroke="#000000" stroke-width="2" marker-end="url(#arrow)" />
<path d="M422.0,103.0 A9.0,9.0 0 0,0 431.0,112.0" stroke="#000000" stroke-width="2" fill="none"/>
<path d="M493.0,112.0 A9.0,9.0 0 0,0 502.0,103.0" stroke="#000000" stroke-width="2" fill="none"/>
<path d="M511.0,56.0 A9.0,9.0 0 0,0 502.0,65.0" stroke="#000000" stroke-width="2" fill="none"/>
<line x1="422.0" y1="103.0" x2="422.0" y2="65.0" stroke="#000000" stroke-width="2" />
<line x1="502.0" y1="103.0" x2="502.0" y2="65.0" stroke="#000000" stroke-width="2" />
<line x1="395.0" y1="56.0" x2="409.0" y2="56.0" stroke="#000000" stroke-width="2" marker-end="url(#arrow)" />
<circle cx="303.0" cy="154.0" r="15.0" stroke="#000000" stroke-width="2" fill="#B3E5FC"/>
<text class="token_font" x="303.0" y="160.5"> </text>
<line x1="95.0" y1="153.0" x2="287.0" y2="153.0" stroke="#000000" stroke-width="2" />
<line x1="511.0" y1="153.0" x2="323.0" y2="153.0" stroke="#000000" stroke-width="2" marker-end="url(#arrow)" />
<line x1="78.0" y1="56.0" x2="95.0" y2="56.0" stroke="#000000" stroke-width="2" />
<path d="M95.0,56.0 A9.0,9.0 0 0,0 86.0,65.0" stroke="#000000" stroke-width="2" fill="none"/>
<line x1="86.0" y1="144.0" x2="86.0" y2="108.5" stroke="#000000" stroke-width="2" marker-end="url(#arrow)" />
<line x1="86.0" y1="104.5" x2="86.0" y2="65.0" stroke="#000000" stroke-width="2" />
<path d="M86.0,144.0 A9.0,9.0 0 0,0 95.0,153.0" stroke="#000000" stroke-width="2" fill="none"/>
<path d="M520.0,65.0 A9.0,9.0 0 0,0 511.0,56.0" stroke="#000000" stroke-width="2" fill="none"/>
<line x1="520.0" y1="65.0" x2="520.0" y2="100.5" stroke="#000000" stroke-width="2" marker-end="url(#arrow)" />
<line x1="520.0" y1="104.5" x2="520.0" y2="144.0" stroke="#000000" stroke-width="2" />
<path d="M511.0,153.0 A9.0,9.0 0 0,0 520.0,144.0" stroke="#000000" stroke-width="2" fill="none"/>
<line x1="511.0" y1="56.0" x2="520.0" y2="56.0" stroke="#000000" stroke-width="2" />
<line x1="60.0" y1="56.0" x2="74.0" y2="56.0" stroke="#000000" stroke-width="2" marker-end="url(#arrow)" />
<line x1="11" y1="56.0" x2="25.0" y2="56.0" stroke="#000000" stroke-width="2" marker-end="url(#arrow)" />
<circle cx="540.0" cy="56.0" r="3.0" stroke="#000000" stroke-width="2" fill="#FFFFFF"/>
<line x1="519.0" y1="56.0" x2="533.0" y2="56.0" stroke="#000000" stroke-width="2" marker-end="url(#arrow)" />
<text class="title_font" x="273.5" y="24.0">right_wing</text>
</svg>