<?xml version="1.0" encoding="UTF-8" standalone="no"?>
<!-- Created by Syntax-Trax http://kevinpt.github.io/syntax-trax -->
<svg xmlns="http://www.w3.org/2000/svg"
xmlns:xlink="http://www.w3.org/1999/xlink"
xml:space="preserve"
width="572" height="199" version="1.1">
<style type="text/css">
<![CDATA[
.hash_font {fill:#321432; text-anchor:middle;
    font-family:Times; font-size:14pt; font-weight:normal; font-style:italic;}
.definitive_font {fill:#321432; text-anchor:middle;
    font-family:Times; font-size:14pt; font-weight:normal; font-style:italic;}
.title_font {fill:#321432; text-anchor:middle;
    font-family:Sans; font-size:18pt; font-weight:normal; font-style:italic;}
.non-terminal_font {fill:#321432; text-anchor:middle;
    font-family:Times; font-size:14pt; font-weight:normal; font-style:italic;}
.negative_font {fill:#321432; text-anchor:middle;
    font-family:Times; font-size:14pt; font-weight:normal; font-style:italic;}
.charclass_font {fill:#321432; text-anchor:middle;
    font-family:Sans; font-size:16pt; font-weight:bold; font-style:normal;}
.space_font {fill:#321432; text-anchor:middle;
    font-family:Sans; font-size:3pt; font-weight:normal; font-style:normal;}
.token_font {fill:#321432; text-anchor:middle;
    font-family:Sans; font-size:16pt; font-weight:bold; font-style:normal;}
.label {fill:#000;
  text-anchor:middle;
  font-size:16pt; font-weight:bold; font-family:Sans;}
.link {fill: #0D47A1;}
.link:hover {fill: #0D47A1; text-decoration:underline;}
.link:visited {fill: #4A148C;}
]]>
</style>
<defs>
  <marker id="arrow" markerWidth="5" markerHeight="4" refX="2.5" refY="2" orient="auto" markerUnits="strokeWidth">
    <path d="M0,0 L0.5,2 L0,4 L4.5,2 z" fill="#323232" />
  </marker>
</defs>
<rect width="100%" height="100%" fill="white"/><circle cx="14" cy="66.0" r="3" stroke="#323232" stroke-width="2" fill="#623C47"/>
<circle cx="45.0" cy="67.0" r="15.0" stroke="#323232" stroke-width="2" fill="#DCDCDC"/>
<text class="token_font" x="45.0" y="73.5">|</text>
<line x1="193.0" y1="66.0" x2="194.0" y2="66.0" stroke="#323232" stroke-width="2" />
<line x1="165.5" y1="90.0" x2="166.5" y2="90.0" stroke="#323232" stroke-width="2" />
<rect x="154.0" y="101.0" width="26.0" height="28.0" stroke="#323232" stroke-width="2" fill="#FAFAFA"/>
<text class="non-terminal_font" x="167.0" y="121.5">id</text>
<line x1="119.0" y1="90.0" x2="161.5" y2="90.0" stroke="#323232" stroke-width="2" marker-end="url(#arrow)" />
<line x1="166.5" y1="90.0" x2="216.0" y2="90.0" stroke="#323232" stroke-width="2" />
<path d="M131.0,102.0 A12.0,12.0 0 0,0 119.0,90.0" stroke="#323232" stroke-width="2" fill="none"/>
<line x1="143.0" y1="114.0" x2="149.0" y2="114.0" stroke="#323232" stroke-width="2" marker-end="url(#arrow)" />
<line x1="181.0" y1="114.0" x2="187.0" y2="114.0" stroke="#323232" stroke-width="2" marker-end="url(#arrow)" />
<path d="M131.0,102.0 A12.0,12.0 0 0,0 143.0,114.0" stroke="#323232" stroke-width="2" fill="none"/>
<path d="M191.0,114.0 A12.0,12.0 0 0,0 203.0,102.0" stroke="#323232" stroke-width="2" fill="none"/>
<path d="M215.0,90.0 A12.0,12.0 0 0,0 203.0,102.0" stroke="#323232" stroke-width="2" fill="none"/>
<line x1="131.0" y1="102.0" x2="131.0" y2="102.0" stroke="#323232" stroke-width="2" />
<line x1="203.0" y1="102.0" x2="203.0" y2="102.0" stroke="#323232" stroke-width="2" />
<path d="M243.0,106.0 A15.0,15.0 0 0,1 243.0,76.0 H253.0 A15.0,15.0 0 0,1 253.0,106.0 z" stroke="#323232" stroke-width="2" fill="#DCDCDC"/>
<text class="token_font" x="248.0" y="97.5">=</text>
<line x1="214.0" y1="90.0" x2="223.0" y2="90.0" stroke="#323232" stroke-width="2" marker-end="url(#arrow)" />
<line x1="85.0" y1="66.0" x2="189.0" y2="66.0" stroke="#323232" stroke-width="2" marker-end="url(#arrow)" />
<line x1="194.0" y1="66.0" x2="305.0" y2="66.0" stroke="#323232" stroke-width="2" />
<path d="M97.0,78.0 A12.0,12.0 0 0,0 85.0,66.0" stroke="#323232" stroke-width="2" fill="none"/>
<line x1="109.0" y1="90.0" x2="115.0" y2="90.0" stroke="#323232" stroke-width="2" marker-end="url(#arrow)" />
<line x1="269.0" y1="90.0" x2="276.0" y2="90.0" stroke="#323232" stroke-width="2" marker-end="url(#arrow)" />
<path d="M97.0,78.0 A12.0,12.0 0 0,0 109.0,90.0" stroke="#323232" stroke-width="2" fill="none"/>
<path d="M280.0,90.0 A12.0,12.0 0 0,0 292.0,78.0" stroke="#323232" stroke-width="2" fill="none"/>
<path d="M304.0,66.0 A12.0,12.0 0 0,0 292.0,78.0" stroke="#323232" stroke-width="2" fill="none"/>
<line x1="97.0" y1="78.0" x2="97.0" y2="78.0" stroke="#323232" stroke-width="2" />
<line x1="292.0" y1="78.0" x2="292.0" y2="78.0" stroke="#323232" stroke-width="2" />
<line x1="362.5" y1="66.0" x2="363.5" y2="66.0" stroke="#323232" stroke-width="2" />
<rect x="351.0" y="77.0" width="26.0" height="28.0" stroke="#323232" stroke-width="2" fill="#FAFAFA"/>
<text class="non-terminal_font" x="364.0" y="97.5">id</text>
<line x1="316.0" y1="66.0" x2="358.5" y2="66.0" stroke="#323232" stroke-width="2" marker-end="url(#arrow)" />
<line x1="363.5" y1="66.0" x2="413.0" y2="66.0" stroke="#323232" stroke-width="2" />
<path d="M328.0,78.0 A12.0,12.0 0 0,0 316.0,66.0" stroke="#323232" stroke-width="2" fill="none"/>
<line x1="340.0" y1="90.0" x2="346.0" y2="90.0" stroke="#323232" stroke-width="2" marker-end="url(#arrow)" />
<line x1="378.0" y1="90.0" x2="384.0" y2="90.0" stroke="#323232" stroke-width="2" marker-end="url(#arrow)" />
<path d="M328.0,78.0 A12.0,12.0 0 0,0 340.0,90.0" stroke="#323232" stroke-width="2" fill="none"/>
<path d="M388.0,90.0 A12.0,12.0 0 0,0 400.0,78.0" stroke="#323232" stroke-width="2" fill="none"/>
<path d="M412.0,66.0 A12.0,12.0 0 0,0 400.0,78.0" stroke="#323232" stroke-width="2" fill="none"/>
<line x1="328.0" y1="78.0" x2="328.0" y2="78.0" stroke="#323232" stroke-width="2" />
<line x1="400.0" y1="78.0" x2="400.0" y2="78.0" stroke="#323232" stroke-width="2" />
<line x1="303.0" y1="66.0" x2="312.0" y2="66.0" stroke="#323232" stroke-width="2" marker-end="url(#arrow)" />
<line x1="477.5" y1="66.0" x2="478.5" y2="66.0" stroke="#323232" stroke-width="2" />
<path d="M474.0,106.0 A15.0,15.0 0 0,1 474.0,76.0 H484.0 A15.0,15.0 0 0,1 484.0,106.0 z" stroke="#323232" stroke-width="2" fill="#DCDCDC"/>
<text class="token_font" x="479.0" y="97.5">+</text>
<circle cx="474.5" cy="129.0" r="15.0" stroke="#323232" stroke-width="2" fill="#DCDCDC"/>
<text class="token_font" x="474.5" y="135.5">-</text>
<line x1="424.0" y1="66.0" x2="473.5" y2="66.0" stroke="#323232" stroke-width="2" marker-end="url(#arrow)" />
<line x1="478.5" y1="66.0" x2="535.0" y2="66.0" stroke="#323232" stroke-width="2" />
<path d="M436.0,78.0 A12.0,12.0 0 0,0 424.0,66.0" stroke="#323232" stroke-width="2" fill="none"/>
<line x1="448.0" y1="90.0" x2="454.0" y2="90.0" stroke="#323232" stroke-width="2" marker-end="url(#arrow)" />
<line x1="500.0" y1="90.0" x2="506.0" y2="90.0" stroke="#323232" stroke-width="2" marker-end="url(#arrow)" />
<path d="M436.0,78.0 A12.0,12.0 0 0,0 448.0,90.0" stroke="#323232" stroke-width="2" fill="none"/>
<path d="M510.0,90.0 A12.0,12.0 0 0,0 522.0,78.0" stroke="#323232" stroke-width="2" fill="none"/>
<line x1="448.0" y1="128.0" x2="454.0" y2="128.0" stroke="#323232" stroke-width="2" marker-end="url(#arrow)" />
<line x1="491.0" y1="128.0" x2="506.0" y2="128.0" stroke="#323232" stroke-width="2" marker-end="url(#arrow)" />
<path d="M436.0,116.0 A12.0,12.0 0 0,0 448.0,128.0" stroke="#323232" stroke-width="2" fill="none"/>
<path d="M510.0,128.0 A12.0,12.0 0 0,0 522.0,116.0" stroke="#323232" stroke-width="2" fill="none"/>
<path d="M534.0,66.0 A12.0,12.0 0 0,0 522.0,78.0" stroke="#323232" stroke-width="2" fill="none"/>
<line x1="436.0" y1="116.0" x2="436.0" y2="78.0" stroke="#323232" stroke-width="2" />
<line x1="522.0" y1="116.0" x2="522.0" y2="78.0" stroke="#323232" stroke-width="2" />
<line x1="411.0" y1="66.0" x2="420.0" y2="66.0" stroke="#323232" stroke-width="2" marker-end="url(#arrow)" />
<circle cx="309.5" cy="173.0" r="15.0" stroke="#323232" stroke-width="2" fill="#DCDCDC"/>
<text class="token_font" x="309.5" y="179.5"> </text>
<line x1="85.0" y1="172.0" x2="293.5" y2="172.0" stroke="#323232" stroke-width="2" />
<line x1="534.0" y1="172.0" x2="329.5" y2="172.0" stroke="#323232" stroke-width="2" marker-end="url(#arrow)" />
<line x1="73.0" y1="66.0" x2="85.0" y2="66.0" stroke="#323232" stroke-width="2" />
<path d="M85.0,66.0 A9.0,9.0 0 0,0 76.0,75.0" stroke="#323232" stroke-width="2" fill="none"/>
<line x1="76.0" y1="163.0" x2="76.0" y2="123.0" stroke="#323232" stroke-width="2" marker-end="url(#arrow)" />
<line x1="76.0" y1="119.0" x2="76.0" y2="75.0" stroke="#323232" stroke-width="2" />
<path d="M76.0,163.0 A9.0,9.0 0 0,0 85.0,172.0" stroke="#323232" stroke-width="2" fill="none"/>
<path d="M543.0,75.0 A9.0,9.0 0 0,0 534.0,66.0" stroke="#323232" stroke-width="2" fill="none"/>
<line x1="543.0" y1="75.0" x2="543.0" y2="115.0" stroke="#323232" stroke-width="2" marker-end="url(#arrow)" />
<line x1="543.0" y1="119.0" x2="543.0" y2="163.0" stroke="#323232" stroke-width="2" />
<path d="M534.0,172.0 A9.0,9.0 0 0,0 543.0,163.0" stroke="#323232" stroke-width="2" fill="none"/>
<line x1="534.0" y1="66.0" x2="543.0" y2="66.0" stroke="#323232" stroke-width="2" />
<line x1="60.0" y1="66.0" x2="69.0" y2="66.0" stroke="#323232" stroke-width="2" marker-end="url(#arrow)" />
<line x1="16" y1="66.0" x2="25.0" y2="66.0" stroke="#323232" stroke-width="2" marker-end="url(#arrow)" />
<circle cx="558.0" cy="66.0" r="3.0" stroke="#323232" stroke-width="2" fill="#623C47"/>
<line x1="542.0" y1="66.0" x2="551.0" y2="66.0" stroke="#323232" stroke-width="2" marker-end="url(#arrow)" />
<text class="title_font" x="285.0" y="29.0">right_wing</text>
</svg>