<?xml version="1.0" encoding="UTF-8" standalone="no"?>
<!-- Created by Syntax-Trax http://kevinpt.github.io/syntax-trax -->
<svg xmlns="http://www.w3.org/2000/svg"
xmlns:xlink="http://www.w3.org/1999/xlink"
xml:space="preserve"
width="332" height="259" version="1.1">
<style type="text/css">
<![CDATA[
.title_font {fill:#000000; text-anchor:middle;
    font-family:Sans; font-size:22pt; font-weight:bold; font-style:normal;}
.token_font {fill:#000000; text-anchor:middle;
    font-family:Sans; font-size:16pt; font-weight:bold; font-style:normal;}
.box_font {fill:#000000; text-anchor:middle;
    font-family:Times; font-size:14pt; font-weight:normal; font-style:italic;}
.bubble_font {fill:#000000; text-anchor:middle;
    font-family:Sans; font-size:14pt; font-weight:bold; font-style:normal;}
.label {fill:#000;
  text-anchor:middle;
  font-size:16pt; font-weight:bold; font-family:Sans;}
.link {fill: #0D47A1;}
.link:hover {fill: #0D47A1; text-decoration:underline;}
.link:visited {fill: #4A148C;}
]]>
</style>
<defs>
  <marker id="arrow" markerWidth="5" markerHeight="4" refX="2.5" refY="2" orient="auto" markerUnits="strokeWidth">
    <path d="M0,0 L0.5,2 L0,4 L4.5,2 z" fill="#000000" />
  </marker>
</defs>
<rect width="100%" height="100%" fill="white"/><path d="M76.0,39.0 A15.0,15.0 0 0,1 76.0,9.0 H83.0 A15.0,15.0 0 0,1 83.0,39.0 z" stroke="none" fill-opacity="0.4980392156862745" fill="#000000"/>
<rect x="117.0" y="10.0" width="69.0" height="28.0" stroke="none" fill-opacity="0.4980392156862745" fill="#000000"/>
<path d="M220.0,39.0 A15.0,15.0 0 0,1 220.0,9.0 H227.0 A15.0,15.0 0 0,1 227.0,39.0 z" stroke="none" fill-opacity="0.4980392156862745" fill="#000000"/>
<rect x="61.0" y="46.5" width="69.0" height="28.0" stroke="none" fill-opacity="0.4980392156862745" fill="#000000"/>
<path d="M164.0,75.5 A15.0,15.0 0 0,1 164.0,45.5 H174.0 A15.0,15.0 0 0,1 174.0,75.5 z" stroke="none" fill-opacity="0.4980392156862745" fill="#000000"/>
<rect x="208.0" y="46.5" width="69.0" height="28.0" stroke="none" fill-opacity="0.4980392156862745" fill="#000000"/>
<rect x="61.0" y="83.0" width="69.0" height="28.0" stroke="none" fill-opacity="0.4980392156862745" fill="#000000"/>
<circle cx="164.0" cy="97.0" r="15.0" stroke="none" fill-opacity="0.4980392156862745" fill="#000000"/>
<rect x="198.0" y="83.0" width="69.0" height="28.0" stroke="none" fill-opacity="0.4980392156862745" fill="#000000"/>
<circle cx="76.5" cy="133.5" r="15.0" stroke="none" fill-opacity="0.4980392156862745" fill="#000000"/>
<rect x="111.0" y="119.5" width="69.0" height="28.0" stroke="none" fill-opacity="0.4980392156862745" fill="#000000"/>
<rect x="61.0" y="155.0" width="26.0" height="28.0" stroke="none" fill-opacity="0.4980392156862745" fill="#000000"/>
<path d="M76.0,219.5 A15.0,15.0 0 0,1 76.0,189.5 H86.0 A15.0,15.0 0 0,1 86.0,219.5 z" stroke="none" fill-opacity="0.4980392156862745" fill="#000000"/>
<rect x="120.0" y="190.5" width="26.0" height="28.0" stroke="none" fill-opacity="0.4980392156862745" fill="#000000"/>
<path d="M76.0,256.0 A15.0,15.0 0 0,1 76.0,226.0 H79.0 A15.0,15.0 0 0,1 79.0,256.0 z" stroke="none" fill-opacity="0.4980392156862745" fill="#000000"/>
<circle cx="9.0" cy="20.0" r="3.0" stroke="#000000" stroke-width="2" fill="#FFFFFF"/>
<path d="M73.0,36.0 A15.0,15.0 0 0,1 73.0,6.0 H80.0 A15.0,15.0 0 0,1 80.0,36.0 z" stroke="#000000" stroke-width="2" fill="#B3E5FC"/>
<text class="token_font" x="76.5" y="27.5">{</text>
<rect x="114.0" y="7.0" width="69.0" height="28.0" stroke="#000000" stroke-width="2" fill="#90A4AE"/>
<text class="box_font" x="148.5" y="27.5">selector</text>
<line x1="95.0" y1="20.0" x2="109.0" y2="20.0" stroke="#000000" stroke-width="2" marker-end="url(#arrow)" />
<path d="M217.0,36.0 A15.0,15.0 0 0,1 217.0,6.0 H224.0 A15.0,15.0 0 0,1 224.0,36.0 z" stroke="#000000" stroke-width="2" fill="#B3E5FC"/>
<text class="token_font" x="220.5" y="27.5">}</text>
<line x1="183.0" y1="20.0" x2="197.0" y2="20.0" stroke="#000000" stroke-width="2" marker-end="url(#arrow)" />
<rect x="58.0" y="43.5" width="69.0" height="28.0" stroke="#000000" stroke-width="2" fill="#90A4AE"/>
<text class="box_font" x="92.5" y="64.0">selector</text>
<path d="M161.0,72.5 A15.0,15.0 0 0,1 161.0,42.5 H171.0 A15.0,15.0 0 0,1 171.0,72.5 z" stroke="#000000" stroke-width="2" fill="#B3E5FC"/>
<text class="token_font" x="166.0" y="64.0">&amp;</text>
<line x1="127.0" y1="56.5" x2="141.0" y2="56.5" stroke="#000000" stroke-width="2" marker-end="url(#arrow)" />
<rect x="205.0" y="43.5" width="69.0" height="28.0" stroke="#000000" stroke-width="2" fill="#90A4AE"/>
<text class="box_font" x="239.5" y="64.0">selector</text>
<line x1="186.0" y1="56.5" x2="200.0" y2="56.5" stroke="#000000" stroke-width="2" marker-end="url(#arrow)" />
<rect x="58.0" y="80.0" width="69.0" height="28.0" stroke="#000000" stroke-width="2" fill="#90A4AE"/>
<text class="box_font" x="92.5" y="100.5">selector</text>
<circle cx="161.0" cy="94.0" r="15.0" stroke="#000000" stroke-width="2" fill="#B3E5FC"/>
<text class="token_font" x="161.0" y="100.5">|</text>
<line x1="127.0" y1="93.0" x2="141.0" y2="93.0" stroke="#000000" stroke-width="2" marker-end="url(#arrow)" />
<rect x="195.0" y="80.0" width="69.0" height="28.0" stroke="#000000" stroke-width="2" fill="#90A4AE"/>
<text class="box_font" x="229.5" y="100.5">selector</text>
<line x1="176.0" y1="93.0" x2="190.0" y2="93.0" stroke="#000000" stroke-width="2" marker-end="url(#arrow)" />
<circle cx="73.5" cy="130.5" r="15.0" stroke="#000000" stroke-width="2" fill="#B3E5FC"/>
<text class="token_font" x="73.5" y="137.0">-</text>
<rect x="108.0" y="116.5" width="69.0" height="28.0" stroke="#000000" stroke-width="2" fill="#90A4AE"/>
<text class="box_font" x="142.5" y="137.0">selector</text>
<line x1="89.0" y1="129.5" x2="103.0" y2="129.5" stroke="#000000" stroke-width="2" marker-end="url(#arrow)" />
<rect x="58.0" y="152.0" width="26.0" height="28.0" stroke="#000000" stroke-width="2" fill="#90A4AE"/>
<text class="box_font" x="71.0" y="172.5">id</text>
<path d="M73.0,216.5 A15.0,15.0 0 0,1 73.0,186.5 H83.0 A15.0,15.0 0 0,1 83.0,216.5 z" stroke="#000000" stroke-width="2" fill="#B3E5FC"/>
<text class="token_font" x="78.0" y="208.0">#</text>
<rect x="117.0" y="187.5" width="26.0" height="28.0" stroke="#000000" stroke-width="2" fill="#90A4AE"/>
<text class="box_font" x="130.0" y="208.0">id</text>
<line x1="98.0" y1="200.5" x2="112.0" y2="200.5" stroke="#000000" stroke-width="2" marker-end="url(#arrow)" />
<path d="M73.0,253.0 A15.0,15.0 0 0,1 73.0,223.0 H76.0 A15.0,15.0 0 0,1 76.0,253.0 z" stroke="#000000" stroke-width="2" fill="#B3E5FC"/>
<text class="token_font" x="74.5" y="244.5">*</text>
<line x1="29.0" y1="20.0" x2="53.0" y2="20.0" stroke="#000000" stroke-width="2" marker-end="url(#arrow)" />
<line x1="240.0" y1="20.0" x2="304.0" y2="20.0" stroke="#000000" stroke-width="2" />
<path d="M38.0,29.0 A9.0,9.0 0 0,0 29.0,20.0" stroke="#000000" stroke-width="2" fill="none"/>
<line x1="47.0" y1="56.5" x2="53.0" y2="56.5" stroke="#000000" stroke-width="2" marker-end="url(#arrow)" />
<line x1="275.0" y1="56.5" x2="281.0" y2="56.5" stroke="#000000" stroke-width="2" marker-end="url(#arrow)" />
<path d="M38.0,47.5 A9.0,9.0 0 0,0 47.0,56.5" stroke="#000000" stroke-width="2" fill="none"/>
<path d="M285.0,56.5 A9.0,9.0 0 0,0 294.0,47.5" stroke="#000000" stroke-width="2" fill="none"/>
<line x1="47.0" y1="93.0" x2="53.0" y2="93.0" stroke="#000000" stroke-width="2" marker-end="url(#arrow)" />
<line x1="265.0" y1="93.0" x2="281.0" y2="93.0" stroke="#000000" stroke-width="2" marker-end="url(#arrow)" />
<path d="M38.0,84.0 A9.0,9.0 0 0,0 47.0,93.0" stroke="#000000" stroke-width="2" fill="none"/>
<path d="M285.0,93.0 A9.0,9.0 0 0,0 294.0,84.0" stroke="#000000" stroke-width="2" fill="none"/>
<line x1="47.0" y1="129.5" x2="53.0" y2="129.5" stroke="#000000" stroke-width="2" marker-end="url(#arrow)" />
<line x1="178.0" y1="129.5" x2="281.0" y2="129.5" stroke="#000000" stroke-width="2" marker-end="url(#arrow)" />
<path d="M38.0,120.5 A9.0,9.0 0 0,0 47.0,129.5" stroke="#000000" stroke-width="2" fill="none"/>
<path d="M285.0,129.5 A9.0,9.0 0 0,0 294.0,120.5" stroke="#000000" stroke-width="2" fill="none"/>
<line x1="47.0" y1="165.0" x2="53.0" y2="165.0" stroke="#000000" stroke-width="2" marker-end="url(#arrow)" />
<line x1="85.0" y1="165.0" x2="281.0" y2="165.0" stroke="#000000" stroke-width="2" marker-end="url(#arrow)" />
<path d="M38.0,156.0 A9.0,9.0 0 0,0 47.0,165.0" stroke="#000000" stroke-width="2" fill="none"/>
<path d="M285.0,165.0 A9.0,9.0 0 0,0 294.0,156.0" stroke="#000000" stroke-width="2" fill="none"/>
<line x1="47.0" y1="200.5" x2="53.0" y2="200.5" stroke="#000000" stroke-width="2" marker-end="url(#arrow)" />
<line x1="144.0" y1="200.5" x2="281.0" y2="200.5" stroke="#000000" stroke-width="2" marker-end="url(#arrow)" />
<path d="M38.0,191.5 A9.0,9.0 0 0,0 47.0,200.5" stroke="#000000" stroke-width="2" fill="none"/>
<path d="M285.0,200.5 A9.0,9.0 0 0,0 294.0,191.5" stroke="#000000" stroke-width="2" fill="none"/>
<line x1="47.0" y1="237.0" x2="53.0" y2="237.0" stroke="#000000" stroke-width="2" marker-end="url(#arrow)" />
<line x1="92.0" y1="237.0" x2="281.0" y2="237.0" stroke="#000000" stroke-width="2" marker-end="url(#arrow)" />
<path d="M38.0,228.0 A9.0,9.0 0 0,0 47.0,237.0" stroke="#000000" stroke-width="2" fill="none"/>
<path d="M285.0,237.0 A9.0,9.0 0 0,0 294.0,228.0" stroke="#000000" stroke-width="2" fill="none"/>
<path d="M303.0,20.0 A9.0,9.0 0 0,0 294.0,29.0" stroke="#000000" stroke-width="2" fill="none"/>
<line x1="38.0" y1="228.0" x2="38.0" y2="29.0" stroke="#000000" stroke-width="2" />
<line x1="294.0" y1="228.0" x2="294.0" y2="29.0" stroke="#000000" stroke-width="2" />
<line x1="11.0" y1="20.0" x2="25.0" y2="20.0" stroke="#000000" stroke-width="2" marker-end="url(#arrow)" />
<circle cx="323.0" cy="20.0" r="3.0" stroke="#000000" stroke-width="2" fill="#FFFFFF"/>
<line x1="302.0" y1="20.0" x2="316.0" y2="20.0" stroke="#000000" stroke-width="2" marker-end="url(#arrow)" />
</svg>