<?xml version="1.0" encoding="UTF-8" standalone="no"?>
<!-- Created by Syntax-Trax http://kevinpt.github.io/syntax-trax -->
<svg xmlns="http://www.w3.org/2000/svg"
xmlns:xlink="http://www.w3.org/1999/xlink"
xml:space="preserve"
width="391" height="262" version="1.1">
<style type="text/css">
<![CDATA[
.bubble_font {fill:#000000; text-anchor:middle;
    font-family:Sans; font-size:14pt; font-weight:bold; font-style:normal;}
.token_font {fill:#000000; text-anchor:middle;
    font-family:Sans; font-size:16pt; font-weight:bold; font-style:normal;}
.title_font {fill:#000000; text-anchor:middle;
    font-family:Sans; font-size:22pt; font-weight:bold; font-style:normal;}
.box_font {fill:#000000; text-anchor:middle;
    font-family:Times; font-size:14pt; font-weight:normal; font-style:italic;}
.label {fill:#000;
  text-anchor:middle;
  font-size:16pt; font-weight:bold; font-family:Sans;}
.link {fill: #0D47A1;}
.link:hover {fill: #0D47A1; text-decoration:underline;}
.link:visited {fill: #4A148C;}
]]>
</style>
<defs>
  <marker id="arrow" markerWidth="5" markerHeight="4" refX="2.5" refY="2" orient="auto" markerUnits="strokeWidth">
    <path d="M0,0 L0.5,2 L0,4 L4.5,2 z" fill="#000000" />
  </marker>
</defs>
<rect width="100%" height="100%" fill="white"/><rect x="61.0" y="9.0" width="12.0" height="28.0" stroke="none" fill="#000000" fill-opacity="0.4980392156862745"/>
<rect x="109.0" y="9.0" width="26.0" height="28.0" stroke="none" fill="#000000" fill-opacity="0.4980392156862745"/>
<rect x="116.0" y="48.0" width="12.0" height="28.0" stroke="none" fill="#000000" fill-opacity="0.4980392156862745"/>
<circle cx="121.5" cy="117.0" r="15.0" stroke="none" fill="#000000" fill-opacity="0.4980392156862745"/>
<rect x="212.0" y="82.5" width="26.0" height="28.0" stroke="none" fill="#000000" fill-opacity="0.4980392156862745"/>
<path d="M227.0,147.0 A15.0,15.0 0 0,1 227.0,117.0 H237.0 A15.0,15.0 0 0,1 237.0,147.0 z" stroke="none" fill="#000000" fill-opacity="0.4980392156862745"/>
<rect x="271.0" y="118.0" width="26.0" height="28.0" stroke="none" fill="#000000" fill-opacity="0.4980392156862745"/>
<path d="M227.0,183.5 A15.0,15.0 0 0,1 227.0,153.5 H241.0 A15.0,15.0 0 0,1 241.0,183.5 z" stroke="none" fill="#000000" fill-opacity="0.4980392156862745"/>
<path d="M227.0,220.0 A15.0,15.0 0 0,1 227.0,190.0 H230.0 A15.0,15.0 0 0,1 230.0,220.0 z" stroke="none" fill="#000000" fill-opacity="0.4980392156862745"/>
<rect x="136.5" y="231.0" width="130.0" height="28.0" stroke="none" fill="#000000" fill-opacity="0.4980392156862745"/>
<circle cx="9.0" cy="19.0" r="3.0" stroke="#000000" fill="#FFFFFF" stroke-width="2"/>
<rect x="58.0" y="6.0" width="12.0" height="28.0" stroke="#000000" fill="#90A4AE" stroke-width="2"/>
<text class="box_font" x="64.0" y="26.5"></text>
<rect x="106.0" y="6.0" width="26.0" height="28.0" stroke="#000000" fill="#90A4AE" stroke-width="2"/>
<text class="box_font" x="119.0" y="26.5">id</text>
<rect x="113.0" y="45.0" width="12.0" height="28.0" stroke="#000000" fill="#90A4AE" stroke-width="2"/>
<text class="box_font" x="119.0" y="65.5"></text>
<line x1="105.0" y1="58.0" x2="112.0" y2="58.0" stroke="#000000" stroke-width="2" />
<line x1="133.0" y1="58.0" x2="130.0" y2="58.0" stroke="#000000" stroke-width="2" marker-end="url(#arrow)" />
<line x1="88.0" y1="19.0" x2="105.0" y2="19.0" stroke="#000000" stroke-width="2" />
<path d="M105.0,19.0 A9.0,9.0 0 0,0 96.0,28.0" stroke="#000000" fill="none" stroke-width="2"/>
<line x1="96.0" y1="49.0" x2="96.0" y2="42.5" stroke="#000000" stroke-width="2" marker-end="url(#arrow)" />
<line x1="96.0" y1="38.5" x2="96.0" y2="28.0" stroke="#000000" stroke-width="2" />
<path d="M96.0,49.0 A9.0,9.0 0 0,0 105.0,58.0" stroke="#000000" fill="none" stroke-width="2"/>
<path d="M142.0,28.0 A9.0,9.0 0 0,0 133.0,19.0" stroke="#000000" fill="none" stroke-width="2"/>
<line x1="142.0" y1="28.0" x2="142.0" y2="34.5" stroke="#000000" stroke-width="2" marker-end="url(#arrow)" />
<line x1="142.0" y1="38.5" x2="142.0" y2="49.0" stroke="#000000" stroke-width="2" />
<path d="M133.0,58.0 A9.0,9.0 0 0,0 142.0,49.0" stroke="#000000" fill="none" stroke-width="2"/>
<line x1="133.0" y1="19.0" x2="142.0" y2="19.0" stroke="#000000" stroke-width="2" />
<line x1="70.0" y1="19.0" x2="84.0" y2="19.0" stroke="#000000" stroke-width="2" marker-end="url(#arrow)" />
<line x1="117.0" y1="92.5" x2="118.0" y2="92.5" stroke="#000000" stroke-width="2" />
<circle cx="118.5" cy="114.0" r="15.0" stroke="#000000" fill="#B3E5FC" stroke-width="2"/>
<text class="token_font" x="118.5" y="120.5">-</text>
<line x1="74.0" y1="92.5" x2="113.0" y2="92.5" stroke="#000000" stroke-width="2" marker-end="url(#arrow)" />
<line x1="118.0" y1="92.5" x2="164.0" y2="92.5" stroke="#000000" stroke-width="2" />
<path d="M83.0,101.5 A9.0,9.0 0 0,0 74.0,92.5" stroke="#000000" fill="none" stroke-width="2"/>
<line x1="92.0" y1="113.0" x2="98.0" y2="113.0" stroke="#000000" stroke-width="2" marker-end="url(#arrow)" />
<line x1="135.0" y1="113.0" x2="141.0" y2="113.0" stroke="#000000" stroke-width="2" marker-end="url(#arrow)" />
<path d="M83.0,104.0 A9.0,9.0 0 0,0 92.0,113.0" stroke="#000000" fill="none" stroke-width="2"/>
<path d="M145.0,113.0 A9.0,9.0 0 0,0 154.0,104.0" stroke="#000000" fill="none" stroke-width="2"/>
<path d="M163.0,92.5 A9.0,9.0 0 0,0 154.0,101.5" stroke="#000000" fill="none" stroke-width="2"/>
<line x1="83.0" y1="104.0" x2="83.0" y2="101.5" stroke="#000000" stroke-width="2" />
<line x1="154.0" y1="104.0" x2="154.0" y2="101.5" stroke="#000000" stroke-width="2" />
<rect x="209.0" y="79.5" width="26.0" height="28.0" stroke="#000000" fill="#90A4AE" stroke-width="2"/>
<text class="box_font" x="222.0" y="100.0">id</text>
<path d="M224.0,144.0 A15.0,15.0 0 0,1 224.0,114.0 H234.0 A15.0,15.0 0 0,1 234.0,144.0 z" stroke="#000000" fill="#B3E5FC" stroke-width="2"/>
<text class="token_font" x="229.0" y="135.5">#</text>
<rect x="268.0" y="115.0" width="26.0" height="28.0" stroke="#000000" fill="#90A4AE" stroke-width="2"/>
<text class="box_font" x="281.0" y="135.5">id</text>
<line x1="249.0" y1="128.0" x2="263.0" y2="128.0" stroke="#000000" stroke-width="2" marker-end="url(#arrow)" />
<path d="M224.0,180.5 A15.0,15.0 0 0,1 224.0,150.5 H238.0 A15.0,15.0 0 0,1 238.0,180.5 z" stroke="#000000" fill="#B3E5FC" stroke-width="2"/>
<text class="token_font" x="231.0" y="172.0">**</text>
<path d="M224.0,217.0 A15.0,15.0 0 0,1 224.0,187.0 H227.0 A15.0,15.0 0 0,1 227.0,217.0 z" stroke="#000000" fill="#B3E5FC" stroke-width="2"/>
<text class="token_font" x="225.5" y="208.5">*</text>
<line x1="180.0" y1="92.5" x2="204.0" y2="92.5" stroke="#000000" stroke-width="2" marker-end="url(#arrow)" />
<line x1="236.0" y1="92.5" x2="324.0" y2="92.5" stroke="#000000" stroke-width="2" />
<path d="M189.0,101.5 A9.0,9.0 0 0,0 180.0,92.5" stroke="#000000" fill="none" stroke-width="2"/>
<line x1="198.0" y1="128.0" x2="204.0" y2="128.0" stroke="#000000" stroke-width="2" marker-end="url(#arrow)" />
<line x1="295.0" y1="128.0" x2="301.0" y2="128.0" stroke="#000000" stroke-width="2" marker-end="url(#arrow)" />
<path d="M189.0,119.0 A9.0,9.0 0 0,0 198.0,128.0" stroke="#000000" fill="none" stroke-width="2"/>
<path d="M305.0,128.0 A9.0,9.0 0 0,0 314.0,119.0" stroke="#000000" fill="none" stroke-width="2"/>
<line x1="198.0" y1="164.5" x2="204.0" y2="164.5" stroke="#000000" stroke-width="2" marker-end="url(#arrow)" />
<line x1="254.0" y1="164.5" x2="301.0" y2="164.5" stroke="#000000" stroke-width="2" marker-end="url(#arrow)" />
<path d="M189.0,155.5 A9.0,9.0 0 0,0 198.0,164.5" stroke="#000000" fill="none" stroke-width="2"/>
<path d="M305.0,164.5 A9.0,9.0 0 0,0 314.0,155.5" stroke="#000000" fill="none" stroke-width="2"/>
<line x1="198.0" y1="201.0" x2="204.0" y2="201.0" stroke="#000000" stroke-width="2" marker-end="url(#arrow)" />
<line x1="243.0" y1="201.0" x2="301.0" y2="201.0" stroke="#000000" stroke-width="2" marker-end="url(#arrow)" />
<path d="M189.0,192.0 A9.0,9.0 0 0,0 198.0,201.0" stroke="#000000" fill="none" stroke-width="2"/>
<path d="M305.0,201.0 A9.0,9.0 0 0,0 314.0,192.0" stroke="#000000" fill="none" stroke-width="2"/>
<path d="M323.0,92.5 A9.0,9.0 0 0,0 314.0,101.5" stroke="#000000" fill="none" stroke-width="2"/>
<line x1="189.0" y1="192.0" x2="189.0" y2="101.5" stroke="#000000" stroke-width="2" />
<line x1="314.0" y1="192.0" x2="314.0" y2="101.5" stroke="#000000" stroke-width="2" />
<line x1="162.0" y1="92.5" x2="176.0" y2="92.5" stroke="#000000" stroke-width="2" marker-end="url(#arrow)" />
<rect x="133.5" y="228.0" width="130.0" height="28.0" stroke="#000000" fill="#90A4AE" stroke-width="2"/>
<text class="box_font" x="198.5" y="248.5">logical operator</text>
<line x1="74.0" y1="241.0" x2="132.5" y2="241.0" stroke="#000000" stroke-width="2" />
<line x1="323.0" y1="241.0" x2="268.5" y2="241.0" stroke="#000000" stroke-width="2" marker-end="url(#arrow)" />
<line x1="57.0" y1="92.5" x2="74.0" y2="92.5" stroke="#000000" stroke-width="2" />
<path d="M74.0,92.5 A9.0,9.0 0 0,0 65.0,101.5" stroke="#000000" fill="none" stroke-width="2"/>
<line x1="65.0" y1="232.0" x2="65.0" y2="170.75" stroke="#000000" stroke-width="2" marker-end="url(#arrow)" />
<line x1="65.0" y1="166.75" x2="65.0" y2="101.5" stroke="#000000" stroke-width="2" />
<path d="M65.0,232.0 A9.0,9.0 0 0,0 74.0,241.0" stroke="#000000" fill="none" stroke-width="2"/>
<path d="M332.0,101.5 A9.0,9.0 0 0,0 323.0,92.5" stroke="#000000" fill="none" stroke-width="2"/>
<line x1="332.0" y1="101.5" x2="332.0" y2="162.75" stroke="#000000" stroke-width="2" marker-end="url(#arrow)" />
<line x1="332.0" y1="166.75" x2="332.0" y2="232.0" stroke="#000000" stroke-width="2" />
<path d="M323.0,241.0 A9.0,9.0 0 0,0 332.0,232.0" stroke="#000000" fill="none" stroke-width="2"/>
<line x1="323.0" y1="92.5" x2="332.0" y2="92.5" stroke="#000000" stroke-width="2" />
<line x1="29.0" y1="19.0" x2="53.0" y2="19.0" stroke="#000000" stroke-width="2" marker-end="url(#arrow)" />
<line x1="142.0" y1="19.0" x2="363.0" y2="19.0" stroke="#000000" stroke-width="2" />
<path d="M38.0,28.0 A9.0,9.0 0 0,0 29.0,19.0" stroke="#000000" fill="none" stroke-width="2"/>
<line x1="47.0" y1="92.5" x2="53.0" y2="92.5" stroke="#000000" stroke-width="2" marker-end="url(#arrow)" />
<line x1="332.0" y1="92.5" x2="340.0" y2="92.5" stroke="#000000" stroke-width="2" marker-end="url(#arrow)" />
<path d="M38.0,83.5 A9.0,9.0 0 0,0 47.0,92.5" stroke="#000000" fill="none" stroke-width="2"/>
<path d="M344.0,92.5 A9.0,9.0 0 0,0 353.0,83.5" stroke="#000000" fill="none" stroke-width="2"/>
<path d="M362.0,19.0 A9.0,9.0 0 0,0 353.0,28.0" stroke="#000000" fill="none" stroke-width="2"/>
<line x1="38.0" y1="83.5" x2="38.0" y2="28.0" stroke="#000000" stroke-width="2" />
<line x1="353.0" y1="83.5" x2="353.0" y2="28.0" stroke="#000000" stroke-width="2" />
<line x1="11.0" y1="19.0" x2="25.0" y2="19.0" stroke="#000000" stroke-width="2" marker-end="url(#arrow)" />
<circle cx="382.0" cy="19.0" r="3.0" stroke="#000000" fill="#FFFFFF" stroke-width="2"/>
<line x1="361.0" y1="19.0" x2="375.0" y2="19.0" stroke="#000000" stroke-width="2" marker-end="url(#arrow)" />
</svg>