<?xml version="1.0" encoding="UTF-8" standalone="no"?>
<!-- Created by Syntax-Trax http://kevinpt.github.io/syntax-trax -->
<svg xmlns="http://www.w3.org/2000/svg"
xmlns:xlink="http://www.w3.org/1999/xlink"
xml:space="preserve"
width="1275" height="173" version="1.1">
<style type="text/css">
<![CDATA[
.box_font {fill:#000000; text-anchor:middle;
    font-family:Times; font-size:14pt; font-weight:normal; font-style:italic;}
.title_font {fill:#000000; text-anchor:middle;
    font-family:Sans; font-size:22pt; font-weight:bold; font-style:normal;}
.bubble_font {fill:#000000; text-anchor:middle;
    font-family:Sans; font-size:14pt; font-weight:bold; font-style:normal;}
.token_font {fill:#000000; text-anchor:middle;
    font-family:Sans; font-size:16pt; font-weight:bold; font-style:normal;}
.label {fill:#000;
  text-anchor:middle;
  font-size:16pt; font-weight:bold; font-family:Sans;}
.link {fill: #0D47A1;}
.link:hover {fill: #0D47A1; text-decoration:underline;}
.link:visited {fill: #4A148C;}
]]>
</style>
<defs>
  <marker id="arrow" markerWidth="5" markerHeight="4" refX="2.5" refY="2" orient="auto" markerUnits="strokeWidth">
    <path d="M0,0 L0.5,2 L0,4 L4.5,2 z" fill="#000000" />
  </marker>
</defs>
<rect width="100%" height="100%" fill="white"/><path d="M76.0,59.0 A15.0,15.0 0 0,1 76.0,29.0 H86.0 A15.0,15.0 0 0,1 86.0,59.0 z" stroke="none" fill-opacity="0.498039215686" fill="#000000"/>
<circle cx="76.5" cy="80.0" r="15.0" stroke="none" fill-opacity="0.498039215686" fill="#000000"/>
<path d="M163.0,39.0 A15.0,15.0 0 0,1 163.0,9.0 H165.0 A15.0,15.0 0 0,1 165.0,39.0 z" stroke="none" fill-opacity="0.498039215686" fill="#000000"/>
<path d="M259.0,59.0 A15.0,15.0 0 0,1 259.0,29.0 H269.0 A15.0,15.0 0 0,1 269.0,59.0 z" stroke="none" fill-opacity="0.498039215686" fill="#000000"/>
<circle cx="259.5" cy="80.0" r="15.0" stroke="none" fill-opacity="0.498039215686" fill="#000000"/>
<rect x="244.0" y="101.0" width="26.0" height="28.0" stroke="none" fill-opacity="0.498039215686" fill="#000000"/>
<path d="M374.0,59.0 A15.0,15.0 0 0,1 374.0,29.0 H384.0 A15.0,15.0 0 0,1 384.0,59.0 z" stroke="none" fill-opacity="0.498039215686" fill="#000000"/>
<rect x="446.0" y="49.0" width="26.0" height="28.0" stroke="none" fill-opacity="0.498039215686" fill="#000000"/>
<circle cx="373.0" cy="155.0" r="15.0" stroke="none" fill-opacity="0.498039215686" fill="#000000"/>
<rect x="619.5" y="10.0" width="51.0" height="28.0" stroke="none" fill-opacity="0.498039215686" fill="#000000"/>
<circle cx="590.0" cy="64.0" r="15.0" stroke="none" fill-opacity="0.498039215686" fill="#000000"/>
<circle cx="639.0" cy="64.0" r="15.0" stroke="none" fill-opacity="0.498039215686" fill="#000000"/>
<path d="M686.0,77.0 A13.0,13.0 0 0,1 686.0,51.0 H702.0 A13.0,13.0 0 0,1 702.0,77.0 z" stroke="none" fill-opacity="0.498039215686" fill="#000000"/>
<rect x="816.0" y="49.0" width="26.0" height="28.0" stroke="none" fill-opacity="0.498039215686" fill="#000000"/>
<path d="M904.0,59.0 A15.0,15.0 0 0,1 904.0,29.0 H914.0 A15.0,15.0 0 0,1 914.0,59.0 z" stroke="none" fill-opacity="0.498039215686" fill="#000000"/>
<path d="M1020.0,59.0 A15.0,15.0 0 0,1 1020.0,29.0 H1030.0 A15.0,15.0 0 0,1 1030.0,59.0 z" stroke="none" fill-opacity="0.498039215686" fill="#000000"/>
<circle cx="1020.5" cy="80.0" r="15.0" stroke="none" fill-opacity="0.498039215686" fill="#000000"/>
<rect x="1005.0" y="101.0" width="26.0" height="28.0" stroke="none" fill-opacity="0.498039215686" fill="#000000"/>
<circle cx="916.5" cy="155.0" r="15.0" stroke="none" fill-opacity="0.498039215686" fill="#000000"/>
<path d="M1116.0,39.0 A15.0,15.0 0 0,1 1116.0,9.0 H1118.0 A15.0,15.0 0 0,1 1118.0,39.0 z" stroke="none" fill-opacity="0.498039215686" fill="#000000"/>
<path d="M1195.0,59.0 A15.0,15.0 0 0,1 1195.0,29.0 H1205.0 A15.0,15.0 0 0,1 1205.0,59.0 z" stroke="none" fill-opacity="0.498039215686" fill="#000000"/>
<circle cx="1195.5" cy="80.0" r="15.0" stroke="none" fill-opacity="0.498039215686" fill="#000000"/>
<circle cx="9" cy="20.0" r="3" stroke="#000000" stroke-width="2" fill="#FFFFFF"/>
<line x1="76.5" y1="20.0" x2="77.5" y2="20.0" stroke="#000000" stroke-width="2" />
<path d="M73.0,56.0 A15.0,15.0 0 0,1 73.0,26.0 H83.0 A15.0,15.0 0 0,1 83.0,56.0 z" stroke="#000000" stroke-width="2" fill="#B3E5FC"/>
<text class="token_font" x="78.0" y="47.5">+</text>
<circle cx="73.5" cy="77.0" r="15.0" stroke="#000000" stroke-width="2" fill="#B3E5FC"/>
<text class="token_font" x="73.5" y="83.5">-</text>
<line x1="29" y1="20.0" x2="72.5" y2="20.0" stroke="#000000" stroke-width="2" marker-end="url(#arrow)" />
<line x1="77.5" y1="20.0" x2="128.0" y2="20.0" stroke="#000000" stroke-width="2" />
<path d="M38.0,29.0 A9,9 0 0,0 29.0,20.0" stroke="#000000" stroke-width="2" fill="none"/>
<line x1="47" y1="40.0" x2="53.0" y2="40.0" stroke="#000000" stroke-width="2" marker-end="url(#arrow)" />
<line x1="99.0" y1="40.0" x2="105.0" y2="40.0" stroke="#000000" stroke-width="2" marker-end="url(#arrow)" />
<path d="M38.0,31.0 A9,9 0 0,0 47.0,40.0" stroke="#000000" stroke-width="2" fill="none"/>
<path d="M109.0,40.0 A9.0,9.0 0 0,0 118.0,31.0" stroke="#000000" stroke-width="2" fill="none"/>
<line x1="47" y1="76.0" x2="53.0" y2="76.0" stroke="#000000" stroke-width="2" marker-end="url(#arrow)" />
<line x1="90.0" y1="76.0" x2="105.0" y2="76.0" stroke="#000000" stroke-width="2" marker-end="url(#arrow)" />
<path d="M38.0,67.0 A9,9 0 0,0 47.0,76.0" stroke="#000000" stroke-width="2" fill="none"/>
<path d="M109.0,76.0 A9.0,9.0 0 0,0 118.0,67.0" stroke="#000000" stroke-width="2" fill="none"/>
<path d="M127.0,20.0 A9.0,9.0 0 0,0 118.0,29.0" stroke="#000000" stroke-width="2" fill="none"/>
<line x1="38" y1="67.0" x2="38" y2="29.0" stroke="#000000" stroke-width="2" />
<line x1="118.0" y1="67.0" x2="118.0" y2="29.0" stroke="#000000" stroke-width="2" />
<path d="M160.0,36.0 A15.0,15.0 0 0,1 160.0,6.0 H162.0 A15.0,15.0 0 0,1 162.0,36.0 z" stroke="#000000" stroke-width="2" fill="#B3E5FC"/>
<text class="token_font" x="161.0" y="27.5">[</text>
<line x1="126.0" y1="20.0" x2="140.0" y2="20.0" stroke="#000000" stroke-width="2" marker-end="url(#arrow)" />
<line x1="259.5" y1="20.0" x2="260.5" y2="20.0" stroke="#000000" stroke-width="2" />
<path d="M256.0,56.0 A15.0,15.0 0 0,1 256.0,26.0 H266.0 A15.0,15.0 0 0,1 266.0,56.0 z" stroke="#000000" stroke-width="2" fill="#B3E5FC"/>
<text class="token_font" x="261.0" y="47.5">+</text>
<circle cx="256.5" cy="77.0" r="15.0" stroke="#000000" stroke-width="2" fill="#B3E5FC"/>
<text class="token_font" x="256.5" y="83.5">-</text>
<rect x="241.0" y="98.0" width="26.0" height="28.0" stroke="#000000" stroke-width="2" fill="#90A4AE"/>
<text class="box_font" x="254.0" y="118.5">id</text>
<line x1="212.0" y1="20.0" x2="255.5" y2="20.0" stroke="#000000" stroke-width="2" marker-end="url(#arrow)" />
<line x1="260.5" y1="20.0" x2="311.0" y2="20.0" stroke="#000000" stroke-width="2" />
<path d="M221.0,29.0 A9.0,9.0 0 0,0 212.0,20.0" stroke="#000000" stroke-width="2" fill="none"/>
<line x1="230.0" y1="40.0" x2="236.0" y2="40.0" stroke="#000000" stroke-width="2" marker-end="url(#arrow)" />
<line x1="282.0" y1="40.0" x2="288.0" y2="40.0" stroke="#000000" stroke-width="2" marker-end="url(#arrow)" />
<path d="M221.0,31.0 A9.0,9.0 0 0,0 230.0,40.0" stroke="#000000" stroke-width="2" fill="none"/>
<path d="M292.0,40.0 A9.0,9.0 0 0,0 301.0,31.0" stroke="#000000" stroke-width="2" fill="none"/>
<line x1="230.0" y1="76.0" x2="236.0" y2="76.0" stroke="#000000" stroke-width="2" marker-end="url(#arrow)" />
<line x1="273.0" y1="76.0" x2="288.0" y2="76.0" stroke="#000000" stroke-width="2" marker-end="url(#arrow)" />
<path d="M221.0,67.0 A9.0,9.0 0 0,0 230.0,76.0" stroke="#000000" stroke-width="2" fill="none"/>
<path d="M292.0,76.0 A9.0,9.0 0 0,0 301.0,67.0" stroke="#000000" stroke-width="2" fill="none"/>
<line x1="230.0" y1="111.0" x2="236.0" y2="111.0" stroke="#000000" stroke-width="2" marker-end="url(#arrow)" />
<line x1="268.0" y1="111.0" x2="288.0" y2="111.0" stroke="#000000" stroke-width="2" marker-end="url(#arrow)" />
<path d="M221.0,102.0 A9.0,9.0 0 0,0 230.0,111.0" stroke="#000000" stroke-width="2" fill="none"/>
<path d="M292.0,111.0 A9.0,9.0 0 0,0 301.0,102.0" stroke="#000000" stroke-width="2" fill="none"/>
<path d="M310.0,20.0 A9.0,9.0 0 0,0 301.0,29.0" stroke="#000000" stroke-width="2" fill="none"/>
<line x1="221.0" y1="102.0" x2="221.0" y2="29.0" stroke="#000000" stroke-width="2" />
<line x1="301.0" y1="102.0" x2="301.0" y2="29.0" stroke="#000000" stroke-width="2" />
<line x1="426.0" y1="20.0" x2="427.0" y2="20.0" stroke="#000000" stroke-width="2" />
<path d="M371.0,56.0 A15.0,15.0 0 0,1 371.0,26.0 H381.0 A15.0,15.0 0 0,1 381.0,56.0 z" stroke="#000000" stroke-width="2" fill="#B3E5FC"/>
<text class="token_font" x="376.0" y="47.5">=</text>
<line x1="454.5" y1="40.0" x2="455.5" y2="40.0" stroke="#000000" stroke-width="2" />
<rect x="443.0" y="46.0" width="26.0" height="28.0" stroke="#000000" stroke-width="2" fill="#90A4AE"/>
<text class="box_font" x="456.0" y="66.5">id</text>
<line x1="414.0" y1="40.0" x2="450.5" y2="40.0" stroke="#000000" stroke-width="2" marker-end="url(#arrow)" />
<line x1="455.5" y1="40.0" x2="499.0" y2="40.0" stroke="#000000" stroke-width="2" />
<path d="M423.0,49.0 A9.0,9.0 0 0,0 414.0,40.0" stroke="#000000" stroke-width="2" fill="none"/>
<line x1="432.0" y1="59.0" x2="438.0" y2="59.0" stroke="#000000" stroke-width="2" marker-end="url(#arrow)" />
<line x1="470.0" y1="59.0" x2="476.0" y2="59.0" stroke="#000000" stroke-width="2" marker-end="url(#arrow)" />
<path d="M423.0,50.0 A9.0,9.0 0 0,0 432.0,59.0" stroke="#000000" stroke-width="2" fill="none"/>
<path d="M480.0,59.0 A9.0,9.0 0 0,0 489.0,50.0" stroke="#000000" stroke-width="2" fill="none"/>
<path d="M498.0,40.0 A9.0,9.0 0 0,0 489.0,49.0" stroke="#000000" stroke-width="2" fill="none"/>
<line x1="423.0" y1="50.0" x2="423.0" y2="49.0" stroke="#000000" stroke-width="2" />
<line x1="489.0" y1="50.0" x2="489.0" y2="49.0" stroke="#000000" stroke-width="2" />
<line x1="396.0" y1="40.0" x2="410.0" y2="40.0" stroke="#000000" stroke-width="2" marker-end="url(#arrow)" />
<line x1="327.0" y1="20.0" x2="422.0" y2="20.0" stroke="#000000" stroke-width="2" marker-end="url(#arrow)" />
<line x1="427.0" y1="20.0" x2="529.0" y2="20.0" stroke="#000000" stroke-width="2" />
<path d="M336.0,29.0 A9.0,9.0 0 0,0 327.0,20.0" stroke="#000000" stroke-width="2" fill="none"/>
<line x1="345.0" y1="40.0" x2="351.0" y2="40.0" stroke="#000000" stroke-width="2" marker-end="url(#arrow)" />
<line x1="498.0" y1="40.0" x2="506.0" y2="40.0" stroke="#000000" stroke-width="2" marker-end="url(#arrow)" />
<path d="M336.0,31.0 A9.0,9.0 0 0,0 345.0,40.0" stroke="#000000" stroke-width="2" fill="none"/>
<path d="M510.0,40.0 A9.0,9.0 0 0,0 519.0,31.0" stroke="#000000" stroke-width="2" fill="none"/>
<path d="M528.0,20.0 A9.0,9.0 0 0,0 519.0,29.0" stroke="#000000" stroke-width="2" fill="none"/>
<line x1="336.0" y1="31.0" x2="336.0" y2="29.0" stroke="#000000" stroke-width="2" />
<line x1="519.0" y1="31.0" x2="519.0" y2="29.0" stroke="#000000" stroke-width="2" />
<line x1="309.0" y1="20.0" x2="323.0" y2="20.0" stroke="#000000" stroke-width="2" marker-end="url(#arrow)" />
<circle cx="370.0" cy="152.0" r="15.0" stroke="#000000" stroke-width="2" fill="#B3E5FC"/>
<text class="token_font" x="370.0" y="158.5"> </text>
<line x1="212.0" y1="151.0" x2="354.0" y2="151.0" stroke="#000000" stroke-width="2" />
<line x1="528.0" y1="151.0" x2="390.0" y2="151.0" stroke="#000000" stroke-width="2" marker-end="url(#arrow)" />
<line x1="195.0" y1="20.0" x2="212.0" y2="20.0" stroke="#000000" stroke-width="2" />
<path d="M212.0,20.0 A9.0,9.0 0 0,0 203.0,29.0" stroke="#000000" stroke-width="2" fill="none"/>
<line x1="203.0" y1="142.0" x2="203.0" y2="89.5" stroke="#000000" stroke-width="2" marker-end="url(#arrow)" />
<line x1="203.0" y1="85.5" x2="203.0" y2="29.0" stroke="#000000" stroke-width="2" />
<path d="M203.0,142.0 A9.0,9.0 0 0,0 212.0,151.0" stroke="#000000" stroke-width="2" fill="none"/>
<path d="M537.0,29.0 A9.0,9.0 0 0,0 528.0,20.0" stroke="#000000" stroke-width="2" fill="none"/>
<line x1="537.0" y1="29.0" x2="537.0" y2="81.5" stroke="#000000" stroke-width="2" marker-end="url(#arrow)" />
<line x1="537.0" y1="85.5" x2="537.0" y2="142.0" stroke="#000000" stroke-width="2" />
<path d="M528.0,151.0 A9.0,9.0 0 0,0 537.0,142.0" stroke="#000000" stroke-width="2" fill="none"/>
<line x1="528.0" y1="20.0" x2="537.0" y2="20.0" stroke="#000000" stroke-width="2" />
<line x1="177.0" y1="20.0" x2="191.0" y2="20.0" stroke="#000000" stroke-width="2" marker-end="url(#arrow)" />
<rect x="616.5" y="7.0" width="51.0" height="28.0" stroke="#000000" stroke-width="2" fill="#90A4AE"/>
<text class="box_font" x="642.0" y="27.5">value</text>
<circle cx="587.0" cy="61.0" r="15.0" stroke="#000000" stroke-width="2" fill="#B3E5FC"/>
<text class="token_font" x="587.0" y="67.5"> </text>
<circle cx="636.0" cy="61.0" r="15.0" stroke="#000000" stroke-width="2" fill="#B3E5FC"/>
<text class="token_font" x="636.0" y="67.5">|</text>
<line x1="620.0" y1="60.0" x2="607.0" y2="60.0" stroke="#000000" stroke-width="2" marker-end="url(#arrow)" />
<path d="M683.0,74.0 A13.0,13.0 0 0,1 683.0,48.0 H699.0 A13.0,13.0 0 0,1 699.0,74.0 z" stroke="#000000" stroke-width="2" fill="#B3E5FC"/>
<text class="bubble_font" x="691.0" y="67.0">or</text>
<line x1="669.0" y1="60.0" x2="656.0" y2="60.0" stroke="#000000" stroke-width="2" marker-end="url(#arrow)" />
<line x1="571.0" y1="20.0" x2="611.5" y2="20.0" stroke="#000000" stroke-width="2" marker-end="url(#arrow)" />
<line x1="668.5" y1="20.0" x2="713.0" y2="20.0" stroke="#000000" stroke-width="2" />
<line x1="554.0" y1="20.0" x2="571.0" y2="20.0" stroke="#000000" stroke-width="2" />
<path d="M571.0,20.0 A9.0,9.0 0 0,0 562.0,29.0" stroke="#000000" stroke-width="2" fill="none"/>
<line x1="562.0" y1="51.0" x2="562.0" y2="44.0" stroke="#000000" stroke-width="2" marker-end="url(#arrow)" />
<line x1="562.0" y1="40.0" x2="562.0" y2="29.0" stroke="#000000" stroke-width="2" />
<path d="M562.0,51.0 A9.0,9.0 0 0,0 571.0,60.0" stroke="#000000" stroke-width="2" fill="none"/>
<path d="M722.0,29.0 A9.0,9.0 0 0,0 713.0,20.0" stroke="#000000" stroke-width="2" fill="none"/>
<line x1="722.0" y1="29.0" x2="722.0" y2="36.0" stroke="#000000" stroke-width="2" marker-end="url(#arrow)" />
<line x1="722.0" y1="40.0" x2="722.0" y2="51.0" stroke="#000000" stroke-width="2" />
<path d="M713.0,60.0 A9.0,9.0 0 0,0 722.0,51.0" stroke="#000000" stroke-width="2" fill="none"/>
<line x1="713.0" y1="20.0" x2="722.0" y2="20.0" stroke="#000000" stroke-width="2" />
<line x1="536.0" y1="20.0" x2="550.0" y2="20.0" stroke="#000000" stroke-width="2" marker-end="url(#arrow)" />
<line x1="854.5" y1="20.0" x2="855.5" y2="20.0" stroke="#000000" stroke-width="2" />
<line x1="824.5" y1="40.0" x2="825.5" y2="40.0" stroke="#000000" stroke-width="2" />
<rect x="813.0" y="46.0" width="26.0" height="28.0" stroke="#000000" stroke-width="2" fill="#90A4AE"/>
<text class="box_font" x="826.0" y="66.5">id</text>
<line x1="784.0" y1="40.0" x2="820.5" y2="40.0" stroke="#000000" stroke-width="2" marker-end="url(#arrow)" />
<line x1="825.5" y1="40.0" x2="869.0" y2="40.0" stroke="#000000" stroke-width="2" />
<path d="M793.0,49.0 A9.0,9.0 0 0,0 784.0,40.0" stroke="#000000" stroke-width="2" fill="none"/>
<line x1="802.0" y1="59.0" x2="808.0" y2="59.0" stroke="#000000" stroke-width="2" marker-end="url(#arrow)" />
<line x1="840.0" y1="59.0" x2="846.0" y2="59.0" stroke="#000000" stroke-width="2" marker-end="url(#arrow)" />
<path d="M793.0,50.0 A9.0,9.0 0 0,0 802.0,59.0" stroke="#000000" stroke-width="2" fill="none"/>
<path d="M850.0,59.0 A9.0,9.0 0 0,0 859.0,50.0" stroke="#000000" stroke-width="2" fill="none"/>
<path d="M868.0,40.0 A9.0,9.0 0 0,0 859.0,49.0" stroke="#000000" stroke-width="2" fill="none"/>
<line x1="793.0" y1="50.0" x2="793.0" y2="49.0" stroke="#000000" stroke-width="2" />
<line x1="859.0" y1="50.0" x2="859.0" y2="49.0" stroke="#000000" stroke-width="2" />
<path d="M901.0,56.0 A15.0,15.0 0 0,1 901.0,26.0 H911.0 A15.0,15.0 0 0,1 911.0,56.0 z" stroke="#000000" stroke-width="2" fill="#B3E5FC"/>
<text class="token_font" x="906.0" y="47.5">=</text>
<line x1="867.0" y1="40.0" x2="881.0" y2="40.0" stroke="#000000" stroke-width="2" marker-end="url(#arrow)" />
<line x1="756.0" y1="20.0" x2="850.5" y2="20.0" stroke="#000000" stroke-width="2" marker-end="url(#arrow)" />
<line x1="855.5" y1="20.0" x2="957.0" y2="20.0" stroke="#000000" stroke-width="2" />
<path d="M765.0,29.0 A9.0,9.0 0 0,0 756.0,20.0" stroke="#000000" stroke-width="2" fill="none"/>
<line x1="774.0" y1="40.0" x2="780.0" y2="40.0" stroke="#000000" stroke-width="2" marker-end="url(#arrow)" />
<line x1="927.0" y1="40.0" x2="934.0" y2="40.0" stroke="#000000" stroke-width="2" marker-end="url(#arrow)" />
<path d="M765.0,31.0 A9.0,9.0 0 0,0 774.0,40.0" stroke="#000000" stroke-width="2" fill="none"/>
<path d="M938.0,40.0 A9.0,9.0 0 0,0 947.0,31.0" stroke="#000000" stroke-width="2" fill="none"/>
<path d="M956.0,20.0 A9.0,9.0 0 0,0 947.0,29.0" stroke="#000000" stroke-width="2" fill="none"/>
<line x1="765.0" y1="31.0" x2="765.0" y2="29.0" stroke="#000000" stroke-width="2" />
<line x1="947.0" y1="31.0" x2="947.0" y2="29.0" stroke="#000000" stroke-width="2" />
<line x1="1020.5" y1="20.0" x2="1021.5" y2="20.0" stroke="#000000" stroke-width="2" />
<path d="M1017.0,56.0 A15.0,15.0 0 0,1 1017.0,26.0 H1027.0 A15.0,15.0 0 0,1 1027.0,56.0 z" stroke="#000000" stroke-width="2" fill="#B3E5FC"/>
<text class="token_font" x="1022.0" y="47.5">+</text>
<circle cx="1017.5" cy="77.0" r="15.0" stroke="#000000" stroke-width="2" fill="#B3E5FC"/>
<text class="token_font" x="1017.5" y="83.5">-</text>
<rect x="1002.0" y="98.0" width="26.0" height="28.0" stroke="#000000" stroke-width="2" fill="#90A4AE"/>
<text class="box_font" x="1015.0" y="118.5">id</text>
<line x1="973.0" y1="20.0" x2="1016.5" y2="20.0" stroke="#000000" stroke-width="2" marker-end="url(#arrow)" />
<line x1="1021.5" y1="20.0" x2="1072.0" y2="20.0" stroke="#000000" stroke-width="2" />
<path d="M982.0,29.0 A9.0,9.0 0 0,0 973.0,20.0" stroke="#000000" stroke-width="2" fill="none"/>
<line x1="991.0" y1="40.0" x2="997.0" y2="40.0" stroke="#000000" stroke-width="2" marker-end="url(#arrow)" />
<line x1="1043.0" y1="40.0" x2="1049.0" y2="40.0" stroke="#000000" stroke-width="2" marker-end="url(#arrow)" />
<path d="M982.0,31.0 A9.0,9.0 0 0,0 991.0,40.0" stroke="#000000" stroke-width="2" fill="none"/>
<path d="M1053.0,40.0 A9.0,9.0 0 0,0 1062.0,31.0" stroke="#000000" stroke-width="2" fill="none"/>
<line x1="991.0" y1="76.0" x2="997.0" y2="76.0" stroke="#000000" stroke-width="2" marker-end="url(#arrow)" />
<line x1="1034.0" y1="76.0" x2="1049.0" y2="76.0" stroke="#000000" stroke-width="2" marker-end="url(#arrow)" />
<path d="M982.0,67.0 A9.0,9.0 0 0,0 991.0,76.0" stroke="#000000" stroke-width="2" fill="none"/>
<path d="M1053.0,76.0 A9.0,9.0 0 0,0 1062.0,67.0" stroke="#000000" stroke-width="2" fill="none"/>
<line x1="991.0" y1="111.0" x2="997.0" y2="111.0" stroke="#000000" stroke-width="2" marker-end="url(#arrow)" />
<line x1="1029.0" y1="111.0" x2="1049.0" y2="111.0" stroke="#000000" stroke-width="2" marker-end="url(#arrow)" />
<path d="M982.0,102.0 A9.0,9.0 0 0,0 991.0,111.0" stroke="#000000" stroke-width="2" fill="none"/>
<path d="M1053.0,111.0 A9.0,9.0 0 0,0 1062.0,102.0" stroke="#000000" stroke-width="2" fill="none"/>
<path d="M1071.0,20.0 A9.0,9.0 0 0,0 1062.0,29.0" stroke="#000000" stroke-width="2" fill="none"/>
<line x1="982.0" y1="102.0" x2="982.0" y2="29.0" stroke="#000000" stroke-width="2" />
<line x1="1062.0" y1="102.0" x2="1062.0" y2="29.0" stroke="#000000" stroke-width="2" />
<line x1="955.0" y1="20.0" x2="969.0" y2="20.0" stroke="#000000" stroke-width="2" marker-end="url(#arrow)" />
<circle cx="913.5" cy="152.0" r="15.0" stroke="#000000" stroke-width="2" fill="#B3E5FC"/>
<text class="token_font" x="913.5" y="158.5"> </text>
<line x1="756.0" y1="151.0" x2="897.5" y2="151.0" stroke="#000000" stroke-width="2" />
<line x1="1071.0" y1="151.0" x2="933.5" y2="151.0" stroke="#000000" stroke-width="2" marker-end="url(#arrow)" />
<line x1="739.0" y1="20.0" x2="756.0" y2="20.0" stroke="#000000" stroke-width="2" />
<path d="M756.0,20.0 A9.0,9.0 0 0,0 747.0,29.0" stroke="#000000" stroke-width="2" fill="none"/>
<line x1="747.0" y1="142.0" x2="747.0" y2="89.5" stroke="#000000" stroke-width="2" marker-end="url(#arrow)" />
<line x1="747.0" y1="85.5" x2="747.0" y2="29.0" stroke="#000000" stroke-width="2" />
<path d="M747.0,142.0 A9.0,9.0 0 0,0 756.0,151.0" stroke="#000000" stroke-width="2" fill="none"/>
<path d="M1080.0,29.0 A9.0,9.0 0 0,0 1071.0,20.0" stroke="#000000" stroke-width="2" fill="none"/>
<line x1="1080.0" y1="29.0" x2="1080.0" y2="81.5" stroke="#000000" stroke-width="2" marker-end="url(#arrow)" />
<line x1="1080.0" y1="85.5" x2="1080.0" y2="142.0" stroke="#000000" stroke-width="2" />
<path d="M1071.0,151.0 A9.0,9.0 0 0,0 1080.0,142.0" stroke="#000000" stroke-width="2" fill="none"/>
<line x1="1071.0" y1="20.0" x2="1080.0" y2="20.0" stroke="#000000" stroke-width="2" />
<line x1="721.0" y1="20.0" x2="735.0" y2="20.0" stroke="#000000" stroke-width="2" marker-end="url(#arrow)" />
<path d="M1113.0,36.0 A15.0,15.0 0 0,1 1113.0,6.0 H1115.0 A15.0,15.0 0 0,1 1115.0,36.0 z" stroke="#000000" stroke-width="2" fill="#B3E5FC"/>
<text class="token_font" x="1114.0" y="27.5">]</text>
<line x1="1079.0" y1="20.0" x2="1093.0" y2="20.0" stroke="#000000" stroke-width="2" marker-end="url(#arrow)" />
<line x1="1195.5" y1="20.0" x2="1196.5" y2="20.0" stroke="#000000" stroke-width="2" />
<path d="M1192.0,56.0 A15.0,15.0 0 0,1 1192.0,26.0 H1202.0 A15.0,15.0 0 0,1 1202.0,56.0 z" stroke="#000000" stroke-width="2" fill="#B3E5FC"/>
<text class="token_font" x="1197.0" y="47.5">+</text>
<circle cx="1192.5" cy="77.0" r="15.0" stroke="#000000" stroke-width="2" fill="#B3E5FC"/>
<text class="token_font" x="1192.5" y="83.5">-</text>
<line x1="1148.0" y1="20.0" x2="1191.5" y2="20.0" stroke="#000000" stroke-width="2" marker-end="url(#arrow)" />
<line x1="1196.5" y1="20.0" x2="1247.0" y2="20.0" stroke="#000000" stroke-width="2" />
<path d="M1157.0,29.0 A9.0,9.0 0 0,0 1148.0,20.0" stroke="#000000" stroke-width="2" fill="none"/>
<line x1="1166.0" y1="40.0" x2="1172.0" y2="40.0" stroke="#000000" stroke-width="2" marker-end="url(#arrow)" />
<line x1="1218.0" y1="40.0" x2="1224.0" y2="40.0" stroke="#000000" stroke-width="2" marker-end="url(#arrow)" />
<path d="M1157.0,31.0 A9.0,9.0 0 0,0 1166.0,40.0" stroke="#000000" stroke-width="2" fill="none"/>
<path d="M1228.0,40.0 A9.0,9.0 0 0,0 1237.0,31.0" stroke="#000000" stroke-width="2" fill="none"/>
<line x1="1166.0" y1="76.0" x2="1172.0" y2="76.0" stroke="#000000" stroke-width="2" marker-end="url(#arrow)" />
<line x1="1209.0" y1="76.0" x2="1224.0" y2="76.0" stroke="#000000" stroke-width="2" marker-end="url(#arrow)" />
<path d="M1157.0,67.0 A9.0,9.0 0 0,0 1166.0,76.0" stroke="#000000" stroke-width="2" fill="none"/>
<path d="M1228.0,76.0 A9.0,9.0 0 0,0 1237.0,67.0" stroke="#000000" stroke-width="2" fill="none"/>
<path d="M1246.0,20.0 A9.0,9.0 0 0,0 1237.0,29.0" stroke="#000000" stroke-width="2" fill="none"/>
<line x1="1157.0" y1="67.0" x2="1157.0" y2="29.0" stroke="#000000" stroke-width="2" />
<line x1="1237.0" y1="67.0" x2="1237.0" y2="29.0" stroke="#000000" stroke-width="2" />
<line x1="1130.0" y1="20.0" x2="1144.0" y2="20.0" stroke="#000000" stroke-width="2" marker-end="url(#arrow)" />
<line x1="11" y1="20.0" x2="25.0" y2="20.0" stroke="#000000" stroke-width="2" marker-end="url(#arrow)" />
<circle cx="1266.0" cy="20.0" r="3.0" stroke="#000000" stroke-width="2" fill="#FFFFFF"/>
<line x1="1245.0" y1="20.0" x2="1259.0" y2="20.0" stroke="#000000" stroke-width="2" marker-end="url(#arrow)" />
</svg>