<?xml version="1.0" encoding="UTF-8" standalone="no"?>
<!-- Created by Syntax-Trax http://kevinpt.github.io/syntax-trax -->
<svg xmlns="http://www.w3.org/2000/svg"
xmlns:xlink="http://www.w3.org/1999/xlink"
xml:space="preserve"
width="404" height="215" version="1.1">
<style type="text/css">
<![CDATA[
.non-terminal_font {fill:#000000; text-anchor:middle;
    font-family:Times; font-size:14pt; font-weight:normal; font-style:italic;}
.hash_font {fill:#000000; text-anchor:middle;
    font-family:Times; font-size:14pt; font-weight:normal; font-style:italic;}
.charclass_font {fill:#000000; text-anchor:middle;
    font-family:Sans; font-size:16pt; font-weight:bold; font-style:normal;}
.definitive_font {fill:#000000; text-anchor:middle;
    font-family:Times; font-size:14pt; font-weight:normal; font-style:italic;}
.negative_font {fill:#000000; text-anchor:middle;
    font-family:Times; font-size:14pt; font-weight:normal; font-style:italic;}
.title_font {fill:#000000; text-anchor:middle;
    font-family:Sans; font-size:18pt; font-weight:normal; font-style:italic;}
.token_font {fill:#000000; text-anchor:middle;
    font-family:Sans; font-size:16pt; font-weight:bold; font-style:normal;}
.space_font {fill:#000000; text-anchor:middle;
    font-family:Sans; font-size:10pt; font-weight:normal; font-style:normal;}
.label {fill:#000;
  text-anchor:middle;
  font-size:16pt; font-weight:bold; font-family:Sans;}
.link {fill: #0D47A1;}
.link:hover {fill: #0D47A1; text-decoration:underline;}
.link:visited {fill: #4A148C;}
]]>
</style>
<defs>
  <marker id="arrow" markerWidth="5" markerHeight="4" refX="2.5" refY="2" orient="auto" markerUnits="strokeWidth">
    <path d="M0,0 L0.5,2 L0,4 L4.5,2 z" fill="#323232" />
  </marker>
</defs>
<rect width="100%" height="100%" fill="white"/><circle cx="14.0" cy="66.0" r="3.0" stroke-width="2" stroke="#323232" fill="#623C47"/>
<path d="M45.0,82.0 A15.0,15.0 0 0,1 45.0,52.0 H48.0 A15.0,15.0 0 0,1 48.0,82.0 z" stroke-width="2" stroke="#323232" fill="#DCDCDC"/>
<text class="token_font" x="46.5" y="73.5">&quot;</text>
<path d="M138.0,82.0 A15.0,15.0 0 0,1 138.0,52.0 H148.0 A15.0,15.0 0 0,1 148.0,82.0 z" stroke-width="2" stroke="#323232" fill="#DCDCDC"/>
<text class="token_font" x="143.0" y="73.5">^</text>
<rect x="177.0" y="53.0" width="26.0" height="28.0" stroke-width="2" stroke="#323232" fill="#FAFAFA"/>
<text class="non-terminal_font" x="190.0" y="73.5">id</text>
<line x1="163.0" y1="66.0" x2="172.0" y2="66.0" stroke-width="2" stroke="#323232" marker-end="url(#arrow)" />
<circle cx="232.0" cy="67.0" r="15.0" stroke-width="2" stroke="#323232" fill="#DCDCDC"/>
<text class="token_font" x="232.0" y="73.5"> </text>
<line x1="203.0" y1="66.0" x2="212.0" y2="66.0" stroke-width="2" stroke="#323232" marker-end="url(#arrow)" />
<path d="M138.0,120.0 A15.0,15.0 0 0,1 138.0,90.0 H158.0 A15.0,15.0 0 0,1 158.0,120.0 z" stroke-width="2" stroke="#323232" fill="#DCDCDC"/>
<text class="token_font" x="148.0" y="111.5">^(</text>
<rect x="187.0" y="91.0" width="51.0" height="28.0" stroke-width="2" stroke="#323232" fill="#FAFAFA"/>
<text class="non-terminal_font" x="212.5" y="111.5">value</text>
<line x1="173.0" y1="104.0" x2="182.0" y2="104.0" stroke-width="2" stroke="#323232" marker-end="url(#arrow)" />
<path d="M267.0,120.0 A15.0,15.0 0 0,1 267.0,90.0 H269.0 A15.0,15.0 0 0,1 269.0,120.0 z" stroke-width="2" stroke="#323232" fill="#DCDCDC"/>
<text class="token_font" x="268.0" y="111.5">)</text>
<line x1="238.0" y1="104.0" x2="247.0" y2="104.0" stroke-width="2" stroke="#323232" marker-end="url(#arrow)" />
<path d="M130.5,158.0 H166.5 L174.0,143.0 L166.5,128.0 H130.5 L123.0,143.0 z" stroke-width="2" stroke="#323232" fill="#FAFAB4"/>
<text class="charclass_font" x="148.5" y="149.5">^&quot;</text>
<circle cx="138.0" cy="181.0" r="15.0" stroke-width="2" stroke="#323232" fill="#DCDCDC"/>
<text class="token_font" x="138.0" y="187.5">\</text>
<path d="M174.5,196.0 H189.5 L197.0,181.0 L189.5,166.0 H174.5 L167.0,181.0 z" stroke-width="2" stroke="#323232" fill="#FAFAB4"/>
<text class="charclass_font" x="182.0" y="187.5">.</text>
<line x1="153.0" y1="180.0" x2="162.0" y2="180.0" stroke-width="2" stroke="#323232" marker-end="url(#arrow)" />
<line x1="88.0" y1="66.0" x2="118.0" y2="66.0" stroke-width="2" stroke="#323232" marker-end="url(#arrow)" />
<line x1="248.0" y1="66.0" x2="320.0" y2="66.0" stroke-width="2" stroke="#323232" />
<path d="M100.0,78.0 A12.0,12.0 0 0,0 88.0,66.0" stroke-width="2" stroke="#323232" fill="none"/>
<line x1="112.0" y1="104.0" x2="118.0" y2="104.0" stroke-width="2" stroke="#323232" marker-end="url(#arrow)" />
<line x1="285.0" y1="104.0" x2="291.0" y2="104.0" stroke-width="2" stroke="#323232" marker-end="url(#arrow)" />
<path d="M100.0,92.0 A12.0,12.0 0 0,0 112.0,104.0" stroke-width="2" stroke="#323232" fill="none"/>
<path d="M295.0,104.0 A12.0,12.0 0 0,0 307.0,92.0" stroke-width="2" stroke="#323232" fill="none"/>
<line x1="112.0" y1="142.0" x2="118.0" y2="142.0" stroke-width="2" stroke="#323232" marker-end="url(#arrow)" />
<line x1="175.0" y1="142.0" x2="291.0" y2="142.0" stroke-width="2" stroke="#323232" marker-end="url(#arrow)" />
<path d="M100.0,130.0 A12.0,12.0 0 0,0 112.0,142.0" stroke-width="2" stroke="#323232" fill="none"/>
<path d="M295.0,142.0 A12.0,12.0 0 0,0 307.0,130.0" stroke-width="2" stroke="#323232" fill="none"/>
<line x1="112.0" y1="180.0" x2="118.0" y2="180.0" stroke-width="2" stroke="#323232" marker-end="url(#arrow)" />
<line x1="198.0" y1="180.0" x2="291.0" y2="180.0" stroke-width="2" stroke="#323232" marker-end="url(#arrow)" />
<path d="M100.0,168.0 A12.0,12.0 0 0,0 112.0,180.0" stroke-width="2" stroke="#323232" fill="none"/>
<path d="M295.0,180.0 A12.0,12.0 0 0,0 307.0,168.0" stroke-width="2" stroke="#323232" fill="none"/>
<path d="M319.0,66.0 A12.0,12.0 0 0,0 307.0,78.0" stroke-width="2" stroke="#323232" fill="none"/>
<line x1="100.0" y1="168.0" x2="100.0" y2="78.0" stroke-width="2" stroke="#323232" />
<line x1="307.0" y1="168.0" x2="307.0" y2="78.0" stroke-width="2" stroke="#323232" />
<line x1="202.0" y1="204.0" x2="203.0" y2="204.0" stroke-width="2" stroke="#323232" />
<line x1="88.0" y1="204.0" x2="202.0" y2="204.0" stroke-width="2" stroke="#323232" />
<line x1="319.0" y1="204.0" x2="207.0" y2="204.0" stroke-width="2" stroke="#323232" marker-end="url(#arrow)" />
<line x1="76.0" y1="66.0" x2="88.0" y2="66.0" stroke-width="2" stroke="#323232" />
<path d="M88.0,66.0 A9.0,9.0 0 0,0 79.0,75.0" stroke-width="2" stroke="#323232" fill="none"/>
<line x1="79.0" y1="195.0" x2="79.0" y2="139.0" stroke-width="2" stroke="#323232" marker-end="url(#arrow)" />
<line x1="79.0" y1="135.0" x2="79.0" y2="75.0" stroke-width="2" stroke="#323232" />
<path d="M79.0,195.0 A9.0,9.0 0 0,0 88.0,204.0" stroke-width="2" stroke="#323232" fill="none"/>
<path d="M328.0,75.0 A9.0,9.0 0 0,0 319.0,66.0" stroke-width="2" stroke="#323232" fill="none"/>
<line x1="328.0" y1="75.0" x2="328.0" y2="131.0" stroke-width="2" stroke="#323232" marker-end="url(#arrow)" />
<line x1="328.0" y1="135.0" x2="328.0" y2="195.0" stroke-width="2" stroke="#323232" />
<path d="M319.0,204.0 A9.0,9.0 0 0,0 328.0,195.0" stroke-width="2" stroke="#323232" fill="none"/>
<line x1="319.0" y1="66.0" x2="328.0" y2="66.0" stroke-width="2" stroke="#323232" />
<line x1="63.0" y1="66.0" x2="72.0" y2="66.0" stroke-width="2" stroke="#323232" marker-end="url(#arrow)" />
<path d="M356.0,82.0 A15.0,15.0 0 0,1 356.0,52.0 H359.0 A15.0,15.0 0 0,1 359.0,82.0 z" stroke-width="2" stroke="#323232" fill="#DCDCDC"/>
<text class="token_font" x="357.5" y="73.5">&quot;</text>
<line x1="327.0" y1="66.0" x2="336.0" y2="66.0" stroke-width="2" stroke="#323232" marker-end="url(#arrow)" />
<line x1="16.0" y1="66.0" x2="25.0" y2="66.0" stroke-width="2" stroke="#323232" marker-end="url(#arrow)" />
<circle cx="390.0" cy="66.0" r="3.0" stroke-width="2" stroke="#323232" fill="#623C47"/>
<line x1="374.0" y1="66.0" x2="383.0" y2="66.0" stroke-width="2" stroke="#323232" marker-end="url(#arrow)" />
<text class="title_font" x="201.0" y="29.0">string</text>
</svg>