<?xml version="1.0" encoding="UTF-8" standalone="no"?>
<!-- Created by Syntax-Trax http://kevinpt.github.io/syntax-trax -->
<svg xmlns="http://www.w3.org/2000/svg"
xmlns:xlink="http://www.w3.org/1999/xlink"
xml:space="preserve"
width="222" height="523" version="1.1">
<style type="text/css">
<![CDATA[
.hash_font {fill:#321432; text-anchor:middle;
    font-family:Times; font-size:14pt; font-weight:normal; font-style:italic;}
.definitive_font {fill:#321432; text-anchor:middle;
    font-family:Times; font-size:14pt; font-weight:normal; font-style:italic;}
.title_font {fill:#321432; text-anchor:middle;
    font-family:Sans; font-size:18pt; font-weight:normal; font-style:italic;}
.non-terminal_font {fill:#321432; text-anchor:middle;
    font-family:Times; font-size:14pt; font-weight:normal; font-style:italic;}
.negative_font {fill:#321432; text-anchor:middle;
    font-family:Times; font-size:14pt; font-weight:normal; font-style:italic;}
.charclass_font {fill:#321432; text-anchor:middle;
    font-family:Sans; font-size:16pt; font-weight:bold; font-style:normal;}
.space_font {fill:#321432; text-anchor:middle;
    font-family:Sans; font-size:3pt; font-weight:normal; font-style:normal;}
.token_font {fill:#321432; text-anchor:middle;
    font-family:Sans; font-size:16pt; font-weight:bold; font-style:normal;}
.label {fill:#000;
  text-anchor:middle;
  font-size:16pt; font-weight:bold; font-family:Sans;}
.link {fill: #0D47A1;}
.link:hover {fill: #0D47A1; text-decoration:underline;}
.link:visited {fill: #4A148C;}
]]>
</style>
<defs>
  <marker id="arrow" markerWidth="5" markerHeight="4" refX="2.5" refY="2" orient="auto" markerUnits="strokeWidth">
    <path d="M0,0 L0.5,2 L0,4 L4.5,2 z" fill="#323232" />
  </marker>
</defs>
<rect width="100%" height="100%" fill="white"/><circle cx="14" cy="65.0" r="3" stroke="#323232" stroke-width="2" fill="#623C47"/>
<rect x="64.0" y="52.0" width="79.0" height="28.0" stroke="#323232" stroke-width="2" fill="#FAFAFA"/>
<text class="non-terminal_font" x="103.5" y="72.5">construct</text>
<rect x="64.0" y="88.0" width="48.0" height="28.0" stroke="#323232" stroke-width="2" fill="#FAFAFA"/>
<text class="non-terminal_font" x="88.0" y="108.5">visor</text>
<rect x="64.0" y="124.0" width="52.0" height="28.0" stroke="#323232" stroke-width="2" fill="#FAFAFA"/>
<text class="non-terminal_font" x="90.0" y="144.5">chain</text>
<rect x="64.0" y="160.0" width="80.0" height="28.0" stroke="#323232" stroke-width="2" fill="#FAFAFA"/>
<text class="non-terminal_font" x="104.0" y="180.5">reference</text>
<rect x="64.0" y="196.0" width="54.0" height="28.0" stroke="#323232" stroke-width="2" fill="#FAFAFA"/>
<text class="non-terminal_font" x="91.0" y="216.5">string</text>
<rect x="64.0" y="232.0" width="52.0" height="28.0" stroke="#323232" stroke-width="2" fill="#FAFAFA"/>
<text class="non-terminal_font" x="90.0" y="252.5">regex</text>
<rect x="64.0" y="268.0" width="67.0" height="28.0" stroke="#323232" stroke-width="2" fill="#FAFAFA"/>
<text class="non-terminal_font" x="97.5" y="288.5">number</text>
<rect x="64.0" y="304.0" width="74.0" height="28.0" stroke="#323232" stroke-width="2" fill="#FAFAFA"/>
<text class="non-terminal_font" x="101.0" y="324.5">template</text>
<rect x="64.0" y="340.0" width="44.0" height="28.0" stroke="#323232" stroke-width="2" fill="#FAFAFA"/>
<text class="non-terminal_font" x="86.0" y="360.5">field</text>
<rect x="64.0" y="376.0" width="56.0" height="28.0" stroke="#323232" stroke-width="2" fill="#FAFAFA"/>
<text class="non-terminal_font" x="92.0" y="396.5">portal</text>
<rect x="64.0" y="412.0" width="94.0" height="28.0" stroke="#323232" stroke-width="2" fill="#FAFAFA"/>
<text class="non-terminal_font" x="111.0" y="432.5">conditional</text>
<rect x="64.0" y="448.0" width="94.0" height="28.0" stroke="#323232" stroke-width="2" fill="#FAFAFA"/>
<text class="non-terminal_font" x="111.0" y="468.5">association</text>
<rect x="64.0" y="484.0" width="82.0" height="28.0" stroke="#323232" stroke-width="2" fill="#FAFAFA"/>
<text class="non-terminal_font" x="105.0" y="504.5">operation</text>
<line x1="29" y1="65.0" x2="59.0" y2="65.0" stroke="#323232" stroke-width="2" marker-end="url(#arrow)" />
<line x1="144.0" y1="65.0" x2="194.0" y2="65.0" stroke="#323232" stroke-width="2" />
<path d="M41.0,77.0 A12,12 0 0,0 29.0,65.0" stroke="#323232" stroke-width="2" fill="none"/>
<line x1="53" y1="101.0" x2="59.0" y2="101.0" stroke="#323232" stroke-width="2" marker-end="url(#arrow)" />
<line x1="113.0" y1="101.0" x2="165.0" y2="101.0" stroke="#323232" stroke-width="2" marker-end="url(#arrow)" />
<path d="M41.0,89.0 A12,12 0 0,0 53.0,101.0" stroke="#323232" stroke-width="2" fill="none"/>
<path d="M169.0,101.0 A12.0,12.0 0 0,0 181.0,89.0" stroke="#323232" stroke-width="2" fill="none"/>
<line x1="53" y1="137.0" x2="59.0" y2="137.0" stroke="#323232" stroke-width="2" marker-end="url(#arrow)" />
<line x1="117.0" y1="137.0" x2="165.0" y2="137.0" stroke="#323232" stroke-width="2" marker-end="url(#arrow)" />
<path d="M41.0,125.0 A12,12 0 0,0 53.0,137.0" stroke="#323232" stroke-width="2" fill="none"/>
<path d="M169.0,137.0 A12.0,12.0 0 0,0 181.0,125.0" stroke="#323232" stroke-width="2" fill="none"/>
<line x1="53" y1="173.0" x2="59.0" y2="173.0" stroke="#323232" stroke-width="2" marker-end="url(#arrow)" />
<line x1="145.0" y1="173.0" x2="165.0" y2="173.0" stroke="#323232" stroke-width="2" marker-end="url(#arrow)" />
<path d="M41.0,161.0 A12,12 0 0,0 53.0,173.0" stroke="#323232" stroke-width="2" fill="none"/>
<path d="M169.0,173.0 A12.0,12.0 0 0,0 181.0,161.0" stroke="#323232" stroke-width="2" fill="none"/>
<line x1="53" y1="209.0" x2="59.0" y2="209.0" stroke="#323232" stroke-width="2" marker-end="url(#arrow)" />
<line x1="119.0" y1="209.0" x2="165.0" y2="209.0" stroke="#323232" stroke-width="2" marker-end="url(#arrow)" />
<path d="M41.0,197.0 A12,12 0 0,0 53.0,209.0" stroke="#323232" stroke-width="2" fill="none"/>
<path d="M169.0,209.0 A12.0,12.0 0 0,0 181.0,197.0" stroke="#323232" stroke-width="2" fill="none"/>
<line x1="53" y1="245.0" x2="59.0" y2="245.0" stroke="#323232" stroke-width="2" marker-end="url(#arrow)" />
<line x1="117.0" y1="245.0" x2="165.0" y2="245.0" stroke="#323232" stroke-width="2" marker-end="url(#arrow)" />
<path d="M41.0,233.0 A12,12 0 0,0 53.0,245.0" stroke="#323232" stroke-width="2" fill="none"/>
<path d="M169.0,245.0 A12.0,12.0 0 0,0 181.0,233.0" stroke="#323232" stroke-width="2" fill="none"/>
<line x1="53" y1="281.0" x2="59.0" y2="281.0" stroke="#323232" stroke-width="2" marker-end="url(#arrow)" />
<line x1="132.0" y1="281.0" x2="165.0" y2="281.0" stroke="#323232" stroke-width="2" marker-end="url(#arrow)" />
<path d="M41.0,269.0 A12,12 0 0,0 53.0,281.0" stroke="#323232" stroke-width="2" fill="none"/>
<path d="M169.0,281.0 A12.0,12.0 0 0,0 181.0,269.0" stroke="#323232" stroke-width="2" fill="none"/>
<line x1="53" y1="317.0" x2="59.0" y2="317.0" stroke="#323232" stroke-width="2" marker-end="url(#arrow)" />
<line x1="139.0" y1="317.0" x2="165.0" y2="317.0" stroke="#323232" stroke-width="2" marker-end="url(#arrow)" />
<path d="M41.0,305.0 A12,12 0 0,0 53.0,317.0" stroke="#323232" stroke-width="2" fill="none"/>
<path d="M169.0,317.0 A12.0,12.0 0 0,0 181.0,305.0" stroke="#323232" stroke-width="2" fill="none"/>
<line x1="53" y1="353.0" x2="59.0" y2="353.0" stroke="#323232" stroke-width="2" marker-end="url(#arrow)" />
<line x1="109.0" y1="353.0" x2="165.0" y2="353.0" stroke="#323232" stroke-width="2" marker-end="url(#arrow)" />
<path d="M41.0,341.0 A12,12 0 0,0 53.0,353.0" stroke="#323232" stroke-width="2" fill="none"/>
<path d="M169.0,353.0 A12.0,12.0 0 0,0 181.0,341.0" stroke="#323232" stroke-width="2" fill="none"/>
<line x1="53" y1="389.0" x2="59.0" y2="389.0" stroke="#323232" stroke-width="2" marker-end="url(#arrow)" />
<line x1="121.0" y1="389.0" x2="165.0" y2="389.0" stroke="#323232" stroke-width="2" marker-end="url(#arrow)" />
<path d="M41.0,377.0 A12,12 0 0,0 53.0,389.0" stroke="#323232" stroke-width="2" fill="none"/>
<path d="M169.0,389.0 A12.0,12.0 0 0,0 181.0,377.0" stroke="#323232" stroke-width="2" fill="none"/>
<line x1="53" y1="425.0" x2="59.0" y2="425.0" stroke="#323232" stroke-width="2" marker-end="url(#arrow)" />
<line x1="159.0" y1="425.0" x2="165.0" y2="425.0" stroke="#323232" stroke-width="2" marker-end="url(#arrow)" />
<path d="M41.0,413.0 A12,12 0 0,0 53.0,425.0" stroke="#323232" stroke-width="2" fill="none"/>
<path d="M169.0,425.0 A12.0,12.0 0 0,0 181.0,413.0" stroke="#323232" stroke-width="2" fill="none"/>
<line x1="53" y1="461.0" x2="59.0" y2="461.0" stroke="#323232" stroke-width="2" marker-end="url(#arrow)" />
<line x1="159.0" y1="461.0" x2="165.0" y2="461.0" stroke="#323232" stroke-width="2" marker-end="url(#arrow)" />
<path d="M41.0,449.0 A12,12 0 0,0 53.0,461.0" stroke="#323232" stroke-width="2" fill="none"/>
<path d="M169.0,461.0 A12.0,12.0 0 0,0 181.0,449.0" stroke="#323232" stroke-width="2" fill="none"/>
<line x1="53" y1="497.0" x2="59.0" y2="497.0" stroke="#323232" stroke-width="2" marker-end="url(#arrow)" />
<line x1="147.0" y1="497.0" x2="165.0" y2="497.0" stroke="#323232" stroke-width="2" marker-end="url(#arrow)" />
<path d="M41.0,485.0 A12,12 0 0,0 53.0,497.0" stroke="#323232" stroke-width="2" fill="none"/>
<path d="M169.0,497.0 A12.0,12.0 0 0,0 181.0,485.0" stroke="#323232" stroke-width="2" fill="none"/>
<path d="M193.0,65.0 A12.0,12.0 0 0,0 181.0,77.0" stroke="#323232" stroke-width="2" fill="none"/>
<line x1="41" y1="485.0" x2="41" y2="77.0" stroke="#323232" stroke-width="2" />
<line x1="181.0" y1="485.0" x2="181.0" y2="77.0" stroke="#323232" stroke-width="2" />
<line x1="16" y1="65.0" x2="25.0" y2="65.0" stroke="#323232" stroke-width="2" marker-end="url(#arrow)" />
<circle cx="208.0" cy="65.0" r="3.0" stroke="#323232" stroke-width="2" fill="#623C47"/>
<line x1="192.0" y1="65.0" x2="201.0" y2="65.0" stroke="#323232" stroke-width="2" marker-end="url(#arrow)" />
<text class="title_font" x="110.0" y="29.0">value</text>
</svg>