<?xml version="1.0" encoding="UTF-8" standalone="no"?>
<!-- Created by Syntax-Trax http://kevinpt.github.io/syntax-trax -->
<svg xmlns="http://www.w3.org/2000/svg"
xmlns:xlink="http://www.w3.org/1999/xlink"
xml:space="preserve"
width="210" height="490" version="1.1">
<style type="text/css">
<![CDATA[
.token_font {fill:#000000; text-anchor:middle;
    font-family:Sans; font-size:16pt; font-weight:bold; font-style:normal;}
.title_font {fill:#000000; text-anchor:middle;
    font-family:Sans; font-size:18pt; font-weight:normal; font-style:italic;}
.box_font {fill:#000000; text-anchor:middle;
    font-family:Times; font-size:14pt; font-weight:normal; font-style:italic;}
.bubble_font {fill:#000000; text-anchor:middle;
    font-family:Sans; font-size:14pt; font-weight:bold; font-style:normal;}
.charclass_font {fill:#000000; text-anchor:middle;
    font-family:Sans; font-size:16pt; font-weight:bold; font-style:normal;}
.label {fill:#000;
  text-anchor:middle;
  font-size:16pt; font-weight:bold; font-family:Sans;}
.link {fill: #0D47A1;}
.link:hover {fill: #0D47A1; text-decoration:underline;}
.link:visited {fill: #4A148C;}
]]>
</style>
<defs>
  <marker id="arrow" markerWidth="5" markerHeight="4" refX="2.5" refY="2" orient="auto" markerUnits="strokeWidth">
    <path d="M0,0 L0.5,2 L0,4 L4.5,2 z" fill="#000000" />
  </marker>
</defs>
<rect width="100%" height="100%" fill="white"/><rect x="61.0" y="45.0" width="79.0" height="28.0" fill="#000000" stroke="none" fill-opacity="0.4980392156862745"/>
<rect x="61.0" y="79.5" width="48.0" height="28.0" fill="#000000" stroke="none" fill-opacity="0.4980392156862745"/>
<rect x="61.0" y="114.0" width="52.0" height="28.0" fill="#000000" stroke="none" fill-opacity="0.4980392156862745"/>
<rect x="61.0" y="148.5" width="80.0" height="28.0" fill="#000000" stroke="none" fill-opacity="0.4980392156862745"/>
<rect x="61.0" y="183.0" width="54.0" height="28.0" fill="#000000" stroke="none" fill-opacity="0.4980392156862745"/>
<rect x="61.0" y="217.5" width="52.0" height="28.0" fill="#000000" stroke="none" fill-opacity="0.4980392156862745"/>
<rect x="61.0" y="252.0" width="67.0" height="28.0" fill="#000000" stroke="none" fill-opacity="0.4980392156862745"/>
<rect x="61.0" y="286.5" width="74.0" height="28.0" fill="#000000" stroke="none" fill-opacity="0.4980392156862745"/>
<rect x="61.0" y="321.0" width="44.0" height="28.0" fill="#000000" stroke="none" fill-opacity="0.4980392156862745"/>
<rect x="61.0" y="355.5" width="56.0" height="28.0" fill="#000000" stroke="none" fill-opacity="0.4980392156862745"/>
<rect x="61.0" y="390.0" width="94.0" height="28.0" fill="#000000" stroke="none" fill-opacity="0.4980392156862745"/>
<rect x="61.0" y="424.5" width="94.0" height="28.0" fill="#000000" stroke="none" fill-opacity="0.4980392156862745"/>
<rect x="61.0" y="459.0" width="82.0" height="28.0" fill="#000000" stroke="none" fill-opacity="0.4980392156862745"/>
<circle cx="9.0" cy="55.0" r="3.0" fill="#FFFFFF" stroke="#000000" stroke-width="2"/>
<rect x="58.0" y="42.0" width="79.0" height="28.0" fill="#90A4AE" stroke="#000000" stroke-width="2"/>
<text class="box_font" x="97.5" y="62.5">construct</text>
<rect x="58.0" y="76.5" width="48.0" height="28.0" fill="#90A4AE" stroke="#000000" stroke-width="2"/>
<text class="box_font" x="82.0" y="97.0">visor</text>
<rect x="58.0" y="111.0" width="52.0" height="28.0" fill="#90A4AE" stroke="#000000" stroke-width="2"/>
<text class="box_font" x="84.0" y="131.5">chain</text>
<rect x="58.0" y="145.5" width="80.0" height="28.0" fill="#90A4AE" stroke="#000000" stroke-width="2"/>
<text class="box_font" x="98.0" y="166.0">reference</text>
<rect x="58.0" y="180.0" width="54.0" height="28.0" fill="#90A4AE" stroke="#000000" stroke-width="2"/>
<text class="box_font" x="85.0" y="200.5">string</text>
<rect x="58.0" y="214.5" width="52.0" height="28.0" fill="#90A4AE" stroke="#000000" stroke-width="2"/>
<text class="box_font" x="84.0" y="235.0">regex</text>
<rect x="58.0" y="249.0" width="67.0" height="28.0" fill="#90A4AE" stroke="#000000" stroke-width="2"/>
<text class="box_font" x="91.5" y="269.5">number</text>
<rect x="58.0" y="283.5" width="74.0" height="28.0" fill="#90A4AE" stroke="#000000" stroke-width="2"/>
<text class="box_font" x="95.0" y="304.0">template</text>
<rect x="58.0" y="318.0" width="44.0" height="28.0" fill="#90A4AE" stroke="#000000" stroke-width="2"/>
<text class="box_font" x="80.0" y="338.5">field</text>
<rect x="58.0" y="352.5" width="56.0" height="28.0" fill="#90A4AE" stroke="#000000" stroke-width="2"/>
<text class="box_font" x="86.0" y="373.0">portal</text>
<rect x="58.0" y="387.0" width="94.0" height="28.0" fill="#90A4AE" stroke="#000000" stroke-width="2"/>
<text class="box_font" x="105.0" y="407.5">conditional</text>
<rect x="58.0" y="421.5" width="94.0" height="28.0" fill="#90A4AE" stroke="#000000" stroke-width="2"/>
<text class="box_font" x="105.0" y="442.0">association</text>
<rect x="58.0" y="456.0" width="82.0" height="28.0" fill="#90A4AE" stroke="#000000" stroke-width="2"/>
<text class="box_font" x="99.0" y="476.5">operation</text>
<line x1="29.0" y1="55.0" x2="53.0" y2="55.0" stroke="#000000" stroke-width="2" marker-end="url(#arrow)" />
<line x1="138.0" y1="55.0" x2="182.0" y2="55.0" stroke="#000000" stroke-width="2" />
<path d="M38.0,64.0 A9.0,9.0 0 0,0 29.0,55.0" fill="none" stroke="#000000" stroke-width="2"/>
<line x1="47.0" y1="89.5" x2="53.0" y2="89.5" stroke="#000000" stroke-width="2" marker-end="url(#arrow)" />
<line x1="107.0" y1="89.5" x2="159.0" y2="89.5" stroke="#000000" stroke-width="2" marker-end="url(#arrow)" />
<path d="M38.0,80.5 A9.0,9.0 0 0,0 47.0,89.5" fill="none" stroke="#000000" stroke-width="2"/>
<path d="M163.0,89.5 A9.0,9.0 0 0,0 172.0,80.5" fill="none" stroke="#000000" stroke-width="2"/>
<line x1="47.0" y1="124.0" x2="53.0" y2="124.0" stroke="#000000" stroke-width="2" marker-end="url(#arrow)" />
<line x1="111.0" y1="124.0" x2="159.0" y2="124.0" stroke="#000000" stroke-width="2" marker-end="url(#arrow)" />
<path d="M38.0,115.0 A9.0,9.0 0 0,0 47.0,124.0" fill="none" stroke="#000000" stroke-width="2"/>
<path d="M163.0,124.0 A9.0,9.0 0 0,0 172.0,115.0" fill="none" stroke="#000000" stroke-width="2"/>
<line x1="47.0" y1="158.5" x2="53.0" y2="158.5" stroke="#000000" stroke-width="2" marker-end="url(#arrow)" />
<line x1="139.0" y1="158.5" x2="159.0" y2="158.5" stroke="#000000" stroke-width="2" marker-end="url(#arrow)" />
<path d="M38.0,149.5 A9.0,9.0 0 0,0 47.0,158.5" fill="none" stroke="#000000" stroke-width="2"/>
<path d="M163.0,158.5 A9.0,9.0 0 0,0 172.0,149.5" fill="none" stroke="#000000" stroke-width="2"/>
<line x1="47.0" y1="193.0" x2="53.0" y2="193.0" stroke="#000000" stroke-width="2" marker-end="url(#arrow)" />
<line x1="113.0" y1="193.0" x2="159.0" y2="193.0" stroke="#000000" stroke-width="2" marker-end="url(#arrow)" />
<path d="M38.0,184.0 A9.0,9.0 0 0,0 47.0,193.0" fill="none" stroke="#000000" stroke-width="2"/>
<path d="M163.0,193.0 A9.0,9.0 0 0,0 172.0,184.0" fill="none" stroke="#000000" stroke-width="2"/>
<line x1="47.0" y1="227.5" x2="53.0" y2="227.5" stroke="#000000" stroke-width="2" marker-end="url(#arrow)" />
<line x1="111.0" y1="227.5" x2="159.0" y2="227.5" stroke="#000000" stroke-width="2" marker-end="url(#arrow)" />
<path d="M38.0,218.5 A9.0,9.0 0 0,0 47.0,227.5" fill="none" stroke="#000000" stroke-width="2"/>
<path d="M163.0,227.5 A9.0,9.0 0 0,0 172.0,218.5" fill="none" stroke="#000000" stroke-width="2"/>
<line x1="47.0" y1="262.0" x2="53.0" y2="262.0" stroke="#000000" stroke-width="2" marker-end="url(#arrow)" />
<line x1="126.0" y1="262.0" x2="159.0" y2="262.0" stroke="#000000" stroke-width="2" marker-end="url(#arrow)" />
<path d="M38.0,253.0 A9.0,9.0 0 0,0 47.0,262.0" fill="none" stroke="#000000" stroke-width="2"/>
<path d="M163.0,262.0 A9.0,9.0 0 0,0 172.0,253.0" fill="none" stroke="#000000" stroke-width="2"/>
<line x1="47.0" y1="296.5" x2="53.0" y2="296.5" stroke="#000000" stroke-width="2" marker-end="url(#arrow)" />
<line x1="133.0" y1="296.5" x2="159.0" y2="296.5" stroke="#000000" stroke-width="2" marker-end="url(#arrow)" />
<path d="M38.0,287.5 A9.0,9.0 0 0,0 47.0,296.5" fill="none" stroke="#000000" stroke-width="2"/>
<path d="M163.0,296.5 A9.0,9.0 0 0,0 172.0,287.5" fill="none" stroke="#000000" stroke-width="2"/>
<line x1="47.0" y1="331.0" x2="53.0" y2="331.0" stroke="#000000" stroke-width="2" marker-end="url(#arrow)" />
<line x1="103.0" y1="331.0" x2="159.0" y2="331.0" stroke="#000000" stroke-width="2" marker-end="url(#arrow)" />
<path d="M38.0,322.0 A9.0,9.0 0 0,0 47.0,331.0" fill="none" stroke="#000000" stroke-width="2"/>
<path d="M163.0,331.0 A9.0,9.0 0 0,0 172.0,322.0" fill="none" stroke="#000000" stroke-width="2"/>
<line x1="47.0" y1="365.5" x2="53.0" y2="365.5" stroke="#000000" stroke-width="2" marker-end="url(#arrow)" />
<line x1="115.0" y1="365.5" x2="159.0" y2="365.5" stroke="#000000" stroke-width="2" marker-end="url(#arrow)" />
<path d="M38.0,356.5 A9.0,9.0 0 0,0 47.0,365.5" fill="none" stroke="#000000" stroke-width="2"/>
<path d="M163.0,365.5 A9.0,9.0 0 0,0 172.0,356.5" fill="none" stroke="#000000" stroke-width="2"/>
<line x1="47.0" y1="400.0" x2="53.0" y2="400.0" stroke="#000000" stroke-width="2" marker-end="url(#arrow)" />
<line x1="153.0" y1="400.0" x2="159.0" y2="400.0" stroke="#000000" stroke-width="2" marker-end="url(#arrow)" />
<path d="M38.0,391.0 A9.0,9.0 0 0,0 47.0,400.0" fill="none" stroke="#000000" stroke-width="2"/>
<path d="M163.0,400.0 A9.0,9.0 0 0,0 172.0,391.0" fill="none" stroke="#000000" stroke-width="2"/>
<line x1="47.0" y1="434.5" x2="53.0" y2="434.5" stroke="#000000" stroke-width="2" marker-end="url(#arrow)" />
<line x1="153.0" y1="434.5" x2="159.0" y2="434.5" stroke="#000000" stroke-width="2" marker-end="url(#arrow)" />
<path d="M38.0,425.5 A9.0,9.0 0 0,0 47.0,434.5" fill="none" stroke="#000000" stroke-width="2"/>
<path d="M163.0,434.5 A9.0,9.0 0 0,0 172.0,425.5" fill="none" stroke="#000000" stroke-width="2"/>
<line x1="47.0" y1="469.0" x2="53.0" y2="469.0" stroke="#000000" stroke-width="2" marker-end="url(#arrow)" />
<line x1="141.0" y1="469.0" x2="159.0" y2="469.0" stroke="#000000" stroke-width="2" marker-end="url(#arrow)" />
<path d="M38.0,460.0 A9.0,9.0 0 0,0 47.0,469.0" fill="none" stroke="#000000" stroke-width="2"/>
<path d="M163.0,469.0 A9.0,9.0 0 0,0 172.0,460.0" fill="none" stroke="#000000" stroke-width="2"/>
<path d="M181.0,55.0 A9.0,9.0 0 0,0 172.0,64.0" fill="none" stroke="#000000" stroke-width="2"/>
<line x1="38.0" y1="460.0" x2="38.0" y2="64.0" stroke="#000000" stroke-width="2" />
<line x1="172.0" y1="460.0" x2="172.0" y2="64.0" stroke="#000000" stroke-width="2" />
<line x1="11.0" y1="55.0" x2="25.0" y2="55.0" stroke="#000000" stroke-width="2" marker-end="url(#arrow)" />
<circle cx="201.0" cy="55.0" r="3.0" fill="#FFFFFF" stroke="#000000" stroke-width="2"/>
<line x1="180.0" y1="55.0" x2="194.0" y2="55.0" stroke="#000000" stroke-width="2" marker-end="url(#arrow)" />
<text class="title_font" x="104.0" y="24.0">value</text>
</svg>