<?xml version="1.0" encoding="UTF-8" standalone="no"?>
<!-- Created by Syntax-Trax http://kevinpt.github.io/syntax-trax -->
<svg xmlns="http://www.w3.org/2000/svg"
xmlns:xlink="http://www.w3.org/1999/xlink"
xml:space="preserve"
width="332" height="281" version="1.1">
<style type="text/css">
<![CDATA[
.bubble_font {fill:#000000; text-anchor:middle;
    font-family:Sans; font-size:14pt; font-weight:bold; font-style:normal;}
.token_font {fill:#000000; text-anchor:middle;
    font-family:Sans; font-size:16pt; font-weight:bold; font-style:normal;}
.box_font {fill:#000000; text-anchor:middle;
    font-family:Times; font-size:14pt; font-weight:normal; font-style:italic;}
.title_font {fill:#000000; text-anchor:middle;
    font-family:Sans; font-size:22pt; font-weight:bold; font-style:normal;}
.label {fill:#000;
  text-anchor:middle;
  font-size:16pt; font-weight:bold; font-family:Sans;}
.link {fill: #0D47A1;}
.link:hover {fill: #0D47A1; text-decoration:underline;}
.link:visited {fill: #4A148C;}
]]>
</style>
<defs>
  <marker id="arrow" markerWidth="5" markerHeight="4" refX="2.5" refY="2" orient="auto" markerUnits="strokeWidth">
    <path d="M0,0 L0.5,2 L0,4 L4.5,2 z" fill="#000000" />
  </marker>
</defs>
<rect width="100%" height="100%" fill="white"/><path d="M94.0,58.5 A15.0,15.0 0 0,1 94.0,28.5 H97.0 A15.0,15.0 0 0,1 97.0,58.5 z" fill-opacity="0.4980392156862745" fill="#000000" stroke="none"/>
<rect x="182.0" y="9.0" width="79.0" height="28.0" fill-opacity="0.4980392156862745" fill="#000000" stroke="none"/>
<rect x="187.0" y="43.5" width="69.0" height="28.0" fill-opacity="0.4980392156862745" fill="#000000" stroke="none"/>
<rect x="187.0" y="78.0" width="54.0" height="28.0" fill-opacity="0.4980392156862745" fill="#000000" stroke="none"/>
<rect x="61.0" y="112.5" width="54.0" height="28.0" fill-opacity="0.4980392156862745" fill="#000000" stroke="none"/>
<rect x="61.0" y="147.0" width="52.0" height="28.0" fill-opacity="0.4980392156862745" fill="#000000" stroke="none"/>
<rect x="61.0" y="181.5" width="71.0" height="28.0" fill-opacity="0.4980392156862745" fill="#000000" stroke="none"/>
<rect x="61.0" y="216.0" width="74.0" height="28.0" fill-opacity="0.4980392156862745" fill="#000000" stroke="none"/>
<rect x="61.0" y="250.5" width="56.0" height="28.0" fill-opacity="0.4980392156862745" fill="#000000" stroke="none"/>
<circle cx="9.0" cy="19.0" r="3.0" fill="#FFFFFF" stroke="#000000" stroke-width="2"/>
<line x1="91.0" y1="19.0" x2="92.0" y2="19.0" stroke="#000000" stroke-width="2" />
<path d="M91.0,55.5 A15.0,15.0 0 0,1 91.0,25.5 H94.0 A15.0,15.0 0 0,1 94.0,55.5 z" fill="#B3E5FC" stroke="#000000" stroke-width="2"/>
<text class="token_font" x="92.5" y="47.0">`</text>
<line x1="47.0" y1="19.0" x2="87.0" y2="19.0" stroke="#000000" stroke-width="2" marker-end="url(#arrow)" />
<line x1="92.0" y1="19.0" x2="139.0" y2="19.0" stroke="#000000" stroke-width="2" />
<path d="M56.0,28.0 A9.0,9.0 0 0,0 47.0,19.0" fill="none" stroke="#000000" stroke-width="2"/>
<line x1="65.0" y1="39.5" x2="71.0" y2="39.5" stroke="#000000" stroke-width="2" marker-end="url(#arrow)" />
<line x1="110.0" y1="39.5" x2="116.0" y2="39.5" stroke="#000000" stroke-width="2" marker-end="url(#arrow)" />
<path d="M56.0,30.5 A9.0,9.0 0 0,0 65.0,39.5" fill="none" stroke="#000000" stroke-width="2"/>
<path d="M120.0,39.5 A9.0,9.0 0 0,0 129.0,30.5" fill="none" stroke="#000000" stroke-width="2"/>
<path d="M138.0,19.0 A9.0,9.0 0 0,0 129.0,28.0" fill="none" stroke="#000000" stroke-width="2"/>
<line x1="56.0" y1="30.5" x2="56.0" y2="28.0" stroke="#000000" stroke-width="2" />
<line x1="129.0" y1="30.5" x2="129.0" y2="28.0" stroke="#000000" stroke-width="2" />
<rect x="179.0" y="6.0" width="79.0" height="28.0" fill="#90A4AE" stroke="#000000" stroke-width="2"/>
<text class="box_font" x="218.5" y="26.5">construct</text>
<rect x="184.0" y="40.5" width="69.0" height="28.0" fill="#90A4AE" stroke="#000000" stroke-width="2"/>
<text class="box_font" x="218.5" y="61.0">scanner</text>
<rect x="184.0" y="75.0" width="54.0" height="28.0" fill="#90A4AE" stroke="#000000" stroke-width="2"/>
<text class="box_font" x="211.0" y="95.5">series</text>
<line x1="155.0" y1="19.0" x2="174.0" y2="19.0" stroke="#000000" stroke-width="2" marker-end="url(#arrow)" />
<line x1="259.0" y1="19.0" x2="283.0" y2="19.0" stroke="#000000" stroke-width="2" />
<path d="M164.0,28.0 A9.0,9.0 0 0,0 155.0,19.0" fill="none" stroke="#000000" stroke-width="2"/>
<line x1="173.0" y1="53.5" x2="179.0" y2="53.5" stroke="#000000" stroke-width="2" marker-end="url(#arrow)" />
<line x1="254.0" y1="53.5" x2="260.0" y2="53.5" stroke="#000000" stroke-width="2" marker-end="url(#arrow)" />
<path d="M164.0,44.5 A9.0,9.0 0 0,0 173.0,53.5" fill="none" stroke="#000000" stroke-width="2"/>
<path d="M264.0,53.5 A9.0,9.0 0 0,0 273.0,44.5" fill="none" stroke="#000000" stroke-width="2"/>
<line x1="173.0" y1="88.0" x2="179.0" y2="88.0" stroke="#000000" stroke-width="2" marker-end="url(#arrow)" />
<line x1="239.0" y1="88.0" x2="260.0" y2="88.0" stroke="#000000" stroke-width="2" marker-end="url(#arrow)" />
<path d="M164.0,79.0 A9.0,9.0 0 0,0 173.0,88.0" fill="none" stroke="#000000" stroke-width="2"/>
<path d="M264.0,88.0 A9.0,9.0 0 0,0 273.0,79.0" fill="none" stroke="#000000" stroke-width="2"/>
<path d="M282.0,19.0 A9.0,9.0 0 0,0 273.0,28.0" fill="none" stroke="#000000" stroke-width="2"/>
<line x1="164.0" y1="79.0" x2="164.0" y2="28.0" stroke="#000000" stroke-width="2" />
<line x1="273.0" y1="79.0" x2="273.0" y2="28.0" stroke="#000000" stroke-width="2" />
<line x1="137.0" y1="19.0" x2="151.0" y2="19.0" stroke="#000000" stroke-width="2" marker-end="url(#arrow)" />
<rect x="58.0" y="109.5" width="54.0" height="28.0" fill="#90A4AE" stroke="#000000" stroke-width="2"/>
<text class="box_font" x="85.0" y="130.0">string</text>
<rect x="58.0" y="144.0" width="52.0" height="28.0" fill="#90A4AE" stroke="#000000" stroke-width="2"/>
<text class="box_font" x="84.0" y="164.5">regex</text>
<rect x="58.0" y="178.5" width="71.0" height="28.0" fill="#90A4AE" stroke="#000000" stroke-width="2"/>
<text class="box_font" x="93.5" y="199.0">numeric</text>
<rect x="58.0" y="213.0" width="74.0" height="28.0" fill="#90A4AE" stroke="#000000" stroke-width="2"/>
<text class="box_font" x="95.0" y="233.5">template</text>
<rect x="58.0" y="247.5" width="56.0" height="28.0" fill="#90A4AE" stroke="#000000" stroke-width="2"/>
<text class="box_font" x="86.0" y="268.0">portal</text>
<line x1="29.0" y1="19.0" x2="43.0" y2="19.0" stroke="#000000" stroke-width="2" marker-end="url(#arrow)" />
<line x1="282.0" y1="19.0" x2="304.0" y2="19.0" stroke="#000000" stroke-width="2" />
<path d="M38.0,28.0 A9.0,9.0 0 0,0 29.0,19.0" fill="none" stroke="#000000" stroke-width="2"/>
<line x1="47.0" y1="122.5" x2="53.0" y2="122.5" stroke="#000000" stroke-width="2" marker-end="url(#arrow)" />
<line x1="113.0" y1="122.5" x2="281.0" y2="122.5" stroke="#000000" stroke-width="2" marker-end="url(#arrow)" />
<path d="M38.0,113.5 A9.0,9.0 0 0,0 47.0,122.5" fill="none" stroke="#000000" stroke-width="2"/>
<path d="M285.0,122.5 A9.0,9.0 0 0,0 294.0,113.5" fill="none" stroke="#000000" stroke-width="2"/>
<line x1="47.0" y1="157.0" x2="53.0" y2="157.0" stroke="#000000" stroke-width="2" marker-end="url(#arrow)" />
<line x1="111.0" y1="157.0" x2="281.0" y2="157.0" stroke="#000000" stroke-width="2" marker-end="url(#arrow)" />
<path d="M38.0,148.0 A9.0,9.0 0 0,0 47.0,157.0" fill="none" stroke="#000000" stroke-width="2"/>
<path d="M285.0,157.0 A9.0,9.0 0 0,0 294.0,148.0" fill="none" stroke="#000000" stroke-width="2"/>
<line x1="47.0" y1="191.5" x2="53.0" y2="191.5" stroke="#000000" stroke-width="2" marker-end="url(#arrow)" />
<line x1="130.0" y1="191.5" x2="281.0" y2="191.5" stroke="#000000" stroke-width="2" marker-end="url(#arrow)" />
<path d="M38.0,182.5 A9.0,9.0 0 0,0 47.0,191.5" fill="none" stroke="#000000" stroke-width="2"/>
<path d="M285.0,191.5 A9.0,9.0 0 0,0 294.0,182.5" fill="none" stroke="#000000" stroke-width="2"/>
<line x1="47.0" y1="226.0" x2="53.0" y2="226.0" stroke="#000000" stroke-width="2" marker-end="url(#arrow)" />
<line x1="133.0" y1="226.0" x2="281.0" y2="226.0" stroke="#000000" stroke-width="2" marker-end="url(#arrow)" />
<path d="M38.0,217.0 A9.0,9.0 0 0,0 47.0,226.0" fill="none" stroke="#000000" stroke-width="2"/>
<path d="M285.0,226.0 A9.0,9.0 0 0,0 294.0,217.0" fill="none" stroke="#000000" stroke-width="2"/>
<line x1="47.0" y1="260.5" x2="53.0" y2="260.5" stroke="#000000" stroke-width="2" marker-end="url(#arrow)" />
<line x1="115.0" y1="260.5" x2="281.0" y2="260.5" stroke="#000000" stroke-width="2" marker-end="url(#arrow)" />
<path d="M38.0,251.5 A9.0,9.0 0 0,0 47.0,260.5" fill="none" stroke="#000000" stroke-width="2"/>
<path d="M285.0,260.5 A9.0,9.0 0 0,0 294.0,251.5" fill="none" stroke="#000000" stroke-width="2"/>
<path d="M303.0,19.0 A9.0,9.0 0 0,0 294.0,28.0" fill="none" stroke="#000000" stroke-width="2"/>
<line x1="38.0" y1="251.5" x2="38.0" y2="28.0" stroke="#000000" stroke-width="2" />
<line x1="294.0" y1="251.5" x2="294.0" y2="28.0" stroke="#000000" stroke-width="2" />
<line x1="11.0" y1="19.0" x2="25.0" y2="19.0" stroke="#000000" stroke-width="2" marker-end="url(#arrow)" />
<circle cx="323.0" cy="19.0" r="3.0" fill="#FFFFFF" stroke="#000000" stroke-width="2"/>
<line x1="302.0" y1="19.0" x2="316.0" y2="19.0" stroke="#000000" stroke-width="2" marker-end="url(#arrow)" />
</svg>