<?xml version="1.0" encoding="UTF-8" standalone="no"?>
<!-- Created by Syntax-Trax http://kevinpt.github.io/syntax-trax -->
<svg xmlns="http://www.w3.org/2000/svg"
xmlns:xlink="http://www.w3.org/1999/xlink"
xml:space="preserve"
width="332" height="278" version="1.1">
<style type="text/css">
<![CDATA[
.box_font {fill:#000000; text-anchor:middle;
    font-family:Times; font-size:14pt; font-weight:normal; font-style:italic;}
.title_font {fill:#000000; text-anchor:middle;
    font-family:Sans; font-size:22pt; font-weight:bold; font-style:normal;}
.bubble_font {fill:#000000; text-anchor:middle;
    font-family:Sans; font-size:14pt; font-weight:bold; font-style:normal;}
.token_font {fill:#000000; text-anchor:middle;
    font-family:Sans; font-size:16pt; font-weight:bold; font-style:normal;}
.label {fill:#000;
  text-anchor:middle;
  font-size:16pt; font-weight:bold; font-family:Sans;}
.link {fill: #0D47A1;}
.link:hover {fill: #0D47A1; text-decoration:underline;}
.link:visited {fill: #4A148C;}
]]>
</style>
<defs>
  <marker id="arrow" markerWidth="5" markerHeight="4" refX="2.5" refY="2" orient="auto" markerUnits="strokeWidth">
    <path d="M0,0 L0.5,2 L0,4 L4.5,2 z" fill="#000000" />
  </marker>
</defs>
<rect width="100%" height="100%" fill="white"/><path d="M94.0,58.0 A15.0,15.0 0 0,1 94.0,28.0 H97.0 A15.0,15.0 0 0,1 97.0,58.0 z" stroke="none" fill-opacity="0.498039215686" fill="#000000"/>
<rect x="182.0" y="9.0" width="79.0" height="28.0" stroke="none" fill-opacity="0.498039215686" fill="#000000"/>
<rect x="187.0" y="43.0" width="69.0" height="28.0" stroke="none" fill-opacity="0.498039215686" fill="#000000"/>
<rect x="187.0" y="77.0" width="54.0" height="28.0" stroke="none" fill-opacity="0.498039215686" fill="#000000"/>
<rect x="61.0" y="111.0" width="54.0" height="28.0" stroke="none" fill-opacity="0.498039215686" fill="#000000"/>
<rect x="61.0" y="145.0" width="52.0" height="28.0" stroke="none" fill-opacity="0.498039215686" fill="#000000"/>
<rect x="61.0" y="179.0" width="71.0" height="28.0" stroke="none" fill-opacity="0.498039215686" fill="#000000"/>
<rect x="61.0" y="213.0" width="74.0" height="28.0" stroke="none" fill-opacity="0.498039215686" fill="#000000"/>
<rect x="61.0" y="247.0" width="56.0" height="28.0" stroke="none" fill-opacity="0.498039215686" fill="#000000"/>
<circle cx="9" cy="19.0" r="3" stroke="#000000" stroke-width="2" fill="#FFFFFF"/>
<line x1="91.0" y1="19.0" x2="92.0" y2="19.0" stroke="#000000" stroke-width="2" />
<path d="M91.0,55.0 A15.0,15.0 0 0,1 91.0,25.0 H94.0 A15.0,15.0 0 0,1 94.0,55.0 z" stroke="#000000" stroke-width="2" fill="#B3E5FC"/>
<text class="token_font" x="92.5" y="46.5">`</text>
<line x1="47.0" y1="19.0" x2="87.0" y2="19.0" stroke="#000000" stroke-width="2" marker-end="url(#arrow)" />
<line x1="92.0" y1="19.0" x2="139.0" y2="19.0" stroke="#000000" stroke-width="2" />
<path d="M56.0,28.0 A9.0,9.0 0 0,0 47.0,19.0" stroke="#000000" stroke-width="2" fill="none"/>
<line x1="65.0" y1="39.0" x2="71.0" y2="39.0" stroke="#000000" stroke-width="2" marker-end="url(#arrow)" />
<line x1="110.0" y1="39.0" x2="116.0" y2="39.0" stroke="#000000" stroke-width="2" marker-end="url(#arrow)" />
<path d="M56.0,30.0 A9.0,9.0 0 0,0 65.0,39.0" stroke="#000000" stroke-width="2" fill="none"/>
<path d="M120.0,39.0 A9.0,9.0 0 0,0 129.0,30.0" stroke="#000000" stroke-width="2" fill="none"/>
<path d="M138.0,19.0 A9.0,9.0 0 0,0 129.0,28.0" stroke="#000000" stroke-width="2" fill="none"/>
<line x1="56.0" y1="30.0" x2="56.0" y2="28.0" stroke="#000000" stroke-width="2" />
<line x1="129.0" y1="30.0" x2="129.0" y2="28.0" stroke="#000000" stroke-width="2" />
<rect x="179.0" y="6.0" width="79.0" height="28.0" stroke="#000000" stroke-width="2" fill="#90A4AE"/>
<text class="box_font" x="218.5" y="26.5">construct</text>
<rect x="184.0" y="40.0" width="69.0" height="28.0" stroke="#000000" stroke-width="2" fill="#90A4AE"/>
<text class="box_font" x="218.5" y="60.5">scanner</text>
<rect x="184.0" y="74.0" width="54.0" height="28.0" stroke="#000000" stroke-width="2" fill="#90A4AE"/>
<text class="box_font" x="211.0" y="94.5">series</text>
<line x1="155.0" y1="19.0" x2="174.0" y2="19.0" stroke="#000000" stroke-width="2" marker-end="url(#arrow)" />
<line x1="259.0" y1="19.0" x2="283.0" y2="19.0" stroke="#000000" stroke-width="2" />
<path d="M164.0,28.0 A9.0,9.0 0 0,0 155.0,19.0" stroke="#000000" stroke-width="2" fill="none"/>
<line x1="173.0" y1="53.0" x2="179.0" y2="53.0" stroke="#000000" stroke-width="2" marker-end="url(#arrow)" />
<line x1="254.0" y1="53.0" x2="260.0" y2="53.0" stroke="#000000" stroke-width="2" marker-end="url(#arrow)" />
<path d="M164.0,44.0 A9.0,9.0 0 0,0 173.0,53.0" stroke="#000000" stroke-width="2" fill="none"/>
<path d="M264.0,53.0 A9.0,9.0 0 0,0 273.0,44.0" stroke="#000000" stroke-width="2" fill="none"/>
<line x1="173.0" y1="87.0" x2="179.0" y2="87.0" stroke="#000000" stroke-width="2" marker-end="url(#arrow)" />
<line x1="239.0" y1="87.0" x2="260.0" y2="87.0" stroke="#000000" stroke-width="2" marker-end="url(#arrow)" />
<path d="M164.0,78.0 A9.0,9.0 0 0,0 173.0,87.0" stroke="#000000" stroke-width="2" fill="none"/>
<path d="M264.0,87.0 A9.0,9.0 0 0,0 273.0,78.0" stroke="#000000" stroke-width="2" fill="none"/>
<path d="M282.0,19.0 A9.0,9.0 0 0,0 273.0,28.0" stroke="#000000" stroke-width="2" fill="none"/>
<line x1="164.0" y1="78.0" x2="164.0" y2="28.0" stroke="#000000" stroke-width="2" />
<line x1="273.0" y1="78.0" x2="273.0" y2="28.0" stroke="#000000" stroke-width="2" />
<line x1="137.0" y1="19.0" x2="151.0" y2="19.0" stroke="#000000" stroke-width="2" marker-end="url(#arrow)" />
<rect x="58.0" y="108.0" width="54.0" height="28.0" stroke="#000000" stroke-width="2" fill="#90A4AE"/>
<text class="box_font" x="85.0" y="128.5">string</text>
<rect x="58.0" y="142.0" width="52.0" height="28.0" stroke="#000000" stroke-width="2" fill="#90A4AE"/>
<text class="box_font" x="84.0" y="162.5">regex</text>
<rect x="58.0" y="176.0" width="71.0" height="28.0" stroke="#000000" stroke-width="2" fill="#90A4AE"/>
<text class="box_font" x="93.5" y="196.5">numeric</text>
<rect x="58.0" y="210.0" width="74.0" height="28.0" stroke="#000000" stroke-width="2" fill="#90A4AE"/>
<text class="box_font" x="95.0" y="230.5">template</text>
<rect x="58.0" y="244.0" width="56.0" height="28.0" stroke="#000000" stroke-width="2" fill="#90A4AE"/>
<text class="box_font" x="86.0" y="264.5">portal</text>
<line x1="29" y1="19.0" x2="43.0" y2="19.0" stroke="#000000" stroke-width="2" marker-end="url(#arrow)" />
<line x1="282.0" y1="19.0" x2="304.0" y2="19.0" stroke="#000000" stroke-width="2" />
<path d="M38.0,28.0 A9,9 0 0,0 29.0,19.0" stroke="#000000" stroke-width="2" fill="none"/>
<line x1="47" y1="121.0" x2="53.0" y2="121.0" stroke="#000000" stroke-width="2" marker-end="url(#arrow)" />
<line x1="113.0" y1="121.0" x2="281.0" y2="121.0" stroke="#000000" stroke-width="2" marker-end="url(#arrow)" />
<path d="M38.0,112.0 A9,9 0 0,0 47.0,121.0" stroke="#000000" stroke-width="2" fill="none"/>
<path d="M285.0,121.0 A9.0,9.0 0 0,0 294.0,112.0" stroke="#000000" stroke-width="2" fill="none"/>
<line x1="47" y1="155.0" x2="53.0" y2="155.0" stroke="#000000" stroke-width="2" marker-end="url(#arrow)" />
<line x1="111.0" y1="155.0" x2="281.0" y2="155.0" stroke="#000000" stroke-width="2" marker-end="url(#arrow)" />
<path d="M38.0,146.0 A9,9 0 0,0 47.0,155.0" stroke="#000000" stroke-width="2" fill="none"/>
<path d="M285.0,155.0 A9.0,9.0 0 0,0 294.0,146.0" stroke="#000000" stroke-width="2" fill="none"/>
<line x1="47" y1="189.0" x2="53.0" y2="189.0" stroke="#000000" stroke-width="2" marker-end="url(#arrow)" />
<line x1="130.0" y1="189.0" x2="281.0" y2="189.0" stroke="#000000" stroke-width="2" marker-end="url(#arrow)" />
<path d="M38.0,180.0 A9,9 0 0,0 47.0,189.0" stroke="#000000" stroke-width="2" fill="none"/>
<path d="M285.0,189.0 A9.0,9.0 0 0,0 294.0,180.0" stroke="#000000" stroke-width="2" fill="none"/>
<line x1="47" y1="223.0" x2="53.0" y2="223.0" stroke="#000000" stroke-width="2" marker-end="url(#arrow)" />
<line x1="133.0" y1="223.0" x2="281.0" y2="223.0" stroke="#000000" stroke-width="2" marker-end="url(#arrow)" />
<path d="M38.0,214.0 A9,9 0 0,0 47.0,223.0" stroke="#000000" stroke-width="2" fill="none"/>
<path d="M285.0,223.0 A9.0,9.0 0 0,0 294.0,214.0" stroke="#000000" stroke-width="2" fill="none"/>
<line x1="47" y1="257.0" x2="53.0" y2="257.0" stroke="#000000" stroke-width="2" marker-end="url(#arrow)" />
<line x1="115.0" y1="257.0" x2="281.0" y2="257.0" stroke="#000000" stroke-width="2" marker-end="url(#arrow)" />
<path d="M38.0,248.0 A9,9 0 0,0 47.0,257.0" stroke="#000000" stroke-width="2" fill="none"/>
<path d="M285.0,257.0 A9.0,9.0 0 0,0 294.0,248.0" stroke="#000000" stroke-width="2" fill="none"/>
<path d="M303.0,19.0 A9.0,9.0 0 0,0 294.0,28.0" stroke="#000000" stroke-width="2" fill="none"/>
<line x1="38" y1="248.0" x2="38" y2="28.0" stroke="#000000" stroke-width="2" />
<line x1="294.0" y1="248.0" x2="294.0" y2="28.0" stroke="#000000" stroke-width="2" />
<line x1="11" y1="19.0" x2="25.0" y2="19.0" stroke="#000000" stroke-width="2" marker-end="url(#arrow)" />
<circle cx="323.0" cy="19.0" r="3.0" stroke="#000000" stroke-width="2" fill="#FFFFFF"/>
<line x1="302.0" y1="19.0" x2="316.0" y2="19.0" stroke="#000000" stroke-width="2" marker-end="url(#arrow)" />
</svg>