<?xml version="1.0" encoding="UTF-8" standalone="no"?>
<!-- Created by Syntax-Trax http://kevinpt.github.io/syntax-trax -->
<svg xmlns="http://www.w3.org/2000/svg"
xmlns:xlink="http://www.w3.org/1999/xlink"
xml:space="preserve"
width="210" height="484" version="1.1">
<style type="text/css">
<![CDATA[
.box_font {fill:#000000; text-anchor:middle;
    font-family:Times; font-size:14pt; font-weight:normal; font-style:italic;}
.charclass_font {fill:#000000; text-anchor:middle;
    font-family:Sans; font-size:16pt; font-weight:bold; font-style:normal;}
.title_font {fill:#000000; text-anchor:middle;
    font-family:Sans; font-size:18pt; font-weight:normal; font-style:italic;}
.bubble_font {fill:#000000; text-anchor:middle;
    font-family:Sans; font-size:14pt; font-weight:bold; font-style:normal;}
.token_font {fill:#000000; text-anchor:middle;
    font-family:Sans; font-size:16pt; font-weight:bold; font-style:normal;}
.label {fill:#000;
  text-anchor:middle;
  font-size:16pt; font-weight:bold; font-family:Sans;}
.link {fill: #0D47A1;}
.link:hover {fill: #0D47A1; text-decoration:underline;}
.link:visited {fill: #4A148C;}
]]>
</style>
<defs>
  <marker id="arrow" markerWidth="5" markerHeight="4" refX="2.5" refY="2" orient="auto" markerUnits="strokeWidth">
    <path d="M0,0 L0.5,2 L0,4 L4.5,2 z" fill="#000000" />
  </marker>
</defs>
<rect width="100%" height="100%" fill="white"/><rect x="61.0" y="45.0" width="79.0" height="28.0" stroke="none" fill-opacity="0.498039215686" fill="#000000"/>
<rect x="61.0" y="79.0" width="48.0" height="28.0" stroke="none" fill-opacity="0.498039215686" fill="#000000"/>
<rect x="61.0" y="113.0" width="52.0" height="28.0" stroke="none" fill-opacity="0.498039215686" fill="#000000"/>
<rect x="61.0" y="147.0" width="80.0" height="28.0" stroke="none" fill-opacity="0.498039215686" fill="#000000"/>
<rect x="61.0" y="181.0" width="54.0" height="28.0" stroke="none" fill-opacity="0.498039215686" fill="#000000"/>
<rect x="61.0" y="215.0" width="52.0" height="28.0" stroke="none" fill-opacity="0.498039215686" fill="#000000"/>
<rect x="61.0" y="249.0" width="67.0" height="28.0" stroke="none" fill-opacity="0.498039215686" fill="#000000"/>
<rect x="61.0" y="283.0" width="74.0" height="28.0" stroke="none" fill-opacity="0.498039215686" fill="#000000"/>
<rect x="61.0" y="317.0" width="44.0" height="28.0" stroke="none" fill-opacity="0.498039215686" fill="#000000"/>
<rect x="61.0" y="351.0" width="56.0" height="28.0" stroke="none" fill-opacity="0.498039215686" fill="#000000"/>
<rect x="61.0" y="385.0" width="94.0" height="28.0" stroke="none" fill-opacity="0.498039215686" fill="#000000"/>
<rect x="61.0" y="419.0" width="94.0" height="28.0" stroke="none" fill-opacity="0.498039215686" fill="#000000"/>
<rect x="61.0" y="453.0" width="82.0" height="28.0" stroke="none" fill-opacity="0.498039215686" fill="#000000"/>
<circle cx="9" cy="55.0" r="3" stroke="#000000" stroke-width="2" fill="#FFFFFF"/>
<rect x="58.0" y="42.0" width="79.0" height="28.0" stroke="#000000" stroke-width="2" fill="#90A4AE"/>
<text class="box_font" x="97.5" y="62.5">construct</text>
<rect x="58.0" y="76.0" width="48.0" height="28.0" stroke="#000000" stroke-width="2" fill="#90A4AE"/>
<text class="box_font" x="82.0" y="96.5">visor</text>
<rect x="58.0" y="110.0" width="52.0" height="28.0" stroke="#000000" stroke-width="2" fill="#90A4AE"/>
<text class="box_font" x="84.0" y="130.5">chain</text>
<rect x="58.0" y="144.0" width="80.0" height="28.0" stroke="#000000" stroke-width="2" fill="#90A4AE"/>
<text class="box_font" x="98.0" y="164.5">reference</text>
<rect x="58.0" y="178.0" width="54.0" height="28.0" stroke="#000000" stroke-width="2" fill="#90A4AE"/>
<text class="box_font" x="85.0" y="198.5">string</text>
<rect x="58.0" y="212.0" width="52.0" height="28.0" stroke="#000000" stroke-width="2" fill="#90A4AE"/>
<text class="box_font" x="84.0" y="232.5">regex</text>
<rect x="58.0" y="246.0" width="67.0" height="28.0" stroke="#000000" stroke-width="2" fill="#90A4AE"/>
<text class="box_font" x="91.5" y="266.5">number</text>
<rect x="58.0" y="280.0" width="74.0" height="28.0" stroke="#000000" stroke-width="2" fill="#90A4AE"/>
<text class="box_font" x="95.0" y="300.5">template</text>
<rect x="58.0" y="314.0" width="44.0" height="28.0" stroke="#000000" stroke-width="2" fill="#90A4AE"/>
<text class="box_font" x="80.0" y="334.5">field</text>
<rect x="58.0" y="348.0" width="56.0" height="28.0" stroke="#000000" stroke-width="2" fill="#90A4AE"/>
<text class="box_font" x="86.0" y="368.5">portal</text>
<rect x="58.0" y="382.0" width="94.0" height="28.0" stroke="#000000" stroke-width="2" fill="#90A4AE"/>
<text class="box_font" x="105.0" y="402.5">conditional</text>
<rect x="58.0" y="416.0" width="94.0" height="28.0" stroke="#000000" stroke-width="2" fill="#90A4AE"/>
<text class="box_font" x="105.0" y="436.5">association</text>
<rect x="58.0" y="450.0" width="82.0" height="28.0" stroke="#000000" stroke-width="2" fill="#90A4AE"/>
<text class="box_font" x="99.0" y="470.5">operation</text>
<line x1="29" y1="55.0" x2="53.0" y2="55.0" stroke="#000000" stroke-width="2" marker-end="url(#arrow)" />
<line x1="138.0" y1="55.0" x2="182.0" y2="55.0" stroke="#000000" stroke-width="2" />
<path d="M38.0,64.0 A9,9 0 0,0 29.0,55.0" stroke="#000000" stroke-width="2" fill="none"/>
<line x1="47" y1="89.0" x2="53.0" y2="89.0" stroke="#000000" stroke-width="2" marker-end="url(#arrow)" />
<line x1="107.0" y1="89.0" x2="159.0" y2="89.0" stroke="#000000" stroke-width="2" marker-end="url(#arrow)" />
<path d="M38.0,80.0 A9,9 0 0,0 47.0,89.0" stroke="#000000" stroke-width="2" fill="none"/>
<path d="M163.0,89.0 A9.0,9.0 0 0,0 172.0,80.0" stroke="#000000" stroke-width="2" fill="none"/>
<line x1="47" y1="123.0" x2="53.0" y2="123.0" stroke="#000000" stroke-width="2" marker-end="url(#arrow)" />
<line x1="111.0" y1="123.0" x2="159.0" y2="123.0" stroke="#000000" stroke-width="2" marker-end="url(#arrow)" />
<path d="M38.0,114.0 A9,9 0 0,0 47.0,123.0" stroke="#000000" stroke-width="2" fill="none"/>
<path d="M163.0,123.0 A9.0,9.0 0 0,0 172.0,114.0" stroke="#000000" stroke-width="2" fill="none"/>
<line x1="47" y1="157.0" x2="53.0" y2="157.0" stroke="#000000" stroke-width="2" marker-end="url(#arrow)" />
<line x1="139.0" y1="157.0" x2="159.0" y2="157.0" stroke="#000000" stroke-width="2" marker-end="url(#arrow)" />
<path d="M38.0,148.0 A9,9 0 0,0 47.0,157.0" stroke="#000000" stroke-width="2" fill="none"/>
<path d="M163.0,157.0 A9.0,9.0 0 0,0 172.0,148.0" stroke="#000000" stroke-width="2" fill="none"/>
<line x1="47" y1="191.0" x2="53.0" y2="191.0" stroke="#000000" stroke-width="2" marker-end="url(#arrow)" />
<line x1="113.0" y1="191.0" x2="159.0" y2="191.0" stroke="#000000" stroke-width="2" marker-end="url(#arrow)" />
<path d="M38.0,182.0 A9,9 0 0,0 47.0,191.0" stroke="#000000" stroke-width="2" fill="none"/>
<path d="M163.0,191.0 A9.0,9.0 0 0,0 172.0,182.0" stroke="#000000" stroke-width="2" fill="none"/>
<line x1="47" y1="225.0" x2="53.0" y2="225.0" stroke="#000000" stroke-width="2" marker-end="url(#arrow)" />
<line x1="111.0" y1="225.0" x2="159.0" y2="225.0" stroke="#000000" stroke-width="2" marker-end="url(#arrow)" />
<path d="M38.0,216.0 A9,9 0 0,0 47.0,225.0" stroke="#000000" stroke-width="2" fill="none"/>
<path d="M163.0,225.0 A9.0,9.0 0 0,0 172.0,216.0" stroke="#000000" stroke-width="2" fill="none"/>
<line x1="47" y1="259.0" x2="53.0" y2="259.0" stroke="#000000" stroke-width="2" marker-end="url(#arrow)" />
<line x1="126.0" y1="259.0" x2="159.0" y2="259.0" stroke="#000000" stroke-width="2" marker-end="url(#arrow)" />
<path d="M38.0,250.0 A9,9 0 0,0 47.0,259.0" stroke="#000000" stroke-width="2" fill="none"/>
<path d="M163.0,259.0 A9.0,9.0 0 0,0 172.0,250.0" stroke="#000000" stroke-width="2" fill="none"/>
<line x1="47" y1="293.0" x2="53.0" y2="293.0" stroke="#000000" stroke-width="2" marker-end="url(#arrow)" />
<line x1="133.0" y1="293.0" x2="159.0" y2="293.0" stroke="#000000" stroke-width="2" marker-end="url(#arrow)" />
<path d="M38.0,284.0 A9,9 0 0,0 47.0,293.0" stroke="#000000" stroke-width="2" fill="none"/>
<path d="M163.0,293.0 A9.0,9.0 0 0,0 172.0,284.0" stroke="#000000" stroke-width="2" fill="none"/>
<line x1="47" y1="327.0" x2="53.0" y2="327.0" stroke="#000000" stroke-width="2" marker-end="url(#arrow)" />
<line x1="103.0" y1="327.0" x2="159.0" y2="327.0" stroke="#000000" stroke-width="2" marker-end="url(#arrow)" />
<path d="M38.0,318.0 A9,9 0 0,0 47.0,327.0" stroke="#000000" stroke-width="2" fill="none"/>
<path d="M163.0,327.0 A9.0,9.0 0 0,0 172.0,318.0" stroke="#000000" stroke-width="2" fill="none"/>
<line x1="47" y1="361.0" x2="53.0" y2="361.0" stroke="#000000" stroke-width="2" marker-end="url(#arrow)" />
<line x1="115.0" y1="361.0" x2="159.0" y2="361.0" stroke="#000000" stroke-width="2" marker-end="url(#arrow)" />
<path d="M38.0,352.0 A9,9 0 0,0 47.0,361.0" stroke="#000000" stroke-width="2" fill="none"/>
<path d="M163.0,361.0 A9.0,9.0 0 0,0 172.0,352.0" stroke="#000000" stroke-width="2" fill="none"/>
<line x1="47" y1="395.0" x2="53.0" y2="395.0" stroke="#000000" stroke-width="2" marker-end="url(#arrow)" />
<line x1="153.0" y1="395.0" x2="159.0" y2="395.0" stroke="#000000" stroke-width="2" marker-end="url(#arrow)" />
<path d="M38.0,386.0 A9,9 0 0,0 47.0,395.0" stroke="#000000" stroke-width="2" fill="none"/>
<path d="M163.0,395.0 A9.0,9.0 0 0,0 172.0,386.0" stroke="#000000" stroke-width="2" fill="none"/>
<line x1="47" y1="429.0" x2="53.0" y2="429.0" stroke="#000000" stroke-width="2" marker-end="url(#arrow)" />
<line x1="153.0" y1="429.0" x2="159.0" y2="429.0" stroke="#000000" stroke-width="2" marker-end="url(#arrow)" />
<path d="M38.0,420.0 A9,9 0 0,0 47.0,429.0" stroke="#000000" stroke-width="2" fill="none"/>
<path d="M163.0,429.0 A9.0,9.0 0 0,0 172.0,420.0" stroke="#000000" stroke-width="2" fill="none"/>
<line x1="47" y1="463.0" x2="53.0" y2="463.0" stroke="#000000" stroke-width="2" marker-end="url(#arrow)" />
<line x1="141.0" y1="463.0" x2="159.0" y2="463.0" stroke="#000000" stroke-width="2" marker-end="url(#arrow)" />
<path d="M38.0,454.0 A9,9 0 0,0 47.0,463.0" stroke="#000000" stroke-width="2" fill="none"/>
<path d="M163.0,463.0 A9.0,9.0 0 0,0 172.0,454.0" stroke="#000000" stroke-width="2" fill="none"/>
<path d="M181.0,55.0 A9.0,9.0 0 0,0 172.0,64.0" stroke="#000000" stroke-width="2" fill="none"/>
<line x1="38" y1="454.0" x2="38" y2="64.0" stroke="#000000" stroke-width="2" />
<line x1="172.0" y1="454.0" x2="172.0" y2="64.0" stroke="#000000" stroke-width="2" />
<line x1="11" y1="55.0" x2="25.0" y2="55.0" stroke="#000000" stroke-width="2" marker-end="url(#arrow)" />
<circle cx="201.0" cy="55.0" r="3.0" stroke="#000000" stroke-width="2" fill="#FFFFFF"/>
<line x1="180.0" y1="55.0" x2="194.0" y2="55.0" stroke="#000000" stroke-width="2" marker-end="url(#arrow)" />
<text class="title_font" x="104.0" y="24.0">value</text>
</svg>