<?xml version="1.0" encoding="UTF-8" standalone="no"?>
<!-- Created by Syntax-Trax http://kevinpt.github.io/syntax-trax -->
<svg xmlns="http://www.w3.org/2000/svg"
xmlns:xlink="http://www.w3.org/1999/xlink"
xml:space="preserve"
width="222" height="511" version="1.1">
<style type="text/css">
<![CDATA[
.negative_font {fill:#000000; text-anchor:middle;
    font-family:Times; font-size:14pt; font-weight:normal; font-style:italic;}
.token_font {fill:#000000; text-anchor:middle;
    font-family:Sans; font-size:16pt; font-weight:bold; font-style:normal;}
.non-terminal_font {fill:#000000; text-anchor:middle;
    font-family:Times; font-size:14pt; font-weight:normal; font-style:italic;}
.hash_font {fill:#000000; text-anchor:middle;
    font-family:Times; font-size:14pt; font-weight:normal; font-style:italic;}
.charclass_font {fill:#000000; text-anchor:middle;
    font-family:Sans; font-size:16pt; font-weight:bold; font-style:normal;}
.title_font {fill:#000000; text-anchor:middle;
    font-family:Sans; font-size:18pt; font-weight:normal; font-style:italic;}
.definitive_font {fill:#000000; text-anchor:middle;
    font-family:Times; font-size:14pt; font-weight:normal; font-style:italic;}
.space_font {fill:#000000; text-anchor:middle;
    font-family:Sans; font-size:10pt; font-weight:normal; font-style:normal;}
.label {fill:#000;
  text-anchor:middle;
  font-size:16pt; font-weight:bold; font-family:Sans;}
.link {fill: #0D47A1;}
.link:hover {fill: #0D47A1; text-decoration:underline;}
.link:visited {fill: #4A148C;}
]]>
</style>
<defs>
  <marker id="arrow" markerWidth="5" markerHeight="4" refX="2.5" refY="2" orient="auto" markerUnits="strokeWidth">
    <path d="M0,0 L0.5,2 L0,4 L4.5,2 z" fill="#323232" />
  </marker>
</defs>
<rect width="100%" height="100%" fill="white"/><circle cx="14.0" cy="66.0" r="3.0" stroke-width="2" stroke="#323232" fill="#623C47"/>
<rect x="64.0" y="52.0" width="79.0" height="30.0" stroke-width="2" stroke="#323232" fill="#FAFAFA"/>
<text class="non-terminal_font" x="103.5" y="74.0">construct</text>
<rect x="64.0" y="90.0" width="48.0" height="30.0" stroke-width="2" stroke="#323232" fill="#FAFAFA"/>
<text class="non-terminal_font" x="88.0" y="112.0">visor</text>
<rect x="64.0" y="128.0" width="51.0" height="30.0" stroke-width="2" stroke="#323232" fill="#FAFAFA"/>
<text class="non-terminal_font" x="89.5" y="150.0">chain</text>
<rect x="64.0" y="166.0" width="77.0" height="30.0" stroke-width="2" stroke="#323232" fill="#FAFAFA"/>
<text class="non-terminal_font" x="102.5" y="188.0">reference</text>
<rect x="64.0" y="204.0" width="54.0" height="30.0" stroke-width="2" stroke="#323232" fill="#FAFAFA"/>
<text class="non-terminal_font" x="91.0" y="226.0">string</text>
<rect x="64.0" y="242.0" width="50.0" height="30.0" stroke-width="2" stroke="#323232" fill="#FAFAFA"/>
<text class="non-terminal_font" x="89.0" y="264.0">regex</text>
<rect x="64.0" y="280.0" width="67.0" height="30.0" stroke-width="2" stroke="#323232" fill="#FAFAFA"/>
<text class="non-terminal_font" x="97.5" y="302.0">number</text>
<rect x="64.0" y="318.0" width="74.0" height="30.0" stroke-width="2" stroke="#323232" fill="#FAFAFA"/>
<text class="non-terminal_font" x="101.0" y="340.0">template</text>
<rect x="64.0" y="356.0" width="43.0" height="30.0" stroke-width="2" stroke="#323232" fill="#FAFAFA"/>
<text class="non-terminal_font" x="85.5" y="378.0">field</text>
<rect x="64.0" y="394.0" width="94.0" height="30.0" stroke-width="2" stroke="#323232" fill="#FAFAFA"/>
<text class="non-terminal_font" x="111.0" y="416.0">conditional</text>
<rect x="64.0" y="432.0" width="94.0" height="30.0" stroke-width="2" stroke="#323232" fill="#FAFAFA"/>
<text class="non-terminal_font" x="111.0" y="454.0">association</text>
<rect x="64.0" y="470.0" width="82.0" height="30.0" stroke-width="2" stroke="#323232" fill="#FAFAFA"/>
<text class="non-terminal_font" x="105.0" y="492.0">operation</text>
<line x1="29.0" y1="66.0" x2="59.0" y2="66.0" stroke-width="2" stroke="#323232" marker-end="url(#arrow)" />
<line x1="144.0" y1="66.0" x2="194.0" y2="66.0" stroke-width="2" stroke="#323232" />
<path d="M41.0,78.0 A12.0,12.0 0 0,0 29.0,66.0" stroke-width="2" stroke="#323232" fill="none"/>
<line x1="53.0" y1="104.0" x2="59.0" y2="104.0" stroke-width="2" stroke="#323232" marker-end="url(#arrow)" />
<line x1="113.0" y1="104.0" x2="165.0" y2="104.0" stroke-width="2" stroke="#323232" marker-end="url(#arrow)" />
<path d="M41.0,92.0 A12.0,12.0 0 0,0 53.0,104.0" stroke-width="2" stroke="#323232" fill="none"/>
<path d="M169.0,104.0 A12.0,12.0 0 0,0 181.0,92.0" stroke-width="2" stroke="#323232" fill="none"/>
<line x1="53.0" y1="142.0" x2="59.0" y2="142.0" stroke-width="2" stroke="#323232" marker-end="url(#arrow)" />
<line x1="116.0" y1="142.0" x2="165.0" y2="142.0" stroke-width="2" stroke="#323232" marker-end="url(#arrow)" />
<path d="M41.0,130.0 A12.0,12.0 0 0,0 53.0,142.0" stroke-width="2" stroke="#323232" fill="none"/>
<path d="M169.0,142.0 A12.0,12.0 0 0,0 181.0,130.0" stroke-width="2" stroke="#323232" fill="none"/>
<line x1="53.0" y1="180.0" x2="59.0" y2="180.0" stroke-width="2" stroke="#323232" marker-end="url(#arrow)" />
<line x1="142.0" y1="180.0" x2="165.0" y2="180.0" stroke-width="2" stroke="#323232" marker-end="url(#arrow)" />
<path d="M41.0,168.0 A12.0,12.0 0 0,0 53.0,180.0" stroke-width="2" stroke="#323232" fill="none"/>
<path d="M169.0,180.0 A12.0,12.0 0 0,0 181.0,168.0" stroke-width="2" stroke="#323232" fill="none"/>
<line x1="53.0" y1="218.0" x2="59.0" y2="218.0" stroke-width="2" stroke="#323232" marker-end="url(#arrow)" />
<line x1="119.0" y1="218.0" x2="165.0" y2="218.0" stroke-width="2" stroke="#323232" marker-end="url(#arrow)" />
<path d="M41.0,206.0 A12.0,12.0 0 0,0 53.0,218.0" stroke-width="2" stroke="#323232" fill="none"/>
<path d="M169.0,218.0 A12.0,12.0 0 0,0 181.0,206.0" stroke-width="2" stroke="#323232" fill="none"/>
<line x1="53.0" y1="256.0" x2="59.0" y2="256.0" stroke-width="2" stroke="#323232" marker-end="url(#arrow)" />
<line x1="115.0" y1="256.0" x2="165.0" y2="256.0" stroke-width="2" stroke="#323232" marker-end="url(#arrow)" />
<path d="M41.0,244.0 A12.0,12.0 0 0,0 53.0,256.0" stroke-width="2" stroke="#323232" fill="none"/>
<path d="M169.0,256.0 A12.0,12.0 0 0,0 181.0,244.0" stroke-width="2" stroke="#323232" fill="none"/>
<line x1="53.0" y1="294.0" x2="59.0" y2="294.0" stroke-width="2" stroke="#323232" marker-end="url(#arrow)" />
<line x1="132.0" y1="294.0" x2="165.0" y2="294.0" stroke-width="2" stroke="#323232" marker-end="url(#arrow)" />
<path d="M41.0,282.0 A12.0,12.0 0 0,0 53.0,294.0" stroke-width="2" stroke="#323232" fill="none"/>
<path d="M169.0,294.0 A12.0,12.0 0 0,0 181.0,282.0" stroke-width="2" stroke="#323232" fill="none"/>
<line x1="53.0" y1="332.0" x2="59.0" y2="332.0" stroke-width="2" stroke="#323232" marker-end="url(#arrow)" />
<line x1="139.0" y1="332.0" x2="165.0" y2="332.0" stroke-width="2" stroke="#323232" marker-end="url(#arrow)" />
<path d="M41.0,320.0 A12.0,12.0 0 0,0 53.0,332.0" stroke-width="2" stroke="#323232" fill="none"/>
<path d="M169.0,332.0 A12.0,12.0 0 0,0 181.0,320.0" stroke-width="2" stroke="#323232" fill="none"/>
<line x1="53.0" y1="370.0" x2="59.0" y2="370.0" stroke-width="2" stroke="#323232" marker-end="url(#arrow)" />
<line x1="108.0" y1="370.0" x2="165.0" y2="370.0" stroke-width="2" stroke="#323232" marker-end="url(#arrow)" />
<path d="M41.0,358.0 A12.0,12.0 0 0,0 53.0,370.0" stroke-width="2" stroke="#323232" fill="none"/>
<path d="M169.0,370.0 A12.0,12.0 0 0,0 181.0,358.0" stroke-width="2" stroke="#323232" fill="none"/>
<line x1="53.0" y1="408.0" x2="59.0" y2="408.0" stroke-width="2" stroke="#323232" marker-end="url(#arrow)" />
<line x1="159.0" y1="408.0" x2="165.0" y2="408.0" stroke-width="2" stroke="#323232" marker-end="url(#arrow)" />
<path d="M41.0,396.0 A12.0,12.0 0 0,0 53.0,408.0" stroke-width="2" stroke="#323232" fill="none"/>
<path d="M169.0,408.0 A12.0,12.0 0 0,0 181.0,396.0" stroke-width="2" stroke="#323232" fill="none"/>
<line x1="53.0" y1="446.0" x2="59.0" y2="446.0" stroke-width="2" stroke="#323232" marker-end="url(#arrow)" />
<line x1="159.0" y1="446.0" x2="165.0" y2="446.0" stroke-width="2" stroke="#323232" marker-end="url(#arrow)" />
<path d="M41.0,434.0 A12.0,12.0 0 0,0 53.0,446.0" stroke-width="2" stroke="#323232" fill="none"/>
<path d="M169.0,446.0 A12.0,12.0 0 0,0 181.0,434.0" stroke-width="2" stroke="#323232" fill="none"/>
<line x1="53.0" y1="484.0" x2="59.0" y2="484.0" stroke-width="2" stroke="#323232" marker-end="url(#arrow)" />
<line x1="147.0" y1="484.0" x2="165.0" y2="484.0" stroke-width="2" stroke="#323232" marker-end="url(#arrow)" />
<path d="M41.0,472.0 A12.0,12.0 0 0,0 53.0,484.0" stroke-width="2" stroke="#323232" fill="none"/>
<path d="M169.0,484.0 A12.0,12.0 0 0,0 181.0,472.0" stroke-width="2" stroke="#323232" fill="none"/>
<path d="M193.0,66.0 A12.0,12.0 0 0,0 181.0,78.0" stroke-width="2" stroke="#323232" fill="none"/>
<line x1="41.0" y1="472.0" x2="41.0" y2="78.0" stroke-width="2" stroke="#323232" />
<line x1="181.0" y1="472.0" x2="181.0" y2="78.0" stroke-width="2" stroke="#323232" />
<line x1="16.0" y1="66.0" x2="25.0" y2="66.0" stroke-width="2" stroke="#323232" marker-end="url(#arrow)" />
<circle cx="208.0" cy="66.0" r="3.0" stroke-width="2" stroke="#323232" fill="#623C47"/>
<line x1="192.0" y1="66.0" x2="201.0" y2="66.0" stroke-width="2" stroke="#323232" marker-end="url(#arrow)" />
<text class="title_font" x="110.0" y="29.0">value</text>
</svg>