<?xml version="1.0" encoding="UTF-8" standalone="no"?>
<!-- Created by Syntax-Trax http://kevinpt.github.io/syntax-trax -->
<svg xmlns="http://www.w3.org/2000/svg"
xmlns:xlink="http://www.w3.org/1999/xlink"
xml:space="preserve"
width="575" height="96" version="1.1">
<style type="text/css">
<![CDATA[
.box_font {fill:#000000; text-anchor:middle;
    font-family:Times; font-size:14pt; font-weight:normal; font-style:italic;}
.charclass_font {fill:#000000; text-anchor:middle;
    font-family:Sans; font-size:16pt; font-weight:bold; font-style:normal;}
.title_font {fill:#000000; text-anchor:middle;
    font-family:Sans; font-size:18pt; font-weight:normal; font-style:italic;}
.bubble_font {fill:#000000; text-anchor:middle;
    font-family:Sans; font-size:14pt; font-weight:bold; font-style:normal;}
.token_font {fill:#000000; text-anchor:middle;
    font-family:Sans; font-size:16pt; font-weight:bold; font-style:normal;}
.label {fill:#000;
  text-anchor:middle;
  font-size:16pt; font-weight:bold; font-family:Sans;}
.link {fill: #0D47A1;}
.link:hover {fill: #0D47A1; text-decoration:underline;}
.link:visited {fill: #4A148C;}
]]>
</style>
<defs>
  <marker id="arrow" markerWidth="5" markerHeight="4" refX="2.5" refY="2" orient="auto" markerUnits="strokeWidth">
    <path d="M0,0 L0.5,2 L0,4 L4.5,2 z" fill="#000000" />
  </marker>
</defs>
<rect width="100%" height="100%" fill="white"/><path d="M48.0,75.0 A15.0,15.0 0 0,1 48.0,45.0 H58.0 A15.0,15.0 0 0,1 58.0,75.0 z" stroke="none" fill-opacity="0.498039215686" fill="#000000"/>
<rect x="120.0" y="65.0" width="79.0" height="28.0" stroke="none" fill-opacity="0.498039215686" fill="#000000"/>
<rect x="263.0" y="46.0" width="51.0" height="28.0" stroke="none" fill-opacity="0.498039215686" fill="#000000"/>
<rect x="370.0" y="65.0" width="91.0" height="28.0" stroke="none" fill-opacity="0.498039215686" fill="#000000"/>
<path d="M523.0,75.0 A15.0,15.0 0 0,1 523.0,45.0 H533.0 A15.0,15.0 0 0,1 533.0,75.0 z" stroke="none" fill-opacity="0.498039215686" fill="#000000"/>
<circle cx="9" cy="56.0" r="3" stroke="#000000" stroke-width="2" fill="#FFFFFF"/>
<path d="M45.0,72.0 A15.0,15.0 0 0,1 45.0,42.0 H55.0 A15.0,15.0 0 0,1 55.0,72.0 z" stroke="#000000" stroke-width="2" fill="#B3E5FC"/>
<text class="token_font" x="50.0" y="63.5">&lt;</text>
<line x1="155.0" y1="56.0" x2="156.0" y2="56.0" stroke="#000000" stroke-width="2" />
<rect x="117.0" y="62.0" width="79.0" height="28.0" stroke="#000000" stroke-width="2" fill="#90A4AE"/>
<text class="box_font" x="156.5" y="82.5">left_wing</text>
<line x1="88.0" y1="56.0" x2="151.0" y2="56.0" stroke="#000000" stroke-width="2" marker-end="url(#arrow)" />
<line x1="156.0" y1="56.0" x2="226.0" y2="56.0" stroke="#000000" stroke-width="2" />
<path d="M97.0,65.0 A9.0,9.0 0 0,0 88.0,56.0" stroke="#000000" stroke-width="2" fill="none"/>
<line x1="106.0" y1="75.0" x2="112.0" y2="75.0" stroke="#000000" stroke-width="2" marker-end="url(#arrow)" />
<line x1="197.0" y1="75.0" x2="203.0" y2="75.0" stroke="#000000" stroke-width="2" marker-end="url(#arrow)" />
<path d="M97.0,66.0 A9.0,9.0 0 0,0 106.0,75.0" stroke="#000000" stroke-width="2" fill="none"/>
<path d="M207.0,75.0 A9.0,9.0 0 0,0 216.0,66.0" stroke="#000000" stroke-width="2" fill="none"/>
<path d="M225.0,56.0 A9.0,9.0 0 0,0 216.0,65.0" stroke="#000000" stroke-width="2" fill="none"/>
<line x1="97.0" y1="66.0" x2="97.0" y2="65.0" stroke="#000000" stroke-width="2" />
<line x1="216.0" y1="66.0" x2="216.0" y2="65.0" stroke="#000000" stroke-width="2" />
<line x1="70.0" y1="56.0" x2="84.0" y2="56.0" stroke="#000000" stroke-width="2" marker-end="url(#arrow)" />
<rect x="260.0" y="43.0" width="51.0" height="28.0" stroke="#000000" stroke-width="2" fill="#90A4AE"/>
<text class="box_font" x="285.5" y="63.5">value</text>
<line x1="284.0" y1="77.0" x2="285.0" y2="77.0" stroke="#000000" stroke-width="2" />
<line x1="259.0" y1="77.0" x2="284.0" y2="77.0" stroke="#000000" stroke-width="2" />
<line x1="312.0" y1="77.0" x2="289.0" y2="77.0" stroke="#000000" stroke-width="2" marker-end="url(#arrow)" />
<line x1="242.0" y1="56.0" x2="259.0" y2="56.0" stroke="#000000" stroke-width="2" />
<path d="M259.0,56.0 A10.5,10.5 0 0,0 259.0,77.0" stroke="#000000" stroke-width="2" fill="none"/>
<path d="M312.0,77.0 A10.5,10.5 0 0,0 312.0,56.0" stroke="#000000" stroke-width="2" fill="none"/>
<line x1="312.0" y1="56.0" x2="321.0" y2="56.0" stroke="#000000" stroke-width="2" />
<line x1="224.0" y1="56.0" x2="238.0" y2="56.0" stroke="#000000" stroke-width="2" marker-end="url(#arrow)" />
<line x1="411.0" y1="56.0" x2="412.0" y2="56.0" stroke="#000000" stroke-width="2" />
<rect x="367.0" y="62.0" width="91.0" height="28.0" stroke="#000000" stroke-width="2" fill="#90A4AE"/>
<text class="box_font" x="412.5" y="82.5">right_wing</text>
<line x1="338.0" y1="56.0" x2="407.0" y2="56.0" stroke="#000000" stroke-width="2" marker-end="url(#arrow)" />
<line x1="412.0" y1="56.0" x2="488.0" y2="56.0" stroke="#000000" stroke-width="2" />
<path d="M347.0,65.0 A9.0,9.0 0 0,0 338.0,56.0" stroke="#000000" stroke-width="2" fill="none"/>
<line x1="356.0" y1="75.0" x2="362.0" y2="75.0" stroke="#000000" stroke-width="2" marker-end="url(#arrow)" />
<line x1="459.0" y1="75.0" x2="465.0" y2="75.0" stroke="#000000" stroke-width="2" marker-end="url(#arrow)" />
<path d="M347.0,66.0 A9.0,9.0 0 0,0 356.0,75.0" stroke="#000000" stroke-width="2" fill="none"/>
<path d="M469.0,75.0 A9.0,9.0 0 0,0 478.0,66.0" stroke="#000000" stroke-width="2" fill="none"/>
<path d="M487.0,56.0 A9.0,9.0 0 0,0 478.0,65.0" stroke="#000000" stroke-width="2" fill="none"/>
<line x1="347.0" y1="66.0" x2="347.0" y2="65.0" stroke="#000000" stroke-width="2" />
<line x1="478.0" y1="66.0" x2="478.0" y2="65.0" stroke="#000000" stroke-width="2" />
<line x1="320.0" y1="56.0" x2="334.0" y2="56.0" stroke="#000000" stroke-width="2" marker-end="url(#arrow)" />
<path d="M520.0,72.0 A15.0,15.0 0 0,1 520.0,42.0 H530.0 A15.0,15.0 0 0,1 530.0,72.0 z" stroke="#000000" stroke-width="2" fill="#B3E5FC"/>
<text class="token_font" x="525.0" y="63.5">&gt;</text>
<line x1="486.0" y1="56.0" x2="500.0" y2="56.0" stroke="#000000" stroke-width="2" marker-end="url(#arrow)" />
<line x1="11" y1="56.0" x2="25.0" y2="56.0" stroke="#000000" stroke-width="2" marker-end="url(#arrow)" />
<circle cx="566.0" cy="56.0" r="3.0" stroke="#000000" stroke-width="2" fill="#FFFFFF"/>
<line x1="545.0" y1="56.0" x2="559.0" y2="56.0" stroke="#000000" stroke-width="2" marker-end="url(#arrow)" />
<text class="title_font" x="286.5" y="24.0">visor</text>
</svg>