<?xml version="1.0" encoding="UTF-8" standalone="no"?>
<!-- Created by Syntax-Trax http://kevinpt.github.io/syntax-trax -->
<svg xmlns="http://www.w3.org/2000/svg"
xmlns:xlink="http://www.w3.org/1999/xlink"
xml:space="preserve"
width="655" height="103" version="1.1">
<style type="text/css">
<![CDATA[
.box_font {fill:#000000; text-anchor:middle;
    font-family:Times; font-size:14pt; font-weight:normal; font-style:italic;}
.title_font {fill:#000000; text-anchor:middle;
    font-family:Sans; font-size:22pt; font-weight:bold; font-style:normal;}
.bubble_font {fill:#000000; text-anchor:middle;
    font-family:Sans; font-size:14pt; font-weight:bold; font-style:normal;}
.token_font {fill:#000000; text-anchor:middle;
    font-family:Sans; font-size:16pt; font-weight:bold; font-style:normal;}
.label {fill:#000;
  text-anchor:middle;
  font-size:16pt; font-weight:bold; font-family:Sans;}
.link {fill: #0D47A1;}
.link:hover {fill: #0D47A1; text-decoration:underline;}
.link:visited {fill: #4A148C;}
]]>
</style>
<defs>
  <marker id="arrow" markerWidth="5" markerHeight="4" refX="2.5" refY="2" orient="auto" markerUnits="strokeWidth">
    <path d="M0,0 L0.5,2 L0,4 L4.5,2 z" fill="#000000" />
  </marker>
</defs>
<rect width="100%" height="100%" fill="white"/><path d="M48.0,39.0 A15.0,15.0 0 0,1 48.0,9.0 H55.0 A15.0,15.0 0 0,1 55.0,39.0 z" stroke="none" fill-opacity="0.498039215686" fill="#000000"/>
<rect x="134.0" y="30.0" width="26.0" height="28.0" stroke="none" fill-opacity="0.498039215686" fill="#000000"/>
<path d="M194.0,59.0 A15.0,15.0 0 0,1 194.0,29.0 H204.0 A15.0,15.0 0 0,1 204.0,59.0 z" stroke="none" fill-opacity="0.498039215686" fill="#000000"/>
<rect x="266.0" y="10.0" width="69.0" height="28.0" stroke="none" fill-opacity="0.498039215686" fill="#000000"/>
<circle cx="369.0" cy="24.0" r="15.0" stroke="none" fill-opacity="0.498039215686" fill="#000000"/>
<rect x="403.0" y="10.0" width="51.0" height="28.0" stroke="none" fill-opacity="0.498039215686" fill="#000000"/>
<path d="M516.0,59.0 A15.0,15.0 0 0,1 516.0,29.0 H520.0 A15.0,15.0 0 0,1 520.0,59.0 z" stroke="none" fill-opacity="0.498039215686" fill="#000000"/>
<circle cx="334.5" cy="85.0" r="15.0" stroke="none" fill-opacity="0.498039215686" fill="#000000"/>
<path d="M606.0,39.0 A15.0,15.0 0 0,1 606.0,9.0 H613.0 A15.0,15.0 0 0,1 613.0,39.0 z" stroke="none" fill-opacity="0.498039215686" fill="#000000"/>
<circle cx="9" cy="20.0" r="3" stroke="#000000" stroke-width="2" fill="#FFFFFF"/>
<path d="M45.0,36.0 A15.0,15.0 0 0,1 45.0,6.0 H52.0 A15.0,15.0 0 0,1 52.0,36.0 z" stroke="#000000" stroke-width="2" fill="#B3E5FC"/>
<text class="token_font" x="48.5" y="27.5">{</text>
<line x1="172.0" y1="20.0" x2="173.0" y2="20.0" stroke="#000000" stroke-width="2" />
<rect x="131.0" y="27.0" width="26.0" height="28.0" stroke="#000000" stroke-width="2" fill="#90A4AE"/>
<text class="box_font" x="144.0" y="47.5">id</text>
<path d="M191.0,56.0 A15.0,15.0 0 0,1 191.0,26.0 H201.0 A15.0,15.0 0 0,1 201.0,56.0 z" stroke="#000000" stroke-width="2" fill="#B3E5FC"/>
<text class="token_font" x="196.0" y="47.5">=</text>
<line x1="157.0" y1="40.0" x2="171.0" y2="40.0" stroke="#000000" stroke-width="2" marker-end="url(#arrow)" />
<line x1="102.0" y1="20.0" x2="168.0" y2="20.0" stroke="#000000" stroke-width="2" marker-end="url(#arrow)" />
<line x1="173.0" y1="20.0" x2="246.0" y2="20.0" stroke="#000000" stroke-width="2" />
<path d="M111.0,29.0 A9.0,9.0 0 0,0 102.0,20.0" stroke="#000000" stroke-width="2" fill="none"/>
<line x1="120.0" y1="40.0" x2="126.0" y2="40.0" stroke="#000000" stroke-width="2" marker-end="url(#arrow)" />
<line x1="217.0" y1="40.0" x2="223.0" y2="40.0" stroke="#000000" stroke-width="2" marker-end="url(#arrow)" />
<path d="M111.0,31.0 A9.0,9.0 0 0,0 120.0,40.0" stroke="#000000" stroke-width="2" fill="none"/>
<path d="M227.0,40.0 A9.0,9.0 0 0,0 236.0,31.0" stroke="#000000" stroke-width="2" fill="none"/>
<path d="M245.0,20.0 A9.0,9.0 0 0,0 236.0,29.0" stroke="#000000" stroke-width="2" fill="none"/>
<line x1="111.0" y1="31.0" x2="111.0" y2="29.0" stroke="#000000" stroke-width="2" />
<line x1="236.0" y1="31.0" x2="236.0" y2="29.0" stroke="#000000" stroke-width="2" />
<rect x="263.0" y="7.0" width="69.0" height="28.0" stroke="#000000" stroke-width="2" fill="#90A4AE"/>
<text class="box_font" x="297.5" y="27.5">selector</text>
<line x1="244.0" y1="20.0" x2="258.0" y2="20.0" stroke="#000000" stroke-width="2" marker-end="url(#arrow)" />
<circle cx="366.0" cy="21.0" r="15.0" stroke="#000000" stroke-width="2" fill="#B3E5FC"/>
<text class="token_font" x="366.0" y="27.5">:</text>
<line x1="332.0" y1="20.0" x2="346.0" y2="20.0" stroke="#000000" stroke-width="2" marker-end="url(#arrow)" />
<rect x="400.0" y="7.0" width="51.0" height="28.0" stroke="#000000" stroke-width="2" fill="#90A4AE"/>
<a xlink:href="#value" target="_parent">
  <text class="box_font link" x="425.5" y="27.5">value</text></a>
<line x1="381.0" y1="20.0" x2="395.0" y2="20.0" stroke="#000000" stroke-width="2" marker-end="url(#arrow)" />
<line x1="513.5" y1="20.0" x2="514.5" y2="20.0" stroke="#000000" stroke-width="2" />
<path d="M513.0,56.0 A15.0,15.0 0 0,1 513.0,26.0 H517.0 A15.0,15.0 0 0,1 517.0,56.0 z" stroke="#000000" stroke-width="2" fill="#B3E5FC"/>
<text class="token_font" x="515.0" y="47.5">?</text>
<line x1="469.0" y1="20.0" x2="509.5" y2="20.0" stroke="#000000" stroke-width="2" marker-end="url(#arrow)" />
<line x1="514.5" y1="20.0" x2="562.0" y2="20.0" stroke="#000000" stroke-width="2" />
<path d="M478.0,29.0 A9.0,9.0 0 0,0 469.0,20.0" stroke="#000000" stroke-width="2" fill="none"/>
<line x1="487.0" y1="40.0" x2="493.0" y2="40.0" stroke="#000000" stroke-width="2" marker-end="url(#arrow)" />
<line x1="533.0" y1="40.0" x2="539.0" y2="40.0" stroke="#000000" stroke-width="2" marker-end="url(#arrow)" />
<path d="M478.0,31.0 A9.0,9.0 0 0,0 487.0,40.0" stroke="#000000" stroke-width="2" fill="none"/>
<path d="M543.0,40.0 A9.0,9.0 0 0,0 552.0,31.0" stroke="#000000" stroke-width="2" fill="none"/>
<path d="M561.0,20.0 A9.0,9.0 0 0,0 552.0,29.0" stroke="#000000" stroke-width="2" fill="none"/>
<line x1="478.0" y1="31.0" x2="478.0" y2="29.0" stroke="#000000" stroke-width="2" />
<line x1="552.0" y1="31.0" x2="552.0" y2="29.0" stroke="#000000" stroke-width="2" />
<line x1="451.0" y1="20.0" x2="465.0" y2="20.0" stroke="#000000" stroke-width="2" marker-end="url(#arrow)" />
<circle cx="331.5" cy="82.0" r="15.0" stroke="#000000" stroke-width="2" fill="#B3E5FC"/>
<text class="token_font" x="331.5" y="88.5">;</text>
<line x1="102.0" y1="81.0" x2="315.5" y2="81.0" stroke="#000000" stroke-width="2" />
<line x1="561.0" y1="81.0" x2="351.5" y2="81.0" stroke="#000000" stroke-width="2" marker-end="url(#arrow)" />
<line x1="85.0" y1="20.0" x2="102.0" y2="20.0" stroke="#000000" stroke-width="2" />
<path d="M102.0,20.0 A9.0,9.0 0 0,0 93.0,29.0" stroke="#000000" stroke-width="2" fill="none"/>
<line x1="93.0" y1="72.0" x2="93.0" y2="54.5" stroke="#000000" stroke-width="2" marker-end="url(#arrow)" />
<line x1="93.0" y1="50.5" x2="93.0" y2="29.0" stroke="#000000" stroke-width="2" />
<path d="M93.0,72.0 A9.0,9.0 0 0,0 102.0,81.0" stroke="#000000" stroke-width="2" fill="none"/>
<path d="M570.0,29.0 A9.0,9.0 0 0,0 561.0,20.0" stroke="#000000" stroke-width="2" fill="none"/>
<line x1="570.0" y1="29.0" x2="570.0" y2="46.5" stroke="#000000" stroke-width="2" marker-end="url(#arrow)" />
<line x1="570.0" y1="50.5" x2="570.0" y2="72.0" stroke="#000000" stroke-width="2" />
<path d="M561.0,81.0 A9.0,9.0 0 0,0 570.0,72.0" stroke="#000000" stroke-width="2" fill="none"/>
<line x1="561.0" y1="20.0" x2="570.0" y2="20.0" stroke="#000000" stroke-width="2" />
<line x1="67.0" y1="20.0" x2="81.0" y2="20.0" stroke="#000000" stroke-width="2" marker-end="url(#arrow)" />
<path d="M603.0,36.0 A15.0,15.0 0 0,1 603.0,6.0 H610.0 A15.0,15.0 0 0,1 610.0,36.0 z" stroke="#000000" stroke-width="2" fill="#B3E5FC"/>
<text class="token_font" x="606.5" y="27.5">}</text>
<line x1="569.0" y1="20.0" x2="583.0" y2="20.0" stroke="#000000" stroke-width="2" marker-end="url(#arrow)" />
<line x1="11" y1="20.0" x2="25.0" y2="20.0" stroke="#000000" stroke-width="2" marker-end="url(#arrow)" />
<circle cx="646.0" cy="20.0" r="3.0" stroke="#000000" stroke-width="2" fill="#FFFFFF"/>
<line x1="625.0" y1="20.0" x2="639.0" y2="20.0" stroke="#000000" stroke-width="2" marker-end="url(#arrow)" />
</svg>