<?xml version="1.0" encoding="UTF-8" standalone="no"?>
<!-- Created by Syntax-Trax http://kevinpt.github.io/syntax-trax -->
<svg xmlns="http://www.w3.org/2000/svg"
xmlns:xlink="http://www.w3.org/1999/xlink"
xml:space="preserve"
width="574" height="116" version="1.1">
<style type="text/css">
<![CDATA[
.hash_font {fill:#321432; text-anchor:middle;
    font-family:Times; font-size:14pt; font-weight:normal; font-style:italic;}
.definitive_font {fill:#321432; text-anchor:middle;
    font-family:Times; font-size:14pt; font-weight:normal; font-style:italic;}
.title_font {fill:#321432; text-anchor:middle;
    font-family:Sans; font-size:18pt; font-weight:normal; font-style:italic;}
.non-terminal_font {fill:#321432; text-anchor:middle;
    font-family:Times; font-size:14pt; font-weight:normal; font-style:italic;}
.negative_font {fill:#321432; text-anchor:middle;
    font-family:Times; font-size:14pt; font-weight:normal; font-style:italic;}
.charclass_font {fill:#321432; text-anchor:middle;
    font-family:Sans; font-size:16pt; font-weight:bold; font-style:normal;}
.space_font {fill:#321432; text-anchor:middle;
    font-family:Sans; font-size:3pt; font-weight:normal; font-style:normal;}
.token_font {fill:#321432; text-anchor:middle;
    font-family:Sans; font-size:16pt; font-weight:bold; font-style:normal;}
.label {fill:#000;
  text-anchor:middle;
  font-size:16pt; font-weight:bold; font-family:Sans;}
.link {fill: #0D47A1;}
.link:hover {fill: #0D47A1; text-decoration:underline;}
.link:visited {fill: #4A148C;}
]]>
</style>
<defs>
  <marker id="arrow" markerWidth="5" markerHeight="4" refX="2.5" refY="2" orient="auto" markerUnits="strokeWidth">
    <path d="M0,0 L0.5,2 L0,4 L4.5,2 z" fill="#323232" />
  </marker>
</defs>
<rect width="100%" height="100%" fill="white"/><circle cx="14" cy="66.0" r="3" stroke="#323232" stroke-width="2" fill="#623C47"/>
<path d="M45.0,82.0 A15.0,15.0 0 0,1 45.0,52.0 H55.0 A15.0,15.0 0 0,1 55.0,82.0 z" stroke="#323232" stroke-width="2" fill="#DCDCDC"/>
<text class="token_font" x="50.0" y="73.5">&lt;</text>
<line x1="156.0" y1="66.0" x2="157.0" y2="66.0" stroke="#323232" stroke-width="2" />
<rect x="118.0" y="77.0" width="79.0" height="28.0" stroke="#323232" stroke-width="2" fill="#FAFAFA"/>
<text class="non-terminal_font" x="157.5" y="97.5">left_wing</text>
<line x1="83.0" y1="66.0" x2="152.0" y2="66.0" stroke="#323232" stroke-width="2" marker-end="url(#arrow)" />
<line x1="157.0" y1="66.0" x2="233.0" y2="66.0" stroke="#323232" stroke-width="2" />
<path d="M95.0,78.0 A12.0,12.0 0 0,0 83.0,66.0" stroke="#323232" stroke-width="2" fill="none"/>
<line x1="107.0" y1="90.0" x2="113.0" y2="90.0" stroke="#323232" stroke-width="2" marker-end="url(#arrow)" />
<line x1="198.0" y1="90.0" x2="204.0" y2="90.0" stroke="#323232" stroke-width="2" marker-end="url(#arrow)" />
<path d="M95.0,78.0 A12.0,12.0 0 0,0 107.0,90.0" stroke="#323232" stroke-width="2" fill="none"/>
<path d="M208.0,90.0 A12.0,12.0 0 0,0 220.0,78.0" stroke="#323232" stroke-width="2" fill="none"/>
<path d="M232.0,66.0 A12.0,12.0 0 0,0 220.0,78.0" stroke="#323232" stroke-width="2" fill="none"/>
<line x1="95.0" y1="78.0" x2="95.0" y2="78.0" stroke="#323232" stroke-width="2" />
<line x1="220.0" y1="78.0" x2="220.0" y2="78.0" stroke="#323232" stroke-width="2" />
<line x1="70.0" y1="66.0" x2="79.0" y2="66.0" stroke="#323232" stroke-width="2" marker-end="url(#arrow)" />
<rect x="257.0" y="53.0" width="51.0" height="28.0" stroke="#323232" stroke-width="2" fill="#C8C8FA"/>
<text class="negative_font" x="282.5" y="73.5">value</text>
<line x1="281.0" y1="89.0" x2="282.0" y2="89.0" stroke="#323232" stroke-width="2" />
<line x1="256.0" y1="89.0" x2="281.0" y2="89.0" stroke="#323232" stroke-width="2" />
<line x1="309.0" y1="89.0" x2="286.0" y2="89.0" stroke="#323232" stroke-width="2" marker-end="url(#arrow)" />
<line x1="244.0" y1="66.0" x2="256.0" y2="66.0" stroke="#323232" stroke-width="2" />
<path d="M256.0,66.0 A11.5,11.5 0 0,0 256.0,89.0" stroke="#323232" stroke-width="2" fill="none"/>
<path d="M309.0,89.0 A11.5,11.5 0 0,0 309.0,66.0" stroke="#323232" stroke-width="2" fill="none"/>
<line x1="309.0" y1="66.0" x2="318.0" y2="66.0" stroke="#323232" stroke-width="2" />
<line x1="231.0" y1="66.0" x2="240.0" y2="66.0" stroke="#323232" stroke-width="2" marker-end="url(#arrow)" />
<line x1="409.0" y1="66.0" x2="410.0" y2="66.0" stroke="#323232" stroke-width="2" />
<rect x="365.0" y="77.0" width="91.0" height="28.0" stroke="#323232" stroke-width="2" fill="#FAFAFA"/>
<text class="non-terminal_font" x="410.5" y="97.5">right_wing</text>
<line x1="330.0" y1="66.0" x2="405.0" y2="66.0" stroke="#323232" stroke-width="2" marker-end="url(#arrow)" />
<line x1="410.0" y1="66.0" x2="492.0" y2="66.0" stroke="#323232" stroke-width="2" />
<path d="M342.0,78.0 A12.0,12.0 0 0,0 330.0,66.0" stroke="#323232" stroke-width="2" fill="none"/>
<line x1="354.0" y1="90.0" x2="360.0" y2="90.0" stroke="#323232" stroke-width="2" marker-end="url(#arrow)" />
<line x1="457.0" y1="90.0" x2="463.0" y2="90.0" stroke="#323232" stroke-width="2" marker-end="url(#arrow)" />
<path d="M342.0,78.0 A12.0,12.0 0 0,0 354.0,90.0" stroke="#323232" stroke-width="2" fill="none"/>
<path d="M467.0,90.0 A12.0,12.0 0 0,0 479.0,78.0" stroke="#323232" stroke-width="2" fill="none"/>
<path d="M491.0,66.0 A12.0,12.0 0 0,0 479.0,78.0" stroke="#323232" stroke-width="2" fill="none"/>
<line x1="342.0" y1="78.0" x2="342.0" y2="78.0" stroke="#323232" stroke-width="2" />
<line x1="479.0" y1="78.0" x2="479.0" y2="78.0" stroke="#323232" stroke-width="2" />
<line x1="317.0" y1="66.0" x2="326.0" y2="66.0" stroke="#323232" stroke-width="2" marker-end="url(#arrow)" />
<path d="M519.0,82.0 A15.0,15.0 0 0,1 519.0,52.0 H529.0 A15.0,15.0 0 0,1 529.0,82.0 z" stroke="#323232" stroke-width="2" fill="#DCDCDC"/>
<text class="token_font" x="524.0" y="73.5">&gt;</text>
<line x1="490.0" y1="66.0" x2="499.0" y2="66.0" stroke="#323232" stroke-width="2" marker-end="url(#arrow)" />
<line x1="16" y1="66.0" x2="25.0" y2="66.0" stroke="#323232" stroke-width="2" marker-end="url(#arrow)" />
<circle cx="560.0" cy="66.0" r="3.0" stroke="#323232" stroke-width="2" fill="#623C47"/>
<line x1="544.0" y1="66.0" x2="553.0" y2="66.0" stroke="#323232" stroke-width="2" marker-end="url(#arrow)" />
<text class="title_font" x="286.0" y="29.0">visor</text>
</svg>